<?xml version="1.0" encoding="UTF-8" standalone="no"?>
<!DOCTYPE svg PUBLIC "-//W3C//DTD SVG 1.1//EN" "http://www.w3.org/Graphics/SVG/1.1/DTD/svg11.dtd">
<svg width="100%" height="100%" viewBox="0 0 1217 505" version="1.1" xmlns="http://www.w3.org/2000/svg" xmlns:xlink="http://www.w3.org/1999/xlink" xml:space="preserve" xmlns:serif="http://www.serif.com/" style="fill-rule:evenodd;clip-rule:evenodd;stroke-linejoin:round;stroke-miterlimit:2;">
    <g transform="matrix(1,0,0,1,-12166.3,-4536.64)">
        <g id="Artboard6" transform="matrix(5.73101,0,0,1.62687,-48223.3,-1804.91)">
            <rect x="10537.3" y="3898" width="212.272" height="310" style="fill:none;"/>
            <clipPath id="_clip1">
                <rect x="10537.3" y="3898" width="212.272" height="310"/>
            </clipPath>
            <g clip-path="url(#_clip1)">
                <g transform="matrix(0.992233,0,0,1.04034,-7.83523,-169.753)">
                    <g transform="matrix(-0.283099,0,0,0.216695,13689.7,2998.66)">
                        <path d="M10768,4636.82C10768,4581.49 10757.8,4536.64 10745.2,4536.64L10643.8,4536.64C10631.2,4536.64 10621,4581.49 10621,4636.82L10621,4636.82C10621,4692.15 10631.2,4737 10643.8,4737C10671.4,4737 10717.6,4737 10745.2,4737C10757.8,4737 10768,4692.15 10768,4636.82L10768,4636.82Z" style="fill:rgb(50,95,79);"/>
                    </g>
                    <g transform="matrix(-0.283099,0,0,0.139428,13663.9,3324.98)">
                        <path d="M10768,4636.82C10768,4581.49 10761.4,4536.64 10753.3,4536.64C10725.2,4536.64 10663.8,4536.64 10635.7,4536.64C10627.6,4536.64 10621,4581.49 10621,4636.82C10621,4636.82 10621,4636.82 10621,4636.82C10621,4692.15 10627.6,4737 10635.7,4737C10663.8,4737 10725.2,4737 10753.3,4737C10761.4,4737 10768,4692.15 10768,4636.82C10768,4636.82 10768,4636.82 10768,4636.82Z" style="fill:rgb(50,95,79);"/>
                    </g>
                    <g transform="matrix(-0.127581,0,0,0.576097,12012.1,1463.24)">
                        <path d="M10768,4591.33C10768,4576.83 10760.3,4562.92 10746.5,4552.66C10732.7,4542.4 10714,4536.64 10694.5,4536.64L10694.5,4536.64C10675,4536.64 10656.3,4542.4 10642.5,4552.66C10628.7,4562.92 10621,4576.83 10621,4591.33C10621,4619.61 10621,4654.03 10621,4682.31C10621,4696.82 10628.7,4710.73 10642.5,4720.98C10656.3,4731.24 10675,4737 10694.5,4737L10694.5,4737C10714,4737 10732.7,4731.24 10746.5,4720.98C10760.3,4710.73 10768,4696.82 10768,4682.31L10768,4591.33Z" style="fill:rgb(50,95,79);"/>
                    </g>
                    <g transform="matrix(-0.45153,0,0,1.36055,15590.4,-2326.71)">
                        <rect x="10893" y="4634.85" width="19" height="168.15" style="fill:rgb(53,57,17);"/>
                    </g>
                    <g transform="matrix(-0.0879275,0,0,0.63168,11606.3,1174.04)">
                        <rect x="10893" y="4634.85" width="19" height="168.15" style="fill:rgb(53,57,17);"/>
                    </g>
                    <g transform="matrix(-0.0761475,0.14771,0.0844136,0.491235,11089,111.508)">
                        <rect x="10893" y="4634.85" width="19" height="168.15" style="fill:rgb(53,57,17);"/>
                    </g>
                    <g transform="matrix(-0.0879275,-2.23057e-17,-1.11022e-16,0.567229,11618.1,1328.49)">
                        <rect x="10893" y="4634.85" width="19" height="168.15" style="fill:rgb(53,57,17);"/>
                    </g>
                    <g transform="matrix(0.0761475,0.14771,-0.0844136,0.491235,10242.1,166.048)">
                        <rect x="10893" y="4634.85" width="19" height="168.15" style="fill:rgb(53,57,17);"/>
                    </g>
                    <g transform="matrix(-0.0761475,0.14771,0.0256481,0.149256,11354.8,1826.5)">
                        <rect x="10893" y="4634.85" width="19" height="168.15" style="fill:rgb(53,57,17);"/>
                    </g>
                    <g transform="matrix(-0.512788,0,0,0.392508,16151.6,2151.23)">
                        <path d="M10768,4636.82C10768,4610.25 10765.6,4584.77 10761.3,4565.98C10757,4547.2 10751.2,4536.64 10745.2,4536.64L10643.8,4536.64C10637.8,4536.64 10632,4547.2 10627.7,4565.98C10623.4,4584.77 10621,4610.25 10621,4636.82L10621,4636.82C10621,4663.39 10623.4,4688.87 10627.7,4707.66C10632,4726.45 10637.8,4737 10643.8,4737L10745.2,4737C10751.2,4737 10757,4726.45 10761.3,4707.66C10765.6,4688.87 10768,4663.39 10768,4636.82L10768,4636.82Z" style="fill:rgb(50,95,79);"/>
                    </g>
                    <g transform="matrix(-0.30384,0,0,0.139428,13898.9,3309.79)">
                        <path d="M10768,4636.82C10768,4610.25 10766.6,4584.77 10764,4565.98C10761.4,4547.2 10757.9,4536.64 10754.3,4536.64C10726.3,4536.64 10662.7,4536.64 10634.7,4536.64C10631.1,4536.64 10627.6,4547.2 10625,4565.98C10622.4,4584.77 10621,4610.25 10621,4636.82C10621,4636.82 10621,4636.82 10621,4636.82C10621,4663.39 10622.4,4688.87 10625,4707.66C10627.6,4726.45 10631.1,4737 10634.7,4737C10662.7,4737 10726.3,4737 10754.3,4737C10757.9,4737 10761.4,4726.45 10764,4707.66C10766.6,4688.87 10768,4663.39 10768,4636.82C10768,4636.82 10768,4636.82 10768,4636.82Z" style="fill:rgb(85,128,132);"/>
                    </g>
                    <g transform="matrix(-0.399087,0,0,0.290261,14937.4,2639.48)">
                        <path d="M10768,4636.82C10768,4581.49 10758.3,4536.64 10746.3,4536.64C10718.5,4536.64 10670.5,4536.64 10642.7,4536.64C10630.7,4536.64 10621,4581.49 10621,4636.82C10621,4636.82 10621,4636.82 10621,4636.82C10621,4692.15 10630.7,4737 10642.7,4737C10670.5,4737 10718.5,4737 10746.3,4737C10758.3,4737 10768,4692.15 10768,4636.82L10768,4636.82Z" style="fill:rgb(85,128,132);"/>
                    </g>
                    <g transform="matrix(-0.143629,0,0,0.139428,12215.5,3421.62)">
                        <path d="M10768,4636.82C10768,4610.25 10765,4584.77 10759.5,4565.98C10754.1,4547.2 10746.7,4536.64 10739.1,4536.64C10713.3,4536.64 10675.7,4536.64 10649.9,4536.64C10642.3,4536.64 10634.9,4547.2 10629.5,4565.98C10624,4584.77 10621,4610.25 10621,4636.82C10621,4636.82 10621,4636.82 10621,4636.82C10621,4663.39 10624,4688.87 10629.5,4707.66C10634.9,4726.45 10642.3,4737 10649.9,4737C10675.7,4737 10713.3,4737 10739.1,4737C10746.7,4737 10754.1,4726.45 10759.5,4707.66C10765,4688.87 10768,4663.39 10768,4636.82L10768,4636.82Z" style="fill:rgb(85,128,132);"/>
                    </g>
                    <g transform="matrix(-0.0924486,0,0,0.139428,11645.8,3406.39)">
                        <path d="M10768,4636.82C10768,4610.25 10763.3,4584.77 10754.8,4565.98C10746.4,4547.2 10735,4536.64 10723,4536.64C10704.9,4536.64 10684.1,4536.64 10666,4536.64C10654,4536.64 10642.6,4547.2 10634.2,4565.98C10625.7,4584.77 10621,4610.25 10621,4636.82C10621,4636.82 10621,4636.82 10621,4636.82C10621,4663.39 10625.7,4688.87 10634.2,4707.66C10642.6,4726.45 10654,4737 10666,4737C10684.1,4737 10704.9,4737 10723,4737C10735,4737 10746.4,4726.45 10754.8,4707.66C10763.3,4688.87 10768,4663.39 10768,4636.82L10768,4636.82Z" style="fill:rgb(85,128,132);"/>
                    </g>
                    <g transform="matrix(-0.283099,0,0,0.216695,13686.8,2927.12)">
                        <path d="M10768,4636.82C10768,4581.49 10757.8,4536.64 10745.2,4536.64L10643.8,4536.64C10631.2,4536.64 10621,4581.49 10621,4636.82L10621,4636.82C10621,4692.15 10631.2,4737 10643.8,4737L10745.2,4737C10757.8,4737 10768,4692.15 10768,4636.82L10768,4636.82Z" style="fill:rgb(117,155,132);"/>
                    </g>
                    <g transform="matrix(-0.283099,0,0,0.216695,13705.5,3005.76)">
                        <path d="M10768,4636.82C10768,4581.49 10757.8,4536.64 10745.2,4536.64C10717.6,4536.64 10671.4,4536.64 10643.8,4536.64C10631.2,4536.64 10621,4581.49 10621,4636.82L10621,4636.82C10621,4692.15 10631.2,4737 10643.8,4737C10671.4,4737 10717.6,4737 10745.2,4737C10757.8,4737 10768,4692.15 10768,4636.82L10768,4636.82Z" style="fill:rgb(117,155,132);"/>
                    </g>
                    <g transform="matrix(-0.0961564,0,0,0.0736019,11712.3,3717.73)">
                        <path d="M10768,4636.81C10768,4581.49 10757.8,4536.64 10745.2,4536.64C10717.6,4536.64 10671.4,4536.64 10643.8,4536.64C10631.2,4536.64 10621,4581.49 10621,4636.81C10621,4636.82 10621,4636.82 10621,4636.83C10621,4692.15 10631.2,4737 10643.8,4737C10671.4,4737 10717.6,4737 10745.2,4737C10757.8,4737 10768,4692.15 10768,4636.83C10768,4636.82 10768,4636.82 10768,4636.81Z" style="fill:rgb(117,155,132);"/>
                    </g>
                    <g transform="matrix(-0.196966,0,0,0.139428,12741.4,3337.73)">
                        <path d="M10768,4636.82C10768,4610.25 10765.8,4584.77 10761.8,4565.98C10757.9,4547.2 10752.5,4536.64 10746.9,4536.64C10719,4536.64 10670,4536.64 10642.1,4536.64C10636.5,4536.64 10631.1,4547.2 10627.2,4565.98C10623.2,4584.77 10621,4610.25 10621,4636.82C10621,4636.82 10621,4636.82 10621,4636.82C10621,4663.39 10623.2,4688.87 10627.2,4707.66C10631.1,4726.45 10636.5,4737 10642.1,4737C10670,4737 10719,4737 10746.9,4737C10752.5,4737 10757.9,4726.45 10761.8,4707.66C10765.8,4688.87 10768,4663.39 10768,4636.82L10768,4636.82Z" style="fill:rgb(117,155,132);"/>
                    </g>
                    <g transform="matrix(-0.350092,0,0,0.0927391,14428.2,3525.1)">
                        <path d="M10768,4636.82C10768,4581.49 10764.5,4536.64 10760.1,4536.64C10734.6,4536.64 10654.4,4536.64 10628.9,4536.64C10624.5,4536.64 10621,4581.49 10621,4636.82C10621,4636.82 10621,4636.82 10621,4636.82C10621,4692.15 10624.5,4737 10628.9,4737C10654.4,4737 10734.6,4737 10760.1,4737C10764.5,4737 10768,4692.15 10768,4636.82L10768,4636.82Z" style="fill:rgb(117,155,132);"/>
                    </g>
                    <g transform="matrix(0.127581,0,0,0.42865,9313.91,2167.28)">
                        <path d="M10768,4610.14C10768,4590.65 10760.3,4571.95 10746.5,4558.17C10732.7,4544.39 10714,4536.64 10694.5,4536.64L10694.5,4536.64C10675,4536.64 10656.3,4544.39 10642.5,4558.17C10628.7,4571.95 10621,4590.65 10621,4610.14L10621,4663.5C10621,4682.99 10628.7,4701.69 10642.5,4715.47C10656.3,4729.26 10675,4737 10694.5,4737L10694.5,4737C10714,4737 10732.7,4729.26 10746.5,4715.47C10760.3,4701.69 10768,4682.99 10768,4663.5L10768,4610.14Z" style="fill:rgb(85,128,132);"/>
                    </g>
                    <g transform="matrix(0.0879275,0,0,0.447883,9719.7,2056.82)">
                        <rect x="10893" y="4634.85" width="19" height="168.15" style="fill:rgb(53,57,17);"/>
                    </g>
                    <g transform="matrix(0.0761475,0.14771,-0.0256481,0.149256,9971.21,1861.75)">
                        <rect x="10893" y="4634.85" width="19" height="168.15" style="fill:rgb(53,57,17);"/>
                    </g>
                </g>
                <g transform="matrix(0.992233,0,0,1.04034,71.055,-169.753)">
                    <g transform="matrix(-0.283099,0,0,0.216695,13689.7,2998.66)">
                        <path d="M10768,4636.82C10768,4581.49 10757.8,4536.64 10745.2,4536.64C10717.6,4536.64 10671.4,4536.64 10643.8,4536.64C10631.2,4536.64 10621,4581.49 10621,4636.82L10621,4636.82C10621,4692.15 10631.2,4737 10643.8,4737L10745.2,4737C10757.8,4737 10768,4692.15 10768,4636.82L10768,4636.82Z" style="fill:rgb(50,95,79);"/>
                    </g>
                    <g transform="matrix(-0.283099,0,0,0.139428,13663.9,3324.98)">
                        <path d="M10768,4636.82C10768,4581.49 10761.4,4536.64 10753.3,4536.64C10725.2,4536.64 10663.8,4536.64 10635.7,4536.64C10627.6,4536.64 10621,4581.49 10621,4636.82C10621,4636.82 10621,4636.82 10621,4636.82C10621,4692.15 10627.6,4737 10635.7,4737C10663.8,4737 10725.2,4737 10753.3,4737C10761.4,4737 10768,4692.15 10768,4636.82C10768,4636.82 10768,4636.82 10768,4636.82Z" style="fill:rgb(50,95,79);"/>
                    </g>
                    <g transform="matrix(-0.127581,0,0,0.576097,12012.1,1463.24)">
                        <path d="M10768,4591.33C10768,4576.83 10760.3,4562.92 10746.5,4552.66C10732.7,4542.4 10714,4536.64 10694.5,4536.64L10694.5,4536.64C10675,4536.64 10656.3,4542.4 10642.5,4552.66C10628.7,4562.92 10621,4576.83 10621,4591.33C10621,4619.61 10621,4654.03 10621,4682.31C10621,4696.82 10628.7,4710.73 10642.5,4720.98C10656.3,4731.24 10675,4737 10694.5,4737L10694.5,4737C10714,4737 10732.7,4731.24 10746.5,4720.98C10760.3,4710.73 10768,4696.82 10768,4682.31L10768,4591.33Z" style="fill:rgb(50,95,79);"/>
                    </g>
                    <g transform="matrix(-0.45153,0,0,1.36055,15590.4,-2326.71)">
                        <rect x="10893" y="4634.85" width="19" height="168.15" style="fill:rgb(53,57,17);"/>
                    </g>
                    <g transform="matrix(-0.0879275,0,0,0.63168,11606.3,1174.04)">
                        <rect x="10893" y="4634.85" width="19" height="168.15" style="fill:rgb(53,57,17);"/>
                    </g>
                    <g transform="matrix(-0.0761475,0.14771,0.0844136,0.491235,11089,111.508)">
                        <rect x="10893" y="4634.85" width="19" height="168.15" style="fill:rgb(53,57,17);"/>
                    </g>
                    <g transform="matrix(-0.0879275,-2.23057e-17,-1.11022e-16,0.567229,11618.1,1328.49)">
                        <rect x="10893" y="4634.85" width="19" height="168.15" style="fill:rgb(53,57,17);"/>
                    </g>
                    <g transform="matrix(0.0761475,0.14771,-0.0844136,0.491235,10242.1,166.048)">
                        <rect x="10893" y="4634.85" width="19" height="168.15" style="fill:rgb(53,57,17);"/>
                    </g>
                    <g transform="matrix(-0.0761475,0.14771,0.0256481,0.149256,11354.8,1826.5)">
                        <rect x="10893" y="4634.85" width="19" height="168.15" style="fill:rgb(53,57,17);"/>
                    </g>
                    <g transform="matrix(-0.512788,0,0,0.392508,16151.6,2151.23)">
                        <path d="M10768,4636.82C10768,4610.25 10765.6,4584.77 10761.3,4565.98C10757,4547.2 10751.2,4536.64 10745.2,4536.64L10643.8,4536.64C10637.8,4536.64 10632,4547.2 10627.7,4565.98C10623.4,4584.77 10621,4610.25 10621,4636.82L10621,4636.82C10621,4663.39 10623.4,4688.87 10627.7,4707.66C10632,4726.45 10637.8,4737 10643.8,4737L10745.2,4737C10751.2,4737 10757,4726.45 10761.3,4707.66C10765.6,4688.87 10768,4663.39 10768,4636.82L10768,4636.82Z" style="fill:rgb(50,95,79);"/>
                    </g>
                    <g transform="matrix(-0.30384,0,0,0.139428,13898.9,3309.79)">
                        <path d="M10768,4636.82C10768,4610.25 10766.6,4584.77 10764,4565.98C10761.4,4547.2 10757.9,4536.64 10754.3,4536.64C10726.3,4536.64 10662.7,4536.64 10634.7,4536.64C10631.1,4536.64 10627.6,4547.2 10625,4565.98C10622.4,4584.77 10621,4610.25 10621,4636.82C10621,4636.82 10621,4636.82 10621,4636.82C10621,4663.39 10622.4,4688.87 10625,4707.66C10627.6,4726.45 10631.1,4737 10634.7,4737C10662.7,4737 10726.3,4737 10754.3,4737C10757.9,4737 10761.4,4726.45 10764,4707.66C10766.6,4688.87 10768,4663.39 10768,4636.82C10768,4636.82 10768,4636.82 10768,4636.82Z" style="fill:rgb(85,128,132);"/>
                    </g>
                    <g transform="matrix(-0.399087,0,0,0.290261,14940.1,2668.64)">
                        <path d="M10768,4636.82C10768,4581.49 10758.3,4536.64 10746.3,4536.64C10718.5,4536.64 10670.5,4536.64 10642.7,4536.64C10630.7,4536.64 10621,4581.49 10621,4636.82L10621,4636.82C10621,4692.15 10630.7,4737 10642.7,4737L10746.3,4737C10758.3,4737 10768,4692.15 10768,4636.82L10768,4636.82Z" style="fill:rgb(85,128,132);"/>
                    </g>
                    <g transform="matrix(-0.143629,0,0,0.139428,12215.5,3421.62)">
                        <path d="M10768,4636.82C10768,4610.25 10765,4584.77 10759.5,4565.98C10754.1,4547.2 10746.7,4536.64 10739.1,4536.64C10713.3,4536.64 10675.7,4536.64 10649.9,4536.64C10642.3,4536.64 10634.9,4547.2 10629.5,4565.98C10624,4584.77 10621,4610.25 10621,4636.82L10621,4636.82C10621,4663.39 10624,4688.87 10629.5,4707.66C10634.9,4726.45 10642.3,4737 10649.9,4737C10675.7,4737 10713.3,4737 10739.1,4737C10746.7,4737 10754.1,4726.45 10759.5,4707.66C10765,4688.87 10768,4663.39 10768,4636.82C10768,4636.82 10768,4636.82 10768,4636.82Z" style="fill:rgb(85,128,132);"/>
                    </g>
                    <g transform="matrix(-0.0924486,0,0,0.139428,11645.8,3406.39)">
                        <path d="M10768,4636.82C10768,4610.25 10763.3,4584.77 10754.8,4565.98C10746.4,4547.2 10735,4536.64 10723,4536.64C10704.9,4536.64 10684.1,4536.64 10666,4536.64C10654,4536.64 10642.6,4547.2 10634.2,4565.98C10625.7,4584.77 10621,4610.25 10621,4636.82C10621,4636.82 10621,4636.82 10621,4636.82C10621,4663.39 10625.7,4688.87 10634.2,4707.66C10642.6,4726.45 10654,4737 10666,4737C10684.1,4737 10704.9,4737 10723,4737C10735,4737 10746.4,4726.45 10754.8,4707.66C10763.3,4688.87 10768,4663.39 10768,4636.82L10768,4636.82Z" style="fill:rgb(85,128,132);"/>
                    </g>
                    <g transform="matrix(-0.283099,0,0,0.216695,13686.8,2927.12)">
                        <path d="M10768,4636.82C10768,4581.49 10757.8,4536.64 10745.2,4536.64L10643.8,4536.64C10631.2,4536.64 10621,4581.49 10621,4636.82L10621,4636.82C10621,4692.15 10631.2,4737 10643.8,4737C10671.4,4737 10717.6,4737 10745.2,4737C10757.8,4737 10768,4692.15 10768,4636.82C10768,4636.82 10768,4636.82 10768,4636.82Z" style="fill:rgb(117,155,132);"/>
                    </g>
                    <g transform="matrix(-0.283099,0,0,0.216695,13705.5,2996.16)">
                        <path d="M10768,4636.82C10768,4581.49 10757.8,4536.64 10745.2,4536.64C10717.6,4536.64 10671.4,4536.64 10643.8,4536.64C10631.2,4536.64 10621,4581.49 10621,4636.82L10621,4636.82C10621,4692.15 10631.2,4737 10643.8,4737C10671.4,4737 10717.6,4737 10745.2,4737C10757.8,4737 10768,4692.15 10768,4636.82C10768,4636.82 10768,4636.82 10768,4636.82Z" style="fill:rgb(117,155,132);"/>
                    </g>
                    <g transform="matrix(-0.0961564,0,0,0.0736019,11712.3,3717.73)">
                        <path d="M10768,4636.81C10768,4581.49 10757.8,4536.64 10745.2,4536.64C10717.6,4536.64 10671.4,4536.64 10643.8,4536.64C10631.2,4536.64 10621,4581.49 10621,4636.81C10621,4636.82 10621,4636.82 10621,4636.83C10621,4692.15 10631.2,4737 10643.8,4737C10671.4,4737 10717.6,4737 10745.2,4737C10757.8,4737 10768,4692.15 10768,4636.83L10768,4636.81Z" style="fill:rgb(117,155,132);"/>
                    </g>
                    <g transform="matrix(-0.196966,0,0,0.139428,12741.4,3337.73)">
                        <path d="M10768,4636.82C10768,4610.25 10765.8,4584.77 10761.8,4565.98C10757.9,4547.2 10752.5,4536.64 10746.9,4536.64C10719,4536.64 10670,4536.64 10642.1,4536.64C10636.5,4536.64 10631.1,4547.2 10627.2,4565.98C10623.2,4584.77 10621,4610.25 10621,4636.82L10621,4636.82C10621,4663.39 10623.2,4688.87 10627.2,4707.66C10631.1,4726.45 10636.5,4737 10642.1,4737C10670,4737 10719,4737 10746.9,4737C10752.5,4737 10757.9,4726.45 10761.8,4707.66C10765.8,4688.87 10768,4663.39 10768,4636.82L10768,4636.82Z" style="fill:rgb(117,155,132);"/>
                    </g>
                    <g transform="matrix(-0.350092,0,0,0.0927391,14428.2,3525.1)">
                        <path d="M10768,4636.82C10768,4581.49 10764.5,4536.64 10760.1,4536.64C10734.6,4536.64 10654.4,4536.64 10628.9,4536.64C10624.5,4536.64 10621,4581.49 10621,4636.82C10621,4636.82 10621,4636.82 10621,4636.82C10621,4692.15 10624.5,4737 10628.9,4737C10654.4,4737 10734.6,4737 10760.1,4737C10764.5,4737 10768,4692.15 10768,4636.82C10768,4636.82 10768,4636.82 10768,4636.82Z" style="fill:rgb(117,155,132);"/>
                    </g>
                    <g transform="matrix(0.127581,0,0,0.42865,9313.91,2167.28)">
                        <path d="M10768,4610.14C10768,4590.65 10760.3,4571.95 10746.5,4558.17C10732.7,4544.39 10714,4536.64 10694.5,4536.64L10694.5,4536.64C10675,4536.64 10656.3,4544.39 10642.5,4558.17C10628.7,4571.95 10621,4590.65 10621,4610.14C10621,4627.54 10621,4646.1 10621,4663.5C10621,4682.99 10628.7,4701.69 10642.5,4715.47C10656.3,4729.26 10675,4737 10694.5,4737C10694.5,4737 10694.5,4737 10694.5,4737C10714,4737 10732.7,4729.26 10746.5,4715.47C10760.3,4701.69 10768,4682.99 10768,4663.5L10768,4610.14Z" style="fill:rgb(85,128,132);"/>
                    </g>
                    <g transform="matrix(0.0879275,0,0,0.447883,9719.7,2056.82)">
                        <rect x="10893" y="4634.85" width="19" height="168.15" style="fill:rgb(53,57,17);"/>
                    </g>
                    <g transform="matrix(0.0761475,0.14771,-0.0256481,0.149256,9971.21,1861.75)">
                        <rect x="10893" y="4634.85" width="19" height="168.15" style="fill:rgb(53,57,17);"/>
                    </g>
                </g>
                <g transform="matrix(-0.992233,0,0,1.04034,21291.3,-169.928)">
                    <g transform="matrix(-0.283099,0,0,0.216695,13689.7,2998.66)">
                        <path d="M10768,4636.82C10768,4581.49 10757.8,4536.64 10745.2,4536.64C10717.6,4536.64 10671.4,4536.64 10643.8,4536.64C10631.2,4536.64 10621,4581.49 10621,4636.82C10621,4636.82 10621,4636.82 10621,4636.82C10621,4692.15 10631.2,4737 10643.8,4737L10745.2,4737C10757.8,4737 10768,4692.15 10768,4636.82C10768,4636.82 10768,4636.82 10768,4636.82Z" style="fill:rgb(50,95,79);"/>
                    </g>
                    <g transform="matrix(-0.283099,0,0,0.139428,13663.9,3324.98)">
                        <path d="M10768,4636.82C10768,4581.49 10761.4,4536.64 10753.3,4536.64C10725.2,4536.64 10663.8,4536.64 10635.7,4536.64C10627.6,4536.64 10621,4581.49 10621,4636.82C10621,4636.82 10621,4636.82 10621,4636.82C10621,4692.15 10627.6,4737 10635.7,4737C10663.8,4737 10725.2,4737 10753.3,4737C10761.4,4737 10768,4692.15 10768,4636.82C10768,4636.82 10768,4636.82 10768,4636.82Z" style="fill:rgb(50,95,79);"/>
                    </g>
                    <g transform="matrix(-0.127581,0,0,0.576097,12012.1,1463.24)">
                        <path d="M10768,4591.33C10768,4576.83 10760.3,4562.92 10746.5,4552.66C10732.7,4542.4 10714,4536.64 10694.5,4536.64L10694.5,4536.64C10675,4536.64 10656.3,4542.4 10642.5,4552.66C10628.7,4562.92 10621,4576.83 10621,4591.33C10621,4619.61 10621,4654.03 10621,4682.31C10621,4696.82 10628.7,4710.73 10642.5,4720.98C10656.3,4731.24 10675,4737 10694.5,4737L10694.5,4737C10714,4737 10732.7,4731.24 10746.5,4720.98C10760.3,4710.73 10768,4696.82 10768,4682.31L10768,4591.33Z" style="fill:rgb(50,95,79);"/>
                    </g>
                    <g transform="matrix(-0.45153,0,0,1.36055,15590.4,-2326.71)">
                        <rect x="10893" y="4634.85" width="19" height="168.15" style="fill:rgb(53,57,17);"/>
                    </g>
                    <g transform="matrix(-0.0879275,0,0,0.63168,11606.3,1174.04)">
                        <rect x="10893" y="4634.85" width="19" height="168.15" style="fill:rgb(53,57,17);"/>
                    </g>
                    <g transform="matrix(-0.0761475,0.14771,0.0844136,0.491235,11089,111.508)">
                        <rect x="10893" y="4634.85" width="19" height="168.15" style="fill:rgb(53,57,17);"/>
                    </g>
                    <g transform="matrix(-0.0879275,-2.23057e-17,-1.11022e-16,0.567229,11618.1,1328.49)">
                        <rect x="10893" y="4634.85" width="19" height="168.15" style="fill:rgb(53,57,17);"/>
                    </g>
                    <g transform="matrix(0.0761475,0.14771,-0.0844136,0.491235,10242.1,196.915)">
                        <rect x="10893" y="4634.85" width="19" height="168.15" style="fill:rgb(53,57,17);"/>
                    </g>
                    <g transform="matrix(-0.0761475,0.14771,0.0256481,0.149256,11354.8,1826.5)">
                        <rect x="10893" y="4634.85" width="19" height="168.15" style="fill:rgb(53,57,17);"/>
                    </g>
                    <g transform="matrix(-0.512788,0,0,0.392508,16151.6,2151.23)">
                        <path d="M10768,4636.82C10768,4610.25 10765.6,4584.77 10761.3,4565.98C10757,4547.2 10751.2,4536.64 10745.2,4536.64L10643.8,4536.64C10637.8,4536.64 10632,4547.2 10627.7,4565.98C10623.4,4584.77 10621,4610.25 10621,4636.82L10621,4636.82C10621,4663.39 10623.4,4688.87 10627.7,4707.66C10632,4726.45 10637.8,4737 10643.8,4737L10745.2,4737C10751.2,4737 10757,4726.45 10761.3,4707.66C10765.6,4688.87 10768,4663.39 10768,4636.82L10768,4636.82Z" style="fill:rgb(50,95,79);"/>
                    </g>
                    <g transform="matrix(-0.30384,0,0,0.139428,13898.9,3309.79)">
                        <path d="M10768,4636.82C10768,4610.25 10766.6,4584.77 10764,4565.98C10761.4,4547.2 10757.9,4536.64 10754.3,4536.64C10726.3,4536.64 10662.7,4536.64 10634.7,4536.64C10631.1,4536.64 10627.6,4547.2 10625,4565.98C10622.4,4584.77 10621,4610.25 10621,4636.82C10621,4636.82 10621,4636.82 10621,4636.82C10621,4663.39 10622.4,4688.87 10625,4707.66C10627.6,4726.45 10631.1,4737 10634.7,4737C10662.7,4737 10726.3,4737 10754.3,4737C10757.9,4737 10761.4,4726.45 10764,4707.66C10766.6,4688.87 10768,4663.39 10768,4636.82C10768,4636.82 10768,4636.82 10768,4636.82Z" style="fill:rgb(85,128,132);"/>
                    </g>
                    <g transform="matrix(-0.399087,0,0,0.290261,14937.4,2639.48)">
                        <path d="M10768,4636.82C10768,4581.49 10758.3,4536.64 10746.3,4536.64C10718.5,4536.64 10670.5,4536.64 10642.7,4536.64C10630.7,4536.64 10621,4581.49 10621,4636.82L10621,4636.82C10621,4692.15 10630.7,4737 10642.7,4737C10670.5,4737 10718.5,4737 10746.3,4737C10758.3,4737 10768,4692.15 10768,4636.82L10768,4636.82Z" style="fill:rgb(85,128,132);"/>
                    </g>
                    <g transform="matrix(-0.143629,0,0,0.139428,12215.5,3438.51)">
                        <path d="M10768,4636.82C10768,4610.25 10765,4584.77 10759.5,4565.98C10754.1,4547.2 10746.7,4536.64 10739.1,4536.64C10713.3,4536.64 10675.7,4536.64 10649.9,4536.64C10642.3,4536.64 10634.9,4547.2 10629.5,4565.98C10624,4584.77 10621,4610.25 10621,4636.82L10621,4636.82C10621,4663.39 10624,4688.87 10629.5,4707.66C10634.9,4726.45 10642.3,4737 10649.9,4737C10675.7,4737 10713.3,4737 10739.1,4737C10746.7,4737 10754.1,4726.45 10759.5,4707.66C10765,4688.87 10768,4663.39 10768,4636.82L10768,4636.82Z" style="fill:rgb(85,128,132);"/>
                    </g>
                    <g transform="matrix(-0.0924486,0,0,0.139428,11645.8,3406.39)">
                        <path d="M10768,4636.82C10768,4610.25 10763.3,4584.77 10754.8,4565.98C10746.4,4547.2 10735,4536.64 10723,4536.64C10704.9,4536.64 10684.1,4536.64 10666,4536.64C10654,4536.64 10642.6,4547.2 10634.2,4565.98C10625.7,4584.77 10621,4610.25 10621,4636.82C10621,4636.82 10621,4636.82 10621,4636.82C10621,4663.39 10625.7,4688.87 10634.2,4707.66C10642.6,4726.45 10654,4737 10666,4737C10684.1,4737 10704.9,4737 10723,4737C10735,4737 10746.4,4726.45 10754.8,4707.66C10763.3,4688.87 10768,4663.39 10768,4636.82C10768,4636.82 10768,4636.82 10768,4636.82Z" style="fill:rgb(85,128,132);"/>
                    </g>
                    <g transform="matrix(-0.283099,0,0,0.216695,13686.8,2927.12)">
                        <path d="M10768,4636.82C10768,4581.49 10757.8,4536.64 10745.2,4536.64C10717.6,4536.64 10671.4,4536.64 10643.8,4536.64C10631.2,4536.64 10621,4581.49 10621,4636.82L10621,4636.82C10621,4692.15 10631.2,4737 10643.8,4737C10671.4,4737 10717.6,4737 10745.2,4737C10757.8,4737 10768,4692.15 10768,4636.82C10768,4636.82 10768,4636.82 10768,4636.82Z" style="fill:rgb(117,155,132);"/>
                    </g>
                    <g transform="matrix(-0.0961564,0,0,0.0736019,11709.4,3732.56)">
                        <path d="M10768,4636.81C10768,4581.49 10757.8,4536.64 10745.2,4536.64C10717.6,4536.64 10671.4,4536.64 10643.8,4536.64C10631.2,4536.64 10621,4581.49 10621,4636.81C10621,4636.82 10621,4636.82 10621,4636.83C10621,4692.15 10631.2,4737 10643.8,4737C10671.4,4737 10717.6,4737 10745.2,4737C10757.8,4737 10768,4692.15 10768,4636.83L10768,4636.81Z" style="fill:rgb(117,155,132);"/>
                    </g>
                    <g transform="matrix(-0.196966,0,0,0.139428,12741.4,3337.73)">
                        <path d="M10768,4636.82C10768,4610.25 10765.8,4584.77 10761.8,4565.98C10757.9,4547.2 10752.5,4536.64 10746.9,4536.64C10719,4536.64 10670,4536.64 10642.1,4536.64C10636.5,4536.64 10631.1,4547.2 10627.2,4565.98C10623.2,4584.77 10621,4610.25 10621,4636.82C10621,4636.82 10621,4636.82 10621,4636.82C10621,4663.39 10623.2,4688.87 10627.2,4707.66C10631.1,4726.45 10636.5,4737 10642.1,4737C10670,4737 10719,4737 10746.9,4737C10752.5,4737 10757.9,4726.45 10761.8,4707.66C10765.8,4688.87 10768,4663.39 10768,4636.82C10768,4636.82 10768,4636.82 10768,4636.82Z" style="fill:rgb(117,155,132);"/>
                    </g>
                    <g transform="matrix(-0.350092,0,0,0.0927391,14428.2,3541.2)">
                        <path d="M10768,4636.82C10768,4581.49 10764.5,4536.64 10760.1,4536.64C10734.6,4536.64 10654.4,4536.64 10628.9,4536.64C10624.5,4536.64 10621,4581.49 10621,4636.82C10621,4636.82 10621,4636.82 10621,4636.82C10621,4692.15 10624.5,4737 10628.9,4737C10654.4,4737 10734.6,4737 10760.1,4737C10764.5,4737 10768,4692.15 10768,4636.82C10768,4636.82 10768,4636.82 10768,4636.82Z" style="fill:rgb(117,155,132);"/>
                    </g>
                </g>
                <g transform="matrix(0.0863498,-0.175622,0.0498541,0.304186,10349.8,3567.65)">
                    <rect x="1449" y="2004" width="21" height="21" style="fill:white;"/>
                </g>
                <g transform="matrix(0.0863498,-0.175622,0.0498541,0.304186,10348.8,3561.26)">
                    <path d="M1470,2013.96C1470,2011.32 1468.95,2008.78 1467.08,2006.92C1465.22,2005.05 1462.68,2004 1460.05,2004L1458.95,2004C1456.32,2004 1453.78,2005.05 1451.92,2006.92C1450.05,2008.78 1449,2011.32 1449,2013.96C1449,2019.38 1449,2025 1449,2025L1470,2025L1470,2013.96Z" style="fill:rgb(255,232,151);"/>
                </g>
                <g transform="matrix(0.0863498,-0.175622,0.0498541,0.304186,10351.6,3563.96)">
                    <path d="M1470,2013.96C1470,2011.32 1468.95,2008.78 1467.08,2006.92C1465.22,2005.05 1462.68,2004 1460.05,2004C1454.62,2004 1449,2004 1449,2004L1449,2025L1460.05,2025C1462.68,2025 1465.22,2023.95 1467.08,2022.08C1468.95,2020.22 1470,2017.68 1470,2015.05L1470,2013.96Z" style="fill:rgb(255,232,151);"/>
                </g>
                <g transform="matrix(0.0863498,-0.175622,0.0498541,0.304186,10348,3571.34)">
                    <path d="M1470,2004L1458.95,2004C1456.32,2004 1453.78,2005.05 1451.92,2006.92C1450.05,2008.78 1449,2011.32 1449,2013.96L1449,2015.05C1449,2017.68 1450.05,2020.22 1451.92,2022.08C1453.78,2023.95 1456.32,2025 1458.95,2025C1464.38,2025 1470,2025 1470,2025L1470,2004Z" style="fill:rgb(255,232,151);"/>
                </g>
                <g transform="matrix(0.0863498,-0.175622,0.0498541,0.304186,10350.9,3574.04)">
                    <path d="M1470,2004L1449,2004L1449,2015.05C1449,2017.68 1450.05,2020.22 1451.92,2022.08C1453.78,2023.95 1456.32,2025 1458.95,2025L1460.05,2025C1462.68,2025 1465.22,2023.95 1467.08,2022.08C1468.95,2020.22 1470,2017.68 1470,2015.05C1470,2009.62 1470,2004 1470,2004Z" style="fill:rgb(255,232,151);"/>
                </g>
                <g transform="matrix(0.0963107,0.0909085,-0.0258064,0.339275,10475.8,3152.84)">
                    <rect x="1449" y="2004" width="21" height="21" style="fill:white;"/>
                </g>
                <g transform="matrix(0.0963107,0.0909085,-0.0258064,0.339275,10476.4,3145.71)">
                    <path d="M1470,2013.96C1470,2011.32 1468.95,2008.78 1467.08,2006.92C1465.22,2005.05 1462.68,2004 1460.05,2004C1459.68,2004 1459.32,2004 1458.95,2004C1456.32,2004 1453.78,2005.05 1451.92,2006.92C1450.05,2008.78 1449,2011.32 1449,2013.96C1449,2019.38 1449,2025 1449,2025L1470,2025C1470,2025 1470,2019.38 1470,2013.96Z" style="fill:rgb(208,162,255);"/>
                </g>
                <g transform="matrix(0.0963107,0.0909085,-0.0258064,0.339275,10477.9,3154.74)">
                    <path d="M1470,2013.96C1470,2011.32 1468.95,2008.78 1467.08,2006.92C1465.22,2005.05 1462.68,2004 1460.05,2004C1454.62,2004 1449,2004 1449,2004L1449,2025C1449,2025 1454.62,2025 1460.05,2025C1462.68,2025 1465.22,2023.95 1467.08,2022.08C1468.95,2020.22 1470,2017.68 1470,2015.05C1470,2014.68 1470,2014.32 1470,2013.96Z" style="fill:rgb(208,162,255);"/>
                </g>
                <g transform="matrix(0.0963107,0.0909085,-0.0258064,0.339275,10473.8,3150.93)">
                    <path d="M1470,2004C1470,2004 1464.38,2004 1458.95,2004C1456.32,2004 1453.78,2005.05 1451.92,2006.92C1450.05,2008.78 1449,2011.32 1449,2013.96C1449,2014.32 1449,2014.68 1449,2015.05C1449,2017.68 1450.05,2020.22 1451.92,2022.08C1453.78,2023.95 1456.32,2025 1458.95,2025L1470,2025L1470,2004Z" style="fill:rgb(208,162,255);"/>
                </g>
                <g transform="matrix(0.0963107,0.0909085,-0.0258064,0.339275,10475.3,3159.96)">
                    <path d="M1470,2004L1449,2004C1449,2004 1449,2009.62 1449,2015.05C1449,2017.68 1450.05,2020.22 1451.92,2022.08C1453.78,2023.95 1456.32,2025 1458.95,2025L1460.05,2025C1462.68,2025 1465.22,2023.95 1467.08,2022.08C1468.95,2020.22 1470,2017.68 1470,2015.05C1470,2009.62 1470,2004 1470,2004Z" style="fill:rgb(208,162,255);"/>
                </g>
                <g transform="matrix(0.0963107,0.0909085,-0.0258064,0.339275,10502,3187.26)">
                    <rect x="1449" y="2004" width="21" height="21" style="fill:white;"/>
                </g>
                <g transform="matrix(0.0963107,0.0909085,-0.0258064,0.339275,10502.6,3180.13)">
                    <path d="M1470,2013.96C1470,2011.32 1468.95,2008.78 1467.08,2006.92C1465.22,2005.05 1462.68,2004 1460.05,2004L1458.95,2004C1456.32,2004 1453.78,2005.05 1451.92,2006.92C1450.05,2008.78 1449,2011.32 1449,2013.96C1449,2019.38 1449,2025 1449,2025L1470,2025C1470,2025 1470,2019.38 1470,2013.96Z" style="fill:rgb(255,232,151);"/>
                </g>
                <g transform="matrix(0.0963107,0.0909085,-0.0258064,0.339275,10504,3189.17)">
                    <path d="M1470,2013.96C1470,2011.32 1468.95,2008.78 1467.08,2006.92C1465.22,2005.05 1462.68,2004 1460.05,2004L1449,2004L1449,2025L1460.05,2025C1462.68,2025 1465.22,2023.95 1467.08,2022.08C1468.95,2020.22 1470,2017.68 1470,2015.05L1470,2013.96Z" style="fill:rgb(255,232,151);"/>
                </g>
                <g transform="matrix(0.0963107,0.0909085,-0.0258064,0.339275,10500,3185.35)">
                    <path d="M1470,2004C1470,2004 1464.38,2004 1458.95,2004C1456.32,2004 1453.78,2005.05 1451.92,2006.92C1450.05,2008.78 1449,2011.32 1449,2013.96C1449,2014.32 1449,2014.68 1449,2015.05C1449,2017.68 1450.05,2020.22 1451.92,2022.08C1453.78,2023.95 1456.32,2025 1458.95,2025C1464.38,2025 1470,2025 1470,2025L1470,2004Z" style="fill:rgb(255,232,151);"/>
                </g>
                <g transform="matrix(0.0963107,0.0909085,-0.0258064,0.339275,10501.5,3194.38)">
                    <path d="M1470,2004L1449,2004C1449,2004 1449,2009.62 1449,2015.05C1449,2017.68 1450.05,2020.22 1451.92,2022.08C1453.78,2023.95 1456.32,2025 1458.95,2025C1459.32,2025 1459.68,2025 1460.05,2025C1462.68,2025 1465.22,2023.95 1467.08,2022.08C1468.95,2020.22 1470,2017.68 1470,2015.05C1470,2009.62 1470,2004 1470,2004Z" style="fill:rgb(255,232,151);"/>
                </g>
                <g transform="matrix(0.0963107,0.0909085,-0.0258064,0.339275,10537.4,3135.25)">
                    <rect x="1449" y="2004" width="21" height="21" style="fill:white;"/>
                </g>
                <g transform="matrix(0.0963107,0.0909085,-0.0258064,0.339275,10538,3128.12)">
                    <path d="M1470,2013.96C1470,2011.32 1468.95,2008.78 1467.08,2006.92C1465.22,2005.05 1462.68,2004 1460.05,2004C1459.68,2004 1459.32,2004 1458.95,2004C1456.32,2004 1453.78,2005.05 1451.92,2006.92C1450.05,2008.78 1449,2011.32 1449,2013.96C1449,2019.38 1449,2025 1449,2025L1470,2025C1470,2025 1470,2019.38 1470,2013.96Z" style="fill:rgb(255,232,151);"/>
                </g>
                <g transform="matrix(0.0963107,0.0909085,-0.0258064,0.339275,10539.5,3137.16)">
                    <path d="M1470,2013.96C1470,2011.32 1468.95,2008.78 1467.08,2006.92C1465.22,2005.05 1462.68,2004 1460.05,2004C1454.62,2004 1449,2004 1449,2004L1449,2025C1449,2025 1454.62,2025 1460.05,2025C1462.68,2025 1465.22,2023.95 1467.08,2022.08C1468.95,2020.22 1470,2017.68 1470,2015.05C1470,2014.68 1470,2014.32 1470,2013.96Z" style="fill:rgb(255,232,151);"/>
                </g>
                <g transform="matrix(0.0963107,0.0909085,-0.0258064,0.339275,10535.4,3133.34)">
                    <path d="M1470,2004L1458.95,2004C1456.32,2004 1453.78,2005.05 1451.92,2006.92C1450.05,2008.78 1449,2011.32 1449,2013.96C1449,2014.32 1449,2014.68 1449,2015.05C1449,2017.68 1450.05,2020.22 1451.92,2022.08C1453.78,2023.95 1456.32,2025 1458.95,2025C1464.38,2025 1470,2025 1470,2025L1470,2004Z" style="fill:rgb(255,232,151);"/>
                </g>
                <g transform="matrix(0.0963107,0.0909085,-0.0258064,0.339275,10536.9,3142.37)">
                    <path d="M1470,2004L1449,2004C1449,2004 1449,2009.62 1449,2015.05C1449,2017.68 1450.05,2020.22 1451.92,2022.08C1453.78,2023.95 1456.32,2025 1458.95,2025L1460.05,2025C1462.68,2025 1465.22,2023.95 1467.08,2022.08C1468.95,2020.22 1470,2017.68 1470,2015.05C1470,2009.62 1470,2004 1470,2004Z" style="fill:rgb(255,232,151);"/>
                </g>
                <g transform="matrix(0.0963107,0.0909085,-0.0258064,0.339275,10628.1,3168.21)">
                    <rect x="1449" y="2004" width="21" height="21" style="fill:white;"/>
                </g>
                <g transform="matrix(0.0963107,0.0909085,-0.0258064,0.339275,10628.6,3161.08)">
                    <path d="M1470,2013.96C1470,2011.32 1468.95,2008.78 1467.08,2006.92C1465.22,2005.05 1462.68,2004 1460.05,2004C1459.68,2004 1459.32,2004 1458.95,2004C1456.32,2004 1453.78,2005.05 1451.92,2006.92C1450.05,2008.78 1449,2011.32 1449,2013.96L1449,2025L1470,2025C1470,2025 1470,2019.38 1470,2013.96Z" style="fill:rgb(65,210,255);"/>
                </g>
                <g transform="matrix(0.0963107,0.0909085,-0.0258064,0.339275,10630.1,3170.12)">
                    <path d="M1470,2013.96C1470,2011.32 1468.95,2008.78 1467.08,2006.92C1465.22,2005.05 1462.68,2004 1460.05,2004L1449,2004L1449,2025C1449,2025 1454.62,2025 1460.05,2025C1462.68,2025 1465.22,2023.95 1467.08,2022.08C1468.95,2020.22 1470,2017.68 1470,2015.05C1470,2014.68 1470,2014.32 1470,2013.96Z" style="fill:rgb(65,210,255);"/>
                </g>
                <g transform="matrix(0.0963107,0.0909085,-0.0258064,0.339275,10626,3166.3)">
                    <path d="M1470,2004C1470,2004 1464.38,2004 1458.95,2004C1456.32,2004 1453.78,2005.05 1451.92,2006.92C1450.05,2008.78 1449,2011.32 1449,2013.96C1449,2014.32 1449,2014.68 1449,2015.05C1449,2017.68 1450.05,2020.22 1451.92,2022.08C1453.78,2023.95 1456.32,2025 1458.95,2025L1470,2025L1470,2004Z" style="fill:rgb(65,210,255);"/>
                </g>
                <g transform="matrix(0.0963107,0.0909085,-0.0258064,0.339275,10627.5,3175.33)">
                    <path d="M1470,2004L1449,2004L1449,2015.05C1449,2017.68 1450.05,2020.22 1451.92,2022.08C1453.78,2023.95 1456.32,2025 1458.95,2025C1459.32,2025 1459.68,2025 1460.05,2025C1462.68,2025 1465.22,2023.95 1467.08,2022.08C1468.95,2020.22 1470,2017.68 1470,2015.05C1470,2009.62 1470,2004 1470,2004Z" style="fill:rgb(65,210,255);"/>
                </g>
                <g transform="matrix(0.0863498,-0.175622,0.0498541,0.304186,10418.6,3655.19)">
                    <rect x="1449" y="2004" width="21" height="21" style="fill:white;"/>
                </g>
                <g transform="matrix(0.0863498,-0.175622,0.0498541,0.304186,10417.5,3648.81)">
                    <path d="M1470,2013.96C1470,2011.32 1468.95,2008.78 1467.08,2006.92C1465.22,2005.05 1462.68,2004 1460.05,2004C1459.68,2004 1459.32,2004 1458.95,2004C1456.32,2004 1453.78,2005.05 1451.92,2006.92C1450.05,2008.78 1449,2011.32 1449,2013.96L1449,2025L1470,2025C1470,2025 1470,2019.38 1470,2013.96Z" style="fill:rgb(208,162,255);"/>
                </g>
                <g transform="matrix(0.0863498,-0.175622,0.0498541,0.304186,10420.4,3651.51)">
                    <path d="M1470,2013.96C1470,2011.32 1468.95,2008.78 1467.08,2006.92C1465.22,2005.05 1462.68,2004 1460.05,2004L1449,2004L1449,2025C1449,2025 1454.62,2025 1460.05,2025C1462.68,2025 1465.22,2023.95 1467.08,2022.08C1468.95,2020.22 1470,2017.68 1470,2015.05C1470,2014.68 1470,2014.32 1470,2013.96Z" style="fill:rgb(208,162,255);"/>
                </g>
                <g transform="matrix(0.0863498,-0.175622,0.0498541,0.304186,10416.8,3658.88)">
                    <path d="M1470,2004C1470,2004 1464.38,2004 1458.95,2004C1456.32,2004 1453.78,2005.05 1451.92,2006.92C1450.05,2008.78 1449,2011.32 1449,2013.96C1449,2014.32 1449,2014.68 1449,2015.05C1449,2017.68 1450.05,2020.22 1451.92,2022.08C1453.78,2023.95 1456.32,2025 1458.95,2025L1470,2025L1470,2004Z" style="fill:rgb(208,162,255);"/>
                </g>
                <g transform="matrix(0.0863498,-0.175622,0.0498541,0.304186,10419.6,3661.58)">
                    <path d="M1470,2004L1449,2004L1449,2015.05C1449,2017.68 1450.05,2020.22 1451.92,2022.08C1453.78,2023.95 1456.32,2025 1458.95,2025C1459.32,2025 1459.68,2025 1460.05,2025C1462.68,2025 1465.22,2023.95 1467.08,2022.08C1468.95,2020.22 1470,2017.68 1470,2015.05C1470,2009.62 1470,2004 1470,2004Z" style="fill:rgb(208,162,255);"/>
                </g>
                <g transform="matrix(0.0963107,0.0909085,-0.0258064,0.339275,10601.3,3142.79)">
                    <rect x="1449" y="2004" width="21" height="21" style="fill:white;"/>
                </g>
                <g transform="matrix(0.0963107,0.0909085,-0.0258064,0.339275,10601.8,3135.66)">
                    <path d="M1470,2013.96C1470,2011.32 1468.95,2008.78 1467.08,2006.92C1465.22,2005.05 1462.68,2004 1460.05,2004C1459.68,2004 1459.32,2004 1458.95,2004C1456.32,2004 1453.78,2005.05 1451.92,2006.92C1450.05,2008.78 1449,2011.32 1449,2013.96C1449,2019.38 1449,2025 1449,2025L1470,2025C1470,2025 1470,2019.38 1470,2013.96Z" style="fill:rgb(255,232,151);"/>
                </g>
                <g transform="matrix(0.0963107,0.0909085,-0.0258064,0.339275,10603.3,3144.69)">
                    <path d="M1470,2013.96C1470,2011.32 1468.95,2008.78 1467.08,2006.92C1465.22,2005.05 1462.68,2004 1460.05,2004L1449,2004L1449,2025C1449,2025 1454.62,2025 1460.05,2025C1462.68,2025 1465.22,2023.95 1467.08,2022.08C1468.95,2020.22 1470,2017.68 1470,2015.05C1470,2014.68 1470,2014.32 1470,2013.96Z" style="fill:rgb(255,232,151);"/>
                </g>
                <g transform="matrix(0.0963107,0.0909085,-0.0258064,0.339275,10599.3,3140.88)">
                    <path d="M1470,2004L1458.95,2004C1456.32,2004 1453.78,2005.05 1451.92,2006.92C1450.05,2008.78 1449,2011.32 1449,2013.96C1449,2014.32 1449,2014.68 1449,2015.05C1449,2017.68 1450.05,2020.22 1451.92,2022.08C1453.78,2023.95 1456.32,2025 1458.95,2025L1470,2025L1470,2004Z" style="fill:rgb(255,232,151);"/>
                </g>
                <g transform="matrix(0.0963107,0.0909085,-0.0258064,0.339275,10600.8,3149.91)">
                    <path d="M1470,2004L1449,2004C1449,2004 1449,2009.62 1449,2015.05C1449,2017.68 1450.05,2020.22 1451.92,2022.08C1453.78,2023.95 1456.32,2025 1458.95,2025C1459.32,2025 1459.68,2025 1460.05,2025C1462.68,2025 1465.22,2023.95 1467.08,2022.08C1468.95,2020.22 1470,2017.68 1470,2015.05C1470,2009.62 1470,2004 1470,2004Z" style="fill:rgb(255,232,151);"/>
                </g>
                <g transform="matrix(0.0997081,1.38778e-17,-6.93889e-18,0.351243,10565.9,3213.13)">
                    <rect x="1449" y="2004" width="21" height="21" style="fill:white;"/>
                </g>
                <g transform="matrix(0.0997081,1.38778e-17,-6.93889e-18,0.351243,10565.9,3205.75)">
                    <path d="M1470,2013.96C1470,2011.32 1468.95,2008.78 1467.08,2006.92C1465.22,2005.05 1462.68,2004 1460.05,2004C1459.68,2004 1459.32,2004 1458.95,2004C1456.32,2004 1453.78,2005.05 1451.92,2006.92C1450.05,2008.78 1449,2011.32 1449,2013.96C1449,2019.38 1449,2025 1449,2025L1470,2025C1470,2025 1470,2019.38 1470,2013.96Z" style="fill:rgb(255,181,89);"/>
                </g>
                <g transform="matrix(0.0997081,1.38778e-17,-6.93889e-18,0.351243,10568,3213.13)">
                    <path d="M1470,2013.96C1470,2011.32 1468.95,2008.78 1467.08,2006.92C1465.22,2005.05 1462.68,2004 1460.05,2004C1454.62,2004 1449,2004 1449,2004L1449,2025C1449,2025 1454.62,2025 1460.05,2025C1462.68,2025 1465.22,2023.95 1467.08,2022.08C1468.95,2020.22 1470,2017.68 1470,2015.05C1470,2014.68 1470,2014.32 1470,2013.96Z" style="fill:rgb(255,181,89);"/>
                </g>
                <g transform="matrix(0.0997081,1.38778e-17,-6.93889e-18,0.351243,10563.8,3213.13)">
                    <path d="M1470,2004L1458.95,2004C1456.32,2004 1453.78,2005.05 1451.92,2006.92C1450.05,2008.78 1449,2011.32 1449,2013.96C1449,2014.32 1449,2014.68 1449,2015.05C1449,2017.68 1450.05,2020.22 1451.92,2022.08C1453.78,2023.95 1456.32,2025 1458.95,2025C1464.38,2025 1470,2025 1470,2025L1470,2004Z" style="fill:rgb(255,181,89);"/>
                </g>
                <g transform="matrix(0.0997081,1.38778e-17,-6.93889e-18,0.351243,10565.9,3220.5)">
                    <path d="M1470,2004L1449,2004C1449,2004 1449,2009.62 1449,2015.05C1449,2017.68 1450.05,2020.22 1451.92,2022.08C1453.78,2023.95 1456.32,2025 1458.95,2025C1459.32,2025 1459.68,2025 1460.05,2025C1462.68,2025 1465.22,2023.95 1467.08,2022.08C1468.95,2020.22 1470,2017.68 1470,2015.05C1470,2009.62 1470,2004 1470,2004Z" style="fill:rgb(255,181,89);"/>
                </g>
                <g transform="matrix(0.0997081,1.38778e-17,-6.93889e-18,0.351243,10511.9,3215.18)">
                    <rect x="1449" y="2004" width="21" height="21" style="fill:white;"/>
                </g>
                <g transform="matrix(0.0997081,1.38778e-17,-6.93889e-18,0.351243,10511.9,3207.81)">
                    <path d="M1470,2013.96C1470,2011.32 1468.95,2008.78 1467.08,2006.92C1465.22,2005.05 1462.68,2004 1460.05,2004L1458.95,2004C1456.32,2004 1453.78,2005.05 1451.92,2006.92C1450.05,2008.78 1449,2011.32 1449,2013.96L1449,2025L1470,2025L1470,2013.96Z" style="fill:rgb(255,181,89);"/>
                </g>
                <g transform="matrix(0.0997081,1.38778e-17,-6.93889e-18,0.351243,10513.9,3215.18)">
                    <path d="M1470,2013.96C1470,2011.32 1468.95,2008.78 1467.08,2006.92C1465.22,2005.05 1462.68,2004 1460.05,2004C1454.62,2004 1449,2004 1449,2004L1449,2025L1460.05,2025C1462.68,2025 1465.22,2023.95 1467.08,2022.08C1468.95,2020.22 1470,2017.68 1470,2015.05L1470,2013.96Z" style="fill:rgb(255,181,89);"/>
                </g>
                <g transform="matrix(0.0997081,1.38778e-17,-6.93889e-18,0.351243,10509.8,3215.18)">
                    <path d="M1470,2004L1458.95,2004C1456.32,2004 1453.78,2005.05 1451.92,2006.92C1450.05,2008.78 1449,2011.32 1449,2013.96L1449,2015.05C1449,2017.68 1450.05,2020.22 1451.92,2022.08C1453.78,2023.95 1456.32,2025 1458.95,2025L1470,2025L1470,2004Z" style="fill:rgb(255,181,89);"/>
                </g>
                <g transform="matrix(0.0997081,1.38778e-17,-6.93889e-18,0.351243,10511.9,3222.56)">
                    <path d="M1470,2004L1449,2004L1449,2015.05C1449,2017.68 1450.05,2020.22 1451.92,2022.08C1453.78,2023.95 1456.32,2025 1458.95,2025L1460.05,2025C1462.68,2025 1465.22,2023.95 1467.08,2022.08C1468.95,2020.22 1470,2017.68 1470,2015.05C1470,2009.62 1470,2004 1470,2004Z" style="fill:rgb(255,181,89);"/>
                </g>
            </g>
        </g>
    </g>
</svg>
