<?xml version="1.0" encoding="UTF-8" standalone="no"?>
<!DOCTYPE svg PUBLIC "-//W3C//DTD SVG 1.1//EN" "http://www.w3.org/Graphics/SVG/1.1/DTD/svg11.dtd">
<svg width="100%" height="100%" viewBox="0 0 1217 505" version="1.1" xmlns="http://www.w3.org/2000/svg" xmlns:xlink="http://www.w3.org/1999/xlink" xml:space="preserve" xmlns:serif="http://www.serif.com/" style="fill-rule:evenodd;clip-rule:evenodd;stroke-linecap:round;stroke-linejoin:round;stroke-miterlimit:1.5;">
    <g transform="matrix(1,0,0,1,-11048.1,-5245.23)">
        <g id="Artboard6" transform="matrix(5.73101,0,0,1.62687,-49341.5,-1096.32)">
            <rect x="10537.3" y="3898" width="212.272" height="310" style="fill:none;"/>
            <clipPath id="_clip1">
                <rect x="10537.3" y="3898" width="212.272" height="310"/>
            </clipPath>
            <g clip-path="url(#_clip1)">
                <g transform="matrix(0.174489,0,0,0.614676,8895.16,673.882)">
                    <path d="M9584.97,5327.96L9534.6,5327.96L9534.6,5339.46C9534.6,5342.58 9535.84,5345.58 9538.05,5347.79C9540.26,5350 9543.26,5351.24 9546.38,5351.24L9573.18,5351.24C9576.31,5351.24 9579.3,5350 9581.51,5347.79C9583.72,5345.58 9584.97,5342.58 9584.97,5339.46C9584.97,5333.69 9584.97,5327.96 9584.97,5327.96Z" style="fill:rgb(158,255,255);"/>
                </g>
                <g transform="matrix(0.174489,0,0,0.614676,8922.5,673.882)">
                    <path d="M9584.97,5327.96L9534.6,5327.96L9534.6,5339.46C9534.6,5342.58 9535.84,5345.58 9538.05,5347.79C9540.26,5350 9543.26,5351.24 9546.38,5351.24L9573.18,5351.24C9576.31,5351.24 9579.3,5350 9581.51,5347.79C9583.72,5345.58 9584.97,5342.58 9584.97,5339.46C9584.97,5333.69 9584.97,5327.96 9584.97,5327.96Z" style="fill:rgb(158,255,255);"/>
                </g>
                <g transform="matrix(0.174489,0,0,0.614676,8938.4,673.882)">
                    <path d="M9584.97,5327.96L9534.6,5327.96L9534.6,5339.46C9534.6,5342.58 9535.84,5345.58 9538.05,5347.79C9540.26,5350 9543.26,5351.24 9546.38,5351.24L9573.18,5351.24C9576.31,5351.24 9579.3,5350 9581.51,5347.79C9583.72,5345.58 9584.97,5342.58 9584.97,5339.46C9584.97,5333.69 9584.97,5327.96 9584.97,5327.96Z" style="fill:rgb(158,255,255);"/>
                </g>
                <g transform="matrix(0.174489,0,0,0.614676,8955.38,673.882)">
                    <path d="M9584.97,5327.96L9534.6,5327.96L9534.6,5339.46C9534.6,5342.58 9535.84,5345.58 9538.05,5347.79C9540.26,5350 9543.26,5351.24 9546.38,5351.24L9573.18,5351.24C9576.31,5351.24 9579.3,5350 9581.51,5347.79C9583.72,5345.58 9584.97,5342.58 9584.97,5339.46C9584.97,5333.69 9584.97,5327.96 9584.97,5327.96Z" style="fill:rgb(158,255,255);"/>
                </g>
                <g transform="matrix(0.174489,0,0,0.614676,8970.55,673.882)">
                    <path d="M9584.97,5327.96L9534.6,5327.96L9534.6,5339.46C9534.6,5342.58 9535.84,5345.58 9538.05,5347.79C9540.26,5350 9543.26,5351.24 9546.38,5351.24L9573.18,5351.24C9576.31,5351.24 9579.3,5350 9581.51,5347.79C9583.72,5345.58 9584.97,5342.58 9584.97,5339.46C9584.97,5333.69 9584.97,5327.96 9584.97,5327.96Z" style="fill:rgb(158,255,255);"/>
                </g>
                <g transform="matrix(0.174489,0,0,0.614676,8987.53,673.882)">
                    <path d="M9584.97,5327.96L9534.6,5327.96C9534.6,5327.96 9534.6,5333.69 9534.6,5339.46C9534.6,5342.58 9535.84,5345.58 9538.05,5347.79C9540.26,5350 9543.26,5351.24 9546.38,5351.24L9573.18,5351.24C9576.31,5351.24 9579.3,5350 9581.51,5347.79C9583.72,5345.58 9584.97,5342.58 9584.97,5339.46C9584.97,5333.69 9584.97,5327.96 9584.97,5327.96Z" style="fill:rgb(158,255,255);"/>
                </g>
                <g transform="matrix(0.174489,0,0,0.614676,9003.12,673.882)">
                    <path d="M9584.97,5327.96L9534.6,5327.96C9534.6,5327.96 9534.6,5333.69 9534.6,5339.46C9534.6,5342.58 9535.84,5345.58 9538.05,5347.79C9540.26,5350 9543.26,5351.24 9546.38,5351.24C9554.45,5351.24 9565.11,5351.24 9573.18,5351.24C9576.31,5351.24 9579.3,5350 9581.51,5347.79C9583.72,5345.58 9584.97,5342.58 9584.97,5339.46C9584.97,5333.69 9584.97,5327.96 9584.97,5327.96Z" style="fill:rgb(158,255,255);"/>
                </g>
                <g transform="matrix(0.174489,0,0,0.614676,9034.27,673.882)">
                    <path d="M9584.97,5327.96L9534.6,5327.96L9534.6,5339.46C9534.6,5342.58 9535.84,5345.58 9538.05,5347.79C9540.26,5350 9543.26,5351.24 9546.38,5351.24L9573.18,5351.24C9576.31,5351.24 9579.3,5350 9581.51,5347.79C9583.72,5345.58 9584.97,5342.58 9584.97,5339.46C9584.97,5333.69 9584.97,5327.96 9584.97,5327.96Z" style="fill:rgb(96,189,255);"/>
                </g>
                <g transform="matrix(0.174489,0,0,0.614676,9029.87,673.882)">
                    <path d="M9584.97,5327.96L9534.6,5327.96C9534.6,5327.96 9534.6,5333.69 9534.6,5339.46C9534.6,5342.58 9535.84,5345.58 9538.05,5347.79C9540.26,5350 9543.26,5351.24 9546.38,5351.24C9554.45,5351.24 9565.11,5351.24 9573.18,5351.24C9576.31,5351.24 9579.3,5350 9581.51,5347.79C9583.72,5345.58 9584.97,5342.58 9584.97,5339.46C9584.97,5333.69 9584.97,5327.96 9584.97,5327.96Z" style="fill:rgb(158,255,255);"/>
                </g>
                <g transform="matrix(-0.0546554,0,0,0.580505,11126.1,842.48)">
                    <path d="M10304.8,5301.11C10267.2,5287.06 10213.2,5279.02 10156.6,5279.02L9752.81,5279.02C9742.7,5279.02 9733.01,5280.35 9725.86,5282.72C9718.71,5285.09 9714.7,5288.3 9714.7,5291.66C9714.7,5308.03 9714.7,5336.39 9714.7,5352.76C9714.7,5356.11 9718.71,5359.33 9725.86,5361.7C9733.01,5364.07 9742.7,5365.4 9752.81,5365.4C9874.07,5365.4 10252.2,5365.4 10408.3,5365.4C10420.4,5365.4 10431.4,5363.04 10436.4,5359.37C10441.4,5355.7 10439.4,5351.41 10431.4,5348.4C10395.1,5334.87 10344.2,5315.82 10304.8,5301.11Z" style="fill:rgb(25,41,83);"/>
                </g>
                <g transform="matrix(0.174489,0,0,0.614676,8830.94,662.091)">
                    <rect x="10120" y="5293" width="59.268" height="54.144" style="fill:rgb(156,156,156);"/>
                </g>
                <g transform="matrix(0.174489,0,0,0.614676,8832.17,662.13)">
                    <path d="M10121,5290.95C10121,5287.79 10119.7,5284.75 10117.5,5282.51C10115.3,5280.27 10112.2,5279.02 10109.1,5279.02L9957.94,5279.02C9954.77,5279.02 9951.74,5280.27 9949.5,5282.51C9947.26,5284.75 9946,5287.79 9946,5290.95C9946,5306.5 9946,5333.52 9946,5349.06C9946,5352.23 9947.26,5355.27 9949.5,5357.5C9951.74,5359.74 9954.77,5361 9957.94,5361C9989.89,5361 10077.1,5361 10109.1,5361C10112.2,5361 10115.3,5359.74 10117.5,5357.5C10119.7,5355.27 10121,5352.23 10121,5349.06L10121,5290.95Z" style="fill:rgb(25,41,83);"/>
                </g>
                <g transform="matrix(0.174489,0,0,0.614676,8863.01,662.091)">
                    <rect x="10120" y="5293" width="59.268" height="54.144" style="fill:rgb(156,156,156);"/>
                </g>
                <g transform="matrix(0.174489,0,0,0.614676,8864.23,662.13)">
                    <path d="M10121,5290.95C10121,5287.79 10119.7,5284.75 10117.5,5282.51C10115.3,5280.27 10112.2,5279.02 10109.1,5279.02L9957.94,5279.02C9954.77,5279.02 9951.74,5280.27 9949.5,5282.51C9947.26,5284.75 9946,5287.79 9946,5290.95C9946,5306.5 9946,5333.52 9946,5349.06C9946,5352.23 9947.26,5355.27 9949.5,5357.5C9951.74,5359.74 9954.77,5361 9957.94,5361L10109.1,5361C10112.2,5361 10115.3,5359.74 10117.5,5357.5C10119.7,5355.27 10121,5352.23 10121,5349.06C10121,5333.52 10121,5306.5 10121,5290.95Z" style="fill:rgb(25,41,83);"/>
                </g>
                <g transform="matrix(0.174489,0,0,0.614676,8895.16,662.091)">
                    <rect x="10120" y="5293" width="59.268" height="54.144" style="fill:rgb(156,156,156);"/>
                </g>
                <g transform="matrix(0.17751,0,0,0.0533192,8863.06,3681.54)">
                    <rect x="9432" y="5389.6" width="1195.83" height="164.686" style="fill:rgb(169,194,206);"/>
                </g>
                <g transform="matrix(3.25701e-18,0.187377,-0.0208581,4.49919e-18,10664.4,2230.64)">
                    <rect x="9432" y="5389.6" width="1195.83" height="164.686" style="fill:rgb(44,44,44);"/>
                </g>
                <g transform="matrix(3.25701e-18,0.187377,0.0846798,-1.82658e-17,10138.6,2230.64)">
                    <rect x="9432" y="5389.6" width="1195.83" height="164.686" style="fill:rgb(60,85,116);"/>
                </g>
                <g transform="matrix(3.25701e-18,0.187377,0.0846798,-1.82658e-17,10095.5,2230.64)">
                    <rect x="9432" y="5389.6" width="1195.83" height="164.686" style="fill:rgb(60,85,116);"/>
                </g>
                <g transform="matrix(3.25701e-18,0.187377,0.0846798,-1.82658e-17,10224.8,2230.64)">
                    <rect x="9432" y="5389.6" width="1195.83" height="164.686" style="fill:rgb(60,85,116);"/>
                </g>
                <g transform="matrix(3.25701e-18,0.187377,0.0846798,-1.82658e-17,10268,2230.64)">
                    <rect x="9432" y="5389.6" width="1195.83" height="164.686" style="fill:rgb(60,85,116);"/>
                </g>
                <g transform="matrix(3.25701e-18,0.187377,0.0846798,-1.82658e-17,10181.7,2230.64)">
                    <rect x="9432" y="5389.6" width="1195.83" height="164.686" style="fill:rgb(60,85,116);"/>
                </g>
                <g transform="matrix(3.25701e-18,0.187377,-0.0208581,4.49919e-18,10707.5,2230.64)">
                    <rect x="9432" y="5389.6" width="1195.83" height="164.686" style="fill:rgb(44,44,44);"/>
                </g>
                <g transform="matrix(3.25701e-18,0.187377,-0.0208581,4.49919e-18,10750.6,2230.64)">
                    <rect x="9432" y="5389.6" width="1195.83" height="164.686" style="fill:rgb(44,44,44);"/>
                </g>
                <g transform="matrix(3.25701e-18,0.187377,-0.0208581,4.49919e-18,10793.7,2230.64)">
                    <rect x="9432" y="5389.6" width="1195.83" height="164.686" style="fill:rgb(44,44,44);"/>
                </g>
                <g transform="matrix(3.25701e-18,0.187377,-0.0208581,4.49919e-18,10836.8,2230.64)">
                    <rect x="9432" y="5389.6" width="1195.83" height="164.686" style="fill:rgb(44,44,44);"/>
                </g>
                <g transform="matrix(0.0546554,0,0,0.580505,10145.6,842.48)">
                    <path d="M10304.8,5301.11C10267.2,5287.06 10213.2,5279.02 10156.6,5279.02C10038.9,5279.02 9836.62,5279.02 9752.81,5279.02C9742.7,5279.02 9733.01,5280.35 9725.86,5282.72C9718.71,5285.09 9714.7,5288.3 9714.7,5291.66C9714.7,5308.03 9714.7,5336.39 9714.7,5352.76C9714.7,5356.11 9718.71,5359.33 9725.86,5361.7C9733.01,5364.07 9742.7,5365.4 9752.81,5365.4L10476.9,5365.4L10304.8,5301.11Z" style="fill:rgb(0,85,116);"/>
                </g>
                <g transform="matrix(0.174489,0,0,0.614676,8896.3,662.091)">
                    <path d="M10439.9,5338.86C10433.6,5331.94 10424.7,5328 10415.3,5328C10383.5,5328 10311,5328 10311,5328L10311,5361L10437.5,5361C10441.5,5361 10445,5358.68 10446.6,5355.08C10448.2,5351.48 10447.5,5347.28 10444.9,5344.36C10443.2,5342.49 10441.5,5340.63 10439.9,5338.86Z" style="fill:rgb(0,85,116);"/>
                </g>
                <g transform="matrix(0.174489,0,0,0.614676,8889.5,662.091)">
                    <path d="M10439.9,5338.86C10433.6,5331.94 10424.7,5328 10415.3,5328C10383.5,5328 10311,5328 10311,5328L10311,5361L10437.5,5361C10441.5,5361 10445,5358.68 10446.6,5355.08C10448.2,5351.48 10447.5,5347.28 10444.9,5344.36C10443.2,5342.49 10441.5,5340.63 10439.9,5338.86Z" style="fill:rgb(25,41,83);"/>
                </g>
                <g transform="matrix(0.0546554,0,0,0.580505,10133,842.48)">
                    <path d="M10304.8,5301.11C10267.2,5287.06 10213.2,5279.02 10156.6,5279.02L9752.81,5279.02C9742.7,5279.02 9733.01,5280.35 9725.86,5282.72C9718.71,5285.09 9714.7,5288.3 9714.7,5291.66L9714.7,5352.76C9714.7,5356.11 9718.71,5359.33 9725.86,5361.7C9733.01,5364.07 9742.7,5365.4 9752.81,5365.4L10476.9,5365.4C10476.9,5365.4 10373.3,5326.7 10304.8,5301.11Z" style="fill:rgb(25,41,83);"/>
                </g>
                <g transform="matrix(0.257405,0,0.0576869,0.20564,7738.75,2835.71)">
                    <path d="M10349.2,5303.95C10349.2,5293.15 10347.3,5287.07 10343.9,5287.07C10338.1,5287.07 10329,5287.07 10322.4,5287.07C10321,5287.07 10318.8,5290.81 10317,5296.54C10315.2,5302.28 10314,5308.89 10314,5313.31C10314,5313.32 10314,5313.32 10314,5313.32C10314,5323.85 10315.9,5329.77 10319.2,5329.77C10325.6,5329.77 10336.2,5329.77 10342.9,5329.77C10344,5329.77 10345.6,5326.96 10347,5322.64C10348.3,5318.32 10349.2,5313.33 10349.2,5310C10349.2,5307.98 10349.2,5305.94 10349.2,5303.95Z" style="fill:rgb(158,255,255);"/>
                </g>
                <g transform="matrix(0.174489,0,0,0.614676,8896.38,662.13)">
                    <path d="M10121,5290.95C10121,5287.79 10119.7,5284.75 10117.5,5282.51C10115.3,5280.27 10112.2,5279.02 10109.1,5279.02L9957.94,5279.02C9954.77,5279.02 9951.74,5280.27 9949.5,5282.51C9947.26,5284.75 9946,5287.79 9946,5290.95C9946,5306.5 9946,5333.52 9946,5349.06C9946,5352.23 9947.26,5355.27 9949.5,5357.5C9951.74,5359.74 9954.77,5361 9957.94,5361L10109.1,5361C10112.2,5361 10115.3,5359.74 10117.5,5357.5C10119.7,5355.27 10121,5352.23 10121,5349.06C10121,5333.52 10121,5306.5 10121,5290.95Z" style="fill:rgb(25,41,83);"/>
                </g>
                <g transform="matrix(0.17751,-2.07728e-16,1.1615e-17,-0.457277,8863.06,6517.54)">
                    <rect x="9432" y="5389.6" width="1195.83" height="164.686" style="fill:rgb(60,85,116);"/>
                </g>
                <g transform="matrix(0.17751,-2.81002e-16,4.83866e-17,-0.228638,8863.06,5285.27)">
                    <rect x="9432" y="5389.6" width="1195.83" height="164.686" style="fill:rgb(46,63,89);"/>
                </g>
                <g transform="matrix(0.17751,-3.37188e-16,7.6583e-17,-0.0533192,8863.06,4340.37)">
                    <rect x="9432" y="5389.6" width="1195.83" height="164.686" style="fill:rgb(44,44,44);"/>
                </g>
                <g transform="matrix(0.174489,0,0,0.614676,8801,662.091)">
                    <path d="M10269.3,5311.55C10269.3,5307.93 10266.3,5305 10262.7,5305C10259.3,5305 10255,5305 10251.6,5305C10247.9,5305 10245,5307.93 10245,5311.55C10245,5317.57 10245,5326.43 10245,5332.45C10245,5336.07 10247.9,5339 10251.6,5339C10255,5339 10259.3,5339 10262.7,5339C10266.3,5339 10269.3,5336.07 10269.3,5332.45C10269.3,5326.43 10269.3,5317.57 10269.3,5311.55Z" style="fill:rgb(158,255,255);stroke:rgb(21,69,116);stroke-width:8.33px;"/>
                </g>
                <g transform="matrix(0.174489,0,0,0.614676,8795.76,662.091)">
                    <path d="M10269.3,5311.55C10269.3,5307.93 10266.3,5305 10262.7,5305C10259.3,5305 10255,5305 10251.6,5305C10247.9,5305 10245,5307.93 10245,5311.55C10245,5317.57 10245,5326.43 10245,5332.45C10245,5336.07 10247.9,5339 10251.6,5339C10255,5339 10259.3,5339 10262.7,5339C10266.3,5339 10269.3,5336.07 10269.3,5332.45C10269.3,5326.43 10269.3,5317.57 10269.3,5311.55Z" style="fill:rgb(158,255,255);stroke:rgb(21,69,116);stroke-width:8.33px;"/>
                </g>
                <g transform="matrix(0.174489,0,0,0.614676,8790.53,662.091)">
                    <path d="M10269.3,5311.55C10269.3,5307.93 10266.3,5305 10262.7,5305C10259.3,5305 10255,5305 10251.6,5305C10247.9,5305 10245,5307.93 10245,5311.55C10245,5317.57 10245,5326.43 10245,5332.45C10245,5336.07 10247.9,5339 10251.6,5339C10255,5339 10259.3,5339 10262.7,5339C10266.3,5339 10269.3,5336.07 10269.3,5332.45C10269.3,5326.43 10269.3,5317.57 10269.3,5311.55Z" style="fill:rgb(158,255,255);stroke:rgb(21,69,116);stroke-width:8.33px;"/>
                </g>
                <g transform="matrix(0.174489,0,0,0.614676,8785.29,662.091)">
                    <path d="M10269.3,5311.55C10269.3,5307.93 10266.3,5305 10262.7,5305C10259.3,5305 10255,5305 10251.6,5305C10247.9,5305 10245,5307.93 10245,5311.55C10245,5317.57 10245,5326.43 10245,5332.45C10245,5336.07 10247.9,5339 10251.6,5339C10255,5339 10259.3,5339 10262.7,5339C10266.3,5339 10269.3,5336.07 10269.3,5332.45C10269.3,5326.43 10269.3,5317.57 10269.3,5311.55Z" style="fill:rgb(158,255,255);stroke:rgb(21,69,116);stroke-width:8.33px;"/>
                </g>
                <g transform="matrix(0.174489,0,0,0.614676,8895.16,662.091)">
                    <path d="M10269.3,5311.55C10269.3,5307.93 10266.3,5305 10262.7,5305C10259.3,5305 10255,5305 10251.6,5305C10247.9,5305 10245,5307.93 10245,5311.55C10245,5317.57 10245,5326.43 10245,5332.45C10245,5336.07 10247.9,5339 10251.6,5339C10255,5339 10259.3,5339 10262.7,5339C10266.3,5339 10269.3,5336.07 10269.3,5332.45C10269.3,5326.43 10269.3,5317.57 10269.3,5311.55Z" style="fill:rgb(158,255,255);stroke:rgb(21,69,116);stroke-width:8.33px;"/>
                </g>
                <g transform="matrix(0.174489,0,0,0.614676,8889.93,662.091)">
                    <path d="M10269.3,5311.55C10269.3,5307.93 10266.3,5305 10262.7,5305C10259.3,5305 10255,5305 10251.6,5305C10247.9,5305 10245,5307.93 10245,5311.55C10245,5317.57 10245,5326.43 10245,5332.45C10245,5336.07 10247.9,5339 10251.6,5339C10255,5339 10259.3,5339 10262.7,5339C10266.3,5339 10269.3,5336.07 10269.3,5332.45C10269.3,5326.43 10269.3,5317.57 10269.3,5311.55Z" style="fill:rgb(158,255,255);stroke:rgb(21,69,116);stroke-width:8.33px;"/>
                </g>
                <g transform="matrix(0.174489,0,0,0.614676,8884.69,662.091)">
                    <path d="M10269.3,5311.55C10269.3,5307.93 10266.3,5305 10262.7,5305C10259.3,5305 10255,5305 10251.6,5305C10247.9,5305 10245,5307.93 10245,5311.55C10245,5317.57 10245,5326.43 10245,5332.45C10245,5336.07 10247.9,5339 10251.6,5339C10255,5339 10259.3,5339 10262.7,5339C10266.3,5339 10269.3,5336.07 10269.3,5332.45C10269.3,5326.43 10269.3,5317.57 10269.3,5311.55Z" style="fill:rgb(158,255,255);stroke:rgb(21,69,116);stroke-width:8.33px;"/>
                </g>
                <g transform="matrix(0.174489,0,0,0.614676,8879.46,662.091)">
                    <path d="M10269.3,5311.55C10269.3,5307.93 10266.3,5305 10262.7,5305C10259.3,5305 10255,5305 10251.6,5305C10247.9,5305 10245,5307.93 10245,5311.55C10245,5317.57 10245,5326.43 10245,5332.45C10245,5336.07 10247.9,5339 10251.6,5339C10255,5339 10259.3,5339 10262.7,5339C10266.3,5339 10269.3,5336.07 10269.3,5332.45C10269.3,5326.43 10269.3,5317.57 10269.3,5311.55Z" style="fill:rgb(158,255,255);stroke:rgb(21,69,116);stroke-width:8.33px;"/>
                </g>
                <g transform="matrix(0.174489,0,0,0.614676,8865.21,662.091)">
                    <path d="M10269.3,5311.55C10269.3,5307.93 10266.3,5305 10262.7,5305C10259.3,5305 10255,5305 10251.6,5305C10247.9,5305 10245,5307.93 10245,5311.55C10245,5317.57 10245,5326.43 10245,5332.45C10245,5336.07 10247.9,5339 10251.6,5339C10255,5339 10259.3,5339 10262.7,5339C10266.3,5339 10269.3,5336.07 10269.3,5332.45C10269.3,5326.43 10269.3,5317.57 10269.3,5311.55Z" style="fill:rgb(158,255,255);stroke:rgb(21,69,116);stroke-width:8.33px;"/>
                </g>
                <g transform="matrix(0.174489,0,0,0.614676,8859.98,662.091)">
                    <path d="M10269.3,5311.55C10269.3,5307.93 10266.3,5305 10262.7,5305C10259.3,5305 10255,5305 10251.6,5305C10247.9,5305 10245,5307.93 10245,5311.55C10245,5317.57 10245,5326.43 10245,5332.45C10245,5336.07 10247.9,5339 10251.6,5339C10255,5339 10259.3,5339 10262.7,5339C10266.3,5339 10269.3,5336.07 10269.3,5332.45C10269.3,5326.43 10269.3,5317.57 10269.3,5311.55Z" style="fill:rgb(158,255,255);stroke:rgb(21,69,116);stroke-width:8.33px;"/>
                </g>
                <g transform="matrix(0.174489,0,0,0.614676,8854.74,662.091)">
                    <path d="M10269.3,5311.55C10269.3,5307.93 10266.3,5305 10262.7,5305C10259.3,5305 10255,5305 10251.6,5305C10247.9,5305 10245,5307.93 10245,5311.55C10245,5317.57 10245,5326.43 10245,5332.45C10245,5336.07 10247.9,5339 10251.6,5339C10255,5339 10259.3,5339 10262.7,5339C10266.3,5339 10269.3,5336.07 10269.3,5332.45C10269.3,5326.43 10269.3,5317.57 10269.3,5311.55Z" style="fill:rgb(158,255,255);stroke:rgb(21,69,116);stroke-width:8.33px;"/>
                </g>
                <g transform="matrix(0.174489,0,0,0.614676,8849.51,662.091)">
                    <path d="M10269.3,5311.55C10269.3,5307.93 10266.3,5305 10262.7,5305C10259.3,5305 10255,5305 10251.6,5305C10247.9,5305 10245,5307.93 10245,5311.55C10245,5317.57 10245,5326.43 10245,5332.45C10245,5336.07 10247.9,5339 10251.6,5339C10255,5339 10259.3,5339 10262.7,5339C10266.3,5339 10269.3,5336.07 10269.3,5332.45C10269.3,5326.43 10269.3,5317.57 10269.3,5311.55Z" style="fill:rgb(158,255,255);stroke:rgb(21,69,116);stroke-width:8.33px;"/>
                </g>
                <g transform="matrix(0.174489,0,0,0.614676,8833.06,662.091)">
                    <path d="M10269.3,5311.55C10269.3,5307.93 10266.3,5305 10262.7,5305C10259.3,5305 10255,5305 10251.6,5305C10247.9,5305 10245,5307.93 10245,5311.55C10245,5317.57 10245,5326.43 10245,5332.45C10245,5336.07 10247.9,5339 10251.6,5339C10255,5339 10259.3,5339 10262.7,5339C10266.3,5339 10269.3,5336.07 10269.3,5332.45C10269.3,5326.43 10269.3,5317.57 10269.3,5311.55Z" style="fill:rgb(158,255,255);stroke:rgb(21,69,116);stroke-width:8.33px;"/>
                </g>
                <g transform="matrix(0.174489,0,0,0.614676,8827.83,662.091)">
                    <path d="M10269.3,5311.55C10269.3,5307.93 10266.3,5305 10262.7,5305C10259.3,5305 10255,5305 10251.6,5305C10247.9,5305 10245,5307.93 10245,5311.55C10245,5317.57 10245,5326.43 10245,5332.45C10245,5336.07 10247.9,5339 10251.6,5339C10255,5339 10259.3,5339 10262.7,5339C10266.3,5339 10269.3,5336.07 10269.3,5332.45C10269.3,5326.43 10269.3,5317.57 10269.3,5311.55Z" style="fill:rgb(158,255,255);stroke:rgb(21,69,116);stroke-width:8.33px;"/>
                </g>
                <g transform="matrix(0.174489,0,0,0.614676,8822.59,662.091)">
                    <path d="M10269.3,5311.55C10269.3,5307.93 10266.3,5305 10262.7,5305C10259.3,5305 10255,5305 10251.6,5305C10247.9,5305 10245,5307.93 10245,5311.55C10245,5317.57 10245,5326.43 10245,5332.45C10245,5336.07 10247.9,5339 10251.6,5339C10255,5339 10259.3,5339 10262.7,5339C10266.3,5339 10269.3,5336.07 10269.3,5332.45C10269.3,5326.43 10269.3,5317.57 10269.3,5311.55Z" style="fill:rgb(158,255,255);stroke:rgb(21,69,116);stroke-width:8.33px;"/>
                </g>
                <g transform="matrix(0.174489,0,0,0.614676,8817.36,662.091)">
                    <path d="M10269.3,5311.55C10269.3,5307.93 10266.3,5305 10262.7,5305C10259.3,5305 10255,5305 10251.6,5305C10247.9,5305 10245,5307.93 10245,5311.55C10245,5317.57 10245,5326.43 10245,5332.45C10245,5336.07 10247.9,5339 10251.6,5339C10255,5339 10259.3,5339 10262.7,5339C10266.3,5339 10269.3,5336.07 10269.3,5332.45C10269.3,5326.43 10269.3,5317.57 10269.3,5311.55Z" style="fill:rgb(158,255,255);stroke:rgb(21,69,116);stroke-width:8.33px;"/>
                </g>
                <g transform="matrix(0.17751,0,0,0.0266596,8863.06,3834.01)">
                    <rect x="9432" y="5389.6" width="1195.83" height="164.686" style="fill:rgb(158,255,255);"/>
                </g>
                <g transform="matrix(0.17751,0,0,0.0266596,8863.06,3844.9)">
                    <rect x="9432" y="5389.6" width="1195.83" height="164.686" style="fill:rgb(158,255,255);"/>
                </g>
            </g>
        </g>
    </g>
</svg>
