<?xml version="1.0" encoding="UTF-8" standalone="no"?>
<!DOCTYPE svg PUBLIC "-//W3C//DTD SVG 1.1//EN" "http://www.w3.org/Graphics/SVG/1.1/DTD/svg11.dtd">
<svg width="100%" height="100%" viewBox="0 0 1217 505" version="1.1" xmlns="http://www.w3.org/2000/svg" xmlns:xlink="http://www.w3.org/1999/xlink" xml:space="preserve" xmlns:serif="http://www.serif.com/" style="fill-rule:evenodd;clip-rule:evenodd;stroke-linejoin:round;stroke-miterlimit:2;">
    <g transform="matrix(1,0,0,1,-12457.9,-6032.93)">
        <g id="Artboard6" transform="matrix(5.73101,0,0,1.62687,-47931.7,-308.624)">
            <rect x="10537.3" y="3898" width="212.272" height="310" style="fill:none;"/>
            <clipPath id="_clip1">
                <rect x="10537.3" y="3898" width="212.272" height="310"/>
            </clipPath>
            <g clip-path="url(#_clip1)">
                <g transform="matrix(0.992233,0,0,1.04034,-11.6188,-169.753)">
                    <g transform="matrix(-0.238136,0,0,0.457999,13213.8,1832.24)">
                        <path d="M10768,4630.12C10768,4605.33 10762.4,4581.55 10752.3,4564.02C10742.3,4546.49 10728.7,4536.64 10714.5,4536.64L10674.5,4536.64C10660.3,4536.64 10646.7,4546.49 10636.7,4564.02C10626.6,4581.55 10621,4605.33 10621,4630.12L10621,4643.52C10621,4668.32 10626.6,4692.09 10636.7,4709.62C10646.7,4727.15 10660.3,4737 10674.5,4737C10687.5,4737 10701.5,4737 10714.5,4737C10728.7,4737 10742.3,4727.15 10752.3,4709.62C10762.4,4692.09 10768,4668.32 10768,4643.52C10768,4639.06 10768,4634.58 10768,4630.12Z" style="fill:rgb(50,95,79);"/>
                    </g>
                    <g transform="matrix(-0.238136,0,0,0.457999,13267.7,1832.24)">
                        <path d="M10768,4630.12C10768,4605.33 10762.4,4581.55 10752.3,4564.02C10742.3,4546.49 10728.7,4536.64 10714.5,4536.64C10701.5,4536.64 10687.5,4536.64 10674.5,4536.64C10660.3,4536.64 10646.7,4546.49 10636.7,4564.02C10626.6,4581.55 10621,4605.33 10621,4630.12C10621,4634.58 10621,4639.06 10621,4643.52C10621,4668.32 10626.6,4692.09 10636.7,4709.62C10646.7,4727.15 10660.3,4737 10674.5,4737L10714.5,4737C10728.7,4737 10742.3,4727.15 10752.3,4709.62C10762.4,4692.09 10768,4668.32 10768,4643.52C10768,4639.06 10768,4634.58 10768,4630.12Z" style="fill:rgb(50,95,79);"/>
                    </g>
                    <g transform="matrix(-0.238136,0,0,0.457999,13363.4,1832.24)">
                        <path d="M10768,4630.12C10768,4605.33 10762.4,4581.55 10752.3,4564.02C10742.3,4546.49 10728.7,4536.64 10714.5,4536.64C10701.5,4536.64 10687.5,4536.64 10674.5,4536.64C10660.3,4536.64 10646.7,4546.49 10636.7,4564.02C10626.6,4581.55 10621,4605.33 10621,4630.12L10621,4643.52C10621,4668.32 10626.6,4692.09 10636.7,4709.62C10646.7,4727.15 10660.3,4737 10674.5,4737C10687.5,4737 10701.5,4737 10714.5,4737C10728.7,4737 10742.3,4727.15 10752.3,4709.62C10762.4,4692.09 10768,4668.32 10768,4643.52C10768,4639.06 10768,4634.58 10768,4630.12Z" style="fill:rgb(50,95,79);"/>
                    </g>
                    <g transform="matrix(-0.238136,0,0,0.457999,13319.4,1832.24)">
                        <path d="M10768,4630.12C10768,4605.33 10762.4,4581.55 10752.3,4564.02C10742.3,4546.49 10728.7,4536.64 10714.5,4536.64L10674.5,4536.64C10660.3,4536.64 10646.7,4546.49 10636.7,4564.02C10626.6,4581.55 10621,4605.33 10621,4630.12L10621,4643.52C10621,4668.32 10626.6,4692.09 10636.7,4709.62C10646.7,4727.15 10660.3,4737 10674.5,4737C10687.5,4737 10701.5,4737 10714.5,4737C10728.7,4737 10742.3,4727.15 10752.3,4709.62C10762.4,4692.09 10768,4668.32 10768,4643.52C10768,4639.06 10768,4634.58 10768,4630.12Z" style="fill:rgb(50,95,79);"/>
                    </g>
                    <g transform="matrix(-0.189351,0,0,0.276237,12690.7,2748.8)">
                        <path d="M10768,4636.82C10768,4610.25 10763.4,4584.77 10755.3,4565.98C10747.1,4547.2 10736,4536.64 10724.5,4536.64L10664.5,4536.64C10653,4536.64 10641.9,4547.2 10633.7,4565.98C10625.6,4584.77 10621,4610.25 10621,4636.82L10621,4636.82C10621,4663.39 10625.6,4688.87 10633.7,4707.66C10641.9,4726.45 10653,4737 10664.5,4737C10683.4,4737 10705.6,4737 10724.5,4737C10736,4737 10747.1,4726.45 10755.3,4707.66C10763.4,4688.87 10768,4663.39 10768,4636.82C10768,4636.82 10768,4636.82 10768,4636.82Z" style="fill:rgb(50,95,79);"/>
                    </g>
                    <g transform="matrix(-0.283099,0,0,0.139428,13679.9,3333.98)">
                        <path d="M10768,4636.82C10768,4581.49 10761.4,4536.64 10753.3,4536.64C10725.2,4536.64 10663.8,4536.64 10635.7,4536.64C10627.6,4536.64 10621,4581.49 10621,4636.82C10621,4636.82 10621,4636.82 10621,4636.82C10621,4692.15 10627.6,4737 10635.7,4737C10663.8,4737 10725.2,4737 10753.3,4737C10761.4,4737 10768,4692.15 10768,4636.82C10768,4636.82 10768,4636.82 10768,4636.82Z" style="fill:rgb(50,95,79);"/>
                    </g>
                    <g transform="matrix(-0.127581,0,0,0.576097,12012.1,1463.24)">
                        <path d="M10768,4591.33C10768,4576.83 10760.3,4562.92 10746.5,4552.66C10732.7,4542.4 10714,4536.64 10694.5,4536.64L10694.5,4536.64C10675,4536.64 10656.3,4542.4 10642.5,4552.66C10628.7,4562.92 10621,4576.83 10621,4591.33L10621,4682.31C10621,4696.82 10628.7,4710.73 10642.5,4720.98C10656.3,4731.24 10675,4737 10694.5,4737L10694.5,4737C10714,4737 10732.7,4731.24 10746.5,4720.98C10760.3,4710.73 10768,4696.82 10768,4682.31L10768,4591.33Z" style="fill:rgb(50,95,79);"/>
                    </g>
                    <g transform="matrix(-0.45153,0,0,1.36055,15590.4,-2326.71)">
                        <rect x="10893" y="4634.85" width="19" height="168.15" style="fill:rgb(53,57,17);"/>
                    </g>
                    <g transform="matrix(-0.0879275,0,0,0.63168,11606.3,1174.04)">
                        <rect x="10893" y="4634.85" width="19" height="168.15" style="fill:rgb(53,57,17);"/>
                    </g>
                    <g transform="matrix(-0.0761475,0.14771,0.0844136,0.491235,11089,137.169)">
                        <rect x="10893" y="4634.85" width="19" height="168.15" style="fill:rgb(53,57,17);"/>
                    </g>
                    <g transform="matrix(-0.0879275,-2.23057e-17,-1.11022e-16,0.567229,11618.1,1356.43)">
                        <rect x="10893" y="4634.85" width="19" height="168.15" style="fill:rgb(53,57,17);"/>
                    </g>
                    <g transform="matrix(0.0761475,0.14771,-0.0844136,0.491235,10242.1,166.048)">
                        <rect x="10893" y="4634.85" width="19" height="168.15" style="fill:rgb(53,57,17);"/>
                    </g>
                    <g transform="matrix(-0.0761475,0.14771,0.0256481,0.149256,11354.8,1826.5)">
                        <rect x="10893" y="4634.85" width="19" height="168.15" style="fill:rgb(53,57,17);"/>
                    </g>
                    <g transform="matrix(-0.342978,0,0,0.500357,14337.3,1668.52)">
                        <path d="M10768,4622.21C10768,4574.95 10751.4,4536.64 10730.8,4536.64C10708.6,4536.64 10680.4,4536.64 10658.2,4536.64C10637.6,4536.64 10621,4574.95 10621,4622.21C10621,4631.89 10621,4641.76 10621,4651.44C10621,4698.69 10637.6,4737 10658.2,4737L10730.8,4737C10751.4,4737 10768,4698.69 10768,4651.44C10768,4641.76 10768,4631.89 10768,4622.21Z" style="fill:rgb(50,95,79);"/>
                    </g>
                    <g transform="matrix(-0.203223,0,0,0.177738,12830.6,3145.42)">
                        <path d="M10768,4636.82C10768,4581.49 10756.3,4536.64 10741.9,4536.64C10715.2,4536.64 10673.8,4536.64 10647.1,4536.64C10632.7,4536.64 10621,4581.49 10621,4636.82C10621,4636.82 10621,4636.82 10621,4636.83C10621,4692.15 10632.7,4737 10647.1,4737C10673.8,4737 10715.2,4737 10741.9,4737C10756.3,4737 10768,4692.15 10768,4636.83C10768,4636.82 10768,4636.82 10768,4636.82Z" style="fill:rgb(85,128,132);"/>
                    </g>
                    <g transform="matrix(-0.266929,0,0,0.370016,13525.2,2290.93)">
                        <path d="M10768,4636.82C10768,4581.49 10749.5,4536.64 10726.7,4536.64C10706.6,4536.64 10682.4,4536.64 10662.3,4536.64C10639.5,4536.64 10621,4581.49 10621,4636.82C10621,4636.82 10621,4636.82 10621,4636.82C10621,4692.15 10639.5,4737 10662.3,4737C10682.4,4737 10706.6,4737 10726.7,4737C10749.5,4737 10768,4692.15 10768,4636.82C10768,4636.82 10768,4636.82 10768,4636.82Z" style="fill:rgb(85,128,132);"/>
                    </g>
                    <g transform="matrix(-0.143629,0,0,0.139428,12219.7,3443.91)">
                        <path d="M10768,4636.82C10768,4610.25 10765,4584.77 10759.5,4565.98C10754.1,4547.2 10746.7,4536.64 10739.1,4536.64C10713.3,4536.64 10675.7,4536.64 10649.9,4536.64C10642.3,4536.64 10634.9,4547.2 10629.5,4565.98C10624,4584.77 10621,4610.25 10621,4636.82L10621,4636.82C10621,4663.39 10624,4688.87 10629.5,4707.66C10634.9,4726.45 10642.3,4737 10649.9,4737C10675.7,4737 10713.3,4737 10739.1,4737C10746.7,4737 10754.1,4726.45 10759.5,4707.66C10765,4688.87 10768,4663.39 10768,4636.82L10768,4636.82Z" style="fill:rgb(85,128,132);"/>
                    </g>
                    <g transform="matrix(-0.0924486,0,0,0.139428,11639.6,3411.16)">
                        <path d="M10768,4636.82C10768,4610.25 10763.3,4584.77 10754.8,4565.98C10746.4,4547.2 10735,4536.64 10723,4536.64C10704.9,4536.64 10684.1,4536.64 10666,4536.64C10654,4536.64 10642.6,4547.2 10634.2,4565.98C10625.7,4584.77 10621,4610.25 10621,4636.82C10621,4636.82 10621,4636.82 10621,4636.82C10621,4663.39 10625.7,4688.87 10634.2,4707.66C10642.6,4726.45 10654,4737 10666,4737C10684.1,4737 10704.9,4737 10723,4737C10735,4737 10746.4,4726.45 10754.8,4707.66C10763.3,4688.87 10768,4663.39 10768,4636.82C10768,4636.82 10768,4636.82 10768,4636.82Z" style="fill:rgb(85,128,132);"/>
                    </g>
                    <g transform="matrix(-0.143629,0,0,0.276237,12203.1,2657.6)">
                        <path d="M10768,4636.82C10768,4610.25 10762,4584.77 10751.2,4565.98C10740.5,4547.2 10725.9,4536.64 10710.7,4536.64C10700,4536.64 10689,4536.64 10678.3,4536.64C10663.1,4536.64 10648.6,4547.2 10637.8,4565.98C10627,4584.77 10621,4610.25 10621,4636.82C10621,4636.82 10621,4636.82 10621,4636.82C10621,4663.39 10627,4688.87 10637.8,4707.66C10648.6,4726.45 10663.1,4737 10678.3,4737L10710.7,4737C10725.9,4737 10740.5,4726.45 10751.2,4707.66C10762,4688.87 10768,4663.39 10768,4636.82C10768,4636.82 10768,4636.82 10768,4636.82Z" style="fill:rgb(117,155,132);"/>
                    </g>
                    <g transform="matrix(-0.189351,0,0,0.276237,12701.2,2757.85)">
                        <path d="M10768,4636.82C10768,4610.25 10763.4,4584.77 10755.3,4565.98C10747.1,4547.2 10736,4536.64 10724.5,4536.64L10664.5,4536.64C10653,4536.64 10641.9,4547.2 10633.7,4565.98C10625.6,4584.77 10621,4610.25 10621,4636.82C10621,4636.82 10621,4636.82 10621,4636.82C10621,4663.39 10625.6,4688.87 10633.7,4707.66C10641.9,4726.45 10653,4737 10664.5,4737L10724.5,4737C10736,4737 10747.1,4726.45 10755.3,4707.66C10763.4,4688.87 10768,4663.39 10768,4636.82L10768,4636.82Z" style="fill:rgb(117,155,132);"/>
                    </g>
                    <g transform="matrix(-0.0961564,0,0,0.0736019,11716.5,3740.02)">
                        <path d="M10768,4636.81C10768,4581.49 10757.8,4536.64 10745.2,4536.64C10717.6,4536.64 10671.4,4536.64 10643.8,4536.64C10631.2,4536.64 10621,4581.49 10621,4636.81L10621,4636.83C10621,4692.15 10631.2,4737 10643.8,4737C10671.4,4737 10717.6,4737 10745.2,4737C10757.8,4737 10768,4692.15 10768,4636.83C10768,4636.82 10768,4636.82 10768,4636.81Z" style="fill:rgb(117,155,132);"/>
                    </g>
                    <g transform="matrix(-0.131741,0,0,0.177738,12056.4,3181.03)">
                        <path d="M10768,4636.82C10768,4581.49 10750,4536.64 10727.8,4536.64C10707.1,4536.64 10681.9,4536.64 10661.2,4536.64C10639,4536.64 10621,4581.49 10621,4636.82C10621,4636.82 10621,4636.82 10621,4636.83C10621,4692.15 10639,4737 10661.2,4737C10681.9,4737 10707.1,4737 10727.8,4737C10750,4737 10768,4692.15 10768,4636.83C10768,4636.82 10768,4636.82 10768,4636.82Z" style="fill:rgb(117,155,132);"/>
                    </g>
                    <g transform="matrix(-0.189351,0,0,0.0927391,12696.9,3536.12)">
                        <path d="M10768,4636.82C10768,4610.25 10766.5,4584.77 10763.7,4565.98C10761,4547.2 10757.3,4536.64 10753.4,4536.64C10725.2,4536.64 10663.8,4536.64 10635.6,4536.64C10631.7,4536.64 10628,4547.2 10625.3,4565.98C10622.5,4584.77 10621,4610.25 10621,4636.82C10621,4636.82 10621,4636.82 10621,4636.82C10621,4663.39 10622.5,4688.87 10625.3,4707.66C10628,4726.45 10631.7,4737 10635.6,4737C10663.8,4737 10725.2,4737 10753.4,4737C10757.3,4737 10761,4726.45 10763.7,4707.66C10766.5,4688.87 10768,4663.39 10768,4636.82C10768,4636.82 10768,4636.82 10768,4636.82Z" style="fill:rgb(117,155,132);"/>
                    </g>
                    <g transform="matrix(0.127581,0,0,0.42865,9313.91,2167.28)">
                        <path d="M10768,4610.14C10768,4590.65 10760.3,4571.95 10746.5,4558.17C10732.7,4544.39 10714,4536.64 10694.5,4536.64L10694.5,4536.64C10675,4536.64 10656.3,4544.39 10642.5,4558.17C10628.7,4571.95 10621,4590.65 10621,4610.14C10621,4627.54 10621,4646.1 10621,4663.5C10621,4682.99 10628.7,4701.69 10642.5,4715.47C10656.3,4729.26 10675,4737 10694.5,4737C10694.5,4737 10694.5,4737 10694.5,4737C10714,4737 10732.7,4729.26 10746.5,4715.47C10760.3,4701.69 10768,4682.99 10768,4663.5L10768,4610.14Z" style="fill:rgb(85,128,132);"/>
                    </g>
                    <g transform="matrix(0.0879275,0,0,0.447883,9719.7,2056.82)">
                        <rect x="10893" y="4634.85" width="19" height="168.15" style="fill:rgb(53,57,17);"/>
                    </g>
                    <g transform="matrix(0.0761475,0.14771,-0.0256481,0.149256,9971.21,1861.75)">
                        <rect x="10893" y="4634.85" width="19" height="168.15" style="fill:rgb(53,57,17);"/>
                    </g>
                </g>
                <g transform="matrix(0.992233,0,0,1.04034,38.6638,-169.753)">
                    <g transform="matrix(-0.189351,0,0,0.276237,12690.7,2748.8)">
                        <path d="M10768,4636.82C10768,4610.25 10763.4,4584.77 10755.3,4565.98C10747.1,4547.2 10736,4536.64 10724.5,4536.64C10705.6,4536.64 10683.4,4536.64 10664.5,4536.64C10653,4536.64 10641.9,4547.2 10633.7,4565.98C10625.6,4584.77 10621,4610.25 10621,4636.82C10621,4636.82 10621,4636.82 10621,4636.82C10621,4663.39 10625.6,4688.87 10633.7,4707.66C10641.9,4726.45 10653,4737 10664.5,4737L10724.5,4737C10736,4737 10747.1,4726.45 10755.3,4707.66C10763.4,4688.87 10768,4663.39 10768,4636.82C10768,4636.82 10768,4636.82 10768,4636.82Z" style="fill:rgb(50,95,79);"/>
                    </g>
                    <g transform="matrix(-0.283099,0,0,0.139428,13679.9,3333.98)">
                        <path d="M10768,4636.82C10768,4581.49 10761.4,4536.64 10753.3,4536.64C10725.2,4536.64 10663.8,4536.64 10635.7,4536.64C10627.6,4536.64 10621,4581.49 10621,4636.82C10621,4636.82 10621,4636.82 10621,4636.82C10621,4692.15 10627.6,4737 10635.7,4737C10663.8,4737 10725.2,4737 10753.3,4737C10761.4,4737 10768,4692.15 10768,4636.82C10768,4636.82 10768,4636.82 10768,4636.82Z" style="fill:rgb(50,95,79);"/>
                    </g>
                    <g transform="matrix(-0.127581,0,0,0.576097,12012.1,1463.24)">
                        <path d="M10768,4591.33C10768,4576.83 10760.3,4562.92 10746.5,4552.66C10732.7,4542.4 10714,4536.64 10694.5,4536.64L10694.5,4536.64C10675,4536.64 10656.3,4542.4 10642.5,4552.66C10628.7,4562.92 10621,4576.83 10621,4591.33C10621,4619.61 10621,4654.03 10621,4682.31C10621,4696.82 10628.7,4710.73 10642.5,4720.98C10656.3,4731.24 10675,4737 10694.5,4737L10694.5,4737C10714,4737 10732.7,4731.24 10746.5,4720.98C10760.3,4710.73 10768,4696.82 10768,4682.31L10768,4591.33Z" style="fill:rgb(50,95,79);"/>
                    </g>
                    <g transform="matrix(-0.45153,0,0,1.36055,15590.4,-2326.71)">
                        <rect x="10893" y="4634.85" width="19" height="168.15" style="fill:rgb(53,57,17);"/>
                    </g>
                    <g transform="matrix(-0.0879275,0,0,0.63168,11606.3,1174.04)">
                        <rect x="10893" y="4634.85" width="19" height="168.15" style="fill:rgb(53,57,17);"/>
                    </g>
                    <g transform="matrix(-0.0761475,0.14771,0.0844136,0.491235,11089,137.169)">
                        <rect x="10893" y="4634.85" width="19" height="168.15" style="fill:rgb(53,57,17);"/>
                    </g>
                    <g transform="matrix(-0.0879275,-2.23057e-17,-1.11022e-16,0.567229,11618.1,1356.43)">
                        <rect x="10893" y="4634.85" width="19" height="168.15" style="fill:rgb(53,57,17);"/>
                    </g>
                    <g transform="matrix(0.0761475,0.14771,-0.0844136,0.491235,10242.1,166.048)">
                        <rect x="10893" y="4634.85" width="19" height="168.15" style="fill:rgb(53,57,17);"/>
                    </g>
                    <g transform="matrix(-0.0761475,0.14771,0.0256481,0.149256,11354.8,1826.5)">
                        <rect x="10893" y="4634.85" width="19" height="168.15" style="fill:rgb(53,57,17);"/>
                    </g>
                    <g transform="matrix(-0.342978,0,0,0.500357,14337.3,1668.52)">
                        <path d="M10768,4622.21C10768,4574.95 10751.4,4536.64 10730.8,4536.64C10708.6,4536.64 10680.4,4536.64 10658.2,4536.64C10637.6,4536.64 10621,4574.95 10621,4622.21C10621,4631.89 10621,4641.76 10621,4651.44C10621,4698.69 10637.6,4737 10658.2,4737L10730.8,4737C10751.4,4737 10768,4698.69 10768,4651.44C10768,4641.76 10768,4631.89 10768,4622.21Z" style="fill:rgb(50,95,79);"/>
                    </g>
                    <g transform="matrix(-0.203223,0,0,0.177738,12830.6,3145.42)">
                        <path d="M10768,4636.82C10768,4581.49 10756.3,4536.64 10741.9,4536.64C10715.2,4536.64 10673.8,4536.64 10647.1,4536.64C10632.7,4536.64 10621,4581.49 10621,4636.82C10621,4636.82 10621,4636.82 10621,4636.83C10621,4692.15 10632.7,4737 10647.1,4737C10673.8,4737 10715.2,4737 10741.9,4737C10756.3,4737 10768,4692.15 10768,4636.83C10768,4636.82 10768,4636.82 10768,4636.82Z" style="fill:rgb(85,128,132);"/>
                    </g>
                    <g transform="matrix(-0.266929,0,0,0.370016,13525.2,2290.93)">
                        <path d="M10768,4636.82C10768,4581.49 10749.5,4536.64 10726.7,4536.64C10706.6,4536.64 10682.4,4536.64 10662.3,4536.64C10639.5,4536.64 10621,4581.49 10621,4636.82C10621,4636.82 10621,4636.82 10621,4636.82C10621,4692.15 10639.5,4737 10662.3,4737C10682.4,4737 10706.6,4737 10726.7,4737C10749.5,4737 10768,4692.15 10768,4636.82C10768,4636.82 10768,4636.82 10768,4636.82Z" style="fill:rgb(85,128,132);"/>
                    </g>
                    <g transform="matrix(-0.143629,0,0,0.139428,12219.7,3443.91)">
                        <path d="M10768,4636.82C10768,4610.25 10765,4584.77 10759.5,4565.98C10754.1,4547.2 10746.7,4536.64 10739.1,4536.64C10713.3,4536.64 10675.7,4536.64 10649.9,4536.64C10642.3,4536.64 10634.9,4547.2 10629.5,4565.98C10624,4584.77 10621,4610.25 10621,4636.82L10621,4636.82C10621,4663.39 10624,4688.87 10629.5,4707.66C10634.9,4726.45 10642.3,4737 10649.9,4737C10675.7,4737 10713.3,4737 10739.1,4737C10746.7,4737 10754.1,4726.45 10759.5,4707.66C10765,4688.87 10768,4663.39 10768,4636.82L10768,4636.82Z" style="fill:rgb(85,128,132);"/>
                    </g>
                    <g transform="matrix(-0.0924486,0,0,0.139428,11639.6,3411.16)">
                        <path d="M10768,4636.82C10768,4610.25 10763.3,4584.77 10754.8,4565.98C10746.4,4547.2 10735,4536.64 10723,4536.64C10704.9,4536.64 10684.1,4536.64 10666,4536.64C10654,4536.64 10642.6,4547.2 10634.2,4565.98C10625.7,4584.77 10621,4610.25 10621,4636.82C10621,4636.82 10621,4636.82 10621,4636.82C10621,4663.39 10625.7,4688.87 10634.2,4707.66C10642.6,4726.45 10654,4737 10666,4737C10684.1,4737 10704.9,4737 10723,4737C10735,4737 10746.4,4726.45 10754.8,4707.66C10763.3,4688.87 10768,4663.39 10768,4636.82C10768,4636.82 10768,4636.82 10768,4636.82Z" style="fill:rgb(85,128,132);"/>
                    </g>
                    <g transform="matrix(-0.127581,0,0,0.276237,12032.7,2657.6)">
                        <path d="M10768,4636.82C10768,4610.25 10761.2,4584.77 10749.1,4565.98C10737,4547.2 10720.6,4536.64 10703.4,4536.64C10697.5,4536.64 10691.5,4536.64 10685.6,4536.64C10668.4,4536.64 10652,4547.2 10639.9,4565.98C10627.8,4584.77 10621,4610.25 10621,4636.82C10621,4636.82 10621,4636.82 10621,4636.82C10621,4663.39 10627.8,4688.87 10639.9,4707.66C10652,4726.45 10668.4,4737 10685.6,4737C10691.5,4737 10697.5,4737 10703.4,4737C10720.6,4737 10737,4726.45 10749.1,4707.66C10761.2,4688.87 10768,4663.39 10768,4636.82L10768,4636.82Z" style="fill:rgb(117,155,132);"/>
                    </g>
                    <g transform="matrix(-0.189351,0,0,0.276237,12701.2,2757.85)">
                        <path d="M10768,4636.82C10768,4610.25 10763.4,4584.77 10755.3,4565.98C10747.1,4547.2 10736,4536.64 10724.5,4536.64L10664.5,4536.64C10653,4536.64 10641.9,4547.2 10633.7,4565.98C10625.6,4584.77 10621,4610.25 10621,4636.82C10621,4636.82 10621,4636.82 10621,4636.82C10621,4663.39 10625.6,4688.87 10633.7,4707.66C10641.9,4726.45 10653,4737 10664.5,4737C10683.4,4737 10705.6,4737 10724.5,4737C10736,4737 10747.1,4726.45 10755.3,4707.66C10763.4,4688.87 10768,4663.39 10768,4636.82L10768,4636.82Z" style="fill:rgb(117,155,132);"/>
                    </g>
                    <g transform="matrix(-0.0961564,0,0,0.0736019,11716.5,3740.02)">
                        <path d="M10768,4636.81C10768,4581.49 10757.8,4536.64 10745.2,4536.64C10717.6,4536.64 10671.4,4536.64 10643.8,4536.64C10631.2,4536.64 10621,4581.49 10621,4636.81C10621,4636.82 10621,4636.82 10621,4636.83C10621,4692.15 10631.2,4737 10643.8,4737C10671.4,4737 10717.6,4737 10745.2,4737C10757.8,4737 10768,4692.15 10768,4636.83L10768,4636.81Z" style="fill:rgb(117,155,132);"/>
                    </g>
                    <g transform="matrix(-0.131741,0,0,0.177738,12056.4,3181.03)">
                        <path d="M10768,4636.82C10768,4581.49 10750,4536.64 10727.8,4536.64C10707.1,4536.64 10681.9,4536.64 10661.2,4536.64C10639,4536.64 10621,4581.49 10621,4636.82C10621,4636.82 10621,4636.82 10621,4636.83C10621,4692.15 10639,4737 10661.2,4737C10681.9,4737 10707.1,4737 10727.8,4737C10750,4737 10768,4692.15 10768,4636.83C10768,4636.82 10768,4636.82 10768,4636.82Z" style="fill:rgb(117,155,132);"/>
                    </g>
                    <g transform="matrix(-0.189351,0,0,0.0927391,12696.9,3536.12)">
                        <path d="M10768,4636.82C10768,4610.25 10766.5,4584.77 10763.7,4565.98C10761,4547.2 10757.3,4536.64 10753.4,4536.64C10725.2,4536.64 10663.8,4536.64 10635.6,4536.64C10631.7,4536.64 10628,4547.2 10625.3,4565.98C10622.5,4584.77 10621,4610.25 10621,4636.82C10621,4636.82 10621,4636.82 10621,4636.82C10621,4663.39 10622.5,4688.87 10625.3,4707.66C10628,4726.45 10631.7,4737 10635.6,4737C10663.8,4737 10725.2,4737 10753.4,4737C10757.3,4737 10761,4726.45 10763.7,4707.66C10766.5,4688.87 10768,4663.39 10768,4636.82C10768,4636.82 10768,4636.82 10768,4636.82Z" style="fill:rgb(117,155,132);"/>
                    </g>
                    <g transform="matrix(0.127581,0,0,0.42865,9313.91,2167.28)">
                        <path d="M10768,4610.14C10768,4590.65 10760.3,4571.95 10746.5,4558.17C10732.7,4544.39 10714,4536.64 10694.5,4536.64C10694.5,4536.64 10694.5,4536.64 10694.5,4536.64C10675,4536.64 10656.3,4544.39 10642.5,4558.17C10628.7,4571.95 10621,4590.65 10621,4610.14L10621,4663.5C10621,4682.99 10628.7,4701.69 10642.5,4715.47C10656.3,4729.26 10675,4737 10694.5,4737L10694.5,4737C10714,4737 10732.7,4729.26 10746.5,4715.47C10760.3,4701.69 10768,4682.99 10768,4663.5C10768,4646.1 10768,4627.54 10768,4610.14Z" style="fill:rgb(85,128,132);"/>
                    </g>
                    <g transform="matrix(0.0879275,0,0,0.447883,9719.7,2056.82)">
                        <rect x="10893" y="4634.85" width="19" height="168.15" style="fill:rgb(53,57,17);"/>
                    </g>
                    <g transform="matrix(0.0761475,0.14771,-0.0256481,0.149256,9971.21,1861.75)">
                        <rect x="10893" y="4634.85" width="19" height="168.15" style="fill:rgb(53,57,17);"/>
                    </g>
                </g>
                <g transform="matrix(0.992233,0,0,1.04034,92.6101,-169.753)">
                    <g transform="matrix(-0.189351,0,0,0.276237,12690.7,2748.8)">
                        <path d="M10768,4636.82C10768,4610.25 10763.4,4584.77 10755.3,4565.98C10747.1,4547.2 10736,4536.64 10724.5,4536.64L10664.5,4536.64C10653,4536.64 10641.9,4547.2 10633.7,4565.98C10625.6,4584.77 10621,4610.25 10621,4636.82L10621,4636.82C10621,4663.39 10625.6,4688.87 10633.7,4707.66C10641.9,4726.45 10653,4737 10664.5,4737L10724.5,4737C10736,4737 10747.1,4726.45 10755.3,4707.66C10763.4,4688.87 10768,4663.39 10768,4636.82L10768,4636.82Z" style="fill:rgb(50,95,79);"/>
                    </g>
                    <g transform="matrix(-0.283099,0,0,0.139428,13679.9,3333.98)">
                        <path d="M10768,4636.82C10768,4581.49 10761.4,4536.64 10753.3,4536.64C10725.2,4536.64 10663.8,4536.64 10635.7,4536.64C10627.6,4536.64 10621,4581.49 10621,4636.82L10621,4636.82C10621,4692.15 10627.6,4737 10635.7,4737C10663.8,4737 10725.2,4737 10753.3,4737C10761.4,4737 10768,4692.15 10768,4636.82C10768,4636.82 10768,4636.82 10768,4636.82Z" style="fill:rgb(50,95,79);"/>
                    </g>
                    <g transform="matrix(-0.127581,0,0,0.576097,12012.1,1463.24)">
                        <path d="M10768,4591.33C10768,4576.83 10760.3,4562.92 10746.5,4552.66C10732.7,4542.4 10714,4536.64 10694.5,4536.64L10694.5,4536.64C10675,4536.64 10656.3,4542.4 10642.5,4552.66C10628.7,4562.92 10621,4576.83 10621,4591.33C10621,4619.61 10621,4654.03 10621,4682.31C10621,4696.82 10628.7,4710.73 10642.5,4720.98C10656.3,4731.24 10675,4737 10694.5,4737L10694.5,4737C10714,4737 10732.7,4731.24 10746.5,4720.98C10760.3,4710.73 10768,4696.82 10768,4682.31C10768,4654.03 10768,4619.61 10768,4591.33Z" style="fill:rgb(50,95,79);"/>
                    </g>
                    <g transform="matrix(-0.45153,0,0,1.36055,15590.4,-2326.71)">
                        <rect x="10893" y="4634.85" width="19" height="168.15" style="fill:rgb(53,57,17);"/>
                    </g>
                    <g transform="matrix(-0.0879275,0,0,0.63168,11606.3,1174.04)">
                        <rect x="10893" y="4634.85" width="19" height="168.15" style="fill:rgb(53,57,17);"/>
                    </g>
                    <g transform="matrix(-0.0761475,0.14771,0.0844136,0.491235,11089,137.169)">
                        <rect x="10893" y="4634.85" width="19" height="168.15" style="fill:rgb(53,57,17);"/>
                    </g>
                    <g transform="matrix(-0.0879275,-2.23057e-17,-1.11022e-16,0.567229,11618.1,1356.43)">
                        <rect x="10893" y="4634.85" width="19" height="168.15" style="fill:rgb(53,57,17);"/>
                    </g>
                    <g transform="matrix(0.0761475,0.14771,-0.0844136,0.491235,10242.1,166.048)">
                        <rect x="10893" y="4634.85" width="19" height="168.15" style="fill:rgb(53,57,17);"/>
                    </g>
                    <g transform="matrix(-0.0761475,0.14771,0.0256481,0.149256,11354.8,1826.5)">
                        <rect x="10893" y="4634.85" width="19" height="168.15" style="fill:rgb(53,57,17);"/>
                    </g>
                    <g transform="matrix(-0.342978,0,0,0.500357,14337.3,1668.52)">
                        <path d="M10768,4622.21C10768,4574.95 10751.4,4536.64 10730.8,4536.64C10708.6,4536.64 10680.4,4536.64 10658.2,4536.64C10637.6,4536.64 10621,4574.95 10621,4622.21L10621,4651.44C10621,4698.69 10637.6,4737 10658.2,4737L10730.8,4737C10751.4,4737 10768,4698.69 10768,4651.44L10768,4622.21Z" style="fill:rgb(50,95,79);"/>
                    </g>
                    <g transform="matrix(-0.203223,0,0,0.177738,12830.6,3145.42)">
                        <path d="M10768,4636.82C10768,4581.49 10756.3,4536.64 10741.9,4536.64C10715.2,4536.64 10673.8,4536.64 10647.1,4536.64C10632.7,4536.64 10621,4581.49 10621,4636.82C10621,4636.82 10621,4636.82 10621,4636.83C10621,4692.15 10632.7,4737 10647.1,4737C10673.8,4737 10715.2,4737 10741.9,4737C10756.3,4737 10768,4692.15 10768,4636.83C10768,4636.82 10768,4636.82 10768,4636.82Z" style="fill:rgb(85,128,132);"/>
                    </g>
                    <g transform="matrix(-0.266929,0,0,0.370016,13525.2,2290.93)">
                        <path d="M10768,4636.82C10768,4581.49 10749.5,4536.64 10726.7,4536.64C10706.6,4536.64 10682.4,4536.64 10662.3,4536.64C10639.5,4536.64 10621,4581.49 10621,4636.82C10621,4636.82 10621,4636.82 10621,4636.82C10621,4692.15 10639.5,4737 10662.3,4737C10682.4,4737 10706.6,4737 10726.7,4737C10749.5,4737 10768,4692.15 10768,4636.82C10768,4636.82 10768,4636.82 10768,4636.82Z" style="fill:rgb(85,128,132);"/>
                    </g>
                    <g transform="matrix(-0.143629,0,0,0.139428,12219.7,3443.91)">
                        <path d="M10768,4636.82C10768,4610.25 10765,4584.77 10759.5,4565.98C10754.1,4547.2 10746.7,4536.64 10739.1,4536.64C10713.3,4536.64 10675.7,4536.64 10649.9,4536.64C10642.3,4536.64 10634.9,4547.2 10629.5,4565.98C10624,4584.77 10621,4610.25 10621,4636.82C10621,4636.82 10621,4636.82 10621,4636.82C10621,4663.39 10624,4688.87 10629.5,4707.66C10634.9,4726.45 10642.3,4737 10649.9,4737C10675.7,4737 10713.3,4737 10739.1,4737C10746.7,4737 10754.1,4726.45 10759.5,4707.66C10765,4688.87 10768,4663.39 10768,4636.82L10768,4636.82Z" style="fill:rgb(85,128,132);"/>
                    </g>
                    <g transform="matrix(-0.0924486,0,0,0.139428,11639.6,3411.16)">
                        <path d="M10768,4636.82C10768,4610.25 10763.3,4584.77 10754.8,4565.98C10746.4,4547.2 10735,4536.64 10723,4536.64C10704.9,4536.64 10684.1,4536.64 10666,4536.64C10654,4536.64 10642.6,4547.2 10634.2,4565.98C10625.7,4584.77 10621,4610.25 10621,4636.82C10621,4636.82 10621,4636.82 10621,4636.82C10621,4663.39 10625.7,4688.87 10634.2,4707.66C10642.6,4726.45 10654,4737 10666,4737C10684.1,4737 10704.9,4737 10723,4737C10735,4737 10746.4,4726.45 10754.8,4707.66C10763.3,4688.87 10768,4663.39 10768,4636.82L10768,4636.82Z" style="fill:rgb(85,128,132);"/>
                    </g>
                    <g transform="matrix(-0.159444,0,0,0.276237,12371.1,2657.6)">
                        <path d="M10768,4636.82C10768,4610.25 10762.6,4584.77 10752.9,4565.98C10743.2,4547.2 10730,4536.64 10716.3,4536.64C10702.2,4536.64 10686.8,4536.64 10672.7,4536.64C10659,4536.64 10645.8,4547.2 10636.1,4565.98C10626.4,4584.77 10621,4610.25 10621,4636.82C10621,4636.82 10621,4636.82 10621,4636.82C10621,4663.39 10626.4,4688.87 10636.1,4707.66C10645.8,4726.45 10659,4737 10672.7,4737C10686.8,4737 10702.2,4737 10716.3,4737C10730,4737 10743.2,4726.45 10752.9,4707.66C10762.6,4688.87 10768,4663.39 10768,4636.82L10768,4636.82Z" style="fill:rgb(117,155,132);"/>
                    </g>
                    <g transform="matrix(-0.189351,0,0,0.276237,12701.2,2757.85)">
                        <path d="M10768,4636.82C10768,4610.25 10763.4,4584.77 10755.3,4565.98C10747.1,4547.2 10736,4536.64 10724.5,4536.64C10705.6,4536.64 10683.4,4536.64 10664.5,4536.64C10653,4536.64 10641.9,4547.2 10633.7,4565.98C10625.6,4584.77 10621,4610.25 10621,4636.82L10621,4636.82C10621,4663.39 10625.6,4688.87 10633.7,4707.66C10641.9,4726.45 10653,4737 10664.5,4737L10724.5,4737C10736,4737 10747.1,4726.45 10755.3,4707.66C10763.4,4688.87 10768,4663.39 10768,4636.82C10768,4636.82 10768,4636.82 10768,4636.82Z" style="fill:rgb(117,155,132);"/>
                    </g>
                    <g transform="matrix(-0.0961564,0,0,0.0736019,11716.5,3740.02)">
                        <path d="M10768,4636.81C10768,4581.49 10757.8,4536.64 10745.2,4536.64C10717.6,4536.64 10671.4,4536.64 10643.8,4536.64C10631.2,4536.64 10621,4581.49 10621,4636.81C10621,4636.82 10621,4636.82 10621,4636.83C10621,4692.15 10631.2,4737 10643.8,4737C10671.4,4737 10717.6,4737 10745.2,4737C10757.8,4737 10768,4692.15 10768,4636.83L10768,4636.81Z" style="fill:rgb(117,155,132);"/>
                    </g>
                    <g transform="matrix(-0.131741,0,0,0.177738,12056.4,3181.03)">
                        <path d="M10768,4636.82C10768,4581.49 10750,4536.64 10727.8,4536.64C10707.1,4536.64 10681.9,4536.64 10661.2,4536.64C10639,4536.64 10621,4581.49 10621,4636.82C10621,4636.82 10621,4636.82 10621,4636.83C10621,4692.15 10639,4737 10661.2,4737C10681.9,4737 10707.1,4737 10727.8,4737C10750,4737 10768,4692.15 10768,4636.83C10768,4636.82 10768,4636.82 10768,4636.82Z" style="fill:rgb(117,155,132);"/>
                    </g>
                    <g transform="matrix(-0.189351,0,0,0.0927391,12696.9,3536.12)">
                        <path d="M10768,4636.82C10768,4610.25 10766.5,4584.77 10763.7,4565.98C10761,4547.2 10757.3,4536.64 10753.4,4536.64C10725.2,4536.64 10663.8,4536.64 10635.6,4536.64C10631.7,4536.64 10628,4547.2 10625.3,4565.98C10622.5,4584.77 10621,4610.25 10621,4636.82L10621,4636.82C10621,4663.39 10622.5,4688.87 10625.3,4707.66C10628,4726.45 10631.7,4737 10635.6,4737C10663.8,4737 10725.2,4737 10753.4,4737C10757.3,4737 10761,4726.45 10763.7,4707.66C10766.5,4688.87 10768,4663.39 10768,4636.82C10768,4636.82 10768,4636.82 10768,4636.82Z" style="fill:rgb(117,155,132);"/>
                    </g>
                    <g transform="matrix(0.127581,0,0,0.42865,9313.91,2167.28)">
                        <path d="M10768,4610.14C10768,4590.65 10760.3,4571.95 10746.5,4558.17C10732.7,4544.39 10714,4536.64 10694.5,4536.64L10694.5,4536.64C10675,4536.64 10656.3,4544.39 10642.5,4558.17C10628.7,4571.95 10621,4590.65 10621,4610.14C10621,4627.54 10621,4646.1 10621,4663.5C10621,4682.99 10628.7,4701.69 10642.5,4715.47C10656.3,4729.26 10675,4737 10694.5,4737C10694.5,4737 10694.5,4737 10694.5,4737C10714,4737 10732.7,4729.26 10746.5,4715.47C10760.3,4701.69 10768,4682.99 10768,4663.5L10768,4610.14Z" style="fill:rgb(85,128,132);"/>
                    </g>
                    <g transform="matrix(0.0879275,0,0,0.447883,9719.7,2056.82)">
                        <rect x="10893" y="4634.85" width="19" height="168.15" style="fill:rgb(53,57,17);"/>
                    </g>
                    <g transform="matrix(0.0761475,0.14771,-0.0256481,0.149256,9971.21,1861.75)">
                        <rect x="10893" y="4634.85" width="19" height="168.15" style="fill:rgb(53,57,17);"/>
                    </g>
                </g>
                <g transform="matrix(0.0963107,0.0909085,-0.0258064,0.339275,10608.6,3187.26)">
                    <rect x="1449" y="2004" width="21" height="21" style="fill:white;"/>
                </g>
                <g transform="matrix(0.0963107,0.0909085,-0.0258064,0.339275,10609.2,3180.13)">
                    <path d="M1470,2013.96C1470,2011.32 1468.95,2008.78 1467.08,2006.92C1465.22,2005.05 1462.68,2004 1460.05,2004C1459.68,2004 1459.32,2004 1458.95,2004C1456.32,2004 1453.78,2005.05 1451.92,2006.92C1450.05,2008.78 1449,2011.32 1449,2013.96C1449,2019.38 1449,2025 1449,2025L1470,2025C1470,2025 1470,2019.38 1470,2013.96Z" style="fill:rgb(255,232,151);"/>
                </g>
                <g transform="matrix(0.0963107,0.0909085,-0.0258064,0.339275,10610.7,3189.17)">
                    <path d="M1470,2013.96C1470,2011.32 1468.95,2008.78 1467.08,2006.92C1465.22,2005.05 1462.68,2004 1460.05,2004L1449,2004L1449,2025L1460.05,2025C1462.68,2025 1465.22,2023.95 1467.08,2022.08C1468.95,2020.22 1470,2017.68 1470,2015.05C1470,2014.68 1470,2014.32 1470,2013.96Z" style="fill:rgb(255,232,151);"/>
                </g>
                <g transform="matrix(0.0963107,0.0909085,-0.0258064,0.339275,10606.6,3185.35)">
                    <path d="M1470,2004L1458.95,2004C1456.32,2004 1453.78,2005.05 1451.92,2006.92C1450.05,2008.78 1449,2011.32 1449,2013.96C1449,2014.32 1449,2014.68 1449,2015.05C1449,2017.68 1450.05,2020.22 1451.92,2022.08C1453.78,2023.95 1456.32,2025 1458.95,2025L1470,2025L1470,2004Z" style="fill:rgb(255,232,151);"/>
                </g>
                <g transform="matrix(0.0963107,0.0909085,-0.0258064,0.339275,10608.1,3194.38)">
                    <path d="M1470,2004L1449,2004C1449,2004 1449,2009.62 1449,2015.05C1449,2017.68 1450.05,2020.22 1451.92,2022.08C1453.78,2023.95 1456.32,2025 1458.95,2025L1460.05,2025C1462.68,2025 1465.22,2023.95 1467.08,2022.08C1468.95,2020.22 1470,2017.68 1470,2015.05C1470,2009.62 1470,2004 1470,2004Z" style="fill:rgb(255,232,151);"/>
                </g>
                <g transform="matrix(0.992233,0,0,1.04034,137.594,-169.753)">
                    <g transform="matrix(-0.189351,0,0,0.276237,12690.7,2748.8)">
                        <path d="M10768,4636.82C10768,4610.25 10763.4,4584.77 10755.3,4565.98C10747.1,4547.2 10736,4536.64 10724.5,4536.64C10705.6,4536.64 10683.4,4536.64 10664.5,4536.64C10653,4536.64 10641.9,4547.2 10633.7,4565.98C10625.6,4584.77 10621,4610.25 10621,4636.82L10621,4636.82C10621,4663.39 10625.6,4688.87 10633.7,4707.66C10641.9,4726.45 10653,4737 10664.5,4737L10724.5,4737C10736,4737 10747.1,4726.45 10755.3,4707.66C10763.4,4688.87 10768,4663.39 10768,4636.82C10768,4636.82 10768,4636.82 10768,4636.82Z" style="fill:rgb(50,95,79);"/>
                    </g>
                    <g transform="matrix(-0.283099,0,0,0.139428,13679.9,3333.98)">
                        <path d="M10768,4636.82C10768,4581.49 10761.4,4536.64 10753.3,4536.64C10725.2,4536.64 10663.8,4536.64 10635.7,4536.64C10627.6,4536.64 10621,4581.49 10621,4636.82C10621,4636.82 10621,4636.82 10621,4636.82C10621,4692.15 10627.6,4737 10635.7,4737C10663.8,4737 10725.2,4737 10753.3,4737C10761.4,4737 10768,4692.15 10768,4636.82C10768,4636.82 10768,4636.82 10768,4636.82Z" style="fill:rgb(50,95,79);"/>
                    </g>
                    <g transform="matrix(-0.45153,0,0,1.36055,15590.4,-2326.71)">
                        <rect x="10893" y="4634.85" width="19" height="168.15" style="fill:rgb(53,57,17);"/>
                    </g>
                    <g transform="matrix(-0.0761475,0.14771,0.0844136,0.491235,11089,137.169)">
                        <rect x="10893" y="4634.85" width="19" height="168.15" style="fill:rgb(53,57,17);"/>
                    </g>
                    <g transform="matrix(-0.0879275,-2.23057e-17,-1.11022e-16,0.567229,11618.1,1356.43)">
                        <rect x="10893" y="4634.85" width="19" height="168.15" style="fill:rgb(53,57,17);"/>
                    </g>
                    <g transform="matrix(0.0761475,0.14771,-0.0844136,0.491235,10242.1,166.048)">
                        <rect x="10893" y="4634.85" width="19" height="168.15" style="fill:rgb(53,57,17);"/>
                    </g>
                    <g transform="matrix(-0.342978,0,0,0.500357,14337.3,1668.52)">
                        <path d="M10768,4622.21C10768,4574.95 10751.4,4536.64 10730.8,4536.64C10708.6,4536.64 10680.4,4536.64 10658.2,4536.64C10637.6,4536.64 10621,4574.95 10621,4622.21L10621,4651.44C10621,4698.69 10637.6,4737 10658.2,4737L10730.8,4737C10751.4,4737 10768,4698.69 10768,4651.44L10768,4622.21Z" style="fill:rgb(50,95,79);"/>
                    </g>
                    <g transform="matrix(-0.203223,0,0,0.177738,12830.6,3145.42)">
                        <path d="M10768,4636.82C10768,4581.49 10756.3,4536.64 10741.9,4536.64C10715.2,4536.64 10673.8,4536.64 10647.1,4536.64C10632.7,4536.64 10621,4581.49 10621,4636.82C10621,4636.82 10621,4636.82 10621,4636.83C10621,4692.15 10632.7,4737 10647.1,4737C10673.8,4737 10715.2,4737 10741.9,4737C10756.3,4737 10768,4692.15 10768,4636.83C10768,4636.82 10768,4636.82 10768,4636.82Z" style="fill:rgb(85,128,132);"/>
                    </g>
                    <g transform="matrix(-0.266929,0,0,0.370016,13525.2,2290.93)">
                        <path d="M10768,4636.82C10768,4581.49 10749.5,4536.64 10726.7,4536.64C10706.6,4536.64 10682.4,4536.64 10662.3,4536.64C10639.5,4536.64 10621,4581.49 10621,4636.82C10621,4636.82 10621,4636.82 10621,4636.82C10621,4692.15 10639.5,4737 10662.3,4737C10682.4,4737 10706.6,4737 10726.7,4737C10749.5,4737 10768,4692.15 10768,4636.82C10768,4636.82 10768,4636.82 10768,4636.82Z" style="fill:rgb(85,128,132);"/>
                    </g>
                    <g transform="matrix(-0.143629,0,0,0.139428,12219.7,3443.91)">
                        <path d="M10768,4636.82C10768,4610.25 10765,4584.77 10759.5,4565.98C10754.1,4547.2 10746.7,4536.64 10739.1,4536.64C10713.3,4536.64 10675.7,4536.64 10649.9,4536.64C10642.3,4536.64 10634.9,4547.2 10629.5,4565.98C10624,4584.77 10621,4610.25 10621,4636.82L10621,4636.82C10621,4663.39 10624,4688.87 10629.5,4707.66C10634.9,4726.45 10642.3,4737 10649.9,4737C10675.7,4737 10713.3,4737 10739.1,4737C10746.7,4737 10754.1,4726.45 10759.5,4707.66C10765,4688.87 10768,4663.39 10768,4636.82L10768,4636.82Z" style="fill:rgb(85,128,132);"/>
                    </g>
                    <g transform="matrix(-0.0924486,0,0,0.139428,11639.6,3411.16)">
                        <path d="M10768,4636.82C10768,4610.25 10763.3,4584.77 10754.8,4565.98C10746.4,4547.2 10735,4536.64 10723,4536.64C10704.9,4536.64 10684.1,4536.64 10666,4536.64C10654,4536.64 10642.6,4547.2 10634.2,4565.98C10625.7,4584.77 10621,4610.25 10621,4636.82C10621,4636.82 10621,4636.82 10621,4636.82C10621,4663.39 10625.7,4688.87 10634.2,4707.66C10642.6,4726.45 10654,4737 10666,4737C10684.1,4737 10704.9,4737 10723,4737C10735,4737 10746.4,4726.45 10754.8,4707.66C10763.3,4688.87 10768,4663.39 10768,4636.82C10768,4636.82 10768,4636.82 10768,4636.82Z" style="fill:rgb(85,128,132);"/>
                    </g>
                    <g transform="matrix(-0.152266,0,0,0.276237,12294.9,2657.6)">
                        <path d="M10768,4636.82C10768,4610.25 10762.3,4584.77 10752.2,4565.98C10742,4547.2 10728.3,4536.64 10713.9,4536.64C10701.2,4536.64 10687.8,4536.64 10675.1,4536.64C10660.7,4536.64 10647,4547.2 10636.8,4565.98C10626.7,4584.77 10621,4610.25 10621,4636.82C10621,4636.82 10621,4636.82 10621,4636.82C10621,4663.39 10626.7,4688.87 10636.8,4707.66C10647,4726.45 10660.7,4737 10675.1,4737C10687.8,4737 10701.2,4737 10713.9,4737C10728.3,4737 10742,4726.45 10752.2,4707.66C10762.3,4688.87 10768,4663.39 10768,4636.82C10768,4636.82 10768,4636.82 10768,4636.82Z" style="fill:rgb(117,155,132);"/>
                    </g>
                    <g transform="matrix(-0.189351,0,0,0.276237,12701.2,2757.85)">
                        <path d="M10768,4636.82C10768,4610.25 10763.4,4584.77 10755.3,4565.98C10747.1,4547.2 10736,4536.64 10724.5,4536.64C10705.6,4536.64 10683.4,4536.64 10664.5,4536.64C10653,4536.64 10641.9,4547.2 10633.7,4565.98C10625.6,4584.77 10621,4610.25 10621,4636.82L10621,4636.82C10621,4663.39 10625.6,4688.87 10633.7,4707.66C10641.9,4726.45 10653,4737 10664.5,4737L10724.5,4737C10736,4737 10747.1,4726.45 10755.3,4707.66C10763.4,4688.87 10768,4663.39 10768,4636.82C10768,4636.82 10768,4636.82 10768,4636.82Z" style="fill:rgb(117,155,132);"/>
                    </g>
                    <g transform="matrix(-0.0961564,0,0,0.0736019,11716.5,3740.02)">
                        <path d="M10768,4636.81C10768,4581.49 10757.8,4536.64 10745.2,4536.64C10717.6,4536.64 10671.4,4536.64 10643.8,4536.64C10631.2,4536.64 10621,4581.49 10621,4636.81C10621,4636.82 10621,4636.82 10621,4636.83C10621,4692.15 10631.2,4737 10643.8,4737C10671.4,4737 10717.6,4737 10745.2,4737C10757.8,4737 10768,4692.15 10768,4636.83L10768,4636.81Z" style="fill:rgb(117,155,132);"/>
                    </g>
                    <g transform="matrix(-0.131741,0,0,0.177738,12056.4,3181.03)">
                        <path d="M10768,4636.82C10768,4581.49 10750,4536.64 10727.8,4536.64C10707.1,4536.64 10681.9,4536.64 10661.2,4536.64C10639,4536.64 10621,4581.49 10621,4636.82C10621,4636.82 10621,4636.82 10621,4636.83C10621,4692.15 10639,4737 10661.2,4737C10681.9,4737 10707.1,4737 10727.8,4737C10750,4737 10768,4692.15 10768,4636.83C10768,4636.82 10768,4636.82 10768,4636.82Z" style="fill:rgb(117,155,132);"/>
                    </g>
                    <g transform="matrix(-0.189351,0,0,0.0927391,12696.9,3536.12)">
                        <path d="M10768,4636.82C10768,4610.25 10766.5,4584.77 10763.7,4565.98C10761,4547.2 10757.3,4536.64 10753.4,4536.64C10725.2,4536.64 10663.8,4536.64 10635.6,4536.64C10631.7,4536.64 10628,4547.2 10625.3,4565.98C10622.5,4584.77 10621,4610.25 10621,4636.82C10621,4636.82 10621,4636.82 10621,4636.82C10621,4663.39 10622.5,4688.87 10625.3,4707.66C10628,4726.45 10631.7,4737 10635.6,4737C10663.8,4737 10725.2,4737 10753.4,4737C10757.3,4737 10761,4726.45 10763.7,4707.66C10766.5,4688.87 10768,4663.39 10768,4636.82C10768,4636.82 10768,4636.82 10768,4636.82Z" style="fill:rgb(117,155,132);"/>
                    </g>
                    <g transform="matrix(0.127581,0,0,0.42865,9313.91,2167.28)">
                        <path d="M10768,4610.14C10768,4590.65 10760.3,4571.95 10746.5,4558.17C10732.7,4544.39 10714,4536.64 10694.5,4536.64L10694.5,4536.64C10675,4536.64 10656.3,4544.39 10642.5,4558.17C10628.7,4571.95 10621,4590.65 10621,4610.14C10621,4627.54 10621,4646.1 10621,4663.5C10621,4682.99 10628.7,4701.69 10642.5,4715.47C10656.3,4729.26 10675,4737 10694.5,4737C10694.5,4737 10694.5,4737 10694.5,4737C10714,4737 10732.7,4729.26 10746.5,4715.47C10760.3,4701.69 10768,4682.99 10768,4663.5L10768,4610.14Z" style="fill:rgb(85,128,132);"/>
                    </g>
                    <g transform="matrix(0.0879275,0,0,0.447883,9719.7,2056.82)">
                        <rect x="10893" y="4634.85" width="19" height="168.15" style="fill:rgb(53,57,17);"/>
                    </g>
                    <g transform="matrix(0.0761475,0.14771,-0.0256481,0.149256,9971.21,1861.75)">
                        <rect x="10893" y="4634.85" width="19" height="168.15" style="fill:rgb(53,57,17);"/>
                    </g>
                </g>
                <g transform="matrix(0.257992,0,0,0.908834,7857.68,-207.9)">
                    <path d="M11052,4796.26C11052,4788.77 11049,4781.58 11043.7,4776.28C11038.4,4770.98 11031.2,4768 11023.7,4768L11022.3,4768C11014.8,4768 11007.6,4770.98 11002.3,4776.28C10997,4781.58 10994,4788.77 10994,4796.26L10994,4898.35L11052,4898.35L11052,4796.26Z" style="fill:rgb(117,155,132);"/>
                </g>
                <g transform="matrix(0.181169,0,0,0.638207,8616.93,1100.08)">
                    <path d="M11052,4796.26C11052,4788.77 11049,4781.58 11043.7,4776.28C11038.4,4770.98 11031.2,4768 11023.7,4768C11023.2,4768 11022.8,4768 11022.3,4768C11014.8,4768 11007.6,4770.98 11002.3,4776.28C10997,4781.58 10994,4788.77 10994,4796.26L10994,4898.35L11052,4898.35C11052,4898.35 11052,4834.6 11052,4796.26Z" style="fill:rgb(85,128,132);"/>
                </g>
                <g transform="matrix(-0.12659,0,0,0.599337,12063.5,1356.38)">
                    <path d="M10768,4591.33C10768,4576.83 10760.3,4562.92 10746.5,4552.66C10732.7,4542.4 10714,4536.64 10694.5,4536.64L10694.5,4536.64C10675,4536.64 10656.3,4542.4 10642.5,4552.66C10628.7,4562.92 10621,4576.83 10621,4591.33L10621,4682.31C10621,4696.82 10628.7,4710.73 10642.5,4720.98C10656.3,4731.24 10675,4737 10694.5,4737C10694.5,4737 10694.5,4737 10694.5,4737C10714,4737 10732.7,4731.24 10746.5,4720.98C10760.3,4710.73 10768,4696.82 10768,4682.31L10768,4591.33Z" style="fill:rgb(50,95,79);"/>
                </g>
                <g transform="matrix(-0.0872446,0,0,0.736068,11660.8,707.695)">
                    <rect x="10893" y="4634.85" width="19" height="168.15" style="fill:rgb(53,57,17);"/>
                </g>
                <g transform="matrix(-0.0755561,0.153669,0.0254489,0.155277,11411.3,1734.29)">
                    <rect x="10893" y="4634.85" width="19" height="168.15" style="fill:rgb(53,57,17);"/>
                </g>
            </g>
        </g>
    </g>
</svg>
