<?xml version="1.0" encoding="UTF-8" standalone="no"?>
<!DOCTYPE svg PUBLIC "-//W3C//DTD SVG 1.1//EN" "http://www.w3.org/Graphics/SVG/1.1/DTD/svg11.dtd">
<svg width="100%" height="100%" viewBox="0 0 1216 145" version="1.1" xmlns="http://www.w3.org/2000/svg" xmlns:xlink="http://www.w3.org/1999/xlink" xml:space="preserve" xmlns:serif="http://www.serif.com/" style="fill-rule:evenodd;clip-rule:evenodd;stroke-linejoin:round;stroke-miterlimit:2;">
    <g transform="matrix(1,0,0,1,-0.880171,-2375.99)">
        <g id="Artboard4" transform="matrix(1,0,0,1,-2028.39,-499.5)">
            <rect x="2029.27" y="2875.49" width="1215.65" height="145" style="fill:none;"/>
            <clipPath id="_clip1">
                <rect x="2029.27" y="2875.49" width="1215.65" height="145"/>
            </clipPath>
            <g clip-path="url(#_clip1)">
                <g transform="matrix(0.999178,0,0,1.04556,1201.07,797.999)">
                    <rect x="828" y="1986" width="1217" height="138.681"/>
                </g>
                <g transform="matrix(0.935385,0,0,0.666449,-1639.26,1553.59)">
                    <path d="M4061,2001.36C4061,1999.41 4060.45,1997.54 4059.46,1996.16C4058.48,1994.78 4057.15,1994 4055.76,1994C4033.67,1994 3948.33,1994 3926.24,1994C3924.85,1994 3923.52,1994.78 3922.54,1996.16C3921.55,1997.54 3921,1999.41 3921,2001.36C3921,2009.72 3921,2023.29 3921,2031.65C3921,2033.61 3921.55,2035.48 3922.54,2036.86C3923.52,2038.24 3924.85,2039.02 3926.24,2039.02C3948.33,2039.02 4033.67,2039.02 4055.76,2039.02C4057.15,2039.02 4058.48,2038.24 4059.46,2036.86C4060.45,2035.48 4061,2033.61 4061,2031.65C4061,2023.29 4061,2009.72 4061,2001.36Z" style="fill:rgb(203,151,255);"/>
                </g>
                <g transform="matrix(0.935385,0,0,1.62202,-1639.26,-316.327)">
                    <path d="M4061,1997.03C4061,1995.35 4058.65,1994 4055.76,1994L3926.24,1994C3923.35,1994 3921,1995.35 3921,1997.03L3921,2035.99C3921,2037.66 3923.35,2039.02 3926.24,2039.02L4055.76,2039.02C4058.65,2039.02 4061,2037.66 4061,2035.99C4061,2027.79 4061,2005.22 4061,1997.03Z" style="fill:rgb(123,255,249);"/>
                </g>
                <g transform="matrix(0.935385,0,0,0.533159,-1639.26,1933.37)">
                    <path d="M4061,2003.2C4061,1998.12 4058.65,1994 4055.76,1994C4033.67,1994 3948.33,1994 3926.24,1994C3923.35,1994 3921,1998.12 3921,2003.2C3921,2010.97 3921,2022.04 3921,2029.81C3921,2034.89 3923.35,2039.02 3926.24,2039.02C3948.33,2039.02 4033.67,2039.02 4055.76,2039.02C4058.65,2039.02 4061,2034.89 4061,2029.81C4061,2022.04 4061,2010.97 4061,2003.2Z" style="fill:rgb(128,148,255);"/>
                </g>
                <g transform="matrix(0.935385,0,0,0.666449,-1503.62,1553.59)">
                    <path d="M4061,2001.36C4061,1999.41 4060.45,1997.54 4059.46,1996.16C4058.48,1994.78 4057.15,1994 4055.76,1994C4033.67,1994 3948.33,1994 3926.24,1994C3924.85,1994 3923.52,1994.78 3922.54,1996.16C3921.55,1997.54 3921,1999.41 3921,2001.36C3921,2009.72 3921,2023.29 3921,2031.65C3921,2033.61 3921.55,2035.48 3922.54,2036.86C3923.52,2038.24 3924.85,2039.02 3926.24,2039.02C3948.33,2039.02 4033.67,2039.02 4055.76,2039.02C4057.15,2039.02 4058.48,2038.24 4059.46,2036.86C4060.45,2035.48 4061,2033.61 4061,2031.65C4061,2023.29 4061,2009.72 4061,2001.36Z" style="fill:rgb(255,211,166);"/>
                </g>
                <g transform="matrix(0.935385,0,0,1.62202,-1503.62,-316.327)">
                    <path d="M4061,1997.03C4061,1995.35 4058.65,1994 4055.76,1994L3926.24,1994C3923.35,1994 3921,1995.35 3921,1997.03L3921,2035.99C3921,2037.66 3923.35,2039.02 3926.24,2039.02L4055.76,2039.02C4058.65,2039.02 4061,2037.66 4061,2035.99C4061,2027.79 4061,2005.22 4061,1997.03Z" style="fill:rgb(203,151,255);"/>
                </g>
                <g transform="matrix(0.935385,0,0,0.533159,-1503.62,1933.37)">
                    <path d="M4061,2003.2C4061,1998.12 4058.65,1994 4055.76,1994C4033.67,1994 3948.33,1994 3926.24,1994C3923.35,1994 3921,1998.12 3921,2003.2C3921,2010.97 3921,2022.04 3921,2029.81C3921,2034.89 3923.35,2039.02 3926.24,2039.02C3948.33,2039.02 4033.67,2039.02 4055.76,2039.02C4058.65,2039.02 4061,2034.89 4061,2029.81C4061,2022.04 4061,2010.97 4061,2003.2Z" style="fill:rgb(255,211,166);"/>
                </g>
                <g transform="matrix(0.935385,0,0,0.666449,-1367.99,1553.59)">
                    <path d="M4061,2001.36C4061,1999.41 4060.45,1997.54 4059.46,1996.16C4058.48,1994.78 4057.15,1994 4055.76,1994C4033.67,1994 3948.33,1994 3926.24,1994C3924.85,1994 3923.52,1994.78 3922.54,1996.16C3921.55,1997.54 3921,1999.41 3921,2001.36C3921,2009.72 3921,2023.29 3921,2031.65C3921,2033.61 3921.55,2035.48 3922.54,2036.86C3923.52,2038.24 3924.85,2039.02 3926.24,2039.02C3948.33,2039.02 4033.67,2039.02 4055.76,2039.02C4057.15,2039.02 4058.48,2038.24 4059.46,2036.86C4060.45,2035.48 4061,2033.61 4061,2031.65C4061,2023.29 4061,2009.72 4061,2001.36Z" style="fill:rgb(203,151,255);"/>
                </g>
                <g transform="matrix(0.935385,0,0,1.62202,-1367.99,-316.327)">
                    <path d="M4061,1997.03C4061,1995.35 4058.65,1994 4055.76,1994L3926.24,1994C3923.35,1994 3921,1995.35 3921,1997.03L3921,2035.99C3921,2037.66 3923.35,2039.02 3926.24,2039.02L4055.76,2039.02C4058.65,2039.02 4061,2037.66 4061,2035.99L4061,1997.03Z" style="fill:rgb(255,211,166);"/>
                </g>
                <g transform="matrix(0.935385,0,0,0.533159,-1367.99,1933.37)">
                    <path d="M4061,2003.2C4061,1998.12 4058.65,1994 4055.76,1994C4033.67,1994 3948.33,1994 3926.24,1994C3923.35,1994 3921,1998.12 3921,2003.2C3921,2010.97 3921,2022.04 3921,2029.81C3921,2034.89 3923.35,2039.02 3926.24,2039.02C3948.33,2039.02 4033.67,2039.02 4055.76,2039.02C4058.65,2039.02 4061,2034.89 4061,2029.81C4061,2022.04 4061,2010.97 4061,2003.2Z" style="fill:rgb(203,151,255);"/>
                </g>
                <g transform="matrix(0.935385,0,0,0.666449,-1232.36,1553.59)">
                    <path d="M4061,2001.36C4061,1999.41 4060.45,1997.54 4059.46,1996.16C4058.48,1994.78 4057.15,1994 4055.76,1994C4033.67,1994 3948.33,1994 3926.24,1994C3924.85,1994 3923.52,1994.78 3922.54,1996.16C3921.55,1997.54 3921,1999.41 3921,2001.36C3921,2009.72 3921,2023.29 3921,2031.65C3921,2033.61 3921.55,2035.48 3922.54,2036.86C3923.52,2038.24 3924.85,2039.02 3926.24,2039.02C3948.33,2039.02 4033.67,2039.02 4055.76,2039.02C4057.15,2039.02 4058.48,2038.24 4059.46,2036.86C4060.45,2035.48 4061,2033.61 4061,2031.65C4061,2023.29 4061,2009.72 4061,2001.36Z" style="fill:rgb(128,148,255);"/>
                </g>
                <g transform="matrix(0.935385,0,0,1.62202,-1232.36,-316.327)">
                    <path d="M4061,1997.03C4061,1995.35 4058.65,1994 4055.76,1994L3926.24,1994C3923.35,1994 3921,1995.35 3921,1997.03L3921,2035.99C3921,2037.66 3923.35,2039.02 3926.24,2039.02L4055.76,2039.02C4058.65,2039.02 4061,2037.66 4061,2035.99L4061,1997.03Z" style="fill:rgb(203,151,255);"/>
                </g>
                <g transform="matrix(0.935385,0,0,0.533159,-1232.36,1933.37)">
                    <path d="M4061,2003.2C4061,1998.12 4058.65,1994 4055.76,1994C4033.67,1994 3948.33,1994 3926.24,1994C3923.35,1994 3921,1998.12 3921,2003.2C3921,2010.97 3921,2022.04 3921,2029.81C3921,2034.89 3923.35,2039.02 3926.24,2039.02C3948.33,2039.02 4033.67,2039.02 4055.76,2039.02C4058.65,2039.02 4061,2034.89 4061,2029.81C4061,2022.04 4061,2010.97 4061,2003.2Z" style="fill:rgb(123,255,249);"/>
                </g>
                <g transform="matrix(0.935385,0,0,0.666449,-1096.73,1553.59)">
                    <path d="M4061,2001.36C4061,1999.41 4060.45,1997.54 4059.46,1996.16C4058.48,1994.78 4057.15,1994 4055.76,1994C4033.67,1994 3948.33,1994 3926.24,1994C3924.85,1994 3923.52,1994.78 3922.54,1996.16C3921.55,1997.54 3921,1999.41 3921,2001.36C3921,2009.72 3921,2023.29 3921,2031.65C3921,2033.61 3921.55,2035.48 3922.54,2036.86C3923.52,2038.24 3924.85,2039.02 3926.24,2039.02C3948.33,2039.02 4033.67,2039.02 4055.76,2039.02C4057.15,2039.02 4058.48,2038.24 4059.46,2036.86C4060.45,2035.48 4061,2033.61 4061,2031.65C4061,2023.29 4061,2009.72 4061,2001.36Z" style="fill:rgb(123,255,249);"/>
                </g>
                <g transform="matrix(0.935385,0,0,1.62202,-1096.73,-316.327)">
                    <path d="M4061,1997.03C4061,1995.35 4058.65,1994 4055.76,1994L3926.24,1994C3923.35,1994 3921,1995.35 3921,1997.03L3921,2035.99C3921,2037.66 3923.35,2039.02 3926.24,2039.02L4055.76,2039.02C4058.65,2039.02 4061,2037.66 4061,2035.99C4061,2027.79 4061,2005.22 4061,1997.03Z" style="fill:rgb(255,211,166);"/>
                </g>
                <g transform="matrix(0.935385,0,0,0.533159,-1096.73,1933.37)">
                    <path d="M4061,2003.2C4061,1998.12 4058.65,1994 4055.76,1994C4033.67,1994 3948.33,1994 3926.24,1994C3923.35,1994 3921,1998.12 3921,2003.2C3921,2010.97 3921,2022.04 3921,2029.81C3921,2034.89 3923.35,2039.02 3926.24,2039.02C3948.33,2039.02 4033.67,2039.02 4055.76,2039.02C4058.65,2039.02 4061,2034.89 4061,2029.81C4061,2022.04 4061,2010.97 4061,2003.2Z" style="fill:rgb(128,148,255);"/>
                </g>
                <g transform="matrix(0.935385,0,0,0.666449,-961.102,1553.59)">
                    <path d="M4061,2001.36C4061,1999.41 4060.45,1997.54 4059.46,1996.16C4058.48,1994.78 4057.15,1994 4055.76,1994C4033.67,1994 3948.33,1994 3926.24,1994C3924.85,1994 3923.52,1994.78 3922.54,1996.16C3921.55,1997.54 3921,1999.41 3921,2001.36C3921,2009.72 3921,2023.29 3921,2031.65C3921,2033.61 3921.55,2035.48 3922.54,2036.86C3923.52,2038.24 3924.85,2039.02 3926.24,2039.02C3948.33,2039.02 4033.67,2039.02 4055.76,2039.02C4057.15,2039.02 4058.48,2038.24 4059.46,2036.86C4060.45,2035.48 4061,2033.61 4061,2031.65C4061,2023.29 4061,2009.72 4061,2001.36Z" style="fill:rgb(255,211,166);"/>
                </g>
                <g transform="matrix(0.935385,0,0,1.62202,-961.102,-316.327)">
                    <path d="M4061,1997.03C4061,1995.35 4058.65,1994 4055.76,1994L3926.24,1994C3923.35,1994 3921,1995.35 3921,1997.03L3921,2035.99C3921,2037.66 3923.35,2039.02 3926.24,2039.02L4055.76,2039.02C4058.65,2039.02 4061,2037.66 4061,2035.99C4061,2027.79 4061,2005.22 4061,1997.03Z" style="fill:rgb(203,151,255);"/>
                </g>
                <g transform="matrix(0.935385,0,0,0.533159,-961.102,1933.37)">
                    <path d="M4061,2003.2C4061,1998.12 4058.65,1994 4055.76,1994C4033.67,1994 3948.33,1994 3926.24,1994C3923.35,1994 3921,1998.12 3921,2003.2C3921,2010.97 3921,2022.04 3921,2029.81C3921,2034.89 3923.35,2039.02 3926.24,2039.02C3948.33,2039.02 4033.67,2039.02 4055.76,2039.02C4058.65,2039.02 4061,2034.89 4061,2029.81C4061,2022.04 4061,2010.97 4061,2003.2Z" style="fill:rgb(128,148,255);"/>
                </g>
                <g transform="matrix(0.935385,0,0,0.666449,-825.471,1553.59)">
                    <path d="M4061,2001.36C4061,1999.41 4060.45,1997.54 4059.46,1996.16C4058.48,1994.78 4057.15,1994 4055.76,1994C4033.67,1994 3948.33,1994 3926.24,1994C3924.85,1994 3923.52,1994.78 3922.54,1996.16C3921.55,1997.54 3921,1999.41 3921,2001.36C3921,2009.72 3921,2023.29 3921,2031.65C3921,2033.61 3921.55,2035.48 3922.54,2036.86C3923.52,2038.24 3924.85,2039.02 3926.24,2039.02C3948.33,2039.02 4033.67,2039.02 4055.76,2039.02C4057.15,2039.02 4058.48,2038.24 4059.46,2036.86C4060.45,2035.48 4061,2033.61 4061,2031.65C4061,2023.29 4061,2009.72 4061,2001.36Z" style="fill:rgb(203,151,255);"/>
                </g>
                <g transform="matrix(0.935385,0,0,1.62202,-825.471,-316.327)">
                    <path d="M4061,1997.03C4061,1995.35 4058.65,1994 4055.76,1994L3926.24,1994C3923.35,1994 3921,1995.35 3921,1997.03L3921,2035.99C3921,2037.66 3923.35,2039.02 3926.24,2039.02L4055.76,2039.02C4058.65,2039.02 4061,2037.66 4061,2035.99C4061,2027.79 4061,2005.22 4061,1997.03Z" style="fill:rgb(255,211,166);"/>
                </g>
                <g transform="matrix(0.935385,0,0,0.533159,-825.471,1933.37)">
                    <path d="M4061,2003.2C4061,1998.12 4058.65,1994 4055.76,1994C4033.67,1994 3948.33,1994 3926.24,1994C3923.35,1994 3921,1998.12 3921,2003.2C3921,2010.97 3921,2022.04 3921,2029.81C3921,2034.89 3923.35,2039.02 3926.24,2039.02C3948.33,2039.02 4033.67,2039.02 4055.76,2039.02C4058.65,2039.02 4061,2034.89 4061,2029.81C4061,2022.04 4061,2010.97 4061,2003.2Z" style="fill:rgb(123,255,249);"/>
                </g>
                <g transform="matrix(0.935385,0,0,0.666449,-689.84,1553.59)">
                    <path d="M4061,2001.36C4061,1999.41 4060.45,1997.54 4059.46,1996.16C4058.48,1994.78 4057.15,1994 4055.76,1994C4033.67,1994 3948.33,1994 3926.24,1994C3924.85,1994 3923.52,1994.78 3922.54,1996.16C3921.55,1997.54 3921,1999.41 3921,2001.36C3921,2009.72 3921,2023.29 3921,2031.65C3921,2033.61 3921.55,2035.48 3922.54,2036.86C3923.52,2038.24 3924.85,2039.02 3926.24,2039.02C3948.33,2039.02 4033.67,2039.02 4055.76,2039.02C4057.15,2039.02 4058.48,2038.24 4059.46,2036.86C4060.45,2035.48 4061,2033.61 4061,2031.65C4061,2023.29 4061,2009.72 4061,2001.36Z" style="fill:rgb(128,148,255);"/>
                </g>
                <g transform="matrix(0.935385,0,0,1.62202,-689.84,-316.327)">
                    <path d="M4061,1997.03C4061,1995.35 4058.65,1994 4055.76,1994L3926.24,1994C3923.35,1994 3921,1995.35 3921,1997.03L3921,2035.99C3921,2037.66 3923.35,2039.02 3926.24,2039.02L4055.76,2039.02C4058.65,2039.02 4061,2037.66 4061,2035.99C4061,2027.79 4061,2005.22 4061,1997.03Z" style="fill:rgb(123,255,249);"/>
                </g>
                <g transform="matrix(0.935385,0,0,0.533159,-689.84,1933.37)">
                    <path d="M4061,2003.2C4061,1998.12 4058.65,1994 4055.76,1994C4033.67,1994 3948.33,1994 3926.24,1994C3923.35,1994 3921,1998.12 3921,2003.2C3921,2010.97 3921,2022.04 3921,2029.81C3921,2034.89 3923.35,2039.02 3926.24,2039.02C3948.33,2039.02 4033.67,2039.02 4055.76,2039.02C4058.65,2039.02 4061,2034.89 4061,2029.81C4061,2022.04 4061,2010.97 4061,2003.2Z" style="fill:rgb(203,151,255);"/>
                </g>
                <g transform="matrix(0.935385,0,0,0.666449,-554.209,1553.59)">
                    <path d="M4061,2001.36C4061,1999.41 4060.45,1997.54 4059.46,1996.16C4058.48,1994.78 4057.15,1994 4055.76,1994C4033.67,1994 3948.33,1994 3926.24,1994C3924.85,1994 3923.52,1994.78 3922.54,1996.16C3921.55,1997.54 3921,1999.41 3921,2001.36C3921,2009.72 3921,2023.29 3921,2031.65C3921,2033.61 3921.55,2035.48 3922.54,2036.86C3923.52,2038.24 3924.85,2039.02 3926.24,2039.02C3948.33,2039.02 4033.67,2039.02 4055.76,2039.02C4057.15,2039.02 4058.48,2038.24 4059.46,2036.86C4060.45,2035.48 4061,2033.61 4061,2031.65C4061,2023.29 4061,2009.72 4061,2001.36Z" style="fill:rgb(255,211,166);"/>
                </g>
                <g transform="matrix(0.935385,0,0,1.62202,-554.209,-316.327)">
                    <path d="M4061,1997.03C4061,1995.35 4058.65,1994 4055.76,1994L3926.24,1994C3923.35,1994 3921,1995.35 3921,1997.03L3921,2035.99C3921,2037.66 3923.35,2039.02 3926.24,2039.02L4055.76,2039.02C4058.65,2039.02 4061,2037.66 4061,2035.99C4061,2027.79 4061,2005.22 4061,1997.03Z" style="fill:rgb(203,151,255);"/>
                </g>
                <g transform="matrix(0.935385,0,0,0.533159,-554.209,1933.37)">
                    <path d="M4061,2003.2C4061,1998.12 4058.65,1994 4055.76,1994C4033.67,1994 3948.33,1994 3926.24,1994C3923.35,1994 3921,1998.12 3921,2003.2C3921,2010.97 3921,2022.04 3921,2029.81C3921,2034.89 3923.35,2039.02 3926.24,2039.02C3948.33,2039.02 4033.67,2039.02 4055.76,2039.02C4058.65,2039.02 4061,2034.89 4061,2029.81C4061,2022.04 4061,2010.97 4061,2003.2Z" style="fill:rgb(123,255,249);"/>
                </g>
            </g>
        </g>
    </g>
</svg>
