<?xml version="1.0" encoding="UTF-8" standalone="no"?>
<!DOCTYPE svg PUBLIC "-//W3C//DTD SVG 1.1//EN" "http://www.w3.org/Graphics/SVG/1.1/DTD/svg11.dtd">
<svg width="100%" height="100%" viewBox="0 0 1216 145" version="1.1" xmlns="http://www.w3.org/2000/svg" xmlns:xlink="http://www.w3.org/1999/xlink" xml:space="preserve" xmlns:serif="http://www.serif.com/" style="fill-rule:evenodd;clip-rule:evenodd;stroke-linecap:square;stroke-miterlimit:1.5;">
    <g transform="matrix(1,0,0,1,-2932.65,-2045.99)">
        <g id="Artboard4" transform="matrix(1,0,0,1,903.38,-829.5)">
            <rect x="2029.27" y="2875.49" width="1215.65" height="145" style="fill:none;"/>
            <clipPath id="_clip1">
                <rect x="2029.27" y="2875.49" width="1215.65" height="145"/>
            </clipPath>
            <g clip-path="url(#_clip1)">
                <g transform="matrix(2.42816,0,0,1.33195,-351.9,889.485)">
                    <g transform="matrix(0.411497,0,0,0.784988,639.929,-67.9353)">
                        <rect x="828" y="1986" width="1217" height="138.681" style="fill:rgb(135,135,135);"/>
                    </g>
                    <g transform="matrix(1,0,0,0.750781,0,13.5141)">
                        <g transform="matrix(0.235334,0,0,0.571429,661.17,864.857)">
                            <rect x="1449" y="2004" width="21" height="21" style="fill:rgb(170,166,186);"/>
                        </g>
                        <g transform="matrix(0.235334,0,0,0.571429,680.938,875.357)">
                            <rect x="1449" y="2004" width="21" height="21" style="fill:rgb(170,166,186);"/>
                        </g>
                        <g transform="matrix(-0.235334,0,0,0.571429,1439.13,906.857)">
                            <rect x="1449" y="2004" width="21" height="21" style="fill:rgb(170,166,186);"/>
                        </g>
                        <g transform="matrix(-0.235334,0,0,0.571429,1519.85,876.857)">
                            <rect x="1449" y="2004" width="21" height="21" style="fill:rgb(170,166,186);"/>
                        </g>
                        <g transform="matrix(-0.235334,0,0,0.571429,1551.97,922.272)">
                            <rect x="1449" y="2004" width="21" height="21" style="fill:rgb(170,166,186);"/>
                        </g>
                        <g transform="matrix(-0.235334,0,0,0.571429,1419.36,917.357)">
                            <rect x="1449" y="2004" width="21" height="21" style="fill:rgb(170,166,186);"/>
                        </g>
                        <g transform="matrix(-0.235334,0,0,0.571429,1591.3,911.357)">
                            <rect x="1449" y="2004" width="21" height="21" style="fill:rgb(170,166,186);"/>
                        </g>
                        <g transform="matrix(-0.235334,0,0,0.571429,1672.02,881.357)">
                            <rect x="1449" y="2004" width="21" height="21" style="fill:rgb(170,166,186);"/>
                        </g>
                        <g transform="matrix(-0.235334,0,0,0.571429,1704.14,926.772)">
                            <rect x="1449" y="2004" width="21" height="21" style="fill:rgb(170,166,186);"/>
                        </g>
                        <g transform="matrix(-0.235334,0,0,0.571429,1571.53,921.857)">
                            <rect x="1449" y="2004" width="21" height="21" style="fill:rgb(170,166,186);"/>
                        </g>
                        <g transform="matrix(-0.235334,0,0,0.571429,1816.81,880.4)">
                            <rect x="1449" y="2004" width="21" height="21" style="fill:rgb(219,222,232);"/>
                        </g>
                        <g transform="matrix(-0.235334,0,0,0.571429,1797.04,890.9)">
                            <rect x="1449" y="2004" width="21" height="21" style="fill:rgb(219,222,232);"/>
                        </g>
                        <g transform="matrix(0.235334,0,0,0.571429,1038.85,922.4)">
                            <rect x="1449" y="2004" width="21" height="21" style="fill:rgb(219,222,232);"/>
                        </g>
                        <g transform="matrix(0.235334,0,0,0.571429,958.134,892.4)">
                            <rect x="1449" y="2004" width="21" height="21" style="fill:rgb(219,222,232);"/>
                        </g>
                        <g transform="matrix(0.235334,0,0,0.571429,926.011,937.815)">
                            <rect x="1449" y="2004" width="21" height="21" style="fill:rgb(219,222,232);"/>
                        </g>
                        <g transform="matrix(0.235334,0,0,0.571429,1058.62,932.9)">
                            <rect x="1449" y="2004" width="21" height="21" style="fill:rgb(219,222,232);"/>
                        </g>
                        <g transform="matrix(0.235334,0,0,0.571429,879.648,870.357)">
                            <rect x="1449" y="2004" width="21" height="21" style="fill:rgb(219,222,232);"/>
                        </g>
                        <g transform="matrix(0.235334,0,0,0.571429,805.961,896.9)">
                            <rect x="1449" y="2004" width="21" height="21" style="fill:rgb(219,222,232);"/>
                        </g>
                        <g transform="matrix(0.235334,0,0,0.571429,773.838,942.315)">
                            <rect x="1449" y="2004" width="21" height="21" style="fill:rgb(219,222,232);"/>
                        </g>
                        <g transform="matrix(0.235334,0,0,0.571429,906.449,937.4)">
                            <rect x="1449" y="2004" width="21" height="21" style="fill:rgb(219,222,232);"/>
                        </g>
                    </g>
                </g>
                <g transform="matrix(0.999178,0,0,0.173059,1201.95,2531.79)">
                    <rect x="828" y="1986" width="1217" height="138.681" style="fill:rgb(104,104,104);"/>
                </g>
                <g transform="matrix(1,0,0,1,-903.38,829.5)">
                    <path d="M3133,2106L3150,2149L3229,2106L3229,2149L3336.48,2132.03" style="fill:none;stroke:rgb(245,110,90);stroke-opacity:0.55;stroke-width:29.17px;"/>
                </g>
                <g transform="matrix(1,0,0,1,-903.38,829.5)">
                    <path d="M3401.9,2099.99C3397.65,2149 3471.14,2158.44 3489.06,2127.5" style="fill:none;stroke:rgb(255,206,117);stroke-opacity:0.55;stroke-width:29.17px;"/>
                </g>
                <g transform="matrix(1.0343,-1.10086,1.10086,1.0343,-2911.75,4587.18)">
                    <path d="M3401.9,2099.99C3397.65,2149 3471.14,2158.44 3489.06,2127.5" style="fill:none;stroke:rgb(126,252,255);stroke-opacity:0.55;stroke-width:19.31px;"/>
                </g>
                <g transform="matrix(0.850024,-0.526744,0.526744,0.850024,-1282.95,3100.8)">
                    <path d="M3663,2091L3663,2118.49" style="fill:none;stroke:rgb(126,252,255);stroke-opacity:0.55;stroke-width:29.17px;"/>
                </g>
                <g transform="matrix(0.850024,-0.526744,0.526744,0.850024,-1237.05,3072.35)">
                    <path d="M3663,2091L3663,2118.49" style="fill:none;stroke:rgb(126,252,255);stroke-opacity:0.55;stroke-width:29.17px;"/>
                </g>
                <g transform="matrix(0.973249,0.229754,-0.229754,0.973249,-887.135,51.0324)">
                    <path d="M3620,2103L3620,2207" style="fill:none;stroke:rgb(157,69,255);stroke-opacity:0.55;stroke-width:29.17px;"/>
                </g>
                <g transform="matrix(0.973249,0.229754,-0.229754,0.973249,-840.419,62.0606)">
                    <path d="M3620,2103L3620,2207" style="fill:none;stroke:rgb(157,69,255);stroke-opacity:0.55;stroke-width:29.17px;"/>
                </g>
                <g transform="matrix(0.973249,0.229754,-0.229754,0.973249,-793.703,73.0888)">
                    <path d="M3620,2103L3620,2207" style="fill:none;stroke:rgb(157,69,255);stroke-opacity:0.55;stroke-width:29.17px;"/>
                </g>
                <g transform="matrix(0.968623,0.248536,-0.248536,0.968623,-180.81,6.80238)">
                    <path d="M3661.5,2122.65C3677.39,2100 3709.18,2100 3725.08,2111.32C3740.97,2122.65 3740.97,2145.3 3725.08,2167.95C3713.95,2184.94 3685.34,2201.93 3661.5,2213.25C3637.66,2201.93 3609.05,2184.94 3597.92,2167.95C3582.03,2145.3 3582.03,2122.65 3597.92,2111.32C3613.82,2100 3645.61,2100 3661.5,2122.65Z" style="fill:none;stroke:rgb(157,69,255);stroke-opacity:0.55;stroke-width:29.17px;"/>
                </g>
            </g>
        </g>
    </g>
</svg>
