<?xml version="1.0" encoding="UTF-8" standalone="no"?>
<!DOCTYPE svg PUBLIC "-//W3C//DTD SVG 1.1//EN" "http://www.w3.org/Graphics/SVG/1.1/DTD/svg11.dtd">
<svg width="100%" height="100%" viewBox="0 0 1216 145" version="1.1" xmlns="http://www.w3.org/2000/svg" xmlns:xlink="http://www.w3.org/1999/xlink" xml:space="preserve" xmlns:serif="http://www.serif.com/" style="fill-rule:evenodd;clip-rule:evenodd;stroke-linejoin:round;stroke-miterlimit:2;">
    <g transform="matrix(1,0,0,1,-0.880171,-2045.99)">
        <g id="Artboard4" transform="matrix(1,0,0,1,-2028.39,-829.5)">
            <rect x="2029.27" y="2875.49" width="1215.65" height="145" style="fill:none;"/>
            <clipPath id="_clip1">
                <rect x="2029.27" y="2875.49" width="1215.65" height="145"/>
            </clipPath>
            <g clip-path="url(#_clip1)">
                <g transform="matrix(2.42816,0,0,1.33195,-351.9,889.485)">
                    <g transform="matrix(0.411497,0,0,0.784988,639.929,-67.9353)">
                        <rect x="828" y="1986" width="1217" height="138.681" style="fill:rgb(203,207,214);"/>
                    </g>
                    <g transform="matrix(1,0,0,0.750781,0,13.5141)">
                        <g transform="matrix(0.235334,0,0,0.571429,661.17,864.857)">
                            <rect x="1449" y="2004" width="21" height="21" style="fill:rgb(170,166,186);"/>
                        </g>
                        <g transform="matrix(0.235334,0,0,0.571429,680.938,875.357)">
                            <rect x="1449" y="2004" width="21" height="21" style="fill:rgb(170,166,186);"/>
                        </g>
                        <g transform="matrix(-0.235334,0,0,0.571429,1439.13,906.857)">
                            <rect x="1449" y="2004" width="21" height="21" style="fill:rgb(170,166,186);"/>
                        </g>
                        <g transform="matrix(-0.235334,0,0,0.571429,1519.85,876.857)">
                            <rect x="1449" y="2004" width="21" height="21" style="fill:rgb(170,166,186);"/>
                        </g>
                        <g transform="matrix(-0.235334,0,0,0.571429,1551.97,922.272)">
                            <rect x="1449" y="2004" width="21" height="21" style="fill:rgb(170,166,186);"/>
                        </g>
                        <g transform="matrix(-0.235334,0,0,0.571429,1419.36,917.357)">
                            <rect x="1449" y="2004" width="21" height="21" style="fill:rgb(170,166,186);"/>
                        </g>
                        <g transform="matrix(-0.235334,0,0,0.571429,1591.3,911.357)">
                            <rect x="1449" y="2004" width="21" height="21" style="fill:rgb(170,166,186);"/>
                        </g>
                        <g transform="matrix(-0.235334,0,0,0.571429,1672.02,881.357)">
                            <rect x="1449" y="2004" width="21" height="21" style="fill:rgb(170,166,186);"/>
                        </g>
                        <g transform="matrix(-0.235334,0,0,0.571429,1704.14,926.772)">
                            <rect x="1449" y="2004" width="21" height="21" style="fill:rgb(170,166,186);"/>
                        </g>
                        <g transform="matrix(-0.235334,0,0,0.571429,1571.53,921.857)">
                            <rect x="1449" y="2004" width="21" height="21" style="fill:rgb(170,166,186);"/>
                        </g>
                        <g transform="matrix(-0.235334,0,0,0.571429,1816.81,880.4)">
                            <rect x="1449" y="2004" width="21" height="21" style="fill:rgb(219,222,232);"/>
                        </g>
                        <g transform="matrix(-0.235334,0,0,0.571429,1797.04,890.9)">
                            <rect x="1449" y="2004" width="21" height="21" style="fill:rgb(219,222,232);"/>
                        </g>
                        <g transform="matrix(0.235334,0,0,0.571429,1038.85,922.4)">
                            <rect x="1449" y="2004" width="21" height="21" style="fill:rgb(219,222,232);"/>
                        </g>
                        <g transform="matrix(0.235334,0,0,0.571429,958.134,892.4)">
                            <rect x="1449" y="2004" width="21" height="21" style="fill:rgb(219,222,232);"/>
                        </g>
                        <g transform="matrix(0.235334,0,0,0.571429,926.011,937.815)">
                            <rect x="1449" y="2004" width="21" height="21" style="fill:rgb(219,222,232);"/>
                        </g>
                        <g transform="matrix(0.235334,0,0,0.571429,1058.62,932.9)">
                            <rect x="1449" y="2004" width="21" height="21" style="fill:rgb(219,222,232);"/>
                        </g>
                        <g transform="matrix(0.235334,0,0,0.571429,879.648,870.357)">
                            <rect x="1449" y="2004" width="21" height="21" style="fill:rgb(219,222,232);"/>
                        </g>
                        <g transform="matrix(0.235334,0,0,0.571429,805.961,896.9)">
                            <rect x="1449" y="2004" width="21" height="21" style="fill:rgb(219,222,232);"/>
                        </g>
                        <g transform="matrix(0.235334,0,0,0.571429,773.838,942.315)">
                            <rect x="1449" y="2004" width="21" height="21" style="fill:rgb(219,222,232);"/>
                        </g>
                        <g transform="matrix(0.235334,0,0,0.571429,906.449,937.4)">
                            <rect x="1449" y="2004" width="21" height="21" style="fill:rgb(219,222,232);"/>
                        </g>
                    </g>
                </g>
                <g transform="matrix(0.999178,0,0,0.173059,1201.95,2531.79)">
                    <rect x="828" y="1986" width="1217" height="138.681" style="fill:rgb(219,222,232);"/>
                </g>
            </g>
        </g>
    </g>
</svg>
