<?xml version="1.0" encoding="UTF-8" standalone="no"?>
<!DOCTYPE svg PUBLIC "-//W3C//DTD SVG 1.1//EN" "http://www.w3.org/Graphics/SVG/1.1/DTD/svg11.dtd">
<svg width="100%" height="100%" viewBox="0 0 1216 145" version="1.1" xmlns="http://www.w3.org/2000/svg" xmlns:xlink="http://www.w3.org/1999/xlink" xml:space="preserve" xmlns:serif="http://www.serif.com/" style="fill-rule:evenodd;clip-rule:evenodd;stroke-linejoin:round;stroke-miterlimit:2;">
    <g transform="matrix(1,0,0,1,-0.880171,-1715.99)">
        <g id="Artboard4" transform="matrix(1,0,0,1,-2028.39,-1159.5)">
            <rect x="2029.27" y="2875.49" width="1215.65" height="145" style="fill:none;"/>
            <clipPath id="_clip1">
                <rect x="2029.27" y="2875.49" width="1215.65" height="145"/>
            </clipPath>
            <g clip-path="url(#_clip1)">
                <g transform="matrix(0.999178,0,0,1.04556,1202.22,799.484)">
                    <rect x="828" y="1986" width="1217" height="138.681" style="fill:rgb(111,98,81);"/>
                    <clipPath id="_clip2">
                        <rect x="828" y="1986" width="1217" height="138.681"/>
                    </clipPath>
                    <g clip-path="url(#_clip2)">
                        <g transform="matrix(1.00082,0,0,0.956423,1.32072,106.628)">
                            <path d="M2062.67,1985C2062.22,1989.74 2060.18,2034.21 2056.84,2037.67C2056.84,2037.67 2048.65,2046.15 2040.34,2054.75C2031.84,2063.56 2020.12,2068.53 2007.89,2068.53C1995.65,2068.53 1983.94,2063.56 1975.43,2054.75C1975.43,2054.75 1974.12,2053.39 1974.12,2053.39C1974.12,2053.39 1972.8,2054.75 1972.8,2054.75C1964.3,2063.56 1952.59,2068.53 1940.35,2068.53C1928.11,2068.53 1916.4,2063.56 1907.9,2054.75C1907.9,2054.75 1906.58,2053.39 1906.58,2053.39C1906.58,2053.39 1905.27,2054.75 1905.27,2054.75C1896.77,2063.56 1885.05,2068.53 1872.81,2068.53C1860.58,2068.53 1848.86,2063.56 1840.36,2054.75L1839.05,2053.39L1837.73,2054.75C1829.23,2063.56 1817.52,2068.53 1805.28,2068.53C1793.04,2068.53 1781.33,2063.56 1772.83,2054.75L1771.51,2053.39L1770.19,2054.75C1761.69,2063.56 1749.98,2068.53 1737.74,2068.53C1725.5,2068.53 1713.79,2063.56 1705.29,2054.75L1703.97,2053.39L1702.66,2054.75C1694.16,2063.56 1682.44,2068.53 1670.2,2068.53C1657.97,2068.53 1646.25,2063.56 1637.75,2054.75C1637.75,2054.75 1636.44,2053.39 1636.44,2053.39C1636.44,2053.39 1635.12,2054.75 1635.12,2054.75C1626.62,2063.56 1614.91,2068.53 1602.67,2068.53C1590.43,2068.53 1578.72,2063.56 1570.22,2054.75L1568.9,2053.39L1567.59,2054.75C1559.08,2063.56 1547.37,2068.53 1535.13,2068.53C1522.89,2068.53 1511.18,2063.56 1502.68,2054.75L1501.36,2053.39L1500.05,2054.75C1491.55,2063.56 1479.83,2068.53 1467.6,2068.53C1455.36,2068.53 1443.64,2063.56 1435.14,2054.75L1433.83,2053.39L1432.51,2054.75C1424.01,2063.56 1412.3,2068.53 1400.06,2068.53C1387.82,2068.53 1376.11,2063.56 1367.61,2054.75L1366.29,2053.39L1364.98,2054.75C1356.47,2063.56 1344.76,2068.53 1332.52,2068.53C1320.29,2068.53 1308.57,2063.56 1300.07,2054.75L1298.76,2053.39L1297.44,2054.75C1288.94,2063.56 1277.23,2068.53 1264.99,2068.53C1252.75,2068.53 1241.04,2063.56 1232.53,2054.75L1231.22,2053.39L1229.9,2054.75C1221.4,2063.56 1209.69,2068.53 1197.45,2068.53C1185.21,2068.53 1173.5,2063.56 1165,2054.75L1163.68,2053.39L1162.37,2054.75C1153.87,2063.56 1142.15,2068.53 1129.91,2068.53C1117.68,2068.53 1105.96,2063.56 1097.46,2054.75L1096.15,2053.39L1094.83,2054.75C1086.33,2063.56 1074.62,2068.53 1062.38,2068.53C1050.14,2068.53 1038.43,2063.56 1029.92,2054.75L1028.61,2053.39L1027.29,2054.75C1018.79,2063.56 1007.08,2068.53 994.841,2068.53C982.603,2068.53 970.89,2063.56 962.388,2054.75L961.073,2053.39L959.758,2054.75C951.256,2063.56 939.543,2068.53 927.305,2068.53C915.066,2068.53 903.353,2063.56 894.852,2054.75L893.536,2053.39L892.221,2054.75C883.719,2063.56 872.006,2068.53 859.768,2068.53C847.53,2068.53 835.817,2063.56 827.315,2054.75C819.002,2046.15 810.813,2037.67 810.813,2037.67C807.477,2034.21 805.433,1989.74 804.982,1985L2062.67,1985Z" style="fill:rgb(62,32,14);"/>
                        </g>
                    </g>
                </g>
                <g transform="matrix(1,0,0,1,1203.54,889.971)">
                    <path d="M826,1986L2041.65,1986L2041.65,2043C2041.65,2043 2033.47,2051.48 2025.15,2060.09C2020.63,2064.77 2014.4,2067.41 2007.89,2067.41C2001.38,2067.41 1995.14,2064.77 1990.62,2060.09C1982.31,2051.48 1974.12,2043 1974.12,2043C1974.12,2043 1965.93,2051.48 1957.62,2060.09C1953.09,2064.77 1946.86,2067.41 1940.35,2067.41C1933.84,2067.41 1927.61,2064.77 1923.08,2060.09C1914.77,2051.48 1906.58,2043 1906.58,2043C1906.58,2043 1898.39,2051.48 1890.08,2060.09C1885.56,2064.77 1879.33,2067.41 1872.81,2067.41C1866.3,2067.41 1860.07,2064.77 1855.55,2060.09C1847.24,2051.48 1839.05,2043 1839.05,2043C1839.05,2043 1830.86,2051.48 1822.54,2060.09C1818.02,2064.77 1811.79,2067.41 1805.28,2067.41C1798.77,2067.41 1792.54,2064.77 1788.01,2060.09C1779.7,2051.48 1771.51,2043 1771.51,2043C1771.51,2043 1763.32,2051.48 1755.01,2060.09C1750.48,2064.77 1744.25,2067.41 1737.74,2067.41C1731.23,2067.41 1725,2064.77 1720.48,2060.09C1712.16,2051.48 1703.97,2043 1703.97,2043C1703.97,2043 1695.78,2051.48 1687.47,2060.09C1682.95,2064.77 1676.72,2067.41 1670.2,2067.41C1663.69,2067.41 1657.46,2064.77 1652.94,2060.09C1644.63,2051.48 1636.44,2043 1636.44,2043L1619.93,2060.09C1615.41,2064.77 1609.18,2067.41 1602.67,2067.41C1596.16,2067.41 1589.93,2064.77 1585.4,2060.09C1577.09,2051.48 1568.9,2043 1568.9,2043C1568.9,2043 1560.71,2051.48 1552.4,2060.09C1547.88,2064.77 1541.64,2067.41 1535.13,2067.41C1528.62,2067.41 1522.39,2064.77 1517.87,2060.09C1509.55,2051.48 1501.36,2043 1501.36,2043C1501.36,2043 1493.17,2051.48 1484.86,2060.09C1480.34,2064.77 1474.11,2067.41 1467.6,2067.41C1461.09,2067.41 1454.85,2064.77 1450.33,2060.09C1442.02,2051.48 1433.83,2043 1433.83,2043C1433.83,2043 1425.64,2051.48 1417.33,2060.09C1412.8,2064.77 1406.57,2067.41 1400.06,2067.41C1393.55,2067.41 1387.32,2064.77 1382.79,2060.09C1374.48,2051.48 1366.29,2043 1366.29,2043C1366.29,2043 1358.1,2051.48 1349.79,2060.09C1345.27,2064.77 1339.03,2067.41 1332.52,2067.41C1326.01,2067.41 1319.78,2064.77 1315.26,2060.09C1306.94,2051.48 1298.76,2043 1298.76,2043C1298.76,2043 1290.57,2051.48 1282.25,2060.09C1277.73,2064.77 1271.5,2067.41 1264.99,2067.41C1258.48,2067.41 1252.24,2064.77 1247.72,2060.09C1239.41,2051.48 1231.22,2043 1231.22,2043C1231.22,2043 1223.03,2051.48 1214.72,2060.09C1210.19,2064.77 1203.96,2067.41 1197.45,2067.41C1190.94,2067.41 1184.71,2064.77 1180.18,2060.09C1171.87,2051.48 1163.68,2043 1163.68,2043C1163.68,2043 1155.49,2051.48 1147.18,2060.09C1142.66,2064.77 1136.42,2067.41 1129.91,2067.41C1123.4,2067.41 1117.17,2064.77 1112.65,2060.09C1104.34,2051.48 1096.15,2043 1096.15,2043C1096.15,2043 1087.96,2051.48 1079.64,2060.09C1075.12,2064.77 1068.89,2067.41 1062.38,2067.41C1055.87,2067.41 1049.63,2064.77 1045.11,2060.09C1036.8,2051.48 1028.61,2043 1028.61,2043C1028.61,2043 1020.42,2051.48 1012.11,2060.09C1007.58,2064.77 1001.35,2067.41 994.841,2067.41C988.33,2067.41 982.098,2064.77 977.575,2060.09C969.262,2051.48 961.073,2043 961.073,2043C961.073,2043 952.884,2051.48 944.571,2060.09C940.048,2064.77 933.816,2067.41 927.305,2067.41C920.793,2067.41 914.562,2064.77 910.038,2060.09C901.726,2051.48 893.536,2043 893.536,2043C893.536,2043 885.347,2051.48 877.035,2060.09C872.511,2064.77 866.279,2067.41 859.768,2067.41C853.257,2067.41 847.025,2064.77 842.502,2060.09C834.189,2051.48 826,2043 826,2043L826,1986Z" style="fill:rgb(83,196,183);"/>
                </g>
                <g transform="matrix(0.571429,0,0,0.571429,1831.54,1754.83)">
                    <rect x="1449" y="2004" width="21" height="21" style="fill:white;"/>
                </g>
                <g transform="matrix(0.571429,0,0,0.571429,1831.54,1742.83)">
                    <path d="M1470,2013.96C1470,2011.32 1468.95,2008.78 1467.08,2006.92C1465.22,2005.05 1462.68,2004 1460.05,2004L1458.95,2004C1456.32,2004 1453.78,2005.05 1451.92,2006.92C1450.05,2008.78 1449,2011.32 1449,2013.96L1449,2025L1470,2025L1470,2013.96Z" style="fill:rgb(255,232,151);"/>
                </g>
                <g transform="matrix(0.571429,0,0,0.571429,1843.54,1754.83)">
                    <path d="M1470,2013.96C1470,2011.32 1468.95,2008.78 1467.08,2006.92C1465.22,2005.05 1462.68,2004 1460.05,2004L1449,2004L1449,2025L1460.05,2025C1462.68,2025 1465.22,2023.95 1467.08,2022.08C1468.95,2020.22 1470,2017.68 1470,2015.05L1470,2013.96Z" style="fill:rgb(255,232,151);"/>
                </g>
                <g transform="matrix(0.571429,0,0,0.571429,1819.54,1754.83)">
                    <path d="M1470,2004L1458.95,2004C1456.32,2004 1453.78,2005.05 1451.92,2006.92C1450.05,2008.78 1449,2011.32 1449,2013.96L1449,2015.05C1449,2017.68 1450.05,2020.22 1451.92,2022.08C1453.78,2023.95 1456.32,2025 1458.95,2025L1470,2025L1470,2004Z" style="fill:rgb(255,232,151);"/>
                </g>
                <g transform="matrix(0.571429,0,0,0.571429,1831.54,1766.83)">
                    <path d="M1470,2004L1449,2004L1449,2015.05C1449,2017.68 1450.05,2020.22 1451.92,2022.08C1453.78,2023.95 1456.32,2025 1458.95,2025L1460.05,2025C1462.68,2025 1465.22,2023.95 1467.08,2022.08C1468.95,2020.22 1470,2017.68 1470,2015.05L1470,2004Z" style="fill:rgb(255,232,151);"/>
                </g>
                <g transform="matrix(0.571429,0,0,0.571429,2132.04,1754.83)">
                    <rect x="1449" y="2004" width="21" height="21" style="fill:white;"/>
                </g>
                <g transform="matrix(0.571429,0,0,0.571429,2132.04,1742.83)">
                    <path d="M1470,2013.96C1470,2011.32 1468.95,2008.78 1467.08,2006.92C1465.22,2005.05 1462.68,2004 1460.05,2004L1458.95,2004C1456.32,2004 1453.78,2005.05 1451.92,2006.92C1450.05,2008.78 1449,2011.32 1449,2013.96L1449,2025L1470,2025L1470,2013.96Z" style="fill:rgb(255,232,151);"/>
                </g>
                <g transform="matrix(0.571429,0,0,0.571429,2144.04,1754.83)">
                    <path d="M1470,2013.96C1470,2011.32 1468.95,2008.78 1467.08,2006.92C1465.22,2005.05 1462.68,2004 1460.05,2004L1449,2004L1449,2025L1460.05,2025C1462.68,2025 1465.22,2023.95 1467.08,2022.08C1468.95,2020.22 1470,2017.68 1470,2015.05L1470,2013.96Z" style="fill:rgb(255,232,151);"/>
                </g>
                <g transform="matrix(0.571429,0,0,0.571429,2120.04,1754.83)">
                    <path d="M1470,2004L1458.95,2004C1456.32,2004 1453.78,2005.05 1451.92,2006.92C1450.05,2008.78 1449,2011.32 1449,2013.96L1449,2015.05C1449,2017.68 1450.05,2020.22 1451.92,2022.08C1453.78,2023.95 1456.32,2025 1458.95,2025L1470,2025L1470,2004Z" style="fill:rgb(255,232,151);"/>
                </g>
                <g transform="matrix(0.571429,0,0,0.571429,2132.04,1766.83)">
                    <path d="M1470,2004L1449,2004L1449,2015.05C1449,2017.68 1450.05,2020.22 1451.92,2022.08C1453.78,2023.95 1456.32,2025 1458.95,2025C1459.32,2025 1459.68,2025 1460.05,2025C1462.68,2025 1465.22,2023.95 1467.08,2022.08C1468.95,2020.22 1470,2017.68 1470,2015.05L1470,2004Z" style="fill:rgb(255,232,151);"/>
                </g>
                <g transform="matrix(0.571429,0,0,0.571429,2180.04,1765.33)">
                    <rect x="1449" y="2004" width="21" height="21" style="fill:white;"/>
                </g>
                <g transform="matrix(0.571429,0,0,0.571429,2180.04,1753.33)">
                    <path d="M1470,2013.96C1470,2011.32 1468.95,2008.78 1467.08,2006.92C1465.22,2005.05 1462.68,2004 1460.05,2004L1458.95,2004C1456.32,2004 1453.78,2005.05 1451.92,2006.92C1450.05,2008.78 1449,2011.32 1449,2013.96L1449,2025L1470,2025L1470,2013.96Z" style="fill:rgb(255,232,151);"/>
                </g>
                <g transform="matrix(0.571429,0,0,0.571429,2192.04,1765.33)">
                    <path d="M1470,2013.96C1470,2011.32 1468.95,2008.78 1467.08,2006.92C1465.22,2005.05 1462.68,2004 1460.05,2004L1449,2004L1449,2025L1460.05,2025C1462.68,2025 1465.22,2023.95 1467.08,2022.08C1468.95,2020.22 1470,2017.68 1470,2015.05L1470,2013.96Z" style="fill:rgb(255,232,151);"/>
                </g>
                <g transform="matrix(0.571429,0,0,0.571429,2168.04,1765.33)">
                    <path d="M1470,2004L1458.95,2004C1456.32,2004 1453.78,2005.05 1451.92,2006.92C1450.05,2008.78 1449,2011.32 1449,2013.96L1449,2015.05C1449,2017.68 1450.05,2020.22 1451.92,2022.08C1453.78,2023.95 1456.32,2025 1458.95,2025L1470,2025L1470,2004Z" style="fill:rgb(255,232,151);"/>
                </g>
                <g transform="matrix(0.571429,0,0,0.571429,2180.04,1777.33)">
                    <path d="M1470,2004L1449,2004L1449,2015.05C1449,2017.68 1450.05,2020.22 1451.92,2022.08C1453.78,2023.95 1456.32,2025 1458.95,2025L1460.05,2025C1462.68,2025 1465.22,2023.95 1467.08,2022.08C1468.95,2020.22 1470,2017.68 1470,2015.05L1470,2004Z" style="fill:rgb(255,232,151);"/>
                </g>
                <g transform="matrix(0.571429,0,0,0.571429,1568.54,1754.83)">
                    <rect x="1449" y="2004" width="21" height="21" style="fill:white;"/>
                </g>
                <g transform="matrix(0.571429,0,0,0.571429,1635.54,1781.83)">
                    <rect x="1449" y="2004" width="21" height="21" style="fill:rgb(66,139,130);"/>
                </g>
                <g transform="matrix(0.571429,0,0,0.571429,1568.54,1742.83)">
                    <path d="M1470,2013.96C1470,2011.32 1468.95,2008.78 1467.08,2006.92C1465.22,2005.05 1462.68,2004 1460.05,2004L1458.95,2004C1456.32,2004 1453.78,2005.05 1451.92,2006.92C1450.05,2008.78 1449,2011.32 1449,2013.96L1449,2025L1470,2025L1470,2013.96Z" style="fill:rgb(255,232,151);"/>
                </g>
                <g transform="matrix(0.571429,0,0,1.47619,1635.54,-62.3152)">
                    <path d="M1470,2007.85C1470,2005.73 1465.54,2004 1460.05,2004L1458.95,2004C1453.46,2004 1449,2005.73 1449,2007.85L1449,2025L1470,2025L1470,2007.85Z" style="fill:rgb(163,221,181);"/>
                </g>
                <g transform="matrix(0.571429,0,0,0.571429,1656.54,1768.83)">
                    <rect x="1449" y="2004" width="21" height="21" style="fill:rgb(66,139,130);"/>
                </g>
                <g transform="matrix(0.571429,0,0,1.47619,1656.54,-75.3152)">
                    <path d="M1470,2007.85C1470,2005.73 1465.54,2004 1460.05,2004L1458.95,2004C1453.46,2004 1449,2005.73 1449,2007.85L1449,2025L1470,2025L1470,2007.85Z" style="fill:rgb(163,221,181);"/>
                </g>
                <g transform="matrix(0.571429,0,0,0.571429,1309.54,1778.83)">
                    <rect x="1449" y="2004" width="21" height="21" style="fill:rgb(66,139,130);"/>
                </g>
                <g transform="matrix(0.571429,0,0,1.47619,1309.54,-65.3152)">
                    <path d="M1470,2007.85C1470,2005.73 1465.54,2004 1460.05,2004L1458.95,2004C1453.46,2004 1449,2005.73 1449,2007.85L1449,2025L1470,2025L1470,2007.85Z" style="fill:rgb(163,221,181);"/>
                </g>
                <g transform="matrix(0.571429,0,0,0.571429,1351.54,1778.83)">
                    <rect x="1449" y="2004" width="21" height="21" style="fill:rgb(66,139,130);"/>
                </g>
                <g transform="matrix(0.571429,0,0,1.47619,1351.54,-65.3152)">
                    <path d="M1470,2007.85C1470,2005.73 1465.54,2004 1460.05,2004L1458.95,2004C1453.46,2004 1449,2005.73 1449,2007.85L1449,2025L1470,2025L1470,2007.85Z" style="fill:rgb(163,221,181);"/>
                </g>
                <g transform="matrix(0.571429,0,0,0.571429,1330.54,1765.83)">
                    <rect x="1449" y="2004" width="21" height="21" style="fill:rgb(66,139,130);"/>
                </g>
                <g transform="matrix(0.571429,0,0,1.47619,1330.54,-78.3152)">
                    <path d="M1470,2007.85C1470,2005.73 1465.54,2004 1460.05,2004L1458.95,2004C1453.46,2004 1449,2005.73 1449,2007.85L1449,2025L1470,2025L1470,2007.85Z" style="fill:rgb(163,221,181);"/>
                </g>
                <g transform="matrix(-0.571429,0,0,0.571429,3646.04,1784.83)">
                    <rect x="1449" y="2004" width="21" height="21" style="fill:rgb(66,139,130);"/>
                </g>
                <g transform="matrix(-0.571429,0,0,1.47619,3646.04,-59.3152)">
                    <path d="M1470,2007.85C1470,2005.73 1465.54,2004 1460.05,2004L1458.95,2004C1453.46,2004 1449,2005.73 1449,2007.85L1449,2025L1470,2025L1470,2007.85Z" style="fill:rgb(163,221,181);"/>
                </g>
                <g transform="matrix(-0.571429,0,0,0.571429,3625.04,1771.83)">
                    <rect x="1449" y="2004" width="21" height="21" style="fill:rgb(66,139,130);"/>
                </g>
                <g transform="matrix(-0.571429,0,0,1.47619,3625.04,-72.3152)">
                    <path d="M1470,2007.85C1470,2005.73 1465.54,2004 1460.05,2004L1458.95,2004C1453.46,2004 1449,2005.73 1449,2007.85L1449,2025L1470,2025L1470,2007.85Z" style="fill:rgb(163,221,181);"/>
                </g>
                <g transform="matrix(-0.571429,0,0,0.571429,3982.54,1781.83)">
                    <rect x="1449" y="2004" width="21" height="21" style="fill:rgb(66,139,130);"/>
                </g>
                <g transform="matrix(-0.571429,0,0,1.47619,3982.54,-62.3152)">
                    <path d="M1470,2007.85C1470,2005.73 1465.54,2004 1460.05,2004L1458.95,2004C1453.46,2004 1449,2005.73 1449,2007.85L1449,2025L1470,2025L1470,2007.85Z" style="fill:rgb(163,221,181);"/>
                </g>
                <g transform="matrix(-0.571429,0,0,0.571429,3961.54,1768.83)">
                    <rect x="1449" y="2004" width="21" height="21" style="fill:rgb(66,139,130);"/>
                </g>
                <g transform="matrix(-0.571429,0,0,1.47619,3961.54,-75.3152)">
                    <path d="M1470,2007.85C1470,2005.73 1465.54,2004 1460.05,2004L1458.95,2004C1453.46,2004 1449,2005.73 1449,2007.85L1449,2025L1470,2025L1470,2007.85Z" style="fill:rgb(163,221,181);"/>
                </g>
                <g transform="matrix(0.571429,0,0,0.571429,1580.54,1754.83)">
                    <path d="M1470,2013.96C1470,2011.32 1468.95,2008.78 1467.08,2006.92C1465.22,2005.05 1462.68,2004 1460.05,2004L1449,2004L1449,2025L1460.05,2025C1462.68,2025 1465.22,2023.95 1467.08,2022.08C1468.95,2020.22 1470,2017.68 1470,2015.05L1470,2013.96Z" style="fill:rgb(255,232,151);"/>
                </g>
                <g transform="matrix(0.571429,0,0,0.571429,1556.54,1754.83)">
                    <path d="M1470,2004L1458.95,2004C1456.32,2004 1453.78,2005.05 1451.92,2006.92C1450.05,2008.78 1449,2011.32 1449,2013.96L1449,2015.05C1449,2017.68 1450.05,2020.22 1451.92,2022.08C1453.78,2023.95 1456.32,2025 1458.95,2025L1470,2025L1470,2004Z" style="fill:rgb(255,232,151);"/>
                </g>
                <g transform="matrix(0.571429,0,0,0.571429,1568.54,1766.83)">
                    <path d="M1470,2004L1449,2004L1449,2015.05C1449,2017.68 1450.05,2020.22 1451.92,2022.08C1453.78,2023.95 1456.32,2025 1458.95,2025C1459.32,2025 1459.68,2025 1460.05,2025C1462.68,2025 1465.22,2023.95 1467.08,2022.08C1468.95,2020.22 1470,2017.68 1470,2015.05L1470,2004Z" style="fill:rgb(255,232,151);"/>
                </g>
            </g>
        </g>
    </g>
</svg>
