<svg xmlns="http://www.w3.org/2000/svg" xmlns:xlink="http://www.w3.org/1999/xlink" width="150" zoomAndPan="magnify" viewBox="0 0 112.5 149.999998" height="200" preserveAspectRatio="xMidYMid meet" version="1.2"><defs><clipPath id="bf0ff75855"><path d="M 0 0.332031 L 112.003906 0.332031 L 112.003906 149.667969 L 0 149.667969 Z M 0 0.332031 "/></clipPath></defs><g id="2239f325e2"><g clip-rule="nonzero" clip-path="url(#bf0ff75855)"><path style=" stroke:none;fill-rule:nonzero;fill:#ffffff;fill-opacity:1;" d="M 0 0.332031 L 112.003906 0.332031 L 112.003906 149.667969 L 0 149.667969 Z M 0 0.332031 "/><path style=" stroke:none;fill-rule:nonzero;fill:#e4e4e7;fill-opacity:1;" d="M 0 0.332031 L 112.003906 0.332031 L 112.003906 149.667969 L 0 149.667969 Z M 0 0.332031 "/></g><path style=" stroke:none;fill-rule:nonzero;fill:#a3a3a3;fill-opacity:1;" d="M 54.414062 47.8125 L 47.46875 59.164062 C 46.703125 60.394531 47.601562 62 49.058594 62 L 62.925781 62 C 64.382812 62 65.277344 60.394531 64.511719 59.164062 L 57.585938 47.8125 C 56.859375 46.617188 55.140625 46.617188 54.414062 47.8125 Z M 54.414062 47.8125 "/><path style=" stroke:none;fill-rule:nonzero;fill:#a3a3a3;fill-opacity:1;" d="M 74.667969 74.132812 C 74.667969 74.683594 74.613281 75.230469 74.507812 75.773438 C 74.398438 76.3125 74.238281 76.839844 74.027344 77.347656 C 73.816406 77.859375 73.558594 78.339844 73.253906 78.800781 C 72.945312 79.257812 72.597656 79.683594 72.207031 80.074219 C 71.816406 80.464844 71.394531 80.8125 70.933594 81.117188 C 70.476562 81.425781 69.992188 81.683594 69.484375 81.894531 C 68.972656 82.105469 68.449219 82.265625 67.90625 82.371094 C 67.367188 82.480469 66.820312 82.535156 66.269531 82.535156 C 65.714844 82.535156 65.171875 82.480469 64.628906 82.371094 C 64.089844 82.265625 63.5625 82.105469 63.054688 81.894531 C 62.542969 81.683594 62.058594 81.425781 61.601562 81.117188 C 61.140625 80.8125 60.71875 80.464844 60.328125 80.074219 C 59.9375 79.683594 59.589844 79.257812 59.285156 78.800781 C 58.976562 78.339844 58.71875 77.859375 58.507812 77.347656 C 58.296875 76.839844 58.136719 76.3125 58.027344 75.773438 C 57.921875 75.230469 57.867188 74.683594 57.867188 74.132812 C 57.867188 73.582031 57.921875 73.035156 58.027344 72.496094 C 58.136719 71.953125 58.296875 71.429688 58.507812 70.917969 C 58.71875 70.410156 58.976562 69.925781 59.285156 69.464844 C 59.589844 69.007812 59.9375 68.582031 60.328125 68.195312 C 60.71875 67.804688 61.140625 67.457031 61.601562 67.148438 C 62.058594 66.84375 62.542969 66.582031 63.054688 66.371094 C 63.5625 66.160156 64.089844 66.003906 64.628906 65.894531 C 65.171875 65.785156 65.714844 65.734375 66.269531 65.734375 C 66.820312 65.734375 67.367188 65.785156 67.90625 65.894531 C 68.449219 66.003906 68.972656 66.160156 69.484375 66.371094 C 69.992188 66.582031 70.476562 66.84375 70.933594 67.148438 C 71.394531 67.457031 71.816406 67.804688 72.207031 68.195312 C 72.597656 68.582031 72.945312 69.007812 73.253906 69.464844 C 73.558594 69.925781 73.816406 70.410156 74.027344 70.917969 C 74.238281 71.429688 74.398438 71.953125 74.507812 72.496094 C 74.613281 73.035156 74.667969 73.582031 74.667969 74.132812 Z M 74.667969 74.132812 "/><path style=" stroke:none;fill-rule:nonzero;fill:#a3a3a3;fill-opacity:1;" d="M 41.066406 81.601562 L 52.269531 81.601562 C 53.292969 81.601562 54.132812 80.761719 54.132812 79.734375 L 54.132812 68.53125 C 54.132812 67.507812 53.292969 66.667969 52.269531 66.667969 L 41.066406 66.667969 C 40.039062 66.667969 39.199219 67.507812 39.199219 68.53125 L 39.199219 79.734375 C 39.199219 80.761719 40.039062 81.601562 41.066406 81.601562 Z M 41.066406 81.601562 "/><g style="fill:#565656;fill-opacity:1;"><g transform="translate(5.030433, 97.055799)"><path style="stroke:none" d="M 3.1875 -3.609375 C 3.164062 -3.804688 3.078125 -3.957031 2.921875 -4.0625 C 2.773438 -4.175781 2.578125 -4.234375 2.328125 -4.234375 C 2.066406 -4.234375 1.863281 -4.179688 1.71875 -4.078125 C 1.582031 -3.972656 1.515625 -3.835938 1.515625 -3.671875 C 1.503906 -3.492188 1.578125 -3.359375 1.734375 -3.265625 C 1.898438 -3.171875 2.09375 -3.097656 2.3125 -3.046875 L 2.765625 -2.9375 C 3.054688 -2.875 3.316406 -2.78125 3.546875 -2.65625 C 3.773438 -2.53125 3.953125 -2.367188 4.078125 -2.171875 C 4.210938 -1.972656 4.28125 -1.734375 4.28125 -1.453125 C 4.28125 -0.984375 4.109375 -0.609375 3.765625 -0.328125 C 3.421875 -0.0546875 2.9375 0.078125 2.3125 0.078125 C 1.695312 0.078125 1.207031 -0.0625 0.84375 -0.34375 C 0.476562 -0.625 0.289062 -1.039062 0.28125 -1.59375 L 1.3125 -1.59375 C 1.332031 -1.332031 1.429688 -1.140625 1.609375 -1.015625 C 1.796875 -0.890625 2.03125 -0.828125 2.3125 -0.828125 C 2.582031 -0.828125 2.796875 -0.882812 2.953125 -1 C 3.117188 -1.113281 3.203125 -1.265625 3.203125 -1.453125 C 3.203125 -1.617188 3.125 -1.75 2.96875 -1.84375 C 2.820312 -1.9375 2.613281 -2.015625 2.34375 -2.078125 L 1.796875 -2.21875 C 1.367188 -2.320312 1.03125 -2.484375 0.78125 -2.703125 C 0.53125 -2.929688 0.40625 -3.234375 0.40625 -3.609375 C 0.40625 -3.910156 0.488281 -4.175781 0.65625 -4.40625 C 0.820312 -4.632812 1.050781 -4.8125 1.34375 -4.9375 C 1.632812 -5.070312 1.960938 -5.140625 2.328125 -5.140625 C 2.703125 -5.140625 3.03125 -5.070312 3.3125 -4.9375 C 3.59375 -4.8125 3.8125 -4.632812 3.96875 -4.40625 C 4.125 -4.175781 4.207031 -3.910156 4.21875 -3.609375 Z M 3.1875 -3.609375 "/></g></g><g style="fill:#565656;fill-opacity:1;"><g transform="translate(9.593851, 97.055799)"><path style="stroke:none" d="M 2.15625 0.078125 C 1.757812 0.078125 1.421875 0 1.140625 -0.15625 C 0.859375 -0.320312 0.640625 -0.550781 0.484375 -0.84375 C 0.335938 -1.132812 0.265625 -1.484375 0.265625 -1.890625 C 0.265625 -2.273438 0.335938 -2.613281 0.484375 -2.90625 C 0.640625 -3.207031 0.851562 -3.4375 1.125 -3.59375 C 1.40625 -3.757812 1.734375 -3.84375 2.109375 -3.84375 C 2.441406 -3.84375 2.742188 -3.769531 3.015625 -3.625 C 3.285156 -3.488281 3.5 -3.273438 3.65625 -2.984375 C 3.8125 -2.703125 3.890625 -2.347656 3.890625 -1.921875 L 3.890625 -1.625 L 1.3125 -1.625 C 1.3125 -1.34375 1.390625 -1.117188 1.546875 -0.953125 C 1.703125 -0.796875 1.910156 -0.71875 2.171875 -0.71875 C 2.347656 -0.71875 2.5 -0.753906 2.625 -0.828125 C 2.757812 -0.898438 2.851562 -1.007812 2.90625 -1.15625 L 3.875 -1.09375 C 3.800781 -0.738281 3.613281 -0.453125 3.3125 -0.234375 C 3.007812 -0.0234375 2.625 0.078125 2.15625 0.078125 Z M 1.3125 -2.28125 L 2.90625 -2.28125 C 2.90625 -2.507812 2.832031 -2.695312 2.6875 -2.84375 C 2.539062 -2.988281 2.351562 -3.0625 2.125 -3.0625 C 1.894531 -3.0625 1.703125 -2.984375 1.546875 -2.828125 C 1.398438 -2.679688 1.320312 -2.5 1.3125 -2.28125 Z M 1.3125 -2.28125 "/></g></g><g style="fill:#565656;fill-opacity:1;"><g transform="translate(13.758833, 97.055799)"><path style="stroke:none" d="M 1.46875 -5.0625 L 1.46875 0 L 0.421875 0 L 0.421875 -5.0625 Z M 1.46875 -5.0625 "/></g></g><g style="fill:#565656;fill-opacity:1;"><g transform="translate(15.654478, 97.055799)"><path style="stroke:none" d="M 2.15625 0.078125 C 1.757812 0.078125 1.421875 0 1.140625 -0.15625 C 0.859375 -0.320312 0.640625 -0.550781 0.484375 -0.84375 C 0.335938 -1.132812 0.265625 -1.484375 0.265625 -1.890625 C 0.265625 -2.273438 0.335938 -2.613281 0.484375 -2.90625 C 0.640625 -3.207031 0.851562 -3.4375 1.125 -3.59375 C 1.40625 -3.757812 1.734375 -3.84375 2.109375 -3.84375 C 2.441406 -3.84375 2.742188 -3.769531 3.015625 -3.625 C 3.285156 -3.488281 3.5 -3.273438 3.65625 -2.984375 C 3.8125 -2.703125 3.890625 -2.347656 3.890625 -1.921875 L 3.890625 -1.625 L 1.3125 -1.625 C 1.3125 -1.34375 1.390625 -1.117188 1.546875 -0.953125 C 1.703125 -0.796875 1.910156 -0.71875 2.171875 -0.71875 C 2.347656 -0.71875 2.5 -0.753906 2.625 -0.828125 C 2.757812 -0.898438 2.851562 -1.007812 2.90625 -1.15625 L 3.875 -1.09375 C 3.800781 -0.738281 3.613281 -0.453125 3.3125 -0.234375 C 3.007812 -0.0234375 2.625 0.078125 2.15625 0.078125 Z M 1.3125 -2.28125 L 2.90625 -2.28125 C 2.90625 -2.507812 2.832031 -2.695312 2.6875 -2.84375 C 2.539062 -2.988281 2.351562 -3.0625 2.125 -3.0625 C 1.894531 -3.0625 1.703125 -2.984375 1.546875 -2.828125 C 1.398438 -2.679688 1.320312 -2.5 1.3125 -2.28125 Z M 1.3125 -2.28125 "/></g></g><g style="fill:#565656;fill-opacity:1;"><g transform="translate(19.819461, 97.055799)"><path style="stroke:none" d="M 2.140625 0.078125 C 1.742188 0.078125 1.40625 -0.00390625 1.125 -0.171875 C 0.851562 -0.335938 0.640625 -0.566406 0.484375 -0.859375 C 0.335938 -1.160156 0.265625 -1.503906 0.265625 -1.890625 C 0.265625 -2.273438 0.335938 -2.613281 0.484375 -2.90625 C 0.640625 -3.207031 0.859375 -3.4375 1.140625 -3.59375 C 1.421875 -3.757812 1.753906 -3.84375 2.140625 -3.84375 C 2.460938 -3.84375 2.75 -3.78125 3 -3.65625 C 3.25 -3.539062 3.445312 -3.375 3.59375 -3.15625 C 3.738281 -2.945312 3.816406 -2.691406 3.828125 -2.390625 L 2.84375 -2.390625 C 2.8125 -2.585938 2.734375 -2.742188 2.609375 -2.859375 C 2.492188 -2.972656 2.34375 -3.03125 2.15625 -3.03125 C 1.90625 -3.03125 1.707031 -2.929688 1.5625 -2.734375 C 1.414062 -2.535156 1.34375 -2.257812 1.34375 -1.90625 C 1.34375 -1.539062 1.414062 -1.257812 1.5625 -1.0625 C 1.707031 -0.863281 1.90625 -0.765625 2.15625 -0.765625 C 2.332031 -0.765625 2.484375 -0.816406 2.609375 -0.921875 C 2.734375 -1.035156 2.8125 -1.191406 2.84375 -1.390625 L 3.828125 -1.390625 C 3.816406 -1.097656 3.738281 -0.84375 3.59375 -0.625 C 3.457031 -0.40625 3.265625 -0.234375 3.015625 -0.109375 C 2.765625 0.015625 2.472656 0.078125 2.140625 0.078125 Z M 2.140625 0.078125 "/></g></g><g style="fill:#565656;fill-opacity:1;"><g transform="translate(23.912674, 97.055799)"><path style="stroke:none" d="M 2.4375 -3.796875 L 2.4375 -3.015625 L 1.734375 -3.015625 L 1.734375 -1.171875 C 1.734375 -1.023438 1.765625 -0.925781 1.828125 -0.875 C 1.890625 -0.820312 1.972656 -0.796875 2.078125 -0.796875 C 2.128906 -0.796875 2.179688 -0.800781 2.234375 -0.8125 C 2.285156 -0.820312 2.320312 -0.828125 2.34375 -0.828125 L 2.515625 -0.046875 C 2.460938 -0.0234375 2.382812 -0.00390625 2.28125 0.015625 C 2.1875 0.0351562 2.070312 0.046875 1.9375 0.046875 C 1.550781 0.0664062 1.242188 -0.0078125 1.015625 -0.1875 C 0.785156 -0.375 0.671875 -0.65625 0.671875 -1.03125 L 0.671875 -3.015625 L 0.15625 -3.015625 L 0.15625 -3.796875 L 0.671875 -3.796875 L 0.671875 -4.71875 L 1.734375 -4.71875 L 1.734375 -3.796875 Z M 2.4375 -3.796875 "/></g></g><g style="fill:#565656;fill-opacity:1;"><g transform="translate(26.62004, 97.055799)"><path style="stroke:none" d=""/></g></g><g style="fill:#565656;fill-opacity:1;"><g transform="translate(28.23604, 97.055799)"><path style="stroke:none" d="M 2.5 -3.796875 L 2.5 -3.015625 L 1.75 -3.015625 L 1.75 0 L 0.6875 0 L 0.6875 -3.015625 L 0.15625 -3.015625 L 0.15625 -3.796875 L 0.6875 -3.796875 L 0.6875 -4.078125 C 0.6875 -4.492188 0.804688 -4.800781 1.046875 -5 C 1.285156 -5.207031 1.582031 -5.3125 1.9375 -5.3125 C 2.101562 -5.3125 2.25 -5.296875 2.375 -5.265625 C 2.507812 -5.242188 2.613281 -5.222656 2.6875 -5.203125 L 2.5 -4.40625 C 2.457031 -4.425781 2.40625 -4.441406 2.34375 -4.453125 C 2.28125 -4.460938 2.21875 -4.46875 2.15625 -4.46875 C 2 -4.46875 1.890625 -4.429688 1.828125 -4.359375 C 1.773438 -4.285156 1.75 -4.1875 1.75 -4.0625 L 1.75 -3.796875 Z M 2.5 -3.796875 "/></g></g><g style="fill:#565656;fill-opacity:1;"><g transform="translate(30.958249, 97.055799)"><path style="stroke:none" d="M 0.421875 0 L 0.421875 -3.796875 L 1.4375 -3.796875 L 1.4375 -3.140625 L 1.484375 -3.140625 C 1.554688 -3.367188 1.671875 -3.546875 1.828125 -3.671875 C 1.992188 -3.796875 2.179688 -3.859375 2.390625 -3.859375 C 2.492188 -3.859375 2.585938 -3.84375 2.671875 -3.8125 C 2.765625 -3.789062 2.847656 -3.757812 2.921875 -3.71875 L 2.59375 -2.84375 C 2.550781 -2.875 2.5 -2.894531 2.4375 -2.90625 C 2.375 -2.925781 2.304688 -2.9375 2.234375 -2.9375 C 2.023438 -2.9375 1.847656 -2.863281 1.703125 -2.71875 C 1.554688 -2.570312 1.476562 -2.382812 1.46875 -2.15625 L 1.46875 0 Z M 0.421875 0 "/></g></g><g style="fill:#565656;fill-opacity:1;"><g transform="translate(33.767072, 97.055799)"><path style="stroke:none" d="M 2.140625 0.078125 C 1.753906 0.078125 1.421875 -0.00390625 1.140625 -0.171875 C 0.859375 -0.335938 0.640625 -0.566406 0.484375 -0.859375 C 0.335938 -1.148438 0.265625 -1.492188 0.265625 -1.890625 C 0.265625 -2.273438 0.335938 -2.613281 0.484375 -2.90625 C 0.640625 -3.207031 0.859375 -3.4375 1.140625 -3.59375 C 1.421875 -3.757812 1.753906 -3.84375 2.140625 -3.84375 C 2.523438 -3.84375 2.851562 -3.757812 3.125 -3.59375 C 3.40625 -3.4375 3.625 -3.207031 3.78125 -2.90625 C 3.9375 -2.613281 4.015625 -2.273438 4.015625 -1.890625 C 4.015625 -1.492188 3.9375 -1.148438 3.78125 -0.859375 C 3.625 -0.566406 3.40625 -0.335938 3.125 -0.171875 C 2.851562 -0.00390625 2.523438 0.078125 2.140625 0.078125 Z M 2.140625 -0.75 C 2.398438 -0.75 2.597656 -0.851562 2.734375 -1.0625 C 2.867188 -1.28125 2.9375 -1.554688 2.9375 -1.890625 C 2.9375 -2.222656 2.867188 -2.5 2.734375 -2.71875 C 2.597656 -2.9375 2.398438 -3.046875 2.140625 -3.046875 C 1.878906 -3.046875 1.679688 -2.9375 1.546875 -2.71875 C 1.410156 -2.5 1.34375 -2.222656 1.34375 -1.890625 C 1.34375 -1.554688 1.410156 -1.28125 1.546875 -1.0625 C 1.679688 -0.851562 1.878906 -0.75 2.140625 -0.75 Z M 2.140625 -0.75 "/></g></g><g style="fill:#565656;fill-opacity:1;"><g transform="translate(38.043418, 97.055799)"><path style="stroke:none" d="M 0.421875 0 L 0.421875 -3.796875 L 1.421875 -3.796875 L 1.421875 -3.125 L 1.46875 -3.125 C 1.550781 -3.351562 1.679688 -3.53125 1.859375 -3.65625 C 2.046875 -3.78125 2.269531 -3.84375 2.53125 -3.84375 C 2.789062 -3.84375 3.007812 -3.78125 3.1875 -3.65625 C 3.375 -3.53125 3.5 -3.351562 3.5625 -3.125 L 3.59375 -3.125 C 3.675781 -3.34375 3.816406 -3.515625 4.015625 -3.640625 C 4.222656 -3.773438 4.46875 -3.84375 4.75 -3.84375 C 5.101562 -3.84375 5.390625 -3.726562 5.609375 -3.5 C 5.828125 -3.28125 5.9375 -2.96875 5.9375 -2.5625 L 5.9375 0 L 4.890625 0 L 4.890625 -2.34375 C 4.890625 -2.5625 4.832031 -2.722656 4.71875 -2.828125 C 4.613281 -2.929688 4.472656 -2.984375 4.296875 -2.984375 C 4.109375 -2.984375 3.957031 -2.921875 3.84375 -2.796875 C 3.738281 -2.671875 3.6875 -2.515625 3.6875 -2.328125 L 3.6875 0 L 2.671875 0 L 2.671875 -2.375 C 2.671875 -2.5625 2.617188 -2.707031 2.515625 -2.8125 C 2.410156 -2.925781 2.269531 -2.984375 2.09375 -2.984375 C 1.914062 -2.984375 1.765625 -2.914062 1.640625 -2.78125 C 1.523438 -2.65625 1.46875 -2.488281 1.46875 -2.28125 L 1.46875 0 Z M 0.421875 0 "/></g></g><g style="fill:#565656;fill-opacity:1;"><g transform="translate(44.398543, 97.055799)"><path style="stroke:none" d=""/></g></g><g style="fill:#565656;fill-opacity:1;"><g transform="translate(46.014542, 97.055799)"><path style="stroke:none" d="M 2.4375 -3.796875 L 2.4375 -3.015625 L 1.734375 -3.015625 L 1.734375 -1.171875 C 1.734375 -1.023438 1.765625 -0.925781 1.828125 -0.875 C 1.890625 -0.820312 1.972656 -0.796875 2.078125 -0.796875 C 2.128906 -0.796875 2.179688 -0.800781 2.234375 -0.8125 C 2.285156 -0.820312 2.320312 -0.828125 2.34375 -0.828125 L 2.515625 -0.046875 C 2.460938 -0.0234375 2.382812 -0.00390625 2.28125 0.015625 C 2.1875 0.0351562 2.070312 0.046875 1.9375 0.046875 C 1.550781 0.0664062 1.242188 -0.0078125 1.015625 -0.1875 C 0.785156 -0.375 0.671875 -0.65625 0.671875 -1.03125 L 0.671875 -3.015625 L 0.15625 -3.015625 L 0.15625 -3.796875 L 0.671875 -3.796875 L 0.671875 -4.71875 L 1.734375 -4.71875 L 1.734375 -3.796875 Z M 2.4375 -3.796875 "/></g></g><g style="fill:#565656;fill-opacity:1;"><g transform="translate(48.801105, 97.055799)"><path style="stroke:none" d="M 1.46875 -2.203125 L 1.46875 0 L 0.421875 0 L 0.421875 -5.0625 L 1.4375 -5.0625 L 1.4375 -3.125 L 1.484375 -3.125 C 1.578125 -3.351562 1.71875 -3.53125 1.90625 -3.65625 C 2.09375 -3.78125 2.332031 -3.84375 2.625 -3.84375 C 3.019531 -3.84375 3.335938 -3.71875 3.578125 -3.46875 C 3.816406 -3.21875 3.9375 -2.867188 3.9375 -2.421875 L 3.9375 0 L 2.890625 0 L 2.890625 -2.234375 C 2.890625 -2.460938 2.828125 -2.640625 2.703125 -2.765625 C 2.585938 -2.898438 2.421875 -2.96875 2.203125 -2.96875 C 1.992188 -2.96875 1.820312 -2.898438 1.6875 -2.765625 C 1.550781 -2.628906 1.476562 -2.441406 1.46875 -2.203125 Z M 1.46875 -2.203125 "/></g></g><g style="fill:#565656;fill-opacity:1;"><g transform="translate(53.151693, 97.055799)"><path style="stroke:none" d="M 2.15625 0.078125 C 1.757812 0.078125 1.421875 0 1.140625 -0.15625 C 0.859375 -0.320312 0.640625 -0.550781 0.484375 -0.84375 C 0.335938 -1.132812 0.265625 -1.484375 0.265625 -1.890625 C 0.265625 -2.273438 0.335938 -2.613281 0.484375 -2.90625 C 0.640625 -3.207031 0.851562 -3.4375 1.125 -3.59375 C 1.40625 -3.757812 1.734375 -3.84375 2.109375 -3.84375 C 2.441406 -3.84375 2.742188 -3.769531 3.015625 -3.625 C 3.285156 -3.488281 3.5 -3.273438 3.65625 -2.984375 C 3.8125 -2.703125 3.890625 -2.347656 3.890625 -1.921875 L 3.890625 -1.625 L 1.3125 -1.625 C 1.3125 -1.34375 1.390625 -1.117188 1.546875 -0.953125 C 1.703125 -0.796875 1.910156 -0.71875 2.171875 -0.71875 C 2.347656 -0.71875 2.5 -0.753906 2.625 -0.828125 C 2.757812 -0.898438 2.851562 -1.007812 2.90625 -1.15625 L 3.875 -1.09375 C 3.800781 -0.738281 3.613281 -0.453125 3.3125 -0.234375 C 3.007812 -0.0234375 2.625 0.078125 2.15625 0.078125 Z M 1.3125 -2.28125 L 2.90625 -2.28125 C 2.90625 -2.507812 2.832031 -2.695312 2.6875 -2.84375 C 2.539062 -2.988281 2.351562 -3.0625 2.125 -3.0625 C 1.894531 -3.0625 1.703125 -2.984375 1.546875 -2.828125 C 1.398438 -2.679688 1.320312 -2.5 1.3125 -2.28125 Z M 1.3125 -2.28125 "/></g></g><g style="fill:#565656;fill-opacity:1;"><g transform="translate(57.316676, 97.055799)"><path style="stroke:none" d=""/></g></g><g style="fill:#565656;fill-opacity:1;"><g transform="translate(58.932675, 97.055799)"><path style="stroke:none" d="M 2.140625 0.078125 C 1.753906 0.078125 1.421875 -0.00390625 1.140625 -0.171875 C 0.859375 -0.335938 0.640625 -0.566406 0.484375 -0.859375 C 0.335938 -1.148438 0.265625 -1.492188 0.265625 -1.890625 C 0.265625 -2.273438 0.335938 -2.613281 0.484375 -2.90625 C 0.640625 -3.207031 0.859375 -3.4375 1.140625 -3.59375 C 1.421875 -3.757812 1.753906 -3.84375 2.140625 -3.84375 C 2.523438 -3.84375 2.851562 -3.757812 3.125 -3.59375 C 3.40625 -3.4375 3.625 -3.207031 3.78125 -2.90625 C 3.9375 -2.613281 4.015625 -2.273438 4.015625 -1.890625 C 4.015625 -1.492188 3.9375 -1.148438 3.78125 -0.859375 C 3.625 -0.566406 3.40625 -0.335938 3.125 -0.171875 C 2.851562 -0.00390625 2.523438 0.078125 2.140625 0.078125 Z M 2.140625 -0.75 C 2.398438 -0.75 2.597656 -0.851562 2.734375 -1.0625 C 2.867188 -1.28125 2.9375 -1.554688 2.9375 -1.890625 C 2.9375 -2.222656 2.867188 -2.5 2.734375 -2.71875 C 2.597656 -2.9375 2.398438 -3.046875 2.140625 -3.046875 C 1.878906 -3.046875 1.679688 -2.9375 1.546875 -2.71875 C 1.410156 -2.5 1.34375 -2.222656 1.34375 -1.890625 C 1.34375 -1.554688 1.410156 -1.28125 1.546875 -1.0625 C 1.679688 -0.851562 1.878906 -0.75 2.140625 -0.75 Z M 2.140625 -0.75 "/></g></g><g style="fill:#565656;fill-opacity:1;"><g transform="translate(63.209022, 97.055799)"><path style="stroke:none" d="M 0.421875 1.421875 L 0.421875 -3.796875 L 1.453125 -3.796875 L 1.453125 -3.15625 L 1.5 -3.15625 C 1.550781 -3.257812 1.617188 -3.363281 1.703125 -3.46875 C 1.796875 -3.582031 1.910156 -3.671875 2.046875 -3.734375 C 2.191406 -3.804688 2.375 -3.84375 2.59375 -3.84375 C 2.863281 -3.84375 3.113281 -3.769531 3.34375 -3.625 C 3.582031 -3.488281 3.769531 -3.273438 3.90625 -2.984375 C 4.050781 -2.691406 4.125 -2.328125 4.125 -1.890625 C 4.125 -1.472656 4.054688 -1.117188 3.921875 -0.828125 C 3.785156 -0.535156 3.597656 -0.3125 3.359375 -0.15625 C 3.128906 -0.0078125 2.875 0.0625 2.59375 0.0625 C 2.382812 0.0625 2.207031 0.03125 2.0625 -0.03125 C 1.914062 -0.101562 1.796875 -0.191406 1.703125 -0.296875 C 1.617188 -0.398438 1.550781 -0.503906 1.5 -0.609375 L 1.46875 -0.609375 L 1.46875 1.421875 Z M 1.453125 -1.90625 C 1.453125 -1.5625 1.519531 -1.285156 1.65625 -1.078125 C 1.800781 -0.878906 2 -0.78125 2.25 -0.78125 C 2.507812 -0.78125 2.707031 -0.882812 2.84375 -1.09375 C 2.976562 -1.300781 3.046875 -1.570312 3.046875 -1.90625 C 3.046875 -2.226562 2.976562 -2.492188 2.84375 -2.703125 C 2.707031 -2.910156 2.507812 -3.015625 2.25 -3.015625 C 2 -3.015625 1.800781 -2.910156 1.65625 -2.703125 C 1.519531 -2.503906 1.453125 -2.238281 1.453125 -1.90625 Z M 1.453125 -1.90625 "/></g></g><g style="fill:#565656;fill-opacity:1;"><g transform="translate(67.616528, 97.055799)"><path style="stroke:none" d="M 2.4375 -3.796875 L 2.4375 -3.015625 L 1.734375 -3.015625 L 1.734375 -1.171875 C 1.734375 -1.023438 1.765625 -0.925781 1.828125 -0.875 C 1.890625 -0.820312 1.972656 -0.796875 2.078125 -0.796875 C 2.128906 -0.796875 2.179688 -0.800781 2.234375 -0.8125 C 2.285156 -0.820312 2.320312 -0.828125 2.34375 -0.828125 L 2.515625 -0.046875 C 2.460938 -0.0234375 2.382812 -0.00390625 2.28125 0.015625 C 2.1875 0.0351562 2.070312 0.046875 1.9375 0.046875 C 1.550781 0.0664062 1.242188 -0.0078125 1.015625 -0.1875 C 0.785156 -0.375 0.671875 -0.65625 0.671875 -1.03125 L 0.671875 -3.015625 L 0.15625 -3.015625 L 0.15625 -3.796875 L 0.671875 -3.796875 L 0.671875 -4.71875 L 1.734375 -4.71875 L 1.734375 -3.796875 Z M 2.4375 -3.796875 "/></g></g><g style="fill:#565656;fill-opacity:1;"><g transform="translate(70.323895, 97.055799)"><path style="stroke:none" d="M 0.421875 0 L 0.421875 -3.796875 L 1.46875 -3.796875 L 1.46875 0 Z M 0.953125 -4.296875 C 0.796875 -4.296875 0.660156 -4.347656 0.546875 -4.453125 C 0.441406 -4.554688 0.390625 -4.679688 0.390625 -4.828125 C 0.390625 -4.972656 0.441406 -5.097656 0.546875 -5.203125 C 0.660156 -5.304688 0.796875 -5.359375 0.953125 -5.359375 C 1.109375 -5.359375 1.242188 -5.304688 1.359375 -5.203125 C 1.472656 -5.097656 1.53125 -4.972656 1.53125 -4.828125 C 1.53125 -4.679688 1.472656 -4.554688 1.359375 -4.453125 C 1.242188 -4.347656 1.109375 -4.296875 0.953125 -4.296875 Z M 0.953125 -4.296875 "/></g></g><g style="fill:#565656;fill-opacity:1;"><g transform="translate(72.21954, 97.055799)"><path style="stroke:none" d="M 2.140625 0.078125 C 1.753906 0.078125 1.421875 -0.00390625 1.140625 -0.171875 C 0.859375 -0.335938 0.640625 -0.566406 0.484375 -0.859375 C 0.335938 -1.148438 0.265625 -1.492188 0.265625 -1.890625 C 0.265625 -2.273438 0.335938 -2.613281 0.484375 -2.90625 C 0.640625 -3.207031 0.859375 -3.4375 1.140625 -3.59375 C 1.421875 -3.757812 1.753906 -3.84375 2.140625 -3.84375 C 2.523438 -3.84375 2.851562 -3.757812 3.125 -3.59375 C 3.40625 -3.4375 3.625 -3.207031 3.78125 -2.90625 C 3.9375 -2.613281 4.015625 -2.273438 4.015625 -1.890625 C 4.015625 -1.492188 3.9375 -1.148438 3.78125 -0.859375 C 3.625 -0.566406 3.40625 -0.335938 3.125 -0.171875 C 2.851562 -0.00390625 2.523438 0.078125 2.140625 0.078125 Z M 2.140625 -0.75 C 2.398438 -0.75 2.597656 -0.851562 2.734375 -1.0625 C 2.867188 -1.28125 2.9375 -1.554688 2.9375 -1.890625 C 2.9375 -2.222656 2.867188 -2.5 2.734375 -2.71875 C 2.597656 -2.9375 2.398438 -3.046875 2.140625 -3.046875 C 1.878906 -3.046875 1.679688 -2.9375 1.546875 -2.71875 C 1.410156 -2.5 1.34375 -2.222656 1.34375 -1.890625 C 1.34375 -1.554688 1.410156 -1.28125 1.546875 -1.0625 C 1.679688 -0.851562 1.878906 -0.75 2.140625 -0.75 Z M 2.140625 -0.75 "/></g></g><g style="fill:#565656;fill-opacity:1;"><g transform="translate(76.495886, 97.055799)"><path style="stroke:none" d="M 1.46875 -2.203125 L 1.46875 0 L 0.421875 0 L 0.421875 -3.796875 L 1.421875 -3.796875 L 1.421875 -3.125 L 1.46875 -3.125 C 1.550781 -3.351562 1.691406 -3.53125 1.890625 -3.65625 C 2.085938 -3.78125 2.328125 -3.84375 2.609375 -3.84375 C 3.003906 -3.84375 3.320312 -3.71875 3.5625 -3.46875 C 3.800781 -3.21875 3.921875 -2.867188 3.921875 -2.421875 L 3.921875 0 L 2.875 0 L 2.875 -2.234375 C 2.875 -2.460938 2.8125 -2.640625 2.6875 -2.765625 C 2.570312 -2.898438 2.40625 -2.96875 2.1875 -2.96875 C 1.976562 -2.96875 1.804688 -2.898438 1.671875 -2.765625 C 1.546875 -2.628906 1.476562 -2.441406 1.46875 -2.203125 Z M 1.46875 -2.203125 "/></g></g><g style="fill:#565656;fill-opacity:1;"><g transform="translate(80.82915, 97.055799)"><path style="stroke:none" d="M 3.578125 -2.71875 L 2.625 -2.65625 C 2.59375 -2.78125 2.519531 -2.882812 2.40625 -2.96875 C 2.300781 -3.0625 2.160156 -3.109375 1.984375 -3.109375 C 1.816406 -3.109375 1.675781 -3.070312 1.5625 -3 C 1.445312 -2.925781 1.394531 -2.835938 1.40625 -2.734375 C 1.394531 -2.640625 1.425781 -2.5625 1.5 -2.5 C 1.582031 -2.4375 1.710938 -2.382812 1.890625 -2.34375 L 2.578125 -2.203125 C 3.304688 -2.054688 3.671875 -1.710938 3.671875 -1.171875 C 3.671875 -0.921875 3.597656 -0.703125 3.453125 -0.515625 C 3.304688 -0.328125 3.101562 -0.179688 2.84375 -0.078125 C 2.59375 0.0234375 2.304688 0.078125 1.984375 0.078125 C 1.472656 0.078125 1.066406 -0.0234375 0.765625 -0.234375 C 0.472656 -0.453125 0.300781 -0.738281 0.25 -1.09375 L 1.296875 -1.15625 C 1.328125 -1 1.398438 -0.878906 1.515625 -0.796875 C 1.640625 -0.722656 1.796875 -0.6875 1.984375 -0.6875 C 2.160156 -0.6875 2.304688 -0.722656 2.421875 -0.796875 C 2.535156 -0.867188 2.59375 -0.960938 2.59375 -1.078125 C 2.59375 -1.265625 2.429688 -1.390625 2.109375 -1.453125 L 1.453125 -1.578125 C 0.710938 -1.722656 0.347656 -2.085938 0.359375 -2.671875 C 0.347656 -3.035156 0.488281 -3.320312 0.78125 -3.53125 C 1.082031 -3.738281 1.476562 -3.84375 1.96875 -3.84375 C 2.445312 -3.84375 2.820312 -3.738281 3.09375 -3.53125 C 3.375 -3.332031 3.535156 -3.0625 3.578125 -2.71875 Z M 3.578125 -2.71875 "/></g></g><g style="fill:#565656;fill-opacity:1;"><g transform="translate(84.744183, 97.055799)"><path style="stroke:none" d=""/></g></g><g style="fill:#565656;fill-opacity:1;"><g transform="translate(86.360182, 97.055799)"><path style="stroke:none" d="M 0.4375 0 L 0.4375 -5.0625 L 1.5 -5.0625 L 1.5 -3.15625 L 1.53125 -3.15625 C 1.570312 -3.257812 1.632812 -3.363281 1.71875 -3.46875 C 1.8125 -3.582031 1.929688 -3.671875 2.078125 -3.734375 C 2.222656 -3.804688 2.398438 -3.84375 2.609375 -3.84375 C 2.890625 -3.84375 3.144531 -3.769531 3.375 -3.625 C 3.601562 -3.488281 3.785156 -3.273438 3.921875 -2.984375 C 4.066406 -2.691406 4.140625 -2.328125 4.140625 -1.890625 C 4.140625 -1.472656 4.070312 -1.117188 3.9375 -0.828125 C 3.800781 -0.535156 3.613281 -0.3125 3.375 -0.15625 C 3.144531 -0.0078125 2.890625 0.0625 2.609375 0.0625 C 2.398438 0.0625 2.222656 0.03125 2.078125 -0.03125 C 1.941406 -0.101562 1.828125 -0.191406 1.734375 -0.296875 C 1.640625 -0.398438 1.570312 -0.503906 1.53125 -0.609375 L 1.484375 -0.609375 L 1.484375 0 Z M 1.46875 -1.90625 C 1.46875 -1.5625 1.535156 -1.285156 1.671875 -1.078125 C 1.816406 -0.878906 2.015625 -0.78125 2.265625 -0.78125 C 2.523438 -0.78125 2.722656 -0.882812 2.859375 -1.09375 C 3.003906 -1.300781 3.078125 -1.570312 3.078125 -1.90625 C 3.078125 -2.226562 3.003906 -2.492188 2.859375 -2.703125 C 2.722656 -2.910156 2.523438 -3.015625 2.265625 -3.015625 C 2.015625 -3.015625 1.816406 -2.910156 1.671875 -2.703125 C 1.535156 -2.503906 1.46875 -2.238281 1.46875 -1.90625 Z M 1.46875 -1.90625 "/></g></g><g style="fill:#565656;fill-opacity:1;"><g transform="translate(90.787486, 97.055799)"><path style="stroke:none" d="M 2.15625 0.078125 C 1.757812 0.078125 1.421875 0 1.140625 -0.15625 C 0.859375 -0.320312 0.640625 -0.550781 0.484375 -0.84375 C 0.335938 -1.132812 0.265625 -1.484375 0.265625 -1.890625 C 0.265625 -2.273438 0.335938 -2.613281 0.484375 -2.90625 C 0.640625 -3.207031 0.851562 -3.4375 1.125 -3.59375 C 1.40625 -3.757812 1.734375 -3.84375 2.109375 -3.84375 C 2.441406 -3.84375 2.742188 -3.769531 3.015625 -3.625 C 3.285156 -3.488281 3.5 -3.273438 3.65625 -2.984375 C 3.8125 -2.703125 3.890625 -2.347656 3.890625 -1.921875 L 3.890625 -1.625 L 1.3125 -1.625 C 1.3125 -1.34375 1.390625 -1.117188 1.546875 -0.953125 C 1.703125 -0.796875 1.910156 -0.71875 2.171875 -0.71875 C 2.347656 -0.71875 2.5 -0.753906 2.625 -0.828125 C 2.757812 -0.898438 2.851562 -1.007812 2.90625 -1.15625 L 3.875 -1.09375 C 3.800781 -0.738281 3.613281 -0.453125 3.3125 -0.234375 C 3.007812 -0.0234375 2.625 0.078125 2.15625 0.078125 Z M 1.3125 -2.28125 L 2.90625 -2.28125 C 2.90625 -2.507812 2.832031 -2.695312 2.6875 -2.84375 C 2.539062 -2.988281 2.351562 -3.0625 2.125 -3.0625 C 1.894531 -3.0625 1.703125 -2.984375 1.546875 -2.828125 C 1.398438 -2.679688 1.320312 -2.5 1.3125 -2.28125 Z M 1.3125 -2.28125 "/></g></g><g style="fill:#565656;fill-opacity:1;"><g transform="translate(94.952469, 97.055799)"><path style="stroke:none" d="M 1.46875 -5.0625 L 1.46875 0 L 0.421875 0 L 0.421875 -5.0625 Z M 1.46875 -5.0625 "/></g></g><g style="fill:#565656;fill-opacity:1;"><g transform="translate(96.848113, 97.055799)"><path style="stroke:none" d="M 2.140625 0.078125 C 1.753906 0.078125 1.421875 -0.00390625 1.140625 -0.171875 C 0.859375 -0.335938 0.640625 -0.566406 0.484375 -0.859375 C 0.335938 -1.148438 0.265625 -1.492188 0.265625 -1.890625 C 0.265625 -2.273438 0.335938 -2.613281 0.484375 -2.90625 C 0.640625 -3.207031 0.859375 -3.4375 1.140625 -3.59375 C 1.421875 -3.757812 1.753906 -3.84375 2.140625 -3.84375 C 2.523438 -3.84375 2.851562 -3.757812 3.125 -3.59375 C 3.40625 -3.4375 3.625 -3.207031 3.78125 -2.90625 C 3.9375 -2.613281 4.015625 -2.273438 4.015625 -1.890625 C 4.015625 -1.492188 3.9375 -1.148438 3.78125 -0.859375 C 3.625 -0.566406 3.40625 -0.335938 3.125 -0.171875 C 2.851562 -0.00390625 2.523438 0.078125 2.140625 0.078125 Z M 2.140625 -0.75 C 2.398438 -0.75 2.597656 -0.851562 2.734375 -1.0625 C 2.867188 -1.28125 2.9375 -1.554688 2.9375 -1.890625 C 2.9375 -2.222656 2.867188 -2.5 2.734375 -2.71875 C 2.597656 -2.9375 2.398438 -3.046875 2.140625 -3.046875 C 1.878906 -3.046875 1.679688 -2.9375 1.546875 -2.71875 C 1.410156 -2.5 1.34375 -2.222656 1.34375 -1.890625 C 1.34375 -1.554688 1.410156 -1.28125 1.546875 -1.0625 C 1.679688 -0.851562 1.878906 -0.75 2.140625 -0.75 Z M 2.140625 -0.75 "/></g></g><g style="fill:#565656;fill-opacity:1;"><g transform="translate(101.03042, 97.055799)"><path style="stroke:none" d="M 1.171875 0 L 0.140625 -3.796875 L 1.203125 -3.796875 L 1.796875 -1.25 L 1.828125 -1.25 L 2.4375 -3.796875 L 3.484375 -3.796875 L 4.109375 -1.265625 L 4.140625 -1.265625 L 4.71875 -3.796875 L 5.78125 -3.796875 L 4.75 0 L 3.640625 0 L 2.984375 -2.390625 L 2.9375 -2.390625 L 2.28125 0 Z M 1.171875 0 "/></g></g><g style="fill:#565656;fill-opacity:1;"><g transform="translate(28.795941, 106.347849)"><path style="stroke:none" d="M 2.4375 -3.796875 L 2.4375 -3.015625 L 1.734375 -3.015625 L 1.734375 -1.171875 C 1.734375 -1.023438 1.765625 -0.925781 1.828125 -0.875 C 1.890625 -0.820312 1.972656 -0.796875 2.078125 -0.796875 C 2.128906 -0.796875 2.179688 -0.800781 2.234375 -0.8125 C 2.285156 -0.820312 2.320312 -0.828125 2.34375 -0.828125 L 2.515625 -0.046875 C 2.460938 -0.0234375 2.382812 -0.00390625 2.28125 0.015625 C 2.1875 0.0351562 2.070312 0.046875 1.9375 0.046875 C 1.550781 0.0664062 1.242188 -0.0078125 1.015625 -0.1875 C 0.785156 -0.375 0.671875 -0.65625 0.671875 -1.03125 L 0.671875 -3.015625 L 0.15625 -3.015625 L 0.15625 -3.796875 L 0.671875 -3.796875 L 0.671875 -4.71875 L 1.734375 -4.71875 L 1.734375 -3.796875 Z M 2.4375 -3.796875 "/></g></g><g style="fill:#565656;fill-opacity:1;"><g transform="translate(31.463714, 106.347849)"><path style="stroke:none" d="M 2.140625 0.078125 C 1.753906 0.078125 1.421875 -0.00390625 1.140625 -0.171875 C 0.859375 -0.335938 0.640625 -0.566406 0.484375 -0.859375 C 0.335938 -1.148438 0.265625 -1.492188 0.265625 -1.890625 C 0.265625 -2.273438 0.335938 -2.613281 0.484375 -2.90625 C 0.640625 -3.207031 0.859375 -3.4375 1.140625 -3.59375 C 1.421875 -3.757812 1.753906 -3.84375 2.140625 -3.84375 C 2.523438 -3.84375 2.851562 -3.757812 3.125 -3.59375 C 3.40625 -3.4375 3.625 -3.207031 3.78125 -2.90625 C 3.9375 -2.613281 4.015625 -2.273438 4.015625 -1.890625 C 4.015625 -1.492188 3.9375 -1.148438 3.78125 -0.859375 C 3.625 -0.566406 3.40625 -0.335938 3.125 -0.171875 C 2.851562 -0.00390625 2.523438 0.078125 2.140625 0.078125 Z M 2.140625 -0.75 C 2.398438 -0.75 2.597656 -0.851562 2.734375 -1.0625 C 2.867188 -1.28125 2.9375 -1.554688 2.9375 -1.890625 C 2.9375 -2.222656 2.867188 -2.5 2.734375 -2.71875 C 2.597656 -2.9375 2.398438 -3.046875 2.140625 -3.046875 C 1.878906 -3.046875 1.679688 -2.9375 1.546875 -2.71875 C 1.410156 -2.5 1.34375 -2.222656 1.34375 -1.890625 C 1.34375 -1.554688 1.410156 -1.28125 1.546875 -1.0625 C 1.679688 -0.851562 1.878906 -0.75 2.140625 -0.75 Z M 2.140625 -0.75 "/></g></g><g style="fill:#565656;fill-opacity:1;"><g transform="translate(35.74006, 106.347849)"><path style="stroke:none" d=""/></g></g><g style="fill:#565656;fill-opacity:1;"><g transform="translate(37.35606, 106.347849)"><path style="stroke:none" d="M 3.578125 -2.71875 L 2.625 -2.65625 C 2.59375 -2.78125 2.519531 -2.882812 2.40625 -2.96875 C 2.300781 -3.0625 2.160156 -3.109375 1.984375 -3.109375 C 1.816406 -3.109375 1.675781 -3.070312 1.5625 -3 C 1.445312 -2.925781 1.394531 -2.835938 1.40625 -2.734375 C 1.394531 -2.640625 1.425781 -2.5625 1.5 -2.5 C 1.582031 -2.4375 1.710938 -2.382812 1.890625 -2.34375 L 2.578125 -2.203125 C 3.304688 -2.054688 3.671875 -1.710938 3.671875 -1.171875 C 3.671875 -0.921875 3.597656 -0.703125 3.453125 -0.515625 C 3.304688 -0.328125 3.101562 -0.179688 2.84375 -0.078125 C 2.59375 0.0234375 2.304688 0.078125 1.984375 0.078125 C 1.472656 0.078125 1.066406 -0.0234375 0.765625 -0.234375 C 0.472656 -0.453125 0.300781 -0.738281 0.25 -1.09375 L 1.296875 -1.15625 C 1.328125 -1 1.398438 -0.878906 1.515625 -0.796875 C 1.640625 -0.722656 1.796875 -0.6875 1.984375 -0.6875 C 2.160156 -0.6875 2.304688 -0.722656 2.421875 -0.796875 C 2.535156 -0.867188 2.59375 -0.960938 2.59375 -1.078125 C 2.59375 -1.265625 2.429688 -1.390625 2.109375 -1.453125 L 1.453125 -1.578125 C 0.710938 -1.722656 0.347656 -2.085938 0.359375 -2.671875 C 0.347656 -3.035156 0.488281 -3.320312 0.78125 -3.53125 C 1.082031 -3.738281 1.476562 -3.84375 1.96875 -3.84375 C 2.445312 -3.84375 2.820312 -3.738281 3.09375 -3.53125 C 3.375 -3.332031 3.535156 -3.0625 3.578125 -2.71875 Z M 3.578125 -2.71875 "/></g></g><g style="fill:#565656;fill-opacity:1;"><g transform="translate(41.271093, 106.347849)"><path style="stroke:none" d="M 2.4375 -3.796875 L 2.4375 -3.015625 L 1.734375 -3.015625 L 1.734375 -1.171875 C 1.734375 -1.023438 1.765625 -0.925781 1.828125 -0.875 C 1.890625 -0.820312 1.972656 -0.796875 2.078125 -0.796875 C 2.128906 -0.796875 2.179688 -0.800781 2.234375 -0.8125 C 2.285156 -0.820312 2.320312 -0.828125 2.34375 -0.828125 L 2.515625 -0.046875 C 2.460938 -0.0234375 2.382812 -0.00390625 2.28125 0.015625 C 2.1875 0.0351562 2.070312 0.046875 1.9375 0.046875 C 1.550781 0.0664062 1.242188 -0.0078125 1.015625 -0.1875 C 0.785156 -0.375 0.671875 -0.65625 0.671875 -1.03125 L 0.671875 -3.015625 L 0.15625 -3.015625 L 0.15625 -3.796875 L 0.671875 -3.796875 L 0.671875 -4.71875 L 1.734375 -4.71875 L 1.734375 -3.796875 Z M 2.4375 -3.796875 "/></g></g><g style="fill:#565656;fill-opacity:1;"><g transform="translate(43.978459, 106.347849)"><path style="stroke:none" d="M 1.5 0.078125 C 1.132812 0.078125 0.832031 -0.015625 0.59375 -0.203125 C 0.363281 -0.398438 0.25 -0.6875 0.25 -1.0625 C 0.25 -1.34375 0.3125 -1.5625 0.4375 -1.71875 C 0.570312 -1.882812 0.75 -2.003906 0.96875 -2.078125 C 1.1875 -2.160156 1.421875 -2.210938 1.671875 -2.234375 C 2.003906 -2.265625 2.238281 -2.296875 2.375 -2.328125 C 2.519531 -2.367188 2.59375 -2.453125 2.59375 -2.578125 L 2.59375 -2.59375 C 2.59375 -2.75 2.539062 -2.867188 2.4375 -2.953125 C 2.34375 -3.035156 2.207031 -3.078125 2.03125 -3.078125 C 1.84375 -3.078125 1.691406 -3.035156 1.578125 -2.953125 C 1.460938 -2.867188 1.382812 -2.765625 1.34375 -2.640625 L 0.375 -2.71875 C 0.445312 -3.0625 0.625 -3.332031 0.90625 -3.53125 C 1.195312 -3.738281 1.570312 -3.84375 2.03125 -3.84375 C 2.3125 -3.84375 2.570312 -3.796875 2.8125 -3.703125 C 3.0625 -3.617188 3.257812 -3.484375 3.40625 -3.296875 C 3.5625 -3.109375 3.640625 -2.863281 3.640625 -2.5625 L 3.640625 0 L 2.640625 0 L 2.640625 -0.53125 L 2.609375 -0.53125 C 2.523438 -0.351562 2.390625 -0.207031 2.203125 -0.09375 C 2.015625 0.0195312 1.78125 0.078125 1.5 0.078125 Z M 1.8125 -0.65625 C 2.039062 -0.65625 2.226562 -0.722656 2.375 -0.859375 C 2.519531 -0.992188 2.59375 -1.160156 2.59375 -1.359375 L 2.59375 -1.765625 C 2.550781 -1.734375 2.488281 -1.707031 2.40625 -1.6875 C 2.320312 -1.664062 2.226562 -1.644531 2.125 -1.625 C 2.03125 -1.613281 1.941406 -1.601562 1.859375 -1.59375 C 1.679688 -1.5625 1.535156 -1.503906 1.421875 -1.421875 C 1.304688 -1.347656 1.25 -1.238281 1.25 -1.09375 C 1.25 -0.945312 1.300781 -0.835938 1.40625 -0.765625 C 1.507812 -0.691406 1.644531 -0.65625 1.8125 -0.65625 Z M 1.8125 -0.65625 "/></g></g><g style="fill:#565656;fill-opacity:1;"><g transform="translate(48.02218, 106.347849)"><path style="stroke:none" d="M 0.421875 0 L 0.421875 -3.796875 L 1.4375 -3.796875 L 1.4375 -3.140625 L 1.484375 -3.140625 C 1.554688 -3.367188 1.671875 -3.546875 1.828125 -3.671875 C 1.992188 -3.796875 2.179688 -3.859375 2.390625 -3.859375 C 2.492188 -3.859375 2.585938 -3.84375 2.671875 -3.8125 C 2.765625 -3.789062 2.847656 -3.757812 2.921875 -3.71875 L 2.59375 -2.84375 C 2.550781 -2.875 2.5 -2.894531 2.4375 -2.90625 C 2.375 -2.925781 2.304688 -2.9375 2.234375 -2.9375 C 2.023438 -2.9375 1.847656 -2.863281 1.703125 -2.71875 C 1.554688 -2.570312 1.476562 -2.382812 1.46875 -2.15625 L 1.46875 0 Z M 0.421875 0 "/></g></g><g style="fill:#565656;fill-opacity:1;"><g transform="translate(51.24677, 106.347849)"><path style="stroke:none" d="M 2.4375 -3.796875 L 2.4375 -3.015625 L 1.734375 -3.015625 L 1.734375 -1.171875 C 1.734375 -1.023438 1.765625 -0.925781 1.828125 -0.875 C 1.890625 -0.820312 1.972656 -0.796875 2.078125 -0.796875 C 2.128906 -0.796875 2.179688 -0.800781 2.234375 -0.8125 C 2.285156 -0.820312 2.320312 -0.828125 2.34375 -0.828125 L 2.515625 -0.046875 C 2.460938 -0.0234375 2.382812 -0.00390625 2.28125 0.015625 C 2.1875 0.0351562 2.070312 0.046875 1.9375 0.046875 C 1.550781 0.0664062 1.242188 -0.0078125 1.015625 -0.1875 C 0.785156 -0.375 0.671875 -0.65625 0.671875 -1.03125 L 0.671875 -3.015625 L 0.15625 -3.015625 L 0.15625 -3.796875 L 0.671875 -3.796875 L 0.671875 -4.71875 L 1.734375 -4.71875 L 1.734375 -3.796875 Z M 2.4375 -3.796875 "/></g></g><g style="fill:#565656;fill-opacity:1;"><g transform="translate(53.954137, 106.347849)"><path style="stroke:none" d=""/></g></g><g style="fill:#565656;fill-opacity:1;"><g transform="translate(55.570136, 106.347849)"><path style="stroke:none" d="M 0.4375 0 L 0.4375 -5.0625 L 1.5 -5.0625 L 1.5 -3.15625 L 1.53125 -3.15625 C 1.570312 -3.257812 1.632812 -3.363281 1.71875 -3.46875 C 1.8125 -3.582031 1.929688 -3.671875 2.078125 -3.734375 C 2.222656 -3.804688 2.398438 -3.84375 2.609375 -3.84375 C 2.890625 -3.84375 3.144531 -3.769531 3.375 -3.625 C 3.601562 -3.488281 3.785156 -3.273438 3.921875 -2.984375 C 4.066406 -2.691406 4.140625 -2.328125 4.140625 -1.890625 C 4.140625 -1.472656 4.070312 -1.117188 3.9375 -0.828125 C 3.800781 -0.535156 3.613281 -0.3125 3.375 -0.15625 C 3.144531 -0.0078125 2.890625 0.0625 2.609375 0.0625 C 2.398438 0.0625 2.222656 0.03125 2.078125 -0.03125 C 1.941406 -0.101562 1.828125 -0.191406 1.734375 -0.296875 C 1.640625 -0.398438 1.570312 -0.503906 1.53125 -0.609375 L 1.484375 -0.609375 L 1.484375 0 Z M 1.46875 -1.90625 C 1.46875 -1.5625 1.535156 -1.285156 1.671875 -1.078125 C 1.816406 -0.878906 2.015625 -0.78125 2.265625 -0.78125 C 2.523438 -0.78125 2.722656 -0.882812 2.859375 -1.09375 C 3.003906 -1.300781 3.078125 -1.570312 3.078125 -1.90625 C 3.078125 -2.226562 3.003906 -2.492188 2.859375 -2.703125 C 2.722656 -2.910156 2.523438 -3.015625 2.265625 -3.015625 C 2.015625 -3.015625 1.816406 -2.910156 1.671875 -2.703125 C 1.535156 -2.503906 1.46875 -2.238281 1.46875 -1.90625 Z M 1.46875 -1.90625 "/></g></g><g style="fill:#565656;fill-opacity:1;"><g transform="translate(59.99744, 106.347849)"><path style="stroke:none" d="M 2.859375 -1.625 L 2.859375 -3.796875 L 3.90625 -3.796875 L 3.90625 0 L 2.90625 0 L 2.90625 -0.6875 L 2.859375 -0.6875 C 2.773438 -0.46875 2.632812 -0.289062 2.4375 -0.15625 C 2.238281 -0.0195312 1.992188 0.046875 1.703125 0.046875 C 1.328125 0.046875 1.019531 -0.078125 0.78125 -0.328125 C 0.539062 -0.585938 0.421875 -0.9375 0.421875 -1.375 L 0.421875 -3.796875 L 1.46875 -3.796875 L 1.46875 -1.5625 C 1.476562 -1.34375 1.539062 -1.164062 1.65625 -1.03125 C 1.769531 -0.90625 1.929688 -0.84375 2.140625 -0.84375 C 2.328125 -0.84375 2.492188 -0.90625 2.640625 -1.03125 C 2.785156 -1.164062 2.859375 -1.363281 2.859375 -1.625 Z M 2.859375 -1.625 "/></g></g><g style="fill:#565656;fill-opacity:1;"><g transform="translate(64.330704, 106.347849)"><path style="stroke:none" d="M 0.421875 0 L 0.421875 -3.796875 L 1.46875 -3.796875 L 1.46875 0 Z M 0.953125 -4.296875 C 0.796875 -4.296875 0.660156 -4.347656 0.546875 -4.453125 C 0.441406 -4.554688 0.390625 -4.679688 0.390625 -4.828125 C 0.390625 -4.972656 0.441406 -5.097656 0.546875 -5.203125 C 0.660156 -5.304688 0.796875 -5.359375 0.953125 -5.359375 C 1.109375 -5.359375 1.242188 -5.304688 1.359375 -5.203125 C 1.472656 -5.097656 1.53125 -4.972656 1.53125 -4.828125 C 1.53125 -4.679688 1.472656 -4.554688 1.359375 -4.453125 C 1.242188 -4.347656 1.109375 -4.296875 0.953125 -4.296875 Z M 0.953125 -4.296875 "/></g></g><g style="fill:#565656;fill-opacity:1;"><g transform="translate(66.226349, 106.347849)"><path style="stroke:none" d="M 1.46875 -5.0625 L 1.46875 0 L 0.421875 0 L 0.421875 -5.0625 Z M 1.46875 -5.0625 "/></g></g><g style="fill:#565656;fill-opacity:1;"><g transform="translate(68.121994, 106.347849)"><path style="stroke:none" d="M 1.828125 0.0625 C 1.535156 0.0625 1.269531 -0.0078125 1.03125 -0.15625 C 0.800781 -0.3125 0.617188 -0.535156 0.484375 -0.828125 C 0.347656 -1.117188 0.28125 -1.472656 0.28125 -1.890625 C 0.28125 -2.328125 0.347656 -2.691406 0.484375 -2.984375 C 0.628906 -3.273438 0.816406 -3.488281 1.046875 -3.625 C 1.285156 -3.769531 1.539062 -3.84375 1.8125 -3.84375 C 2.03125 -3.84375 2.207031 -3.804688 2.34375 -3.734375 C 2.488281 -3.671875 2.601562 -3.582031 2.6875 -3.46875 C 2.78125 -3.363281 2.851562 -3.257812 2.90625 -3.15625 L 2.9375 -3.15625 L 2.9375 -5.0625 L 3.984375 -5.0625 L 3.984375 0 L 2.9375 0 L 2.9375 -0.609375 L 2.90625 -0.609375 C 2.851562 -0.503906 2.78125 -0.398438 2.6875 -0.296875 C 2.601562 -0.191406 2.488281 -0.101562 2.34375 -0.03125 C 2.195312 0.03125 2.023438 0.0625 1.828125 0.0625 Z M 2.15625 -0.78125 C 2.40625 -0.78125 2.597656 -0.878906 2.734375 -1.078125 C 2.878906 -1.285156 2.953125 -1.5625 2.953125 -1.90625 C 2.953125 -2.238281 2.882812 -2.503906 2.75 -2.703125 C 2.613281 -2.910156 2.414062 -3.015625 2.15625 -3.015625 C 1.894531 -3.015625 1.695312 -2.910156 1.5625 -2.703125 C 1.425781 -2.492188 1.359375 -2.226562 1.359375 -1.90625 C 1.359375 -1.570312 1.425781 -1.300781 1.5625 -1.09375 C 1.695312 -0.882812 1.894531 -0.78125 2.15625 -0.78125 Z M 2.15625 -0.78125 "/></g></g><g style="fill:#565656;fill-opacity:1;"><g transform="translate(72.549297, 106.347849)"><path style="stroke:none" d="M 0.421875 0 L 0.421875 -3.796875 L 1.46875 -3.796875 L 1.46875 0 Z M 0.953125 -4.296875 C 0.796875 -4.296875 0.660156 -4.347656 0.546875 -4.453125 C 0.441406 -4.554688 0.390625 -4.679688 0.390625 -4.828125 C 0.390625 -4.972656 0.441406 -5.097656 0.546875 -5.203125 C 0.660156 -5.304688 0.796875 -5.359375 0.953125 -5.359375 C 1.109375 -5.359375 1.242188 -5.304688 1.359375 -5.203125 C 1.472656 -5.097656 1.53125 -4.972656 1.53125 -4.828125 C 1.53125 -4.679688 1.472656 -4.554688 1.359375 -4.453125 C 1.242188 -4.347656 1.109375 -4.296875 0.953125 -4.296875 Z M 0.953125 -4.296875 "/></g></g><g style="fill:#565656;fill-opacity:1;"><g transform="translate(74.444942, 106.347849)"><path style="stroke:none" d="M 1.46875 -2.203125 L 1.46875 0 L 0.421875 0 L 0.421875 -3.796875 L 1.421875 -3.796875 L 1.421875 -3.125 L 1.46875 -3.125 C 1.550781 -3.351562 1.691406 -3.53125 1.890625 -3.65625 C 2.085938 -3.78125 2.328125 -3.84375 2.609375 -3.84375 C 3.003906 -3.84375 3.320312 -3.71875 3.5625 -3.46875 C 3.800781 -3.21875 3.921875 -2.867188 3.921875 -2.421875 L 3.921875 0 L 2.875 0 L 2.875 -2.234375 C 2.875 -2.460938 2.8125 -2.640625 2.6875 -2.765625 C 2.570312 -2.898438 2.40625 -2.96875 2.1875 -2.96875 C 1.976562 -2.96875 1.804688 -2.898438 1.671875 -2.765625 C 1.546875 -2.628906 1.476562 -2.441406 1.46875 -2.203125 Z M 1.46875 -2.203125 "/></g></g><g style="fill:#565656;fill-opacity:1;"><g transform="translate(78.778206, 106.347849)"><path style="stroke:none" d="M 2.140625 1.484375 C 1.617188 1.484375 1.210938 1.378906 0.921875 1.171875 C 0.628906 0.972656 0.453125 0.734375 0.390625 0.453125 L 1.375 0.3125 C 1.414062 0.414062 1.5 0.507812 1.625 0.59375 C 1.75 0.675781 1.925781 0.71875 2.15625 0.71875 C 2.382812 0.71875 2.570312 0.660156 2.71875 0.546875 C 2.875 0.441406 2.953125 0.265625 2.953125 0.015625 L 2.953125 -0.671875 L 2.90625 -0.671875 C 2.832031 -0.515625 2.707031 -0.367188 2.53125 -0.234375 C 2.363281 -0.109375 2.128906 -0.046875 1.828125 -0.046875 C 1.535156 -0.046875 1.269531 -0.113281 1.03125 -0.25 C 0.800781 -0.382812 0.617188 -0.585938 0.484375 -0.859375 C 0.347656 -1.140625 0.28125 -1.488281 0.28125 -1.90625 C 0.28125 -2.34375 0.347656 -2.703125 0.484375 -2.984375 C 0.628906 -3.273438 0.816406 -3.488281 1.046875 -3.625 C 1.285156 -3.769531 1.539062 -3.84375 1.8125 -3.84375 C 2.03125 -3.84375 2.207031 -3.804688 2.34375 -3.734375 C 2.488281 -3.671875 2.609375 -3.582031 2.703125 -3.46875 C 2.796875 -3.363281 2.863281 -3.257812 2.90625 -3.15625 L 2.9375 -3.15625 L 2.9375 -3.796875 L 3.984375 -3.796875 L 3.984375 0.03125 C 3.984375 0.351562 3.90625 0.617188 3.75 0.828125 C 3.59375 1.046875 3.375 1.207031 3.09375 1.3125 C 2.8125 1.425781 2.492188 1.484375 2.140625 1.484375 Z M 2.15625 -0.84375 C 2.40625 -0.84375 2.597656 -0.9375 2.734375 -1.125 C 2.878906 -1.3125 2.953125 -1.570312 2.953125 -1.90625 C 2.953125 -2.238281 2.882812 -2.503906 2.75 -2.703125 C 2.613281 -2.910156 2.414062 -3.015625 2.15625 -3.015625 C 1.894531 -3.015625 1.695312 -2.910156 1.5625 -2.703125 C 1.425781 -2.492188 1.359375 -2.226562 1.359375 -1.90625 C 1.359375 -1.582031 1.425781 -1.320312 1.5625 -1.125 C 1.695312 -0.9375 1.894531 -0.84375 2.15625 -0.84375 Z M 2.15625 -0.84375 "/></g></g></g></svg>