<svg xmlns="http://www.w3.org/2000/svg" xmlns:xlink="http://www.w3.org/1999/xlink" width="150" zoomAndPan="magnify" viewBox="0 0 112.5 149.999998" height="200" preserveAspectRatio="xMidYMid meet" version="1.2"><defs><clipPath id="411185f608"><path d="M 0 0.332031 L 112.003906 0.332031 L 112.003906 149.667969 L 0 149.667969 Z M 0 0.332031 "/></clipPath></defs><g id="8b094de40d"><g clip-rule="nonzero" clip-path="url(#411185f608)"><path style=" stroke:none;fill-rule:nonzero;fill:#ffffff;fill-opacity:1;" d="M 0 0.332031 L 112.003906 0.332031 L 112.003906 149.667969 L 0 149.667969 Z M 0 0.332031 "/><path style=" stroke:none;fill-rule:nonzero;fill:#e4e4e7;fill-opacity:1;" d="M 0 0.332031 L 112.003906 0.332031 L 112.003906 149.667969 L 0 149.667969 Z M 0 0.332031 "/></g><path style=" stroke:none;fill-rule:nonzero;fill:#a3a3a3;fill-opacity:1;" d="M 54.414062 58.945312 L 47.46875 70.296875 C 46.703125 71.527344 47.601562 73.132812 49.058594 73.132812 L 62.925781 73.132812 C 64.382812 73.132812 65.277344 71.527344 64.511719 70.296875 L 57.585938 58.945312 C 56.859375 57.75 55.140625 57.75 54.414062 58.945312 Z M 54.414062 58.945312 "/><path style=" stroke:none;fill-rule:nonzero;fill:#a3a3a3;fill-opacity:1;" d="M 74.667969 85.265625 C 74.667969 85.820312 74.613281 86.363281 74.507812 86.90625 C 74.398438 87.445312 74.238281 87.972656 74.027344 88.480469 C 73.816406 88.992188 73.558594 89.476562 73.253906 89.933594 C 72.945312 90.390625 72.597656 90.816406 72.207031 91.207031 C 71.816406 91.597656 71.394531 91.945312 70.933594 92.25 C 70.476562 92.558594 69.992188 92.816406 69.484375 93.027344 C 68.972656 93.238281 68.449219 93.398438 67.90625 93.503906 C 67.367188 93.613281 66.820312 93.667969 66.269531 93.667969 C 65.714844 93.667969 65.171875 93.613281 64.628906 93.503906 C 64.089844 93.398438 63.5625 93.238281 63.054688 93.027344 C 62.542969 92.816406 62.058594 92.558594 61.601562 92.25 C 61.140625 91.945312 60.71875 91.597656 60.328125 91.207031 C 59.9375 90.816406 59.589844 90.390625 59.285156 89.933594 C 58.976562 89.476562 58.71875 88.992188 58.507812 88.480469 C 58.296875 87.972656 58.136719 87.445312 58.027344 86.90625 C 57.921875 86.363281 57.867188 85.820312 57.867188 85.265625 C 57.867188 84.714844 57.921875 84.167969 58.027344 83.628906 C 58.136719 83.085938 58.296875 82.5625 58.507812 82.050781 C 58.71875 81.542969 58.976562 81.058594 59.285156 80.601562 C 59.589844 80.140625 59.9375 79.71875 60.328125 79.328125 C 60.71875 78.9375 61.140625 78.589844 61.601562 78.28125 C 62.058594 77.976562 62.542969 77.71875 63.054688 77.507812 C 63.5625 77.296875 64.089844 77.136719 64.628906 77.027344 C 65.171875 76.921875 65.714844 76.867188 66.269531 76.867188 C 66.820312 76.867188 67.367188 76.921875 67.90625 77.027344 C 68.449219 77.136719 68.972656 77.296875 69.484375 77.507812 C 69.992188 77.71875 70.476562 77.976562 70.933594 78.28125 C 71.394531 78.589844 71.816406 78.9375 72.207031 79.328125 C 72.597656 79.71875 72.945312 80.140625 73.253906 80.601562 C 73.558594 81.058594 73.816406 81.542969 74.027344 82.050781 C 74.238281 82.5625 74.398438 83.085938 74.507812 83.628906 C 74.613281 84.167969 74.667969 84.714844 74.667969 85.265625 Z M 74.667969 85.265625 "/><path style=" stroke:none;fill-rule:nonzero;fill:#a3a3a3;fill-opacity:1;" d="M 41.066406 92.734375 L 52.269531 92.734375 C 53.292969 92.734375 54.132812 91.894531 54.132812 90.867188 L 54.132812 79.667969 C 54.132812 78.640625 53.292969 77.800781 52.269531 77.800781 L 41.066406 77.800781 C 40.039062 77.800781 39.199219 78.640625 39.199219 79.667969 L 39.199219 90.867188 C 39.199219 91.894531 40.039062 92.734375 41.066406 92.734375 Z M 41.066406 92.734375 "/></g></svg>