<svg width="147" height="301" viewBox="0 0 147 301" fill="none" xmlns="http://www.w3.org/2000/svg">
<rect width="147" height="301" rx="28" fill="black"/>
<path d="M141 29.8893C141 16.6956 130.304 6 117.111 6H106.856C105.077 6 103.635 7.44212 103.635 9.22107C103.635 14.8814 99.046 19.4699 93.3857 19.4699H54.6142C48.9539 19.4699 44.3654 14.8814 44.3654 9.22107C44.3654 7.44212 42.9233 6 41.1443 6H30.8893C17.6956 6 7 16.6956 7 29.8893V272C7 284.15 16.8497 294 29 294H119C131.15 294 141 284.15 141 272V29.8893Z" fill="white"/>
</svg>
