<?xml version="1.0" encoding="UTF-8" standalone="no"?>
<!DOCTYPE svg PUBLIC "-//W3C//DTD SVG 1.1//EN" "http://www.w3.org/Graphics/SVG/1.1/DTD/svg11.dtd">
<svg width="100%" height="100%" viewBox="0 0 597 527" version="1.1" xmlns="http://www.w3.org/2000/svg" xmlns:xlink="http://www.w3.org/1999/xlink" xml:space="preserve" xmlns:serif="http://www.serif.com/" style="fill-rule:evenodd;clip-rule:evenodd;stroke-linecap:round;stroke-linejoin:round;stroke-miterlimit:1.5;">
    <g transform="matrix(1,0,0,1,-15260.6,-4056.15)">
        <g id="Artboard7" transform="matrix(1.24116,0,0,1,5183.59,1226.15)">
            <rect x="8119" y="2830" width="481" height="527" style="fill:none;"/>
            <clipPath id="_clip1">
                <rect x="8119" y="2830" width="481" height="527"/>
            </clipPath>
            <g clip-path="url(#_clip1)">
                <g transform="matrix(0.569472,0,0,0.831509,453.314,-398.099)">
                    <path d="M13855.5,4202.86C13859.8,4193.68 13858.8,4183.33 13852.9,4174.81C13847.1,4166.29 13836.9,4160.55 13825.4,4159.27C13805.5,4157.05 13782.8,4157.08 13762.2,4159.39C13750.3,4160.71 13739.8,4166.84 13734,4175.86C13728.2,4184.88 13727.9,4195.7 13733.1,4204.96C13736.7,4211.3 13740.4,4217.91 13744,4224.2C13755.9,4245.5 13763.2,4268.47 13765.5,4292C13765.5,4292 13765.5,4292 13765.5,4292L13818.8,4292C13818.8,4292 13823.3,4278.1 13826.7,4267.68C13829.2,4260.17 13832.1,4252.78 13835.5,4245.55C13840.5,4234.8 13848.5,4217.83 13855.5,4202.86Z" style="fill:white;"/>
                </g>
                <g transform="matrix(0.658111,0,0,0.883037,-770.538,-625.597)">
                    <path d="M13777,4319.65C13777,4319.65 13768.6,4283.87 13761.6,4253.95C13755.6,4228.32 13739.1,4205.85 13715.5,4191.27C13691.9,4176.63 13665.5,4160.33 13665.5,4160.33" style="fill:none;stroke:rgb(161,0,128);stroke-width:7.35px;"/>
                </g>
                <g transform="matrix(0.658111,0,0,0.883037,-770.538,-625.597)">
                    <path d="M13777,4319.65C13777,4319.65 13769.4,4292.17 13762.6,4267.66C13756,4243.51 13739.9,4222.49 13717.5,4208.63C13691.4,4192.51 13660.3,4173.22 13660.3,4173.22" style="fill:none;stroke:rgb(161,0,128);stroke-width:7.35px;"/>
                </g>
                <g transform="matrix(0.658111,0,0,0.883037,-770.538,-625.597)">
                    <path d="M13765.3,4269.76L13737.3,4241.4" style="fill:none;stroke:rgb(161,0,128);stroke-width:7.35px;"/>
                </g>
                <g transform="matrix(0.658111,0,0,0.883037,-770.538,-625.597)">
                    <path d="M13765.3,4269.76L13756.5,4117" style="fill:none;stroke:rgb(161,0,128);stroke-width:7.35px;"/>
                </g>
                <g transform="matrix(0.658111,0,0,0.883037,-769.88,-625.597)">
                    <path d="M13796.5,4304.76L13796.5,4193.38L13781.5,4117" style="fill:none;stroke:rgb(161,0,128);stroke-width:7.35px;"/>
                </g>
                <g transform="matrix(0.658111,0,0,0.883037,-769.88,-625.597)">
                    <path d="M13796.5,4304.76L13796.5,4193.38L13830.5,4124" style="fill:none;stroke:rgb(161,0,128);stroke-width:7.35px;"/>
                </g>
                <g transform="matrix(0.658111,0,0,0.883037,-769.88,-625.597)">
                    <path d="M13796.5,4304.76L13796.5,4240L13877.5,4136.54" style="fill:none;stroke:rgb(161,0,128);stroke-width:7.35px;"/>
                </g>
                <g transform="matrix(0.658111,0,0,0.883037,-769.88,-625.597)">
                    <path d="M13796.5,4304.76L13796.5,4279L13776,4172.65" style="fill:none;stroke:rgb(161,0,128);stroke-width:7.35px;"/>
                </g>
                <g transform="matrix(0.658111,0,0,0.883037,-773.171,-625.597)">
                    <path d="M13868.1,4210.88L13907.5,4198.61" style="fill:none;stroke:rgb(161,0,128);stroke-width:7.35px;"/>
                </g>
                <g transform="matrix(0.658111,0,0,0.883037,-773.171,-625.597)">
                    <path d="M13829.8,4260.51L13852.7,4241.4" style="fill:none;stroke:rgb(161,0,128);stroke-width:7.35px;"/>
                </g>
                <g transform="matrix(-0.658111,0,0,0.883037,17386.1,-625.597)">
                    <path d="M13777,4319.65C13777,4319.65 13768.6,4283.87 13761.6,4253.95C13755.6,4228.32 13739.1,4205.85 13715.5,4191.27C13690.3,4175.65 13661.3,4157.72 13661.3,4157.72" style="fill:none;stroke:rgb(161,0,128);stroke-width:7.35px;"/>
                </g>
                <g transform="matrix(-0.658111,0,0,0.883037,17386.1,-625.597)">
                    <path d="M13777,4319.65C13777,4319.65 13771,4293.96 13765.4,4270.11C13759.4,4244.48 13742.9,4222.01 13719.3,4207.43C13694.7,4192.2 13666.8,4174.94 13666.8,4174.94" style="fill:none;stroke:rgb(161,0,128);stroke-width:7.35px;"/>
                </g>
                <g transform="matrix(0.658111,0,0,0.702177,-772.512,149.813)">
                    <path d="M13821.7,4292C13801.5,4285.39 13788.1,4286.23 13772.1,4292C13772.1,4292 13772.1,4292 13772.1,4292C13778,4378.52 13773,4465.58 13757.1,4550.4C13753.5,4569.61 13751,4583.15 13751,4583.15L13845,4583.15C13845,4583.15 13842.5,4569.53 13838.9,4550.23C13823,4465.47 13817.3,4378.58 13821.7,4292C13821.7,4292 13821.7,4292 13821.7,4292Z" style="fill:rgb(66,128,147);"/>
                    <clipPath id="_clip2">
                        <path d="M13821.7,4292C13801.5,4285.39 13788.1,4286.23 13772.1,4292C13772.1,4292 13772.1,4292 13772.1,4292C13778,4378.52 13773,4465.58 13757.1,4550.4C13753.5,4569.61 13751,4583.15 13751,4583.15L13845,4583.15C13845,4583.15 13842.5,4569.53 13838.9,4550.23C13823,4465.47 13817.3,4378.58 13821.7,4292C13821.7,4292 13821.7,4292 13821.7,4292Z"/>
                    </clipPath>
                    <g clip-path="url(#_clip2)">
                        <g transform="matrix(1,0,0,1.25757,51.0796,-1200.61)">
                            <ellipse cx="13743.1" cy="4595.5" rx="119.293" ry="59.5" style="fill:rgb(54,96,130);"/>
                        </g>
                        <g transform="matrix(1,0,0,1.25757,51.0796,-1200.61)">
                            <ellipse cx="13743.1" cy="4595.5" rx="119.293" ry="59.5" style="fill:rgb(54,96,130);"/>
                        </g>
                        <g transform="matrix(1,0,0,1.25757,51.0796,-1530.09)">
                            <ellipse cx="13743.1" cy="4595.5" rx="119.293" ry="59.5" style="fill:rgb(54,167,187);"/>
                        </g>
                    </g>
                    <path d="M13821.7,4292C13801.5,4285.39 13788.1,4286.23 13772.1,4292C13772.1,4292 13772.1,4292 13772.1,4292C13778,4378.52 13773,4465.58 13757.1,4550.4C13753.5,4569.61 13751,4583.15 13751,4583.15L13845,4583.15C13845,4583.15 13842.5,4569.53 13838.9,4550.23C13823,4465.47 13817.3,4378.58 13821.7,4292C13821.7,4292 13821.7,4292 13821.7,4292Z" style="fill:none;stroke:rgb(161,0,128);stroke-width:8.21px;"/>
                </g>
                <g transform="matrix(0.658111,0,0,0.883037,-759.647,-625.597)">
                    <path d="M13756.5,4522.57C13756.5,4522.57 13763.6,4432.23 13768.6,4367.91C13771.9,4326.02 13768.6,4283.92 13759,4242.88C13758.2,4239.19 13757.3,4235.67 13756.6,4232.44C13753.7,4220.25 13748.5,4208.66 13741.1,4198.24C13724.1,4174.42 13694,4132 13694,4132" style="fill:none;stroke:rgb(161,0,128);stroke-width:7.35px;"/>
                </g>
                <g transform="matrix(0.658111,0,0,0.883037,-759.647,-625.597)">
                    <path d="M13794,4522.57C13794,4522.57 13791.3,4491.66 13788.4,4457.8C13783.5,4400.42 13785.1,4342.72 13793.4,4285.67C13797.3,4259.27 13800.9,4233.97 13802.7,4221.84C13803.4,4216.87 13804.6,4211.96 13806.1,4207.15C13812.8,4185.71 13832.1,4124 13832.1,4124" style="fill:none;stroke:rgb(161,0,128);stroke-width:7.35px;"/>
                </g>
                <g transform="matrix(0.658111,0,0,0.883037,-770.347,-489.046)">
                    <path d="M13756.2,4331.37L13825,4287.48L13801.7,4238.77L13770.8,4168.65" style="fill:none;stroke:rgb(161,0,128);stroke-width:7.35px;"/>
                </g>
                <g transform="matrix(-0.640781,0,0,1.14464,17317,-1801.08)">
                    <path d="M13861.1,4190.71C13864,4184.59 13863.1,4177.91 13858.6,4172.27C13854.1,4166.64 13846.5,4162.54 13837.5,4160.96C13811.1,4156.43 13776.9,4156.52 13749.1,4161.22C13739.8,4162.83 13731.9,4167.16 13727.4,4173.11C13723,4179.05 13722.5,4186.03 13726,4192.26C13733,4204.8 13742,4220.81 13749.3,4233.7C13757.8,4248.75 13762.9,4264.62 13764.4,4280.75C13765,4287 13765.5,4292 13765.5,4292L13818.8,4292C13818.8,4292 13824.7,4273.79 13828.1,4263.42C13829.6,4258.75 13831.5,4254.13 13833.6,4249.58C13839.5,4236.93 13852.4,4209.44 13861.1,4190.71Z" style="fill:white;"/>
                </g>
                <g transform="matrix(-0.905946,0,0,0.92826,20972.2,-912.989)">
                    <path d="M13777,4319.65C13777,4319.65 13768.7,4284.2 13761.7,4254.37C13755.7,4228.62 13741.1,4207.08 13721.4,4194.91C13696.5,4179.49 13665.5,4160.33 13665.5,4160.33" style="fill:none;stroke:rgb(161,0,128);stroke-width:6.06px;"/>
                </g>
                <g transform="matrix(-0.905946,0,0,0.92826,20972.2,-912.989)">
                    <path d="M13777,4319.65C13777,4319.65 13769.4,4292 13762.6,4267.43C13756,4243.54 13741.9,4223.73 13723.4,4212.27C13696.4,4195.58 13660.3,4173.22 13660.3,4173.22" style="fill:none;stroke:rgb(161,0,128);stroke-width:6.06px;"/>
                </g>
                <g transform="matrix(-0.905946,0,0,0.92826,20972.2,-912.989)">
                    <path d="M13765.3,4269.76L13737.3,4241.4" style="fill:none;stroke:rgb(161,0,128);stroke-width:6.06px;"/>
                </g>
                <g transform="matrix(-0.905946,0,0,0.92826,20972.2,-912.989)">
                    <path d="M13765.3,4269.76L13756.5,4117" style="fill:none;stroke:rgb(161,0,128);stroke-width:6.06px;"/>
                </g>
                <g transform="matrix(-0.905946,0,0,0.92826,20971.3,-912.989)">
                    <path d="M13796.5,4304.76L13796.5,4193.38L13781.5,4117" style="fill:none;stroke:rgb(161,0,128);stroke-width:6.06px;"/>
                </g>
                <g transform="matrix(-0.905946,0,0,0.92826,20971.3,-912.989)">
                    <path d="M13796.5,4304.76L13796.5,4193.38L13830.5,4124" style="fill:none;stroke:rgb(161,0,128);stroke-width:6.06px;"/>
                </g>
                <g transform="matrix(-0.905946,0,0,0.92826,20971.3,-912.989)">
                    <path d="M13796.5,4304.76L13796.5,4240L13877.5,4136.54" style="fill:none;stroke:rgb(161,0,128);stroke-width:6.06px;"/>
                </g>
                <g transform="matrix(-0.905946,0,0,0.92826,20971.3,-912.989)">
                    <path d="M13796.5,4304.76L13796.5,4279L13776,4172.65" style="fill:none;stroke:rgb(161,0,128);stroke-width:6.06px;"/>
                </g>
                <g transform="matrix(-0.905946,0,0,0.92826,20975.9,-912.989)">
                    <path d="M13868.1,4210.88L13907.5,4198.61" style="fill:none;stroke:rgb(161,0,128);stroke-width:6.06px;"/>
                </g>
                <g transform="matrix(-0.905946,0,0,0.92826,20975.9,-912.989)">
                    <path d="M13829.8,4260.51L13852.7,4241.4" style="fill:none;stroke:rgb(161,0,128);stroke-width:6.06px;"/>
                </g>
                <g transform="matrix(0.905946,0,0,0.92826,-4021.9,-912.989)">
                    <path d="M13777,4319.65C13777,4319.65 13768.7,4284.2 13761.7,4254.37C13755.7,4228.62 13741.1,4207.08 13721.4,4194.91C13695,4178.59 13661.3,4157.72 13661.3,4157.72" style="fill:none;stroke:rgb(161,0,128);stroke-width:6.06px;"/>
                </g>
                <g transform="matrix(0.905946,0,0,0.92826,-4021.9,-912.989)">
                    <path d="M13777,4319.65C13777,4319.65 13771.1,4294.26 13765.5,4270.52C13759.5,4244.78 13744.9,4223.24 13725.2,4211.07C13699.4,4195.11 13666.8,4174.94 13666.8,4174.94" style="fill:none;stroke:rgb(161,0,128);stroke-width:6.06px;"/>
                </g>
                <g transform="matrix(-0.905946,0,0,0.738138,20975,-97.8687)">
                    <path d="M13821.7,4292C13801.5,4285.39 13788.1,4286.23 13772.1,4292C13772.1,4292 13772.4,4299.12 13772.9,4310.72C13778.3,4436.48 13770.9,4562.75 13751,4685.09C13751,4685.09 13751,4685.09 13751,4685.09L13845,4685.09C13845,4685.09 13845,4685.09 13845,4685.09C13825.1,4562.68 13817.1,4436.5 13821.1,4310.55C13821.5,4299.05 13821.7,4292 13821.7,4292Z" style="fill:rgb(66,128,147);"/>
                    <clipPath id="_clip3">
                        <path d="M13821.7,4292C13801.5,4285.39 13788.1,4286.23 13772.1,4292C13772.1,4292 13772.4,4299.12 13772.9,4310.72C13778.3,4436.48 13770.9,4562.75 13751,4685.09C13751,4685.09 13751,4685.09 13751,4685.09L13845,4685.09C13845,4685.09 13845,4685.09 13845,4685.09C13825.1,4562.68 13817.1,4436.5 13821.1,4310.55C13821.5,4299.05 13821.7,4292 13821.7,4292Z"/>
                    </clipPath>
                    <g clip-path="url(#_clip3)">
                        <g transform="matrix(1,0,0,1.25757,51.0796,-1200.61)">
                            <ellipse cx="13743.1" cy="4595.5" rx="119.293" ry="59.5" style="fill:rgb(54,96,130);"/>
                        </g>
                        <g transform="matrix(1,0,0,1.25757,51.0796,-1200.61)">
                            <ellipse cx="13743.1" cy="4595.5" rx="119.293" ry="59.5" style="fill:rgb(54,96,130);"/>
                        </g>
                        <g transform="matrix(1,0,0,1.25757,51.0796,-1530.09)">
                            <ellipse cx="13743.1" cy="4595.5" rx="119.293" ry="59.5" style="fill:rgb(54,167,187);"/>
                        </g>
                    </g>
                    <path d="M13821.7,4292C13801.5,4285.39 13788.1,4286.23 13772.1,4292C13772.1,4292 13772.4,4299.12 13772.9,4310.72C13778.3,4436.48 13770.9,4562.75 13751,4685.09C13751,4685.09 13751,4685.09 13751,4685.09L13845,4685.09C13845,4685.09 13845,4685.09 13845,4685.09C13825.1,4562.68 13817.1,4436.5 13821.1,4310.55C13821.5,4299.05 13821.7,4292 13821.7,4292Z" style="fill:none;stroke:rgb(161,0,128);stroke-width:6.57px;"/>
                </g>
                <g transform="matrix(-0.905946,0,0,0.92826,20957.2,-912.989)">
                    <path d="M13756.5,4603.62C13756.5,4603.62 13764.3,4466.13 13769.4,4377.66C13772.1,4329.42 13767.9,4280.97 13757.1,4234.45C13757.1,4234.45 13757.1,4234.45 13757.1,4234.45C13753.9,4220.98 13748.4,4208.5 13740.8,4197.89C13723.8,4174.01 13694,4132 13694,4132" style="fill:none;stroke:rgb(161,0,128);stroke-width:6.06px;"/>
                </g>
                <g transform="matrix(-0.905946,0,0,0.92826,20957.2,-912.989)">
                    <path d="M13794,4603.62C13794,4603.62 13789.8,4529.4 13786.2,4464.89C13782.7,4402.85 13785.5,4340.53 13794.4,4279.28C13797.7,4256.29 13800.8,4234.91 13802.5,4223.34C13803.4,4217.38 13804.7,4211.53 13806.5,4205.87C13813.5,4183.36 13832.1,4124 13832.1,4124" style="fill:none;stroke:rgb(161,0,128);stroke-width:6.06px;"/>
                </g>
                <g transform="matrix(-0.905946,0,0,0.92826,20972,-769.445)">
                    <path d="M13841.7,4466.31L13763.1,4342.03L13821.4,4307.99L13797.9,4252.33L13770.8,4168.65" style="fill:none;stroke:rgb(161,0,128);stroke-width:6.06px;"/>
                </g>
                <g transform="matrix(0.712918,0,0,1.04096,-1600.13,-1432.41)">
                    <path d="M13859,4195.4C13862.2,4188.36 13861.7,4180.44 13857.5,4173.77C13853.2,4167.11 13845.7,4162.38 13837,4160.88C13810.9,4156.49 13777.5,4156.54 13750.1,4161.06C13740.9,4162.59 13733.2,4167.62 13729,4174.68C13724.8,4181.75 13724.7,4190.06 13728.8,4197.19C13734.1,4206.74 13740.3,4217.66 13745.8,4227.49C13756.6,4246.61 13763.1,4267.24 13765.2,4288.37C13765.4,4290.61 13765.5,4292 13765.5,4292L13818.8,4292C13818.8,4292 13824,4275.95 13827.5,4265.41C13829.4,4259.41 13831.8,4253.52 13834.5,4247.73C13840.2,4235.53 13850.8,4212.85 13859,4195.4Z" style="fill:white;"/>
                </g>
                <g transform="matrix(0.823885,0,0,1.10547,-3132.26,-1717.22)">
                    <path d="M13777,4319.65C13777,4319.65 13767,4277.02 13759.7,4245.91C13754.9,4225.44 13741.7,4207.49 13722.9,4195.84C13697.8,4180.27 13665.5,4160.33 13665.5,4160.33" style="fill:none;stroke:rgb(161,0,128);stroke-width:5.87px;"/>
                </g>
                <g transform="matrix(0.823885,0,0,1.10547,-3132.26,-1717.22)">
                    <path d="M13777,4319.65C13777,4319.65 13767.7,4286.13 13760.5,4260.12C13755.2,4240.82 13742.4,4224.03 13724.5,4212.96C13697.4,4196.2 13660.3,4173.22 13660.3,4173.22" style="fill:none;stroke:rgb(161,0,128);stroke-width:5.87px;"/>
                </g>
                <g transform="matrix(0.823885,0,0,1.10547,-3132.26,-1717.22)">
                    <path d="M13696.5,4179.51L13696.5,4140" style="fill:none;stroke:rgb(161,0,128);stroke-width:5.87px;"/>
                </g>
                <g transform="matrix(0.823885,0,0,1.10547,-3132.26,-1717.22)">
                    <path d="M13705.2,4204.74L13665.5,4191.82" style="fill:none;stroke:rgb(161,0,128);stroke-width:5.87px;"/>
                </g>
                <g transform="matrix(0.823885,0,0,1.10547,-3132.26,-1717.22)">
                    <path d="M13726.8,4198.61L13719.3,4166.56" style="fill:none;stroke:rgb(161,0,128);stroke-width:5.87px;"/>
                </g>
                <g transform="matrix(0.823885,0,0,1.10547,-3132.26,-1717.22)">
                    <path d="M13737.3,4117L13727.6,4156.08" style="fill:none;stroke:rgb(161,0,128);stroke-width:5.87px;"/>
                </g>
                <g transform="matrix(0.823885,0,0,1.10547,-3132.26,-1717.22)">
                    <path d="M13765.3,4269.76L13737.3,4241.4" style="fill:none;stroke:rgb(161,0,128);stroke-width:5.87px;"/>
                </g>
                <g transform="matrix(0.823885,0,0,1.10547,-3132.26,-1717.22)">
                    <path d="M13765.3,4269.76L13756.5,4117" style="fill:none;stroke:rgb(161,0,128);stroke-width:5.87px;"/>
                </g>
                <g transform="matrix(0.823885,0,0,1.10547,-3131.44,-1717.22)">
                    <path d="M13796.5,4304.76L13796.5,4193.38L13781.5,4117" style="fill:none;stroke:rgb(161,0,128);stroke-width:5.87px;"/>
                </g>
                <g transform="matrix(0.823885,0,0,1.10547,-3131.44,-1717.22)">
                    <path d="M13796.5,4304.76L13796.5,4193.38L13830.5,4124" style="fill:none;stroke:rgb(161,0,128);stroke-width:5.87px;"/>
                </g>
                <g transform="matrix(0.823885,0,0,1.10547,-3131.44,-1717.22)">
                    <path d="M13811.3,4163.16L13809.6,4117" style="fill:none;stroke:rgb(161,0,128);stroke-width:5.87px;"/>
                </g>
                <g transform="matrix(0.823885,0,0,1.10547,-3131.44,-1717.22)">
                    <path d="M13796.5,4304.76L13796.5,4240L13877.5,4136.54" style="fill:none;stroke:rgb(161,0,128);stroke-width:5.87px;"/>
                </g>
                <g transform="matrix(0.823885,0,0,1.10547,-3131.44,-1717.22)">
                    <path d="M13854,4166.56L13877.5,4159.76" style="fill:none;stroke:rgb(161,0,128);stroke-width:5.87px;"/>
                </g>
                <g transform="matrix(0.823885,0,0,1.10547,-3131.44,-1717.22)">
                    <path d="M13796.5,4304.76L13796.5,4279L13776,4172.65" style="fill:none;stroke:rgb(161,0,128);stroke-width:5.87px;"/>
                </g>
                <g transform="matrix(0.823885,0,0,1.10547,-3135.56,-1717.22)">
                    <path d="M13882.5,4188.15L13914.5,4140" style="fill:none;stroke:rgb(161,0,128);stroke-width:5.87px;"/>
                </g>
                <g transform="matrix(0.823885,0,0,1.10547,-3135.56,-1717.22)">
                    <path d="M13868.1,4210.88L13907.5,4198.61" style="fill:none;stroke:rgb(161,0,128);stroke-width:5.87px;"/>
                </g>
                <g transform="matrix(0.823885,0,0,1.10547,-3135.56,-1717.22)">
                    <path d="M13829.8,4260.51L13852.7,4241.4" style="fill:none;stroke:rgb(161,0,128);stroke-width:5.87px;"/>
                </g>
                <g transform="matrix(-0.823885,0,0,1.10547,19597.9,-1717.22)">
                    <path d="M13777,4319.65C13777,4319.65 13767,4277.02 13759.7,4245.91C13754.9,4225.44 13741.7,4207.49 13722.9,4195.84C13696.3,4179.4 13661.3,4157.72 13661.3,4157.72" style="fill:none;stroke:rgb(161,0,128);stroke-width:5.87px;"/>
                </g>
                <g transform="matrix(-0.823885,0,0,1.10547,19597.9,-1717.22)">
                    <path d="M13777,4319.65C13777,4319.65 13769.5,4287.77 13763.5,4262.07C13758.7,4241.6 13745.5,4223.65 13726.7,4212C13700.7,4195.9 13666.8,4174.94 13666.8,4174.94" style="fill:none;stroke:rgb(161,0,128);stroke-width:5.87px;"/>
                </g>
                <g transform="matrix(0.823885,0,0,0.879051,-3134.73,-746.485)">
                    <path d="M13821.7,4292C13801.5,4285.39 13788.1,4286.23 13772.1,4292C13772.1,4292 13772.1,4292 13772.1,4292C13778,4378.75 13776,4465.98 13766.2,4552.24C13758.6,4618.4 13751,4685.09 13751,4685.09L13845,4685.09C13845,4685.09 13837.4,4618.29 13829.8,4552.06C13820,4465.88 13817.2,4378.79 13821.7,4292C13821.7,4292 13821.7,4292 13821.7,4292Z" style="fill:rgb(66,128,147);"/>
                    <clipPath id="_clip4">
                        <path d="M13821.7,4292C13801.5,4285.39 13788.1,4286.23 13772.1,4292C13772.1,4292 13772.1,4292 13772.1,4292C13778,4378.75 13776,4465.98 13766.2,4552.24C13758.6,4618.4 13751,4685.09 13751,4685.09L13845,4685.09C13845,4685.09 13837.4,4618.29 13829.8,4552.06C13820,4465.88 13817.2,4378.79 13821.7,4292C13821.7,4292 13821.7,4292 13821.7,4292Z"/>
                    </clipPath>
                    <g clip-path="url(#_clip4)">
                        <g transform="matrix(1,0,0,1.25757,51.0796,-1200.61)">
                            <ellipse cx="13743.1" cy="4595.5" rx="119.293" ry="59.5" style="fill:rgb(54,96,130);"/>
                        </g>
                        <g transform="matrix(1,0,0,1.25757,51.0796,-1200.61)">
                            <ellipse cx="13743.1" cy="4595.5" rx="119.293" ry="59.5" style="fill:rgb(54,96,130);"/>
                        </g>
                        <g transform="matrix(1,0,0,1.25757,51.0796,-1530.09)">
                            <ellipse cx="13743.1" cy="4595.5" rx="119.293" ry="59.5" style="fill:rgb(54,167,187);"/>
                        </g>
                    </g>
                    <path d="M13821.7,4292C13801.5,4285.39 13788.1,4286.23 13772.1,4292C13772.1,4292 13772.1,4292 13772.1,4292C13778,4378.75 13776,4465.98 13766.2,4552.24C13758.6,4618.4 13751,4685.09 13751,4685.09L13845,4685.09C13845,4685.09 13837.4,4618.29 13829.8,4552.06C13820,4465.88 13817.2,4378.79 13821.7,4292C13821.7,4292 13821.7,4292 13821.7,4292Z" style="fill:none;stroke:rgb(161,0,128);stroke-width:6.55px;"/>
                </g>
                <g transform="matrix(0.823885,0,0,1.10547,-3118.63,-1717.22)">
                    <path d="M13756.5,4603.63C13756.5,4603.63 13766,4435.93 13770.8,4351.77C13772.6,4320.57 13769.9,4289.28 13762.7,4258.75C13760.2,4247.86 13757.7,4237.01 13755.7,4228.73C13753.4,4218.99 13749.2,4209.73 13743.3,4201.41C13727,4178.43 13694,4132 13694,4132" style="fill:none;stroke:rgb(161,0,128);stroke-width:5.87px;"/>
                </g>
                <g transform="matrix(0.823885,0,0,1.10547,-3118.63,-1717.22)">
                    <path d="M13794,4603.63C13794,4603.63 13788.2,4500.29 13784.3,4431.51C13782.1,4391.58 13783.9,4351.55 13789.6,4311.92C13794.8,4276.42 13800.7,4235.42 13802.9,4220.34C13803.5,4216.37 13804.4,4212.45 13805.6,4208.6C13811.9,4188.67 13832.1,4124 13832.1,4124" style="fill:none;stroke:rgb(161,0,128);stroke-width:5.87px;"/>
                </g>
                <g transform="matrix(0.823885,0,0,1.10547,-3132.02,-1546.27)">
                    <path d="M13751,4456.68L13835.2,4403.48L13805.2,4359.13L13768.2,4298.26L13820.1,4298.26L13801.7,4238.77L13770.8,4168.65" style="fill:none;stroke:rgb(161,0,128);stroke-width:5.87px;"/>
                </g>
            </g>
        </g>
    </g>
</svg>
