<?xml version="1.0" encoding="UTF-8" standalone="no"?>
<!DOCTYPE svg PUBLIC "-//W3C//DTD SVG 1.1//EN" "http://www.w3.org/Graphics/SVG/1.1/DTD/svg11.dtd">
<svg width="100%" height="100%" viewBox="0 0 597 527" version="1.1" xmlns="http://www.w3.org/2000/svg" xmlns:xlink="http://www.w3.org/1999/xlink" xml:space="preserve" xmlns:serif="http://www.serif.com/" style="fill-rule:evenodd;clip-rule:evenodd;stroke-linecap:round;stroke-linejoin:round;stroke-miterlimit:1.5;">
    <g transform="matrix(1,0,0,1,-15260.6,-4056.15)">
        <g id="Artboard7" transform="matrix(1.24116,0,0,1,5183.59,1226.15)">
            <rect x="8119" y="2830" width="481" height="527" style="fill:none;"/>
            <clipPath id="_clip1">
                <rect x="8119" y="2830" width="481" height="527"/>
            </clipPath>
            <g clip-path="url(#_clip1)">
                <g transform="matrix(0.556899,0,0,0.752177,625.19,38.3638)">
                    <path d="M13853,4208.07C13857.9,4197.76 13857.1,4185.95 13850.9,4176.25C13844.8,4166.55 13834,4160.11 13821.8,4158.89C13804.1,4157.19 13784.5,4157.21 13766.3,4158.96C13753.7,4160.21 13742.5,4167.11 13736.5,4177.4C13730.5,4187.69 13730.4,4200.05 13736.2,4210.42C13738.9,4215.2 13741.6,4220.03 13744.2,4224.68C13756,4245.63 13763.3,4268.5 13765.5,4292C13765.5,4292 13765.5,4292 13765.5,4292L13818.8,4292C13818.8,4292 13822.8,4279.7 13826.1,4269.57C13829,4260.8 13832.4,4252.2 13836.3,4243.79C13840.7,4234.32 13847.1,4220.83 13853,4208.07Z" style="fill:white;"/>
                </g>
                <g transform="matrix(0.643581,0,0,0.79879,-571.642,-167.429)">
                    <path d="M13777,4319.65C13777,4319.65 13769.6,4287.89 13762.8,4259.19C13756.1,4230.26 13738.1,4205.21 13712.8,4189.57C13689.9,4175.4 13665.5,4160.33 13665.5,4160.33" style="fill:none;stroke:rgb(161,0,128);stroke-width:7.82px;"/>
                </g>
                <g transform="matrix(0.643581,0,0,0.79879,-571.642,-167.429)">
                    <path d="M13777,4319.65C13777,4319.65 13770.3,4295.58 13763.9,4272.41C13756.4,4245.24 13739,4221.92 13715,4207.09C13689.5,4191.3 13660.3,4173.22 13660.3,4173.22" style="fill:none;stroke:rgb(161,0,128);stroke-width:7.82px;"/>
                </g>
                <g transform="matrix(0.643581,0,0,0.79879,-571.642,-167.429)">
                    <path d="M13765.3,4269.76L13737.3,4241.4" style="fill:none;stroke:rgb(161,0,128);stroke-width:7.82px;"/>
                </g>
                <g transform="matrix(0.643581,0,0,0.79879,-571.642,-167.429)">
                    <path d="M13765.3,4269.76L13756.5,4117" style="fill:none;stroke:rgb(161,0,128);stroke-width:7.82px;"/>
                </g>
                <g transform="matrix(0.643581,0,0,0.79879,-570.999,-167.429)">
                    <path d="M13796.5,4304.76L13796.5,4193.38L13781.5,4117" style="fill:none;stroke:rgb(161,0,128);stroke-width:7.82px;"/>
                </g>
                <g transform="matrix(0.643581,0,0,0.79879,-570.999,-167.429)">
                    <path d="M13796.5,4304.76L13796.5,4193.38L13830.5,4124" style="fill:none;stroke:rgb(161,0,128);stroke-width:7.82px;"/>
                </g>
                <g transform="matrix(0.643581,0,0,0.79879,-570.999,-167.429)">
                    <path d="M13796.5,4304.76L13796.5,4240L13877.5,4136.54" style="fill:none;stroke:rgb(161,0,128);stroke-width:7.82px;"/>
                </g>
                <g transform="matrix(0.643581,0,0,0.79879,-570.999,-167.429)">
                    <path d="M13796.5,4304.76L13796.5,4279L13776,4172.65" style="fill:none;stroke:rgb(161,0,128);stroke-width:7.82px;"/>
                </g>
                <g transform="matrix(0.643581,0,0,0.79879,-574.217,-167.429)">
                    <path d="M13868.1,4210.88L13907.5,4198.61" style="fill:none;stroke:rgb(161,0,128);stroke-width:7.82px;"/>
                </g>
                <g transform="matrix(0.643581,0,0,0.79879,-574.217,-167.429)">
                    <path d="M13829.8,4260.51L13852.7,4241.4" style="fill:none;stroke:rgb(161,0,128);stroke-width:7.82px;"/>
                </g>
                <g transform="matrix(-0.643581,0,0,0.79879,17184.1,-167.429)">
                    <path d="M13777,4319.65C13777,4319.65 13769.6,4287.89 13762.8,4259.19C13756.1,4230.26 13738.1,4205.21 13712.8,4189.57C13688.2,4174.38 13661.3,4157.72 13661.3,4157.72" style="fill:none;stroke:rgb(161,0,128);stroke-width:7.82px;"/>
                </g>
                <g transform="matrix(-0.643581,0,0,0.79879,17184.1,-167.429)">
                    <path d="M13777,4319.65C13777,4319.65 13771.8,4297.57 13766.6,4275.35C13759.9,4246.42 13741.8,4221.37 13716.6,4205.73C13692.7,4190.95 13666.8,4174.94 13666.8,4174.94" style="fill:none;stroke:rgb(161,0,128);stroke-width:7.82px;"/>
                </g>
                <g transform="matrix(0.643581,0,0,0.635185,-573.573,534.002)">
                    <path d="M13821.7,4292C13801.5,4285.39 13788.1,4286.23 13772.1,4292C13772.1,4292 13772.1,4292 13772.1,4292C13778,4378.44 13773,4465.52 13757.2,4549.98C13753.6,4569.42 13751,4583.15 13751,4583.15L13845,4583.15C13845,4583.15 13842.4,4569.32 13838.8,4549.78C13823,4465.38 13817.3,4378.52 13821.7,4292C13821.7,4292 13821.7,4292 13821.7,4292Z" style="fill:rgb(66,128,147);"/>
                    <clipPath id="_clip2">
                        <path d="M13821.7,4292C13801.5,4285.39 13788.1,4286.23 13772.1,4292C13772.1,4292 13772.1,4292 13772.1,4292C13778,4378.44 13773,4465.52 13757.2,4549.98C13753.6,4569.42 13751,4583.15 13751,4583.15L13845,4583.15C13845,4583.15 13842.4,4569.32 13838.8,4549.78C13823,4465.38 13817.3,4378.52 13821.7,4292C13821.7,4292 13821.7,4292 13821.7,4292Z"/>
                    </clipPath>
                    <g clip-path="url(#_clip2)">
                        <g transform="matrix(1,0,0,1.25757,51.0796,-1530.09)">
                            <ellipse cx="13743.1" cy="4595.5" rx="119.293" ry="59.5" style="fill:rgb(54,167,187);"/>
                        </g>
                    </g>
                    <path d="M13821.7,4292C13801.5,4285.39 13788.1,4286.23 13772.1,4292C13772.1,4292 13772.1,4292 13772.1,4292C13778,4378.44 13773,4465.52 13757.2,4549.98C13753.6,4569.42 13751,4583.15 13751,4583.15L13845,4583.15C13845,4583.15 13842.4,4569.32 13838.8,4549.78C13823,4465.38 13817.3,4378.52 13821.7,4292C13821.7,4292 13821.7,4292 13821.7,4292Z" style="fill:none;stroke:rgb(161,0,128);stroke-width:8.66px;"/>
                </g>
                <g transform="matrix(0.643581,0,0,0.79879,-560.992,-167.429)">
                    <path d="M13756.5,4522.57C13756.5,4522.57 13762.9,4441.25 13767.8,4377.99C13771.6,4329.46 13767.9,4280.63 13756.8,4233.24C13756.8,4233.24 13756.8,4233.24 13756.8,4233.24C13753.8,4220.53 13748.4,4208.53 13740.8,4197.9C13723.8,4174.02 13694,4132 13694,4132" style="fill:none;stroke:rgb(161,0,128);stroke-width:7.82px;"/>
                </g>
                <g transform="matrix(0.643581,0,0,0.79879,-560.992,-167.429)">
                    <path d="M13794,4522.57C13794,4522.57 13792.2,4501.22 13789.9,4474.57C13783.9,4406.08 13785.9,4337.13 13795.8,4269.1C13798.6,4250.03 13801.1,4233.03 13802.5,4223.22C13803.4,4217.34 13804.7,4211.53 13806.5,4205.85C13813.5,4183.34 13832.1,4124 13832.1,4124" style="fill:none;stroke:rgb(161,0,128);stroke-width:7.82px;"/>
                </g>
                <g transform="matrix(0.643581,0,0,0.79879,-571.455,-43.9062)">
                    <path d="M13756.2,4331.37L13825,4287.48L13801.7,4238.77L13770.8,4168.65" style="fill:none;stroke:rgb(161,0,128);stroke-width:7.82px;"/>
                </g>
                <g transform="matrix(-0.626634,0,0,1.03544,17122.8,-1220.81)">
                    <path d="M13859.5,4194.13C13862.8,4187.13 13861.9,4179.41 13857.1,4172.96C13852.2,4166.5 13843.9,4161.93 13834.2,4160.42C13809.4,4156.62 13778.6,4156.69 13752.6,4160.65C13742.6,4162.21 13734,4167.06 13729.2,4173.87C13724.5,4180.69 13724,4188.75 13728,4195.84C13734,4206.45 13741,4218.92 13747.1,4229.78C13757,4247.41 13763,4266.16 13764.9,4285.25C13765.2,4289.24 13765.5,4292 13765.5,4292L13818.8,4292C13818.8,4292 13824.3,4275.16 13827.7,4264.65C13829.5,4259.16 13831.7,4253.74 13834.1,4248.41C13839.9,4236.09 13851.2,4212.06 13859.5,4194.13Z" style="fill:white;"/>
                </g>
                <g transform="matrix(-0.885944,0,0,0.839698,20697.4,-417.452)">
                    <path d="M13777,4319.65C13777,4319.65 13769.5,4287.7 13762.8,4258.94C13756.1,4230.31 13740.5,4206.71 13719.8,4193.92C13695.2,4178.68 13665.5,4160.33 13665.5,4160.33" style="fill:none;stroke:rgb(161,0,128);stroke-width:6.39px;"/>
                </g>
                <g transform="matrix(-0.885944,0,0,0.839698,20697.4,-417.452)">
                    <path d="M13777,4319.65C13777,4319.65 13770.2,4294.88 13763.7,4271.41C13756.4,4244.98 13741.4,4223.42 13722,4211.41C13695.2,4194.82 13660.3,4173.22 13660.3,4173.22" style="fill:none;stroke:rgb(161,0,128);stroke-width:6.39px;"/>
                </g>
                <g transform="matrix(-0.885944,0,0,0.839698,20697.4,-417.452)">
                    <path d="M13765.3,4269.76L13737.3,4241.4" style="fill:none;stroke:rgb(161,0,128);stroke-width:6.39px;"/>
                </g>
                <g transform="matrix(-0.885944,0,0,0.839698,20697.4,-417.452)">
                    <path d="M13765.3,4269.76L13756.5,4117" style="fill:none;stroke:rgb(161,0,128);stroke-width:6.39px;"/>
                </g>
                <g transform="matrix(-0.885944,0,0,0.839698,20696.5,-417.452)">
                    <path d="M13796.5,4304.76L13796.5,4193.38L13781.5,4117" style="fill:none;stroke:rgb(161,0,128);stroke-width:6.39px;"/>
                </g>
                <g transform="matrix(-0.885944,0,0,0.839698,20696.5,-417.452)">
                    <path d="M13796.5,4304.76L13796.5,4193.38L13830.5,4124" style="fill:none;stroke:rgb(161,0,128);stroke-width:6.39px;"/>
                </g>
                <g transform="matrix(-0.885944,0,0,0.839698,20696.5,-417.452)">
                    <path d="M13796.5,4304.76L13796.5,4240L13877.5,4136.54" style="fill:none;stroke:rgb(161,0,128);stroke-width:6.39px;"/>
                </g>
                <g transform="matrix(-0.885944,0,0,0.839698,20696.5,-417.452)">
                    <path d="M13796.5,4304.76L13796.5,4279L13776,4172.65" style="fill:none;stroke:rgb(161,0,128);stroke-width:6.39px;"/>
                </g>
                <g transform="matrix(-0.885944,0,0,0.839698,20700.9,-417.452)">
                    <path d="M13868.1,4210.88L13907.5,4198.61" style="fill:none;stroke:rgb(161,0,128);stroke-width:6.39px;"/>
                </g>
                <g transform="matrix(-0.885944,0,0,0.839698,20700.9,-417.452)">
                    <path d="M13829.8,4260.51L13852.7,4241.4" style="fill:none;stroke:rgb(161,0,128);stroke-width:6.39px;"/>
                </g>
                <g transform="matrix(0.885944,0,0,0.839698,-3744.92,-417.452)">
                    <path d="M13777,4319.65C13777,4319.65 13769.5,4287.7 13762.8,4258.94C13756.1,4230.31 13740.5,4206.71 13719.8,4193.92C13693.7,4177.76 13661.3,4157.72 13661.3,4157.72" style="fill:none;stroke:rgb(161,0,128);stroke-width:6.39px;"/>
                </g>
                <g transform="matrix(0.885944,0,0,0.839698,-3744.92,-417.452)">
                    <path d="M13777,4319.65C13777,4319.65 13771.8,4297.4 13766.6,4275.09C13759.9,4246.47 13744.3,4222.87 13723.6,4210.07C13698.1,4194.28 13666.8,4174.94 13666.8,4174.94" style="fill:none;stroke:rgb(161,0,128);stroke-width:6.39px;"/>
                </g>
                <g transform="matrix(-0.885944,0,0,0.667715,20700.1,319.901)">
                    <path d="M13821.7,4292C13801.5,4285.39 13788.1,4286.23 13772.1,4292C13772.1,4292 13772.1,4292 13772.1,4292C13778,4378.07 13773,4465.21 13757.6,4547.99C13753.7,4568.48 13751,4583.15 13751,4583.15L13845,4583.15C13845,4583.15 13842.2,4568.31 13838.4,4547.65C13822.9,4464.98 13817.3,4378.19 13821.7,4292C13821.7,4292 13821.7,4292 13821.7,4292Z" style="fill:rgb(66,128,147);"/>
                    <clipPath id="_clip3">
                        <path d="M13821.7,4292C13801.5,4285.39 13788.1,4286.23 13772.1,4292C13772.1,4292 13772.1,4292 13772.1,4292C13778,4378.07 13773,4465.21 13757.6,4547.99C13753.7,4568.48 13751,4583.15 13751,4583.15L13845,4583.15C13845,4583.15 13842.2,4568.31 13838.4,4547.65C13822.9,4464.98 13817.3,4378.19 13821.7,4292C13821.7,4292 13821.7,4292 13821.7,4292Z"/>
                    </clipPath>
                    <g clip-path="url(#_clip3)">
                        <g transform="matrix(1,0,0,1.25757,51.0796,-1200.61)">
                            <ellipse cx="13743.1" cy="4595.5" rx="119.293" ry="59.5" style="fill:rgb(54,96,130);"/>
                        </g>
                        <g transform="matrix(1,0,0,1.25757,51.0796,-1200.61)">
                            <ellipse cx="13743.1" cy="4595.5" rx="119.293" ry="59.5" style="fill:rgb(54,96,130);"/>
                        </g>
                        <g transform="matrix(1,0,0,1.25757,51.0796,-1530.09)">
                            <ellipse cx="13743.1" cy="4595.5" rx="119.293" ry="59.5" style="fill:rgb(54,167,187);"/>
                        </g>
                    </g>
                    <path d="M13821.7,4292C13801.5,4285.39 13788.1,4286.23 13772.1,4292C13772.1,4292 13772.1,4292 13772.1,4292C13778,4378.07 13773,4465.21 13757.6,4547.99C13753.7,4568.48 13751,4583.15 13751,4583.15L13845,4583.15C13845,4583.15 13842.2,4568.31 13838.4,4547.65C13822.9,4464.98 13817.3,4378.19 13821.7,4292C13821.7,4292 13821.7,4292 13821.7,4292Z" style="fill:none;stroke:rgb(161,0,128);stroke-width:6.87px;"/>
                </g>
                <g transform="matrix(-0.885944,0,0,0.839698,20682.7,-417.452)">
                    <path d="M13756.5,4522.57C13756.5,4522.57 13762.1,4450.7 13766.9,4389.52C13771.3,4333.58 13767,4277.06 13754.4,4223.29C13754.4,4223.29 13754.4,4223.29 13754.4,4223.29C13753,4217.18 13750.5,4211.57 13747.2,4206.89C13733,4186.96 13694,4132 13694,4132" style="fill:none;stroke:rgb(161,0,128);stroke-width:6.39px;"/>
                </g>
                <g transform="matrix(-0.885944,0,0,0.839698,20682.7,-417.452)">
                    <path d="M13794,4522.57C13794,4522.57 13793.2,4513.36 13792,4499.48C13784.7,4414.64 13787.2,4328.83 13799.4,4244.95C13800.5,4237.02 13801.5,4230.15 13802.3,4224.94C13803.3,4217.92 13804.8,4211.05 13806.9,4204.43C13814.3,4180.95 13832.1,4124 13832.1,4124" style="fill:none;stroke:rgb(161,0,128);stroke-width:6.39px;"/>
                </g>
                <g transform="matrix(-0.885944,0,0,0.839698,20697.1,-287.603)">
                    <path d="M13756.2,4331.37L13825,4287.48L13801.7,4238.77L13770.8,4168.65" style="fill:none;stroke:rgb(161,0,128);stroke-width:6.39px;"/>
                </g>
                <g transform="matrix(0.697178,0,0,0.941646,-1382.92,-890.937)">
                    <path d="M13857.1,4199.44C13860.8,4191.46 13860.3,4182.35 13855.8,4174.73C13851.3,4167.11 13843.2,4161.82 13833.9,4160.38C13809.4,4156.67 13779.1,4156.71 13753.5,4160.52C13743.8,4161.99 13735.4,4167.64 13731,4175.73C13726.5,4183.82 13726.6,4193.37 13731.1,4201.41C13735.4,4208.94 13739.9,4217.06 13744.2,4224.68C13756,4245.63 13763.3,4268.5 13765.5,4292C13765.5,4292 13765.5,4292 13765.5,4292L13818.8,4292C13818.8,4292 13823.5,4277.42 13827,4266.92C13829.3,4259.92 13832,4253.05 13835.1,4246.33C13840.5,4234.84 13849.5,4215.54 13857.1,4199.44Z" style="fill:white;"/>
                </g>
                <g transform="matrix(0.805695,0,0,1,-2881.22,-1148.57)">
                    <path d="M13777,4319.65C13777,4319.65 13767.9,4280.7 13760.7,4250.1C13755.3,4226.99 13740.9,4206.98 13720.7,4194.49C13695.9,4179.14 13665.5,4160.33 13665.5,4160.33" style="fill:none;stroke:rgb(161,0,128);stroke-width:6.25px;"/>
                </g>
                <g transform="matrix(0.805695,0,0,1,-2881.22,-1148.57)">
                    <path d="M13777,4319.65C13777,4319.65 13768.6,4289.27 13761.6,4263.91C13755.6,4242.21 13741.6,4223.57 13722.5,4211.73C13695.6,4195.1 13660.3,4173.22 13660.3,4173.22" style="fill:none;stroke:rgb(161,0,128);stroke-width:6.25px;"/>
                </g>
                <g transform="matrix(0.805695,0,0,1,-2881.22,-1148.57)">
                    <path d="M13696.5,4179.51L13696.5,4140" style="fill:none;stroke:rgb(161,0,128);stroke-width:6.25px;"/>
                </g>
                <g transform="matrix(0.805695,0,0,1,-2881.22,-1148.57)">
                    <path d="M13705.2,4204.74L13665.5,4191.82" style="fill:none;stroke:rgb(161,0,128);stroke-width:6.25px;"/>
                </g>
                <g transform="matrix(0.805695,0,0,1,-2881.22,-1148.57)">
                    <path d="M13726.8,4198.61L13719.3,4166.56" style="fill:none;stroke:rgb(161,0,128);stroke-width:6.25px;"/>
                </g>
                <g transform="matrix(0.805695,0,0,1,-2881.22,-1148.57)">
                    <path d="M13737.3,4117L13727.6,4156.08" style="fill:none;stroke:rgb(161,0,128);stroke-width:6.25px;"/>
                </g>
                <g transform="matrix(0.805695,0,0,1,-2881.22,-1148.57)">
                    <path d="M13765.3,4269.76L13737.3,4241.4" style="fill:none;stroke:rgb(161,0,128);stroke-width:6.25px;"/>
                </g>
                <g transform="matrix(0.805695,0,0,1,-2881.22,-1148.57)">
                    <path d="M13765.3,4269.76L13756.5,4117" style="fill:none;stroke:rgb(161,0,128);stroke-width:6.25px;"/>
                </g>
                <g transform="matrix(0.805695,0,0,1,-2880.42,-1148.57)">
                    <path d="M13796.5,4304.76L13796.5,4193.38L13781.5,4117" style="fill:none;stroke:rgb(161,0,128);stroke-width:6.25px;"/>
                </g>
                <g transform="matrix(0.805695,0,0,1,-2880.42,-1148.57)">
                    <path d="M13796.5,4304.76L13796.5,4193.38L13830.5,4124" style="fill:none;stroke:rgb(161,0,128);stroke-width:6.25px;"/>
                </g>
                <g transform="matrix(0.805695,0,0,1,-2880.42,-1148.57)">
                    <path d="M13811.3,4163.16L13809.6,4117" style="fill:none;stroke:rgb(161,0,128);stroke-width:6.25px;"/>
                </g>
                <g transform="matrix(0.805695,0,0,1,-2880.42,-1148.57)">
                    <path d="M13796.5,4304.76L13796.5,4240L13877.5,4136.54" style="fill:none;stroke:rgb(161,0,128);stroke-width:6.25px;"/>
                </g>
                <g transform="matrix(0.805695,0,0,1,-2880.42,-1148.57)">
                    <path d="M13854,4166.56L13877.5,4159.76" style="fill:none;stroke:rgb(161,0,128);stroke-width:6.25px;"/>
                </g>
                <g transform="matrix(0.805695,0,0,1,-2880.42,-1148.57)">
                    <path d="M13796.5,4304.76L13796.5,4279L13776,4172.65" style="fill:none;stroke:rgb(161,0,128);stroke-width:6.25px;"/>
                </g>
                <g transform="matrix(0.805695,0,0,1,-2884.45,-1148.57)">
                    <path d="M13882.5,4188.15L13914.5,4140" style="fill:none;stroke:rgb(161,0,128);stroke-width:6.25px;"/>
                </g>
                <g transform="matrix(0.805695,0,0,1,-2884.45,-1148.57)">
                    <path d="M13868.1,4210.88L13907.5,4198.61" style="fill:none;stroke:rgb(161,0,128);stroke-width:6.25px;"/>
                </g>
                <g transform="matrix(0.805695,0,0,1,-2884.45,-1148.57)">
                    <path d="M13829.8,4260.51L13852.7,4241.4" style="fill:none;stroke:rgb(161,0,128);stroke-width:6.25px;"/>
                </g>
                <g transform="matrix(-0.805695,0,0,1,19347.1,-1148.57)">
                    <path d="M13777,4319.65C13777,4319.65 13767.9,4280.7 13760.7,4250.1C13755.3,4226.99 13740.9,4206.98 13720.7,4194.49C13694.5,4178.23 13661.3,4157.72 13661.3,4157.72" style="fill:none;stroke:rgb(161,0,128);stroke-width:6.25px;"/>
                </g>
                <g transform="matrix(-0.805695,0,0,1,19347.1,-1148.57)">
                    <path d="M13777,4319.65C13777,4319.65 13770.3,4291.11 13764.5,4266.26C13759.1,4243.14 13744.7,4223.14 13724.5,4210.65C13698.8,4194.76 13666.8,4174.94 13666.8,4174.94" style="fill:none;stroke:rgb(161,0,128);stroke-width:6.25px;"/>
                </g>
                <g transform="matrix(0.805695,0,0,0.795184,-2883.64,-270.451)">
                    <path d="M13821.7,4292C13801.5,4285.39 13788.1,4286.23 13772.1,4292C13772.1,4292 13772.1,4292 13772.1,4292C13778,4378.44 13773,4465.52 13757.2,4549.98C13753.6,4569.42 13751,4583.15 13751,4583.15L13845,4583.15C13845,4583.15 13842.4,4569.32 13838.8,4549.78C13823,4465.38 13817.3,4378.52 13821.7,4292C13821.7,4292 13821.7,4292 13821.7,4292Z" style="fill:rgb(66,128,147);"/>
                    <clipPath id="_clip4">
                        <path d="M13821.7,4292C13801.5,4285.39 13788.1,4286.23 13772.1,4292C13772.1,4292 13772.1,4292 13772.1,4292C13778,4378.44 13773,4465.52 13757.2,4549.98C13753.6,4569.42 13751,4583.15 13751,4583.15L13845,4583.15C13845,4583.15 13842.4,4569.32 13838.8,4549.78C13823,4465.38 13817.3,4378.52 13821.7,4292C13821.7,4292 13821.7,4292 13821.7,4292Z"/>
                    </clipPath>
                    <g clip-path="url(#_clip4)">
                        <g transform="matrix(1,0,0,1.25757,51.0796,-1200.61)">
                            <ellipse cx="13743.1" cy="4595.5" rx="119.293" ry="59.5" style="fill:rgb(54,96,130);"/>
                        </g>
                        <g transform="matrix(1,0,0,1.25757,51.0796,-1200.61)">
                            <ellipse cx="13743.1" cy="4595.5" rx="119.293" ry="59.5" style="fill:rgb(54,96,130);"/>
                        </g>
                        <g transform="matrix(1,0,0,1.25757,51.0796,-1530.09)">
                            <ellipse cx="13743.1" cy="4595.5" rx="119.293" ry="59.5" style="fill:rgb(54,167,187);"/>
                        </g>
                    </g>
                    <path d="M13821.7,4292C13801.5,4285.39 13788.1,4286.23 13772.1,4292C13772.1,4292 13772.1,4292 13772.1,4292C13778,4378.44 13773,4465.52 13757.2,4549.98C13753.6,4569.42 13751,4583.15 13751,4583.15L13845,4583.15C13845,4583.15 13842.4,4569.32 13838.8,4549.78C13823,4465.38 13817.3,4378.52 13821.7,4292C13821.7,4292 13821.7,4292 13821.7,4292Z" style="fill:none;stroke:rgb(161,0,128);stroke-width:6.92px;"/>
                </g>
                <g transform="matrix(0.805695,0,0,1,-2867.89,-1148.57)">
                    <path d="M13756.5,4522.57C13756.5,4522.57 13763.8,4429.43 13768.8,4364.97C13771.9,4325.07 13768.9,4284.92 13759.7,4245.95C13758.5,4240.62 13757.3,4235.56 13756.3,4231.1C13753.6,4219.81 13748.8,4209.14 13742.1,4199.69C13725.4,4176.19 13694,4132 13694,4132" style="fill:none;stroke:rgb(161,0,128);stroke-width:6.25px;"/>
                </g>
                <g transform="matrix(0.805695,0,0,1,-2867.89,-1148.57)">
                    <path d="M13794,4522.57C13794,4522.57 13791.1,4489.2 13788.1,4453.83C13783.3,4399.12 13784.9,4344.04 13792.8,4289.7C13796.9,4261.57 13800.9,4234.01 13802.8,4221.44C13803.5,4216.74 13804.5,4212.1 13805.9,4207.57C13812.5,4186.53 13832.1,4124 13832.1,4124" style="fill:none;stroke:rgb(161,0,128);stroke-width:6.25px;"/>
                </g>
                <g transform="matrix(0.805695,0,0,1,-2880.99,-993.931)">
                    <path d="M13756.2,4331.37L13825,4287.48L13801.7,4238.77L13770.8,4168.65" style="fill:none;stroke:rgb(161,0,128);stroke-width:6.25px;"/>
                </g>
            </g>
        </g>
    </g>
</svg>
