<?xml version="1.0" encoding="UTF-8" standalone="no"?>
<!DOCTYPE svg PUBLIC "-//W3C//DTD SVG 1.1//EN" "http://www.w3.org/Graphics/SVG/1.1/DTD/svg11.dtd">
<svg width="100%" height="100%" viewBox="0 0 481 527" version="1.1" xmlns="http://www.w3.org/2000/svg" xmlns:xlink="http://www.w3.org/1999/xlink" xml:space="preserve" xmlns:serif="http://www.serif.com/" style="fill-rule:evenodd;clip-rule:evenodd;stroke-linejoin:round;stroke-miterlimit:2;">
    <g transform="matrix(1,0,0,1,-12665.5,-2423.5)">
        <g id="Artboard7" transform="matrix(1,0,0,1,4546.54,-406.5)">
            <rect x="8119" y="2830" width="481" height="527" style="fill:none;"/>
            <clipPath id="_clip1">
                <rect x="8119" y="2830" width="481" height="527"/>
            </clipPath>
            <g clip-path="url(#_clip1)">
                <g transform="matrix(1,0,0,1,-3331.33,-238.082)">
                    <g transform="matrix(1,0,0,0.691426,3340.33,1219.02)">
                        <path d="M8338,3058.34C8338,3052.08 8334.49,3047 8330.16,3047C8301.74,3047 8204.26,3047 8175.84,3047C8171.51,3047 8168,3052.08 8168,3058.34C8168,3081.52 8168,3132.15 8168,3132.15L8338,3132.15C8338,3132.15 8338,3081.52 8338,3058.34Z" style="fill:rgb(0,78,113);"/>
                    </g>
                    <g transform="matrix(1.01879,0,0,0.109589,3178.78,3273.55)">
                        <rect x="8119" y="2861" width="479" height="73"/>
                    </g>
                    <g transform="matrix(0.975992,0,0,-0.205479,3536.5,4174.96)">
                        <rect x="8119" y="2861" width="479" height="73" style="fill:rgb(0,78,113);"/>
                    </g>
                    <g transform="matrix(0.850042,3.93837e-18,-1.45038e-17,-3.01201,4589.26,12189.4)">
                        <path d="M8598,2861L8119,2861L8119,2932.24C8119,2933.21 8121.79,2934 8125.23,2934C8181.37,2934 8598,2934 8598,2934L8598,2861Z" style="fill:rgb(126,157,172);"/>
                    </g>
                    <g transform="matrix(0.425021,-4.81117e-17,1.7718e-16,-3.01201,8243.59,12006)">
                        <rect x="8119" y="2861" width="479" height="73" style="fill:rgb(126,157,172);"/>
                    </g>
                    <g transform="matrix(0.187067,0,0,0.133249,10663.9,3277.25)">
                        <rect x="4609" y="1192" width="423" height="788" style="fill:rgb(230,254,255);"/>
                        <clipPath id="_clip2">
                            <rect x="4609" y="1192" width="423" height="788"/>
                        </clipPath>
                        <g clip-path="url(#_clip2)">
                            <g transform="matrix(1.92725,0,3.35093,7.50476,-8545.79,-7933.79)">
                                <rect x="4621" y="1208" width="42" height="120" style="fill:rgb(105,208,220);fill-opacity:0.45;"/>
                            </g>
                            <g transform="matrix(5.03571,0,3.35093,7.50476,-22739,-7933.79)">
                                <rect x="4621" y="1208" width="42" height="120" style="fill:rgb(105,208,220);fill-opacity:0.45;"/>
                            </g>
                        </g>
                    </g>
                    <g transform="matrix(0.187067,0,0,0.133249,10753,3277.25)">
                        <rect x="4609" y="1192" width="423" height="788" style="fill:rgb(230,254,255);"/>
                        <clipPath id="_clip3">
                            <rect x="4609" y="1192" width="423" height="788"/>
                        </clipPath>
                        <g clip-path="url(#_clip3)">
                            <g transform="matrix(1.92725,0,3.35093,7.50476,-8545.79,-7933.79)">
                                <rect x="4621" y="1208" width="42" height="120" style="fill:rgb(105,208,220);fill-opacity:0.45;"/>
                            </g>
                            <g transform="matrix(5.03571,0,3.35093,7.50476,-22739,-7933.79)">
                                <rect x="4621" y="1208" width="42" height="120" style="fill:rgb(105,208,220);fill-opacity:0.45;"/>
                            </g>
                        </g>
                    </g>
                    <g transform="matrix(0.187067,0,0,0.133249,10849.9,3088.37)">
                        <rect x="4609" y="1192" width="423" height="788" style="fill:rgb(230,254,255);"/>
                        <clipPath id="_clip4">
                            <rect x="4609" y="1192" width="423" height="788"/>
                        </clipPath>
                        <g clip-path="url(#_clip4)">
                            <g transform="matrix(1.92725,0,3.35093,7.50476,-8545.79,-7933.79)">
                                <rect x="4621" y="1208" width="42" height="120" style="fill:rgb(105,208,220);fill-opacity:0.45;"/>
                            </g>
                            <g transform="matrix(5.03571,0,3.35093,7.50476,-22739,-7933.79)">
                                <rect x="4621" y="1208" width="42" height="120" style="fill:rgb(105,208,220);fill-opacity:0.45;"/>
                            </g>
                        </g>
                    </g>
                    <g transform="matrix(0.187067,0,0,0.133249,10938.9,3088.37)">
                        <rect x="4609" y="1192" width="423" height="788" style="fill:rgb(230,254,255);"/>
                        <clipPath id="_clip5">
                            <rect x="4609" y="1192" width="423" height="788"/>
                        </clipPath>
                        <g clip-path="url(#_clip5)">
                            <g transform="matrix(1.92725,0,3.35093,7.50476,-8545.79,-7933.79)">
                                <rect x="4621" y="1208" width="42" height="120" style="fill:rgb(105,208,220);fill-opacity:0.45;"/>
                            </g>
                            <g transform="matrix(5.03571,0,3.35093,7.50476,-22739,-7933.79)">
                                <rect x="4621" y="1208" width="42" height="120" style="fill:rgb(105,208,220);fill-opacity:0.45;"/>
                            </g>
                        </g>
                    </g>
                    <g transform="matrix(0.933194,0,0,0.424658,3894.23,2326.14)">
                        <path d="M8598,2877.68C8598,2873.26 8597.2,2869.01 8595.78,2865.89C8594.35,2862.76 8592.42,2861 8590.41,2861C8534.17,2861 8182.83,2861 8126.59,2861C8124.58,2861 8122.65,2862.76 8121.22,2865.89C8119.8,2869.01 8119,2873.26 8119,2877.68C8119,2899.23 8119,2934 8119,2934L8598,2934C8598,2934 8598,2899.23 8598,2877.68Z" style="fill:rgb(56,126,144);"/>
                    </g>
                    <g transform="matrix(1.3937e-17,0.227608,-0.114539,7.01347e-18,11818.9,1584.11)">
                        <rect x="8119" y="2861" width="479" height="73" style="fill:rgb(63,57,68);"/>
                    </g>
                    <g transform="matrix(1.3937e-17,0.227608,-0.114539,7.01347e-18,11838.4,1584.11)">
                        <rect x="8119" y="2861" width="479" height="73" style="fill:rgb(63,57,68);"/>
                    </g>
                    <g transform="matrix(1.3937e-17,0.227608,-0.114539,7.01347e-18,11857.8,1584.11)">
                        <rect x="8119" y="2861" width="479" height="73" style="fill:rgb(63,57,68);"/>
                    </g>
                    <g transform="matrix(1.3937e-17,0.227608,-0.114539,7.01347e-18,11877.3,1584.11)">
                        <rect x="8119" y="2861" width="479" height="73" style="fill:rgb(63,57,68);"/>
                    </g>
                    <g transform="matrix(1.3937e-17,0.227608,-0.114539,7.01347e-18,11896.7,1584.11)">
                        <rect x="8119" y="2861" width="479" height="73" style="fill:rgb(63,57,68);"/>
                    </g>
                    <g transform="matrix(1.3937e-17,0.227608,-0.114539,7.01347e-18,11916.1,1584.11)">
                        <rect x="8119" y="2861" width="479" height="73" style="fill:rgb(63,57,68);"/>
                    </g>
                    <g transform="matrix(2.21007e-17,0.360931,-0.114539,7.01347e-18,12155.8,285.386)">
                        <rect x="8119" y="2861" width="479" height="73" style="fill:rgb(63,57,68);"/>
                    </g>
                    <g transform="matrix(2.21007e-17,0.360931,-0.114539,7.01347e-18,12175.2,285.386)">
                        <rect x="8119" y="2861" width="479" height="73" style="fill:rgb(63,57,68);"/>
                    </g>
                    <g transform="matrix(2.21007e-17,0.360931,-0.114539,7.01347e-18,12194.7,285.386)">
                        <rect x="8119" y="2861" width="479" height="73" style="fill:rgb(63,57,68);"/>
                    </g>
                    <g transform="matrix(2.21007e-17,0.360931,-0.114539,7.01347e-18,12214.1,285.386)">
                        <rect x="8119" y="2861" width="479" height="73" style="fill:rgb(63,57,68);"/>
                    </g>
                    <g transform="matrix(2.1055,0,0,0.899452,-6025.14,583.177)">
                        <rect x="8435" y="3194.13" width="63" height="94.438" style="fill:rgb(63,57,68);"/>
                    </g>
                    <g transform="matrix(0.933194,0,0,0.424658,3894.23,2173.73)">
                        <path d="M8598,2870.96C8598,2868.32 8597.52,2865.78 8596.67,2863.92C8595.82,2862.05 8594.67,2861 8593.47,2861C8547.67,2861 8169.33,2861 8123.53,2861C8122.33,2861 8121.18,2862.05 8120.33,2863.92C8119.48,2865.78 8119,2868.32 8119,2870.96C8119,2884.91 8119,2910.1 8119,2924.04C8119,2926.68 8119.48,2929.22 8120.33,2931.08C8121.18,2932.95 8122.33,2934 8123.53,2934C8169.33,2934 8547.67,2934 8593.47,2934C8594.67,2934 8595.82,2932.95 8596.67,2931.08C8597.52,2929.22 8598,2926.68 8598,2924.04C8598,2910.1 8598,2884.91 8598,2870.96Z" style="fill:rgb(56,126,144);"/>
                    </g>
                    <g transform="matrix(0.484342,0,0,0.424658,7747.75,1953.28)">
                        <path d="M8598,2873.47C8598,2866.58 8593.1,2861 8587.07,2861C8522.75,2861 8194.25,2861 8129.93,2861C8123.9,2861 8119,2866.58 8119,2873.47C8119,2886.89 8119,2908.11 8119,2921.53C8119,2928.42 8123.9,2934 8129.93,2934C8194.25,2934 8522.75,2934 8587.07,2934C8593.1,2934 8598,2928.42 8598,2921.53C8598,2908.11 8598,2886.89 8598,2873.47Z" style="fill:rgb(56,126,144);"/>
                    </g>
                    <g transform="matrix(0.88309,0,0,0.114539,4313.02,3100.18)">
                        <rect x="8119" y="2861" width="479" height="73"/>
                    </g>
                    <g transform="matrix(0.458337,0,0,0.114539,7965.11,2879.73)">
                        <rect x="8119" y="2861" width="479" height="73"/>
                    </g>
                    <g transform="matrix(0.123236,0,0,0.107795,11176.1,3327.65)">
                        <rect x="4609" y="1192" width="423" height="788" style="fill:rgb(230,254,255);"/>
                        <clipPath id="_clip6">
                            <rect x="4609" y="1192" width="423" height="788"/>
                        </clipPath>
                        <g clip-path="url(#_clip6)">
                            <g transform="matrix(2.92549,0,5.08657,9.27684,-15359.5,-10130.9)">
                                <rect x="4621" y="1208" width="42" height="120" style="fill:rgb(105,208,220);fill-opacity:0.45;"/>
                            </g>
                            <g transform="matrix(7.64402,0,5.08657,9.27684,-36904.2,-10130.9)">
                                <rect x="4621" y="1208" width="42" height="120" style="fill:rgb(105,208,220);fill-opacity:0.45;"/>
                            </g>
                        </g>
                    </g>
                    <g transform="matrix(0.123236,0,0,0.107795,11237.9,3327.65)">
                        <rect x="4609" y="1192" width="423" height="788" style="fill:rgb(230,254,255);"/>
                        <clipPath id="_clip7">
                            <rect x="4609" y="1192" width="423" height="788"/>
                        </clipPath>
                        <g clip-path="url(#_clip7)">
                            <g transform="matrix(2.92549,0,5.08657,9.27684,-15359.5,-10130.9)">
                                <rect x="4621" y="1208" width="42" height="120" style="fill:rgb(105,208,220);fill-opacity:0.45;"/>
                            </g>
                            <g transform="matrix(7.64402,0,5.08657,9.27684,-36904.2,-10130.9)">
                                <rect x="4621" y="1208" width="42" height="120" style="fill:rgb(105,208,220);fill-opacity:0.45;"/>
                            </g>
                        </g>
                    </g>
                    <g transform="matrix(2.42816,0,0,1.33195,7748.24,479.004)">
                        <g transform="matrix(0.411835,0,0,0.386856,-1856.93,949.695)">
                            <rect x="8329" y="3060.65" width="45" height="61.5" style="fill:rgb(0,78,113);"/>
                        </g>
                        <g transform="matrix(0.288773,0,0,0.526438,-826.104,566.048)">
                            <path d="M8363.01,2959.39C8365.18,2960.42 8367.25,2961.62 8369.21,2962.97C8369.21,2962.97 8379.31,2958.48 8386.71,2955.2C8391.07,2953.26 8396.19,2954.92 8398.58,2959.06C8401.09,2963.41 8404.28,2968.93 8406.79,2973.28C8409.18,2977.42 8408.06,2982.69 8404.2,2985.5C8397.69,2990.24 8388.84,2996.68 8388.84,2996.68C8388.95,2997.94 8389,2999.21 8389,3000.5C8389,3001.68 8388.95,3002.86 8388.86,3004.02C8388.86,3004.02 8397.7,3010.45 8404.2,3015.19C8408.06,3018 8409.18,3023.27 8406.79,3027.4C8404.28,3031.76 8401.09,3037.27 8398.58,3041.63C8396.19,3045.76 8391.07,3047.43 8386.71,3045.49C8379.39,3042.24 8369.49,3037.84 8369.49,3037.84C8367.43,3039.28 8365.26,3040.54 8362.98,3041.62C8362.98,3041.62 8361.84,3052.39 8361,3060.34C8360.49,3065.09 8356.49,3068.69 8351.71,3068.69C8346.68,3068.69 8340.32,3068.69 8335.29,3068.69C8330.51,3068.69 8326.51,3065.09 8326,3060.34C8325.16,3052.39 8324.02,3041.62 8324.02,3041.62C8321.74,3040.54 8319.56,3039.28 8317.51,3037.84C8317.51,3037.84 8307.61,3042.24 8300.29,3045.49C8295.93,3047.43 8290.81,3045.76 8288.42,3041.63C8285.91,3037.27 8282.72,3031.76 8280.21,3027.4C8277.82,3023.27 8278.94,3018 8282.8,3015.19C8289.3,3010.45 8298.14,3004.02 8298.14,3004.02C8298.05,3002.86 8298,3001.68 8298,3000.5C8298,2999.21 8298.05,2997.94 8298.16,2996.68C8298.16,2996.68 8289.31,2990.24 8282.8,2985.5C8278.94,2982.69 8277.82,2977.42 8280.21,2973.28C8282.72,2968.93 8285.91,2963.41 8288.42,2959.06C8290.81,2954.92 8295.93,2953.26 8300.29,2955.2C8307.69,2958.48 8317.79,2962.97 8317.79,2962.97C8319.75,2961.62 8321.82,2960.42 8323.99,2959.39C8323.99,2959.39 8325.15,2948.41 8326,2940.35C8326.51,2935.6 8330.51,2932 8335.29,2932C8340.32,2932 8346.68,2932 8351.71,2932C8356.49,2932 8360.49,2935.6 8361,2940.35C8361.85,2948.41 8363.01,2959.39 8363.01,2959.39ZM8343.5,2977.75C8356.06,2977.75 8366.25,2987.94 8366.25,3000.5C8366.25,3013.06 8356.06,3023.25 8343.5,3023.25C8330.94,3023.25 8320.75,3013.06 8320.75,3000.5C8320.75,2987.94 8330.94,2977.75 8343.5,2977.75Z" style="fill:rgb(95,119,151);"/>
                        </g>
                        <g transform="matrix(0.0941911,0.297413,-0.163144,0.171712,1290.4,-858.706)">
                            <path d="M8336.5,2984L8336.5,2984C8331.06,2984 8325.85,2981.84 8322,2978C8318.16,2974.15 8316,2968.94 8316,2963.5C8316,2953.37 8316,2941.71 8316,2934.12C8316,2929.64 8319.64,2926 8324.12,2926C8325.84,2926 8327.66,2926 8329.38,2926C8333.86,2926 8337.5,2929.64 8337.5,2934.12C8337.5,2938.28 8337.5,2943.47 8337.5,2948.36C8337.5,2952.47 8339.13,2956.4 8342.04,2959.31C8344.94,2962.21 8348.88,2963.84 8352.99,2963.84L8355.01,2963.84C8359.12,2963.84 8363.06,2962.21 8365.96,2959.31C8368.87,2956.4 8370.5,2952.47 8370.5,2948.36C8370.5,2943.47 8370.5,2938.28 8370.5,2934.12C8370.5,2929.64 8374.14,2926 8378.62,2926C8380.34,2926 8382.16,2926 8383.88,2926C8388.36,2926 8392,2929.64 8392,2934.12C8392,2941.71 8392,2953.37 8392,2963.5C8392,2974.82 8382.82,2984 8371.5,2984C8371.5,2984 8371.5,2984 8371.5,2984L8371.5,3068.69L8371.5,3068.69C8376.94,3068.69 8382.15,3070.85 8386,3074.69C8389.84,3078.53 8392,3083.75 8392,3089.18C8392,3099.32 8392,3110.97 8392,3118.57C8392,3123.05 8388.36,3126.69 8383.88,3126.69C8382.16,3126.69 8380.34,3126.69 8378.62,3126.69C8374.14,3126.69 8370.5,3123.05 8370.5,3118.57C8370.5,3114.41 8370.5,3109.21 8370.5,3104.33C8370.5,3100.22 8368.87,3096.28 8365.96,3093.38C8363.06,3090.47 8359.12,3088.84 8355.01,3088.84L8352.99,3088.84C8348.88,3088.84 8344.94,3090.47 8342.04,3093.38C8339.13,3096.28 8337.5,3100.22 8337.5,3104.33L8337.5,3118.57C8337.5,3123.05 8333.86,3126.69 8329.38,3126.69C8327.66,3126.69 8325.84,3126.69 8324.12,3126.69C8319.64,3126.69 8316,3123.05 8316,3118.57C8316,3110.97 8316,3099.32 8316,3089.18C8316,3083.75 8318.16,3078.53 8322,3074.69C8325.85,3070.85 8331.06,3068.69 8336.5,3068.69C8336.5,3068.69 8336.5,3068.69 8336.5,3068.69L8336.5,2984Z" style="fill:rgb(194,194,194);"/>
                        </g>
                    </g>
                </g>
            </g>
        </g>
    </g>
</svg>
