<?xml version="1.0" encoding="UTF-8" standalone="no"?>
<!DOCTYPE svg PUBLIC "-//W3C//DTD SVG 1.1//EN" "http://www.w3.org/Graphics/SVG/1.1/DTD/svg11.dtd">
<svg width="100%" height="100%" viewBox="0 0 1035 527" version="1.1" xmlns="http://www.w3.org/2000/svg" xmlns:xlink="http://www.w3.org/1999/xlink" xml:space="preserve" xmlns:serif="http://www.serif.com/" style="fill-rule:evenodd;clip-rule:evenodd;stroke-linejoin:round;stroke-miterlimit:2;">
    <g transform="matrix(1,0,0,1,-11596.8,-2418.49)">
        <g id="Artboard7" transform="matrix(2.15177,0,0,1,-5873.43,-411.515)">
            <rect x="8119" y="2830" width="481" height="527" style="fill:none;"/>
            <clipPath id="_clip1">
                <rect x="8119" y="2830" width="481" height="527"/>
            </clipPath>
            <g clip-path="url(#_clip1)">
                <g transform="matrix(0.583174,0,0,1.56899,1576.25,-1257.4)">
                    <path d="M11953.9,2739.04C11923.6,2683.76 11858.9,2645.46 11784,2638.39C11691.7,2629.6 11598.8,2625.8 11505.1,2627.7C11431.1,2629.23 11363.4,2661.39 11326.4,2712.63C11297.5,2752.6 11273,2789.35 11253.9,2837.11L11253.9,2857.75L11245.9,2857.75C11236.9,2882.14 11228.5,2916.9 11222.8,2941L12044,2941C12035.6,2910.99 12037.3,2917.39 12025.5,2887.38L12017.1,2887.38C12017.1,2887.38 12017.1,2866.74 12017.1,2866.74C12000.9,2827.86 11978,2782.88 11953.9,2739.04Z" style="fill:rgb(144,175,190);"/>
                    <clipPath id="_clip2">
                        <path d="M11953.9,2739.04C11923.6,2683.76 11858.9,2645.46 11784,2638.39C11691.7,2629.6 11598.8,2625.8 11505.1,2627.7C11431.1,2629.23 11363.4,2661.39 11326.4,2712.63C11297.5,2752.6 11273,2789.35 11253.9,2837.11L11253.9,2857.75L11245.9,2857.75C11236.9,2882.14 11228.5,2916.9 11222.8,2941L12044,2941C12035.6,2910.99 12037.3,2917.39 12025.5,2887.38L12017.1,2887.38C12017.1,2887.38 12017.1,2866.74 12017.1,2866.74C12000.9,2827.86 11978,2782.88 11953.9,2739.04Z"/>
                    </clipPath>
                    <g clip-path="url(#_clip2)">
                        <g transform="matrix(0.751481,-0.00175746,0.00067574,0.637354,4942.53,-649.106)">
                            <rect x="8781" y="5072" width="444" height="481.66" style="fill:rgb(169,194,206);"/>
                        </g>
                        <g transform="matrix(1.79227,0.0641586,0,0.919579,-9555.96,-543.963)">
                            <rect x="11565" y="2869" width="486.768" height="193.743" style="fill:rgb(66,92,100);"/>
                        </g>
                        <g transform="matrix(1.41081,0.0491009,0,0.449154,-5013.29,1010.88)">
                            <rect x="11565" y="2869" width="486.768" height="193.743" style="fill:rgb(42,70,71);"/>
                        </g>
                        <g transform="matrix(0.986795,0,0,0.37253,131.512,1664.48)">
                            <ellipse cx="11655.8" cy="2600.57" rx="275.784" ry="67.567" style="fill:white;fill-opacity:0.4;"/>
                        </g>
                        <g transform="matrix(0.012883,0,0,0.102011,11721.2,2758.14)">
                            <rect x="4609" y="1192" width="423" height="788" style="fill:rgb(37,37,37);"/>
                        </g>
                        <g transform="matrix(0.012883,0,0,0.0983717,11789.7,2765.34)">
                            <rect x="4609" y="1192" width="423" height="788" style="fill:rgb(37,37,37);"/>
                        </g>
                        <g transform="matrix(0.012883,0,0,0.0983717,11858.2,2765.34)">
                            <rect x="4609" y="1192" width="423" height="788" style="fill:rgb(37,37,37);"/>
                        </g>
                        <g transform="matrix(0.012883,0,0,0.0893758,11926.8,2783.16)">
                            <rect x="4609" y="1192" width="423" height="788" style="fill:rgb(37,37,37);"/>
                        </g>
                        <g transform="matrix(0.012883,0,0,0.102011,11515.7,2758.14)">
                            <rect x="4609" y="1192" width="423" height="788" style="fill:rgb(37,37,37);"/>
                        </g>
                        <g transform="matrix(0.012883,0,0,0.102011,11584.2,2758.14)">
                            <rect x="4609" y="1192" width="423" height="788" style="fill:rgb(37,37,37);"/>
                        </g>
                        <g transform="matrix(0.012883,0,0,0.102011,11652.7,2758.14)">
                            <rect x="4609" y="1192" width="423" height="788" style="fill:rgb(37,37,37);"/>
                        </g>
                        <g transform="matrix(0.012883,0,0,0.114924,11447.2,2732.57)">
                            <rect x="4609" y="1192" width="423" height="788" style="fill:rgb(37,37,37);"/>
                        </g>
                        <g transform="matrix(0.012883,0,0,0.114924,11310.2,2732.57)">
                            <rect x="4609" y="1192" width="423" height="788" style="fill:rgb(37,37,37);"/>
                        </g>
                        <g transform="matrix(0.012883,0,0,0.114924,11378.7,2732.57)">
                            <rect x="4609" y="1192" width="423" height="788" style="fill:rgb(37,37,37);"/>
                        </g>
                        <g transform="matrix(0.012883,0,0,0.114924,11241.7,2732.57)">
                            <rect x="4609" y="1192" width="423" height="788" style="fill:rgb(37,37,37);"/>
                        </g>
                        <g transform="matrix(0.796904,0,0,0.637353,4557.27,-350.516)">
                            <path d="M8486.27,5115.76L8406.16,5035.65L8394.85,5046.97L8477.84,5129.96L8477.84,5236.35L8493.84,5236.35L8493.84,5130.82L8570.21,5054.45L8558.89,5043.14L8486.27,5115.76Z" style="fill:rgb(144,175,190);"/>
                        </g>
                        <g transform="matrix(0.796904,0,0,0.637353,4697.02,-345.355)">
                            <path d="M8486.27,5115.76L8406.16,5035.65L8394.85,5046.97L8474.96,5127.08C8476.8,5128.93 8477.84,5131.43 8477.84,5134.05C8477.84,5153.55 8477.84,5236.35 8477.84,5236.35L8493.84,5236.35C8493.84,5236.35 8493.84,5157.28 8493.84,5136.03C8493.84,5132.69 8495.17,5129.49 8497.52,5127.14L8570.21,5054.45L8558.89,5043.14L8486.27,5115.76Z" style="fill:rgb(144,175,190);"/>
                        </g>
                        <g transform="matrix(0.796904,0,0,0.637353,4833.98,-339.931)">
                            <path d="M8486.27,5115.76L8406.16,5035.65L8394.85,5046.97L8474.96,5127.08C8476.8,5128.93 8477.84,5131.43 8477.84,5134.05C8477.84,5153.55 8477.84,5236.35 8477.84,5236.35L8493.84,5236.35C8493.84,5236.35 8493.84,5157.28 8493.84,5136.03C8493.84,5132.69 8495.17,5129.49 8497.52,5127.14L8570.21,5054.45L8558.89,5043.14L8486.27,5115.76Z" style="fill:rgb(144,175,190);"/>
                        </g>
                        <g transform="matrix(0.796904,0,0,0.637353,4973.73,-334.77)">
                            <path d="M8495.16,5106.88C8492.8,5109.23 8489.6,5110.56 8486.27,5110.56C8482.93,5110.56 8479.74,5109.23 8477.38,5106.88C8456.52,5086.01 8406.16,5035.65 8406.16,5035.65L8394.85,5046.97L8474.96,5127.08C8476.8,5128.93 8477.84,5131.43 8477.84,5134.05C8477.84,5153.55 8477.84,5236.35 8477.84,5236.35L8493.84,5236.35C8493.84,5236.35 8493.84,5157.28 8493.84,5136.03C8493.84,5132.69 8495.17,5129.49 8497.52,5127.14L8570.21,5054.45L8558.89,5043.14C8558.89,5043.14 8514.54,5087.49 8495.16,5106.88Z" style="fill:rgb(144,175,190);"/>
                        </g>
                        <g transform="matrix(0.796904,0,0,0.637353,5113.48,-329.755)">
                            <path d="M8495.16,5106.88C8492.8,5109.23 8489.6,5110.56 8486.27,5110.56C8482.93,5110.56 8479.74,5109.23 8477.38,5106.88C8456.52,5086.01 8406.16,5035.65 8406.16,5035.65L8394.85,5046.97L8474.96,5127.08C8476.8,5128.93 8477.84,5131.43 8477.84,5134.05C8477.84,5153.55 8477.84,5236.35 8477.84,5236.35L8493.84,5236.35L8493.84,5136.03C8493.84,5132.69 8495.17,5129.49 8497.52,5127.14L8570.21,5054.45L8558.89,5043.14C8558.89,5043.14 8514.54,5087.49 8495.16,5106.88Z" style="fill:rgb(144,175,190);"/>
                        </g>
                        <g transform="matrix(0.796904,0,0,0.637353,5253.22,-324.594)">
                            <path d="M8495.16,5106.88C8492.8,5109.23 8489.6,5110.56 8486.27,5110.56C8482.93,5110.56 8479.74,5109.23 8477.38,5106.88C8456.52,5086.01 8406.16,5035.65 8406.16,5035.65L8394.85,5046.97L8474.96,5127.08C8476.8,5128.93 8477.84,5131.43 8477.84,5134.05C8477.84,5153.55 8477.84,5236.35 8477.84,5236.35L8493.84,5236.35C8493.84,5236.35 8493.84,5157.28 8493.84,5136.03C8493.84,5132.69 8495.17,5129.49 8497.52,5127.14L8570.21,5054.45L8558.89,5043.14C8558.89,5043.14 8514.54,5087.49 8495.16,5106.88Z" style="fill:rgb(144,175,190);"/>
                        </g>
                    </g>
                </g>
                <g>
                    <g transform="matrix(0.333205,0.0345385,0,0.716979,4557.62,675.749)">
                        <path d="M11842,2720L11769,2647L11769,2720L11842,2720Z" style="fill:rgb(213,229,244);"/>
                    </g>
                    <g transform="matrix(0.333205,0.0345385,0,0.716979,4581.94,678.27)">
                        <path d="M11842,2720L11769,2647L11769,2720L11842,2720Z" style="fill:rgb(213,229,244);"/>
                    </g>
                    <g transform="matrix(0.333205,0.0345385,0,0.716979,4508.97,670.706)">
                        <path d="M11842,2720L11769,2647L11769,2720L11842,2720Z" style="fill:rgb(213,229,244);"/>
                    </g>
                    <g transform="matrix(0.333205,0.0345385,0,0.716979,4533.29,673.228)">
                        <path d="M11842,2720L11769,2647L11769,2720L11842,2720Z" style="fill:rgb(213,229,244);fill-opacity:0.46;"/>
                    </g>
                    <g transform="matrix(0.333205,0.0345385,0,0.716979,4557.62,728.089)">
                        <path d="M11842,2720L11769,2647L11769,2720L11842,2720Z" style="fill:rgb(213,229,244);fill-opacity:0.46;"/>
                    </g>
                    <g transform="matrix(0.333205,0.0345385,0,0.716979,4581.94,730.61)">
                        <path d="M11842,2720L11769,2647L11769,2720L11842,2720Z" style="fill:rgb(213,229,244);"/>
                    </g>
                    <g transform="matrix(0.333205,0.0345385,0,0.716979,4508.97,775.385)">
                        <path d="M11842,2720L11769,2647L11769,2720L11842,2720Z" style="fill:rgb(213,229,244);"/>
                    </g>
                    <g transform="matrix(0.333205,0.0345385,0,0.716979,4533.29,725.567)">
                        <path d="M11842,2720L11769,2647L11769,2720L11842,2720Z" style="fill:rgb(213,229,244);"/>
                    </g>
                    <g transform="matrix(0.333205,0.0345385,0,0.716979,4581.94,782.949)">
                        <path d="M11842,2720L11769,2647L11769,2720L11842,2720Z" style="fill:rgb(213,229,244);"/>
                    </g>
                    <g transform="matrix(0.333205,0.0345385,0,0.716979,4606.26,733.131)">
                        <path d="M11842,2720L11769,2647L11769,2720L11842,2720Z" style="fill:rgb(213,229,244);"/>
                    </g>
                    <g transform="matrix(0.333205,0.0345385,0,0.716979,4606.26,785.471)">
                        <path d="M11842,2720L11769,2647L11769,2720L11842,2720Z" style="fill:rgb(213,229,244);"/>
                    </g>
                    <g transform="matrix(0.333205,0.0345385,0,0.716979,4484.64,668.185)">
                        <path d="M11842,2720L11769,2647L11769,2720L11842,2720Z" style="fill:rgb(213,229,244);"/>
                    </g>
                    <g transform="matrix(0.333205,0.0345385,0,0.716979,4533.29,777.907)">
                        <path d="M11842,2720L11769,2647L11769,2720L11842,2720Z" style="fill:rgb(213,229,244);fill-opacity:0.46;"/>
                    </g>
                    <g transform="matrix(0.333205,0.0345385,0,0.716979,4557.62,832.768)">
                        <path d="M11842,2720L11769,2647L11769,2720L11842,2720Z" style="fill:rgb(213,229,244);"/>
                    </g>
                    <g transform="matrix(0.333205,0.0345385,0,0.716979,4581.94,835.289)">
                        <path d="M11842,2720L11769,2647L11769,2720L11842,2720Z" style="fill:rgb(213,229,244);fill-opacity:0.46;"/>
                    </g>
                    <g transform="matrix(0.333205,0.0345385,0,0.716979,4630.59,840.331)">
                        <path d="M11842,2720L11769,2647L11769,2720L11842,2720Z" style="fill:rgb(213,229,244);"/>
                    </g>
                    <g transform="matrix(0.333205,0.0345385,0,0.716979,4484.64,720.525)">
                        <path d="M11842,2720L11769,2647L11769,2720L11842,2720Z" style="fill:rgb(213,229,244);"/>
                    </g>
                    <g transform="matrix(0.333205,0.0345385,0,0.716979,4484.64,772.864)">
                        <path d="M11842,2720L11769,2647L11769,2720L11842,2720Z" style="fill:rgb(213,229,244);"/>
                    </g>
                    <g transform="matrix(0.333205,0.0345385,0,0.716979,4484.64,825.204)">
                        <path d="M11842,2720L11769,2647L11769,2720L11842,2720Z" style="fill:rgb(213,229,244);"/>
                    </g>
                    <g transform="matrix(0.333205,0.0345385,0,0.716979,4533.29,830.246)">
                        <path d="M11842,2720L11769,2647L11769,2720L11842,2720Z" style="fill:rgb(213,229,244);"/>
                    </g>
                    <g transform="matrix(0.333205,0.0345385,0,0.716979,4314.38,650.536)">
                        <path d="M11842,2720L11769,2647L11769,2720L11842,2720Z" style="fill:rgb(213,229,244);"/>
                    </g>
                    <g transform="matrix(0.333205,0.0345385,0,0.716979,4338.7,653.057)">
                        <path d="M11842,2720L11769,2647L11769,2720L11842,2720Z" style="fill:rgb(213,229,244);"/>
                    </g>
                    <g transform="matrix(0.333205,0.0345385,0,0.716979,4290.05,648.015)">
                        <path d="M11842,2720L11769,2647L11769,2720L11842,2720Z" style="fill:rgb(213,229,244);fill-opacity:0.46;"/>
                    </g>
                    <g transform="matrix(0.333205,0.0345385,0,0.716979,4314.38,702.875)">
                        <path d="M11842,2720L11769,2647L11769,2720L11842,2720Z" style="fill:rgb(213,229,244);fill-opacity:0.46;"/>
                    </g>
                    <g transform="matrix(0.333205,0.0345385,0,0.716979,4338.7,705.397)">
                        <path d="M11842,2720L11769,2647L11769,2720L11842,2720Z" style="fill:rgb(213,229,244);"/>
                    </g>
                    <g transform="matrix(0.333205,0.0345385,0,0.716979,4290.05,700.354)">
                        <path d="M11842,2720L11769,2647L11769,2720L11842,2720Z" style="fill:rgb(213,229,244);"/>
                    </g>
                    <g transform="matrix(0.333205,0.0345385,0,0.716979,4338.7,757.736)">
                        <path d="M11842,2720L11769,2647L11769,2720L11842,2720Z" style="fill:rgb(213,229,244);"/>
                    </g>
                    <g transform="matrix(0.333205,0.0345385,0,0.716979,4363.03,707.918)">
                        <path d="M11842,2720L11769,2647L11769,2720L11842,2720Z" style="fill:rgb(213,229,244);"/>
                    </g>
                    <g transform="matrix(0.333205,0.0345385,0,0.716979,4363.03,760.258)">
                        <path d="M11842,2720L11769,2647L11769,2720L11842,2720Z" style="fill:rgb(213,229,244);"/>
                    </g>
                    <g transform="matrix(0.333205,0.0345385,0,0.716979,4290.05,752.694)">
                        <path d="M11842,2720L11769,2647L11769,2720L11842,2720Z" style="fill:rgb(213,229,244);fill-opacity:0.46;"/>
                    </g>
                    <g transform="matrix(0.333205,0.0345385,0,0.716979,4314.38,807.554)">
                        <path d="M11842,2720L11769,2647L11769,2720L11842,2720Z" style="fill:rgb(213,229,244);"/>
                    </g>
                    <g transform="matrix(0.333205,0.0345385,0,0.716979,4338.7,810.076)">
                        <path d="M11842,2720L11769,2647L11769,2720L11842,2720Z" style="fill:rgb(213,229,244);fill-opacity:0.46;"/>
                    </g>
                    <g transform="matrix(0.333205,0.0345385,0,0.716979,4387.35,815.118)">
                        <path d="M11842,2720L11769,2647L11769,2720L11842,2720Z" style="fill:rgb(213,229,244);"/>
                    </g>
                    <g transform="matrix(0.333205,0.0345385,0,0.716979,4290.05,805.033)">
                        <path d="M11842,2720L11769,2647L11769,2720L11842,2720Z" style="fill:rgb(213,229,244);"/>
                    </g>
                    <g transform="matrix(0.333205,0.0345385,0,0.716979,4265.73,750.172)">
                        <path d="M11842,2720L11769,2647L11769,2720L11842,2720Z" style="fill:rgb(213,229,244);fill-opacity:0.46;"/>
                    </g>
                    <g transform="matrix(0.333205,0.0345385,0,0.716979,4265.73,802.512)">
                        <path d="M11842,2720L11769,2647L11769,2720L11842,2720Z" style="fill:rgb(213,229,244);"/>
                    </g>
                    <g transform="matrix(0.333205,0.0345385,0,0.716979,4460.32,665.664)">
                        <path d="M11842,2720L11769,2647L11769,2720L11842,2720Z" style="fill:rgb(213,229,244);"/>
                    </g>
                    <g transform="matrix(0.333205,0.0345385,0,0.716979,4411.67,660.621)">
                        <path d="M11842,2720L11769,2647L11769,2720L11842,2720Z" style="fill:rgb(213,229,244);"/>
                    </g>
                    <g transform="matrix(0.333205,0.0345385,0,0.716979,4436,663.143)">
                        <path d="M11842,2720L11769,2647L11769,2720L11842,2720Z" style="fill:rgb(213,229,244);fill-opacity:0.46;"/>
                    </g>
                    <g transform="matrix(0.333205,0.0345385,0,0.716979,4460.32,718.003)">
                        <path d="M11842,2720L11769,2647L11769,2720L11842,2720Z" style="fill:rgb(213,229,244);fill-opacity:0.46;"/>
                    </g>
                    <g transform="matrix(0.333205,0.0345385,0,0.716979,4411.67,765.3)">
                        <path d="M11842,2720L11769,2647L11769,2720L11842,2720Z" style="fill:rgb(213,229,244);"/>
                    </g>
                    <g transform="matrix(0.333205,0.0345385,0,0.716979,4436,715.482)">
                        <path d="M11842,2720L11769,2647L11769,2720L11842,2720Z" style="fill:rgb(213,229,244);"/>
                    </g>
                    <g transform="matrix(0.333205,0.0345385,0,0.716979,4436,767.822)">
                        <path d="M11842,2720L11769,2647L11769,2720L11842,2720Z" style="fill:rgb(213,229,244);fill-opacity:0.46;"/>
                    </g>
                    <g transform="matrix(0.333205,0.0345385,0,0.716979,4387.35,710.439)">
                        <path d="M11842,2720L11769,2647L11769,2720L11842,2720Z" style="fill:rgb(213,229,244);"/>
                    </g>
                    <g transform="matrix(0.333205,0.0345385,0,0.716979,4436,820.161)">
                        <path d="M11842,2720L11769,2647L11769,2720L11842,2720Z" style="fill:rgb(213,229,244);"/>
                    </g>
                </g>
                <g transform="matrix(0.934403,0.0933531,0,1.23829,-2650,-1400.45)">
                    <rect x="11532" y="2866" width="503" height="11" style="fill:rgb(171,208,212);"/>
                </g>
            </g>
        </g>
    </g>
</svg>
