<?xml version="1.0" encoding="UTF-8" standalone="no"?>
<!DOCTYPE svg PUBLIC "-//W3C//DTD SVG 1.1//EN" "http://www.w3.org/Graphics/SVG/1.1/DTD/svg11.dtd">
<svg width="100%" height="100%" viewBox="0 0 481 527" version="1.1" xmlns="http://www.w3.org/2000/svg" xmlns:xlink="http://www.w3.org/1999/xlink" xml:space="preserve" xmlns:serif="http://www.serif.com/" style="fill-rule:evenodd;clip-rule:evenodd;stroke-linecap:round;stroke-linejoin:round;stroke-miterlimit:1.5;">
    <g transform="matrix(1,0,0,1,-10442,-2898.19)">
        <g id="Artboard7" transform="matrix(1,0,0,1,2323,68.189)">
            <rect x="8119" y="2830" width="481" height="527" style="fill:none;"/>
            <g transform="matrix(2.42816,0,0,1.33195,4424.03,214.388)">
                <g transform="matrix(1,0,0,1,0.409088,6.53699e-13)">
                    <g transform="matrix(0.411835,0,0,0.750781,-1823.3,-162.533)">
                        <rect x="8159.99" y="3125" width="10" height="50.706" style="fill:rgb(238,227,223);"/>
                    </g>
                    <g transform="matrix(0.411835,0,0,0.750781,-1815.48,-162.533)">
                        <rect x="8159.99" y="3125" width="10" height="50.706" style="fill:rgb(238,227,223);"/>
                    </g>
                    <g transform="matrix(0.411835,0,0,0.750781,-1831.13,-162.533)">
                        <rect x="8159.99" y="3125" width="10" height="50.706" style="fill:rgb(238,227,223);"/>
                    </g>
                    <g transform="matrix(0.411835,0,0,0.750781,-1807.65,-162.533)">
                        <rect x="8159.99" y="3125" width="10" height="50.706" style="fill:rgb(238,227,223);"/>
                    </g>
                    <g transform="matrix(0.411835,0,0,0.750781,-1799.82,-162.533)">
                        <rect x="8159.99" y="3125" width="10" height="50.706" style="fill:rgb(238,227,223);"/>
                    </g>
                    <g transform="matrix(0.411835,0,0,0.750781,-1791.99,-162.533)">
                        <rect x="8159.99" y="3125" width="10" height="50.706" style="fill:rgb(238,227,223);"/>
                    </g>
                    <g transform="matrix(0.411835,0,0,0.750781,-1784.17,-162.533)">
                        <rect x="8159.99" y="3125" width="10" height="50.706" style="fill:rgb(238,227,223);"/>
                    </g>
                    <g transform="matrix(0.411835,0,0,0.750781,-1776.34,-162.533)">
                        <rect x="8159.99" y="3125" width="10" height="50.706" style="fill:rgb(238,227,223);"/>
                    </g>
                    <g transform="matrix(0.411835,0,0,0.750781,-1768.51,-162.533)">
                        <rect x="8159.99" y="3125" width="10" height="50.706" style="fill:rgb(238,227,223);"/>
                    </g>
                </g>
                <g transform="matrix(0.411835,0,0,0.750781,-1821.25,-162.533)">
                    <path d="M8208,3175.71L8169.99,3175.71L8159.99,3340.45L8218,3340.45L8208,3175.71Z" style="fill:rgb(0,36,129);"/>
                </g>
                <g transform="matrix(0.450148,0,0,0.662384,-2100.3,166.17)">
                    <path d="M8275.61,3137.69L8267.25,3126.31L8046.94,3250.39L8046.94,3311.13L8177.33,3311.13L8177.33,3276.46C8177.33,3276.46 8189.05,3268.43 8189.05,3268.43C8189.05,3268.43 8237.73,3268.43 8237.73,3268.43L8304.74,3177.32L8275.61,3137.69Z" style="fill:white;"/>
                </g>
                <g transform="matrix(2.52176e-17,0.750781,-1.22875,1.37162e-16,5431.91,-3942.7)">
                    <rect x="8159.99" y="3125" width="10" height="50.706" style="fill:white;"/>
                </g>
                <g transform="matrix(2.52176e-17,0.750781,-1.48053,1.65268e-16,6231.49,-3912.14)">
                    <rect x="8159.99" y="3125" width="10" height="50.706" style="fill:white;"/>
                </g>
                <g transform="matrix(0.450148,0,0,0.662384,-2100.3,166.17)">
                    <path d="M8263,3151.92L8064,3264L8064,3290L8160.27,3290L8160.27,3264L8184.65,3247.3L8230.2,3247.3L8281.67,3177.32L8263,3151.92Z" style="fill:rgb(229,48,18);"/>
                </g>
                <g transform="matrix(0.24804,0,0,0.45218,-406.542,778.765)">
                    <path d="M8098.99,3178.41L8045.42,3178.41L8008.36,3251.55L8047.58,3267.78C8047.58,3267.78 8013.65,3308.28 8013.65,3308.28L8154.75,3349.96C8154.75,3349.96 8154.75,3495.61 8154.75,3495.61L8199.72,3495.61L8378.46,3495.61L8378.46,3349.58C8378.46,3349.58 8411.51,3355.04 8411.51,3355.04C8411.51,3355.04 8453.24,3402.64 8453.24,3402.64L8550.47,3402.64L8571.43,3356.66L8571.43,3153.75L8527.07,3108.93L8469.14,3108.93L8438.05,3137.22C8438.05,3137.22 8400.38,3137.22 8400.38,3137.22C8400.38,3137.22 8296.11,2996.93 8296.11,2996.93L8216.92,2996.93L8216.92,3061.83C8216.92,3061.83 8173.34,3061.83 8173.34,3061.83C8173.34,3061.83 8057.04,2937.83 8057.04,2937.83L7992.2,2937.83L7992.2,3067.8L8098.99,3178.41Z" style="fill:white;"/>
                </g>
                <g transform="matrix(0.24804,0,0,0.45218,-406.542,778.765)">
                    <path d="M8480,3137L8448.91,3165.29L8386.27,3165.29L8282,3025L8244.99,3025L8244.99,3089.91L8161.19,3089.91L8044.88,2965.9L8020.27,2965.9L8020.27,3056.46L8141.76,3182.29L8124.19,3206.49L8062.67,3206.49L8047.1,3237.2L8093.67,3256.49L8062.67,3293.49L8182.82,3328.99L8182.82,3430.26L8213.08,3467.54L8282,3467.54L8282,3399.47L8298.35,3399.47L8313,3430.26L8350.39,3430.26L8350.39,3316.49L8426,3328.99L8465.96,3374.56L8532.42,3374.56L8543.36,3350.56L8543.36,3304.49L8503.4,3304.49L8480,3293.49L8439.31,3293.49L8386.27,3276.99L8386.27,3237.2L8439.31,3237.2L8465.96,3256.49L8532.42,3256.49L8543.36,3206.49L8543.36,3165.29L8515.36,3137L8480,3137Z" style="fill:rgb(229,48,18);"/>
                </g>
                <g transform="matrix(0.248524,0.188749,-0.103537,0.453063,-96.3651,-777.345)">
                    <path d="M8329.65,3110.71L8356.97,3122.03L8368.29,3149.36L8356.97,3176.68L8329.65,3188L8302.32,3176.68L8291,3149.36L8302.32,3122.03L8329.65,3110.71Z" style="fill:white;stroke:black;stroke-width:3.19px;"/>
                </g>
                <g transform="matrix(0.173307,0.131623,-0.0722011,0.315942,431.478,130.338)">
                    <path d="M8329.65,3110.71L8356.97,3122.03L8368.29,3149.36L8356.97,3176.68L8329.65,3188L8302.32,3176.68L8291,3149.36L8302.32,3122.03L8329.65,3110.71Z"/>
                </g>
            </g>
        </g>
    </g>
</svg>
