<?xml version="1.0" encoding="UTF-8" standalone="no"?>
<!DOCTYPE svg PUBLIC "-//W3C//DTD SVG 1.1//EN" "http://www.w3.org/Graphics/SVG/1.1/DTD/svg11.dtd">
<svg width="100%" height="100%" viewBox="0 0 1217 1477" version="1.1" xmlns="http://www.w3.org/2000/svg" xmlns:xlink="http://www.w3.org/1999/xlink" xml:space="preserve" xmlns:serif="http://www.serif.com/" style="fill-rule:evenodd;clip-rule:evenodd;stroke-linejoin:round;stroke-miterlimit:2;">
    <g transform="matrix(1,0,0,1,-1596,0)">
        <g id="Artboard3" transform="matrix(2.25702,0,0,1.67012,-4658.21,-1586.62)">
            <rect x="2771" y="950" width="539" height="883.993" style="fill:none;"/>
            <clipPath id="_clip1">
                <rect x="2771" y="950" width="539" height="883.993"/>
            </clipPath>
            <g clip-path="url(#_clip1)">
                <g transform="matrix(1.07582,0,0,0.797513,1716.62,644.252)">
                    <g transform="matrix(0.411835,0,0,0.750781,785.027,0)">
                        <rect x="475" y="509" width="1216" height="1476" style="fill:rgb(177,204,218);"/>
                    </g>
                    <g transform="matrix(0.411835,0,0,0.750781,-631.274,0)">
                        <path d="M4725.67,837C4739.59,837 4752.95,842.531 4762.79,852.376C4772.64,862.222 4778.17,875.575 4778.17,889.498L4778.17,889.502C4778.17,918.496 4754.66,942 4725.67,942C4724.04,942 4722.39,942 4720.73,942C4692.33,942 4665.1,953.28 4645.02,973.36C4624.94,993.439 4613.66,1020.67 4613.66,1049.07L4613.66,1173.14C4613.66,1212.09 4598.19,1249.45 4570.65,1276.99C4543.1,1304.53 4505.75,1320 4466.8,1320L4044,1320L4044,1570L3914,1570L3914,1985L5130,1985L5130,942L4913.67,942C4899.74,942 4886.39,936.469 4876.55,926.624C4866.7,916.778 4861.17,903.425 4861.17,889.502L4861.17,889.498C4861.17,875.575 4866.7,862.222 4876.55,852.376C4886.39,842.531 4899.74,837 4913.67,837L4947.33,837C4970.25,837 4988.83,818.42 4988.83,795.5L4988.83,795.498C4988.83,772.579 4970.25,754 4947.33,754C4847.5,754 4594.83,754 4495,754C4472.08,754 4453.5,772.579 4453.5,795.498L4453.5,795.5C4453.5,806.506 4457.87,817.062 4465.65,824.845C4473.44,832.628 4483.99,837 4495,837C4553.81,837 4661.38,837 4725.67,837Z" style="fill:rgb(218,238,235);"/>
                    </g>
                    <g transform="matrix(0.411835,0,0,0.750781,-631.274,0)">
                        <path d="M4144.83,1447.5C4144.83,1469.32 4162.52,1487 4184.33,1487L4781.58,1487C4792.59,1487 4803.14,1491.37 4810.93,1499.15C4818.71,1506.94 4823.08,1517.49 4823.08,1528.5L4823.08,1528.5C4823.08,1551.42 4804.5,1570 4781.58,1570L4760.43,1570C4733.43,1570 4711.54,1591.89 4711.54,1618.89L4711.54,1625.11C4711.54,1652.11 4733.43,1674 4760.43,1674C4813.5,1674 4897.35,1674 4947.33,1674C4970.25,1674 4988.83,1692.58 4988.83,1715.5C4988.83,1715.5 4988.83,1715.5 4988.83,1715.5C4988.83,1738.42 4970.25,1757 4947.33,1757L4392.75,1757C4369.83,1757 4351.25,1738.42 4351.25,1715.5C4351.25,1715.5 4351.25,1715.5 4351.25,1715.5C4351.25,1692.58 4369.83,1674 4392.75,1674L4579.65,1674C4606.65,1674 4628.54,1652.11 4628.54,1625.11C4628.54,1623.04 4628.54,1620.96 4628.54,1618.89C4628.54,1591.89 4606.65,1570 4579.65,1570C4418.46,1570 3914,1570 3914,1570L3914,837L4079.06,837C4176.34,837 4255.2,915.858 4255.2,1013.13L4255.2,1018.93C4255.2,1044.41 4265.32,1068.85 4283.34,1086.87C4301.36,1104.89 4325.8,1115.02 4351.28,1115.02L4354.55,1115.02C4373.34,1115.02 4391.37,1122.48 4404.67,1135.78C4417.96,1149.07 4425.43,1167.1 4425.43,1185.89L4425.43,1219.31C4425.43,1270.93 4466.51,1313.17 4518.11,1314.61C4568.54,1316.02 4628.55,1317.69 4668.21,1318.79C4692.33,1319.46 4711.54,1339.21 4711.54,1363.35C4711.54,1363.35 4711.54,1363.35 4711.54,1363.35C4711.54,1388.01 4691.55,1408 4666.89,1408L4184.33,1408C4162.52,1408 4144.83,1425.68 4144.83,1447.5L4144.83,1447.5Z" style="fill:rgb(196,220,226);"/>
                    </g>
                </g>
            </g>
        </g>
    </g>
</svg>
