<?xml version="1.0" encoding="UTF-8" standalone="no"?>
<!DOCTYPE svg PUBLIC "-//W3C//DTD SVG 1.1//EN" "http://www.w3.org/Graphics/SVG/1.1/DTD/svg11.dtd">
<svg width="100%" height="100%" viewBox="0 0 1217 1477" version="1.1" xmlns="http://www.w3.org/2000/svg" xmlns:xlink="http://www.w3.org/1999/xlink" xml:space="preserve" xmlns:serif="http://www.serif.com/" style="fill-rule:evenodd;clip-rule:evenodd;stroke-linejoin:round;stroke-miterlimit:2;">
    <g transform="matrix(1,0,0,1,-1565,-2423.5)">
        <g id="Artboard3" transform="matrix(2.25702,0,0,1.67012,-4689.21,836.882)">
            <rect x="2771" y="950" width="539" height="883.993" style="fill:none;"/>
            <g transform="matrix(0.443061,0,0,0.598758,2560.78,645.232)">
                <rect x="475" y="509" width="1216" height="1476" style="fill:rgb(35,41,66);"/>
            </g>
            <g transform="matrix(0.443061,0,0,0.598758,1037.09,645.232)">
                <path d="M4725.67,837C4739.59,837 4752.95,842.531 4762.79,852.376C4772.64,862.222 4778.17,875.575 4778.17,889.498L4778.17,889.502C4778.17,918.496 4754.66,942 4725.67,942L4720.73,942C4692.33,942 4665.1,953.28 4645.02,973.36C4624.94,993.439 4613.66,1020.67 4613.66,1049.07L4613.66,1173.14C4613.66,1212.09 4598.19,1249.45 4570.65,1276.99C4543.1,1304.53 4505.75,1320 4466.8,1320L4044,1320L4044,1570L3914,1570L3914,1985L5130,1985L5130,942L4913.67,942C4899.74,942 4886.39,936.469 4876.55,926.624C4866.7,916.778 4861.17,903.425 4861.17,889.502L4861.17,889.498C4861.17,875.575 4866.7,862.222 4876.55,852.376C4886.39,842.531 4899.74,837 4913.67,837C4924.89,837 4936.59,837 4947.33,837C4958.34,837 4968.9,832.628 4976.68,824.846C4984.46,817.063 4988.83,806.508 4988.83,795.502C4988.83,795.501 4988.83,795.499 4988.83,795.498C4988.83,772.579 4970.25,754 4947.33,754L4495,754C4472.08,754 4453.5,772.579 4453.5,795.498L4453.5,795.5C4453.5,806.506 4457.87,817.062 4465.65,824.845C4473.44,832.628 4483.99,837 4495,837L4725.67,837Z" style="fill:rgb(15,18,35);"/>
            </g>
            <g transform="matrix(0.174911,0,0,0.236376,2208.3,1054.37)">
                <path d="M4704.5,762.5C4689.51,762.5 4675.14,756.548 4664.55,745.952C4653.95,735.357 4648,720.986 4648,706.002C4648,685.831 4648,668 4648,668L4620,668L4620,706.002C4620,720.986 4614.05,735.357 4603.45,745.952C4592.86,756.548 4578.49,762.5 4563.5,762.5C4563.5,762.5 4563.5,762.5 4563.5,762.5L4563.5,790.5L4563.5,790.5C4578.49,790.5 4592.86,796.452 4603.45,807.048C4614.05,817.643 4620,832.014 4620,846.998C4620,867.169 4620,885 4620,885L4648,885L4648,846.998C4648,832.014 4653.95,817.643 4664.55,807.048C4675.14,796.452 4689.51,790.5 4704.5,790.5C4704.5,790.5 4704.5,790.5 4704.5,790.5L4704.5,762.5L4704.5,762.5Z" style="fill:rgb(255,255,223);"/>
            </g>
            <g transform="matrix(0.174911,0,0,0.236376,2392.69,1103.66)">
                <path d="M4704.5,762.5C4689.51,762.5 4675.14,756.548 4664.55,745.952C4653.95,735.357 4648,720.986 4648,706.002C4648,685.831 4648,668 4648,668L4620,668L4620,706.002C4620,720.986 4614.05,735.357 4603.45,745.952C4592.86,756.548 4578.49,762.5 4563.5,762.5C4563.5,762.5 4563.5,762.5 4563.5,762.5L4563.5,790.5C4563.5,790.5 4563.5,790.5 4563.5,790.5C4578.49,790.5 4592.86,796.452 4603.45,807.048C4614.05,817.643 4620,832.014 4620,846.998C4620,867.169 4620,885 4620,885L4648,885L4648,846.998C4648,832.014 4653.95,817.643 4664.55,807.048C4675.14,796.452 4689.51,790.5 4704.5,790.5C4704.5,790.5 4704.5,790.5 4704.5,790.5L4704.5,762.5L4704.5,762.5Z" style="fill:rgb(255,255,223);"/>
            </g>
            <g transform="matrix(0.174911,0,0,0.236376,2195.97,848.593)">
                <path d="M4704.5,762.5C4689.51,762.5 4675.14,756.548 4664.55,745.952C4653.95,735.357 4648,720.986 4648,706.002C4648,685.831 4648,668 4648,668L4620,668L4620,706.002C4620,720.986 4614.05,735.357 4603.45,745.952C4592.86,756.548 4578.49,762.5 4563.5,762.5C4563.5,762.5 4563.5,762.5 4563.5,762.5L4563.5,790.5L4563.5,790.5C4578.49,790.5 4592.86,796.452 4603.45,807.048C4614.05,817.643 4620,832.014 4620,846.998C4620,867.169 4620,885 4620,885L4648,885L4648,846.998C4648,832.014 4653.95,817.643 4664.55,807.048C4675.14,796.452 4689.51,790.5 4704.5,790.5C4704.5,790.5 4704.5,790.5 4704.5,790.5L4704.5,762.5L4704.5,762.5Z" style="fill:rgb(255,255,223);"/>
            </g>
            <g transform="matrix(0.443061,0,0,0.598758,1039.31,684.16)">
                <rect x="4052" y="1050" width="465" height="83" style="fill:rgb(35,41,66);"/>
            </g>
            <g transform="matrix(0.443061,0,0,0.598758,1037.09,645.232)">
                <path d="M4144.83,1447.5C4144.83,1469.32 4162.52,1487 4184.33,1487L4781.58,1487C4804.5,1487 4823.08,1505.58 4823.08,1528.5L4823.08,1528.5C4823.08,1539.51 4818.71,1550.06 4810.93,1557.85C4803.15,1565.63 4792.59,1570 4781.58,1570L4760.43,1570C4733.43,1570 4711.54,1591.89 4711.54,1618.89L4711.54,1625.11C4711.54,1652.11 4733.43,1674 4760.43,1674C4813.51,1674 4897.35,1674 4947.33,1674C4958.34,1674 4968.9,1678.37 4976.68,1686.15C4984.46,1693.94 4988.83,1704.49 4988.83,1715.5L4988.83,1715.5C4988.83,1726.51 4984.46,1737.06 4976.68,1744.85C4968.9,1752.63 4958.34,1757 4947.33,1757L4392.75,1757C4369.83,1757 4351.25,1738.42 4351.25,1715.5L4351.25,1715.5C4351.25,1692.58 4369.83,1674 4392.75,1674L4579.65,1674C4606.65,1674 4628.54,1652.11 4628.54,1625.11C4628.54,1623.04 4628.54,1620.96 4628.54,1618.89C4628.54,1591.89 4606.65,1570 4579.65,1570C4418.46,1570 3914,1570 3914,1570L3914,837L4079.06,837C4176.34,837 4255.2,915.858 4255.2,1013.13L4255.2,1018.93C4255.2,1044.41 4265.32,1068.85 4283.34,1086.87C4301.36,1104.89 4325.8,1115.02 4351.28,1115.02L4354.55,1115.02C4373.34,1115.02 4391.37,1122.48 4404.67,1135.78C4417.96,1149.07 4425.43,1167.1 4425.43,1185.89L4425.43,1219.31C4425.43,1270.93 4466.51,1313.17 4518.11,1314.61C4568.54,1316.02 4628.55,1317.69 4668.21,1318.79C4692.33,1319.46 4711.54,1339.21 4711.54,1363.35C4711.54,1363.35 4711.54,1363.35 4711.54,1363.35C4711.54,1388.01 4691.55,1408 4666.89,1408L4184.33,1408C4162.52,1408 4144.83,1425.68 4144.83,1447.5L4144.83,1447.5Z" style="fill:rgb(26,30,52);"/>
            </g>
            <g transform="matrix(0.443061,0,0,0.598758,1047.95,644.634)">
                <circle cx="4161" cy="838" r="164" style="fill:rgb(42,52,84);"/>
            </g>
            <g transform="matrix(-0.2523,0.151646,0.112213,0.340961,4098.88,294.348)">
                <path d="M4746.51,340.291C4744.86,330.602 4744,320.65 4744,310.5C4744,213.087 4823.09,134 4920.5,134C5017.91,134 5097,213.087 5097,310.5C5097,407.913 5017.91,487 4920.5,487C4910.35,487 4900.4,486.141 4890.71,484.492C4946.21,473.057 4988,423.87 4988,365C4988,297.666 4933.33,243 4866,243C4807.13,243 4757.94,284.787 4746.51,340.291Z" style="fill:rgb(255,255,223);"/>
            </g>
        </g>
    </g>
</svg>
