<?xml version="1.0" encoding="UTF-8" standalone="no"?>
<!DOCTYPE svg PUBLIC "-//W3C//DTD SVG 1.1//EN" "http://www.w3.org/Graphics/SVG/1.1/DTD/svg11.dtd">
<svg width="100%" height="100%" viewBox="0 0 423 791" version="1.1" xmlns="http://www.w3.org/2000/svg" xmlns:xlink="http://www.w3.org/1999/xlink" xml:space="preserve" xmlns:serif="http://www.serif.com/" style="fill-rule:evenodd;clip-rule:evenodd;stroke-linejoin:round;stroke-miterlimit:2;">
    <g transform="matrix(1,0,0,1,-13644.2,-4740.49)">
        <g id="Artboard2" transform="matrix(1.71188,0,0,1.32355,-925.66,68.3647)">
            <rect x="8511" y="3530" width="247" height="597" style="fill:none;"/>
            <clipPath id="_clip1">
                <rect x="8511" y="3530" width="247" height="597"/>
            </clipPath>
            <g clip-path="url(#_clip1)">
                <g transform="matrix(1.41841,0,0,1.00635,5832.37,1423.66)">
                    <g transform="matrix(0.411835,0,0,0.750781,-9.67813,1198.25)">
                        <rect x="4609" y="1192" width="423" height="788" style="fill:rgb(255,242,211);"/>
                    </g>
                    <g transform="matrix(0.0770408,0,0,0.100041,1568.79,1991.95)">
                        <rect x="4609" y="1192" width="423" height="788" style="fill:rgb(230,254,255);"/>
                        <clipPath id="_clip2">
                            <rect x="4609" y="1192" width="423" height="788"/>
                        </clipPath>
                        <g clip-path="url(#_clip2)">
                            <g transform="matrix(1.92725,0,3.35093,7.50476,-8545.79,-7933.79)">
                                <rect x="4621" y="1208" width="42" height="120" style="fill:rgb(105,208,220);fill-opacity:0.45;"/>
                            </g>
                            <g transform="matrix(5.03571,0,3.35093,7.50476,-22739,-7933.79)">
                                <rect x="4621" y="1208" width="42" height="120" style="fill:rgb(105,208,220);fill-opacity:0.45;"/>
                            </g>
                        </g>
                    </g>
                    <g transform="matrix(0.0770408,0,0,0.100041,1675.01,1991.95)">
                        <rect x="4609" y="1192" width="423" height="788" style="fill:rgb(230,254,255);"/>
                        <clipPath id="_clip3">
                            <rect x="4609" y="1192" width="423" height="788"/>
                        </clipPath>
                        <g clip-path="url(#_clip3)">
                            <g transform="matrix(1.92725,0,3.35093,7.50476,-8545.79,-7933.79)">
                                <rect x="4621" y="1208" width="42" height="120" style="fill:rgb(105,208,220);fill-opacity:0.45;"/>
                            </g>
                            <g transform="matrix(5.03571,0,3.35093,7.50476,-22739,-7933.79)">
                                <rect x="4621" y="1208" width="42" height="120" style="fill:rgb(105,208,220);fill-opacity:0.45;"/>
                            </g>
                        </g>
                    </g>
                    <g transform="matrix(0.169354,0,0,0.731023,1107.12,1223.59)">
                        <rect x="4613.7" y="1283" width="418.113" height="38" style="fill:rgb(221,209,195);"/>
                    </g>
                    <g transform="matrix(0.00665784,0,0,0.100041,1890.37,1991.95)">
                        <rect x="4609" y="1192" width="423" height="788" style="fill:rgb(127,155,120);"/>
                    </g>
                    <g transform="matrix(0.00665784,0,0,0.100041,1925.78,1991.95)">
                        <rect x="4609" y="1192" width="423" height="788" style="fill:rgb(127,155,120);"/>
                    </g>
                    <g transform="matrix(4.07675e-19,0.0121373,-0.0449296,5.01537e-18,2011.43,2105.56)">
                        <rect x="4609" y="1192" width="423" height="788" style="fill:rgb(127,155,120);"/>
                    </g>
                    <g transform="matrix(0.00665784,0,0,0.100041,1996.59,1991.95)">
                        <rect x="4609" y="1192" width="423" height="788" style="fill:rgb(127,155,120);"/>
                    </g>
                    <g transform="matrix(0.0770408,0,0,0.100041,1675.01,2088.05)">
                        <rect x="4609" y="1192" width="423" height="788" style="fill:rgb(230,254,255);"/>
                        <clipPath id="_clip4">
                            <rect x="4609" y="1192" width="423" height="788"/>
                        </clipPath>
                        <g clip-path="url(#_clip4)">
                            <g transform="matrix(1.92725,0,3.35093,7.50476,-8545.79,-7933.79)">
                                <rect x="4621" y="1208" width="42" height="120" style="fill:rgb(105,208,220);fill-opacity:0.45;"/>
                            </g>
                            <g transform="matrix(5.03571,0,3.35093,7.50476,-22739,-7933.79)">
                                <rect x="4621" y="1208" width="42" height="120" style="fill:rgb(105,208,220);fill-opacity:0.45;"/>
                            </g>
                        </g>
                    </g>
                    <g transform="matrix(0.0770408,0,0,0.100041,1568.79,2088.05)">
                        <rect x="4609" y="1192" width="423" height="788" style="fill:rgb(230,254,255);"/>
                        <clipPath id="_clip5">
                            <rect x="4609" y="1192" width="423" height="788"/>
                        </clipPath>
                        <g clip-path="url(#_clip5)">
                            <g transform="matrix(1.92725,0,3.35093,7.50476,-8545.79,-7933.79)">
                                <rect x="4621" y="1208" width="42" height="120" style="fill:rgb(105,208,220);fill-opacity:0.45;"/>
                            </g>
                            <g transform="matrix(5.03571,0,3.35093,7.50476,-22739,-7933.79)">
                                <rect x="4621" y="1208" width="42" height="120" style="fill:rgb(105,208,220);fill-opacity:0.45;"/>
                            </g>
                        </g>
                    </g>
                    <g transform="matrix(0.169354,0,0,0.770538,1107.12,1269)">
                        <rect x="4613.7" y="1283" width="418.113" height="38" style="fill:rgb(221,209,195);"/>
                    </g>
                    <g transform="matrix(0.00665784,0,0,0.100041,1890.37,2088.05)">
                        <rect x="4609" y="1192" width="423" height="788" style="fill:rgb(127,155,120);"/>
                    </g>
                    <g transform="matrix(-0.00665784,0,0,0.100041,2060.77,2088.05)">
                        <rect x="4609" y="1192" width="423" height="788" style="fill:rgb(127,155,120);"/>
                    </g>
                    <g transform="matrix(-0.00665784,0,0,0.100041,1989.96,2088.05)">
                        <rect x="4609" y="1192" width="423" height="788" style="fill:rgb(127,155,120);"/>
                    </g>
                    <g transform="matrix(0.0770408,0,0,0.100041,1568.79,2184.9)">
                        <rect x="4609" y="1192" width="423" height="788" style="fill:rgb(230,254,255);"/>
                        <clipPath id="_clip6">
                            <rect x="4609" y="1192" width="423" height="788"/>
                        </clipPath>
                        <g clip-path="url(#_clip6)">
                            <g transform="matrix(1.92725,0,3.35093,7.50476,-8545.79,-7933.79)">
                                <rect x="4621" y="1208" width="42" height="120" style="fill:rgb(105,208,220);fill-opacity:0.45;"/>
                            </g>
                            <g transform="matrix(5.03571,0,3.35093,7.50476,-22739,-7933.79)">
                                <rect x="4621" y="1208" width="42" height="120" style="fill:rgb(105,208,220);fill-opacity:0.45;"/>
                            </g>
                        </g>
                    </g>
                    <g transform="matrix(0.0770408,0,0,0.100041,1675.01,2184.9)">
                        <rect x="4609" y="1192" width="423" height="788" style="fill:rgb(230,254,255);"/>
                        <clipPath id="_clip7">
                            <rect x="4609" y="1192" width="423" height="788"/>
                        </clipPath>
                        <g clip-path="url(#_clip7)">
                            <g transform="matrix(1.92725,0,3.35093,7.50476,-8545.79,-7933.79)">
                                <rect x="4621" y="1208" width="42" height="120" style="fill:rgb(105,208,220);fill-opacity:0.45;"/>
                            </g>
                            <g transform="matrix(5.03571,0,3.35093,7.50476,-22739,-7933.79)">
                                <rect x="4621" y="1208" width="42" height="120" style="fill:rgb(105,208,220);fill-opacity:0.45;"/>
                            </g>
                        </g>
                    </g>
                    <g transform="matrix(0.169354,0,0,0.750781,1107.12,1391.2)">
                        <rect x="4613.7" y="1283" width="418.113" height="38" style="fill:rgb(221,209,195);"/>
                    </g>
                    <g transform="matrix(0.00665784,0,0,0.100041,1890.37,2184.9)">
                        <rect x="4609" y="1192" width="423" height="788" style="fill:rgb(127,155,120);"/>
                    </g>
                    <g transform="matrix(0.00665784,0,0,0.100041,1925.78,2184.9)">
                        <rect x="4609" y="1192" width="423" height="788" style="fill:rgb(127,155,120);"/>
                    </g>
                    <g transform="matrix(0.00665784,0,0,0.100041,1996.59,2184.9)">
                        <rect x="4609" y="1192" width="423" height="788" style="fill:rgb(127,155,120);"/>
                    </g>
                    <g transform="matrix(0.0770408,0,0,0.100041,1675.01,2281.75)">
                        <rect x="4609" y="1192" width="423" height="788" style="fill:rgb(230,254,255);"/>
                        <clipPath id="_clip8">
                            <rect x="4609" y="1192" width="423" height="788"/>
                        </clipPath>
                        <g clip-path="url(#_clip8)">
                            <g transform="matrix(1.92725,0,3.35093,7.50476,-8545.79,-7933.79)">
                                <rect x="4621" y="1208" width="42" height="120" style="fill:rgb(105,208,220);fill-opacity:0.45;"/>
                            </g>
                            <g transform="matrix(5.03571,0,3.35093,7.50476,-22739,-7933.79)">
                                <rect x="4621" y="1208" width="42" height="120" style="fill:rgb(105,208,220);fill-opacity:0.45;"/>
                            </g>
                        </g>
                    </g>
                    <g transform="matrix(0.0770408,0,0,0.100041,1568.79,2281.75)">
                        <rect x="4609" y="1192" width="423" height="788" style="fill:rgb(230,254,255);"/>
                        <clipPath id="_clip9">
                            <rect x="4609" y="1192" width="423" height="788"/>
                        </clipPath>
                        <g clip-path="url(#_clip9)">
                            <g transform="matrix(1.92725,0,3.35093,7.50476,-8545.79,-7933.79)">
                                <rect x="4621" y="1208" width="42" height="120" style="fill:rgb(105,208,220);fill-opacity:0.45;"/>
                            </g>
                            <g transform="matrix(5.03571,0,3.35093,7.50476,-22739,-7933.79)">
                                <rect x="4621" y="1208" width="42" height="120" style="fill:rgb(105,208,220);fill-opacity:0.45;"/>
                            </g>
                        </g>
                    </g>
                    <g transform="matrix(0.169354,0,0,0.750781,1107.12,1488.8)">
                        <rect x="4613.7" y="1283" width="418.113" height="38" style="fill:rgb(221,209,195);"/>
                    </g>
                    <g transform="matrix(0.0770408,0,0,0.100041,1568.79,2378.6)">
                        <rect x="4609" y="1192" width="423" height="788" style="fill:rgb(230,254,255);"/>
                        <clipPath id="_clip10">
                            <rect x="4609" y="1192" width="423" height="788"/>
                        </clipPath>
                        <g clip-path="url(#_clip10)">
                            <g transform="matrix(1.92725,0,3.35093,7.50476,-8545.79,-7933.79)">
                                <rect x="4621" y="1208" width="42" height="120" style="fill:rgb(105,208,220);fill-opacity:0.45;"/>
                            </g>
                            <g transform="matrix(5.03571,0,3.35093,7.50476,-22739,-7933.79)">
                                <rect x="4621" y="1208" width="42" height="120" style="fill:rgb(105,208,220);fill-opacity:0.45;"/>
                            </g>
                        </g>
                    </g>
                    <g transform="matrix(0.00665784,0,0,0.100041,1890.37,2281.75)">
                        <rect x="4609" y="1192" width="423" height="788" style="fill:rgb(127,155,120);"/>
                    </g>
                    <g transform="matrix(-0.00665784,0,0,0.100041,2060.77,2281.75)">
                        <rect x="4609" y="1192" width="423" height="788" style="fill:rgb(127,155,120);"/>
                    </g>
                    <g transform="matrix(-0.00665784,0,0,0.100041,1989.96,2281.75)">
                        <rect x="4609" y="1192" width="423" height="788" style="fill:rgb(127,155,120);"/>
                    </g>
                    <g transform="matrix(0.0770408,0,0,0.100041,1675.01,2378.6)">
                        <rect x="4609" y="1192" width="423" height="788" style="fill:rgb(230,254,255);"/>
                        <clipPath id="_clip11">
                            <rect x="4609" y="1192" width="423" height="788"/>
                        </clipPath>
                        <g clip-path="url(#_clip11)">
                            <g transform="matrix(1.92725,0,3.35093,7.50476,-8545.79,-7933.79)">
                                <rect x="4621" y="1208" width="42" height="120" style="fill:rgb(105,208,220);fill-opacity:0.45;"/>
                            </g>
                            <g transform="matrix(5.03571,0,3.35093,7.50476,-22739,-7933.79)">
                                <rect x="4621" y="1208" width="42" height="120" style="fill:rgb(105,208,220);fill-opacity:0.45;"/>
                            </g>
                        </g>
                    </g>
                    <g transform="matrix(0.169354,0,0,0.731023,1107.12,1610.25)">
                        <rect x="4613.7" y="1283" width="418.113" height="38" style="fill:rgb(221,209,195);"/>
                    </g>
                    <g transform="matrix(0.0779412,0,0,0.731023,1670.49,1223.59)">
                        <rect x="4613.7" y="1283" width="418.113" height="38" style="fill:rgb(221,209,195);"/>
                    </g>
                    <g transform="matrix(0.0779412,0,0,0.770538,1670.49,1269)">
                        <rect x="4613.7" y="1283" width="418.113" height="38" style="fill:rgb(221,209,195);"/>
                    </g>
                    <g transform="matrix(0.0779412,0,0,0.750781,1670.49,1391.2)">
                        <rect x="4613.7" y="1283" width="418.113" height="38" style="fill:rgb(221,209,195);"/>
                    </g>
                    <g transform="matrix(0.0779412,0,0,0.750781,1670.49,1488.8)">
                        <rect x="4613.7" y="1283" width="418.113" height="38" style="fill:rgb(221,209,195);"/>
                    </g>
                    <g transform="matrix(0.0779412,0,0,0.731023,1670.49,1610.25)">
                        <rect x="4613.7" y="1283" width="418.113" height="38" style="fill:rgb(221,209,195);"/>
                    </g>
                    <g transform="matrix(0.00665784,0,0,0.100041,1890.37,2378.6)">
                        <rect x="4609" y="1192" width="423" height="788" style="fill:rgb(127,155,120);"/>
                    </g>
                    <g transform="matrix(0.00665784,0,0,0.100041,1925.78,2378.6)">
                        <rect x="4609" y="1192" width="423" height="788" style="fill:rgb(127,155,120);"/>
                    </g>
                    <g transform="matrix(0.00665784,0,0,0.100041,1996.59,2378.6)">
                        <rect x="4609" y="1192" width="423" height="788" style="fill:rgb(127,155,120);"/>
                    </g>
                    <g transform="matrix(0.411835,0,0,-0.116238,-9.67813,2824.85)">
                        <rect x="4609" y="1192" width="423" height="788" style="fill:rgb(164,140,96);"/>
                    </g>
                    <g transform="matrix(0.411835,0,0,0.0228664,-9.67813,2065.92)">
                        <rect x="4609" y="1192" width="423" height="788" style="fill:rgb(136,79,69);"/>
                    </g>
                    <g transform="matrix(0.00665784,0,0,0.132435,1890.37,2424.07)">
                        <rect x="4609" y="1192" width="423" height="788" style="fill:rgb(136,79,69);"/>
                    </g>
                    <g transform="matrix(0.00665784,0,0,0.132435,1925.78,2424.07)">
                        <rect x="4609" y="1192" width="423" height="788" style="fill:rgb(136,79,69);"/>
                    </g>
                    <g transform="matrix(0.00665784,0,0,0.132435,1961.18,2424.07)">
                        <rect x="4609" y="1192" width="423" height="788" style="fill:rgb(136,79,69);"/>
                    </g>
                    <g transform="matrix(0.00665784,0,0,0.132435,1996.59,2424.07)">
                        <rect x="4609" y="1192" width="423" height="788" style="fill:rgb(136,79,69);"/>
                    </g>
                    <g transform="matrix(4.07675e-19,0.0121373,-0.0449296,5.01537e-18,2011.43,2201.66)">
                        <rect x="4609" y="1192" width="423" height="788" style="fill:rgb(127,155,120);"/>
                    </g>
                    <g transform="matrix(4.07675e-19,0.0121373,-0.0440361,4.91563e-18,2115.17,2105.99)">
                        <rect x="4609" y="1192" width="423" height="788" style="fill:rgb(127,155,120);"/>
                    </g>
                    <g transform="matrix(4.07675e-19,0.0121373,-0.0449296,5.01537e-18,2011.43,2298.82)">
                        <rect x="4609" y="1192" width="423" height="788" style="fill:rgb(127,155,120);"/>
                    </g>
                    <g transform="matrix(4.07675e-19,0.0121373,-0.0440361,4.91563e-18,2115.17,2298.82)">
                        <rect x="4609" y="1192" width="423" height="788" style="fill:rgb(127,155,120);"/>
                    </g>
                    <g transform="matrix(4.07675e-19,0.0121373,-0.0449296,5.01537e-18,2011.43,2492.21)">
                        <rect x="4609" y="1192" width="423" height="788" style="fill:rgb(127,155,120);"/>
                    </g>
                    <g transform="matrix(4.07675e-19,0.0121373,-0.0440361,4.91563e-18,2115.17,2492.65)">
                        <rect x="4609" y="1192" width="423" height="788" style="fill:rgb(127,155,120);"/>
                    </g>
                    <g transform="matrix(4.07675e-19,0.0121373,-0.0413556,4.61642e-18,2111.97,2201.66)">
                        <rect x="4609" y="1192" width="423" height="788" style="fill:rgb(127,155,120);"/>
                    </g>
                    <g transform="matrix(4.07675e-19,0.0121373,-0.0449296,5.01537e-18,2011.43,2396.55)">
                        <rect x="4609" y="1192" width="423" height="788" style="fill:rgb(127,155,120);"/>
                    </g>
                    <g transform="matrix(4.07675e-19,0.0121373,-0.0431426,4.81589e-18,2114.1,2396.55)">
                        <rect x="4609" y="1192" width="423" height="788" style="fill:rgb(127,155,120);"/>
                    </g>
                    <g transform="matrix(0.262342,0,0,4.48303,1125.66,-3345.4)">
                        <rect x="3224" y="1217" width="166" height="104" style="fill:rgb(164,140,96);"/>
                    </g>
                    <g transform="matrix(0.411835,0,0,0.0228664,-9.67813,2162.02)">
                        <rect x="4609" y="1192" width="423" height="788" style="fill:rgb(136,79,69);"/>
                    </g>
                    <g transform="matrix(0.411835,0,0,0.0228664,-9.67813,2258.87)">
                        <rect x="4609" y="1192" width="423" height="788" style="fill:rgb(136,79,69);"/>
                    </g>
                    <g transform="matrix(0.411835,0,0,0.0228664,-9.67813,2355.72)">
                        <rect x="4609" y="1192" width="423" height="788" style="fill:rgb(136,79,69);"/>
                    </g>
                    <g transform="matrix(0.411835,0,0,0.0228664,-9.67813,2452.57)">
                        <rect x="4609" y="1192" width="423" height="788" style="fill:rgb(136,79,69);"/>
                    </g>
                    <g transform="matrix(0.411835,0,0,0.0228664,-9.67813,2549.42)">
                        <rect x="4609" y="1192" width="423" height="788" style="fill:rgb(136,79,69);"/>
                    </g>
                </g>
            </g>
        </g>
    </g>
</svg>
