<?xml version="1.0" encoding="UTF-8" standalone="no"?>
<!DOCTYPE svg PUBLIC "-//W3C//DTD SVG 1.1//EN" "http://www.w3.org/Graphics/SVG/1.1/DTD/svg11.dtd">
<svg width="100%" height="100%" viewBox="0 0 423 791" version="1.1" xmlns="http://www.w3.org/2000/svg" xmlns:xlink="http://www.w3.org/1999/xlink" xml:space="preserve" xmlns:serif="http://www.serif.com/" style="fill-rule:evenodd;clip-rule:evenodd;stroke-linejoin:round;stroke-miterlimit:2;">
    <g transform="matrix(1,0,0,1,-17338,-3746.49)">
        <g id="Artboard2" transform="matrix(1.71188,0,0,1.32355,2768.21,-925.635)">
            <rect x="8511" y="3530" width="247" height="597" style="fill:none;"/>
            <clipPath id="_clip1">
                <rect x="8511" y="3530" width="247" height="597"/>
            </clipPath>
            <g clip-path="url(#_clip1)">
                <g transform="matrix(0.584153,0,0,0.860738,5048.39,2302.1)">
                    <rect x="5946" y="1521" width="386" height="492"/>
                    <clipPath id="_clip2">
                        <rect x="5946" y="1521" width="386" height="492"/>
                    </clipPath>
                    <g clip-path="url(#_clip2)">
                        <g transform="matrix(1,0,0,0.877788,-11410.5,-1862.05)">
                            <rect x="17209" y="3844.98" width="699" height="583.017" style="fill:rgb(49,0,79);fill-opacity:0.7;"/>
                        </g>
                    </g>
                </g>
                <g transform="matrix(0.530379,0,0,0.755546,6077.24,2666.02)">
                    <rect x="4609" y="1279" width="425.136" height="8" style="fill:rgb(186,144,255);"/>
                </g>
                <g transform="matrix(0.530379,0,0,0.755546,6077.24,2764.03)">
                    <rect x="4609" y="1279" width="425.136" height="8" style="fill:rgb(186,144,255);"/>
                </g>
                <g transform="matrix(0.530379,0,0,0.755546,6077.24,2861.61)">
                    <rect x="4609" y="1279" width="425.136" height="8" style="fill:rgb(186,144,255);"/>
                </g>
                <g transform="matrix(0.530379,0,0,0.755546,6077.24,2958.87)">
                    <rect x="4609" y="1279" width="425.136" height="8" style="fill:rgb(186,144,255);"/>
                </g>
                <g transform="matrix(0.530379,0,0,0.755546,6077.24,3055.94)">
                    <rect x="4609" y="1279" width="425.136" height="8" style="fill:rgb(186,144,255);"/>
                </g>
                <g transform="matrix(0.584153,0,0,0.755546,5047.35,2465.88)">
                    <path d="M6352.27,2196.49L6352.27,2076.49L5929.27,2076.49L5929.27,2196.49L6352.27,2196.49ZM6352.27,1947.49L5929.27,1947.49L5929.27,2052.49L6352.27,2052.49L6352.27,1947.49ZM6352.27,1818.49L5929.27,1818.49L5929.27,1923.49L6352.27,1923.49L6352.27,1818.49ZM6352.27,1689.49L5929.27,1689.49L5929.27,1794.49L6352.27,1794.49L6352.27,1689.49ZM6352.27,1560.49L5929.27,1560.49L5929.27,1665.49L6352.27,1665.49L6352.27,1560.49ZM5929.27,1432.48L5929.27,1536.49L6352.27,1536.49L6352.27,1432.48L5929.27,1432.48Z" style="fill:rgb(59,59,59);"/>
                </g>
                <g transform="matrix(0.584153,0,0,-0.116975,5818.59,4266.38)">
                    <rect x="4609" y="1192" width="423" height="788" style="fill:rgb(28,23,37);"/>
                </g>
                <g transform="matrix(0.584153,0,0,0.0230115,5818.59,3502.63)">
                    <path d="M5032,1979.93C5032,1770.96 5029.47,1570.55 5024.97,1422.78C5020.47,1275.01 5014.37,1192 5008,1192C4933.61,1192 4707.39,1192 4633,1192C4626.63,1192 4620.53,1275.01 4616.03,1422.78C4611.53,1570.55 4609,1770.96 4609,1979.93C4609,1979.98 4609,1980 4609,1980L5032,1980L5032,1979.93Z"/>
                </g>
                <g transform="matrix(0.00944358,0,0,0.116975,8513.65,3895.33)">
                    <rect x="4609" y="1192" width="423" height="788" style="fill-opacity:0.38;"/>
                </g>
                <g transform="matrix(0.00944358,0,0,0.116975,8563.87,3895.33)">
                    <rect x="4609" y="1192" width="423" height="788" style="fill-opacity:0.38;"/>
                </g>
                <g transform="matrix(0.00944358,0,0,0.116975,8614.09,3895.33)">
                    <rect x="4609" y="1192" width="423" height="788" style="fill-opacity:0.38;"/>
                </g>
                <g transform="matrix(0.00944358,0,0,0.116975,8664.3,3895.33)">
                    <rect x="4609" y="1192" width="423" height="788" style="fill-opacity:0.38;"/>
                </g>
                <g transform="matrix(1.41841,0,0,1.00635,7630.63,2629.45)">
                    <g transform="matrix(0.441029,0,0,0.750781,-56.3432,-6.00625)">
                        <rect x="1535" y="1247" width="395" height="43.419" style="fill:rgb(34,243,255);"/>
                        <clipPath id="_clip3">
                            <rect x="1535" y="1247" width="395" height="43.419"/>
                        </clipPath>
                        <g clip-path="url(#_clip3)">
                            <g transform="matrix(0.33666,0,0.585354,1,-727.814,14)">
                                <rect x="4621" y="1208" width="42" height="120" style="fill:rgb(250,255,255);"/>
                            </g>
                            <g transform="matrix(0.87966,0,0.585354,1,-3207.14,14)">
                                <rect x="4621" y="1208" width="42" height="120" style="fill:rgb(250,255,255);"/>
                            </g>
                            <g transform="matrix(0.33666,0,0.585354,1,-566.265,14)">
                                <rect x="4621" y="1208" width="42" height="120" style="fill:rgb(250,255,255);"/>
                            </g>
                            <g transform="matrix(0.87966,0,0.585354,1,-3045.59,14)">
                                <rect x="4621" y="1208" width="42" height="120" style="fill:rgb(250,255,255);"/>
                            </g>
                        </g>
                    </g>
                    <g transform="matrix(0.409766,0,0,0.750781,-1267.98,-36.0375)">
                        <rect x="4609" y="1279" width="425.136" height="8" style="fill-opacity:0.7;"/>
                    </g>
                    <g transform="matrix(0.409766,0,0,0.750781,-1267.98,2.56705)">
                        <rect x="4609" y="1279" width="425.136" height="8" style="fill-opacity:0.7;"/>
                    </g>
                    <g transform="matrix(3.28728e-18,0.0978691,-0.411835,4.59721e-17,1181.35,474.416)">
                        <rect x="4609" y="1279" width="425.136" height="8" style="fill-opacity:0.7;"/>
                    </g>
                    <g transform="matrix(3.28728e-18,0.0978691,-0.411835,4.59721e-17,1208.74,474.852)">
                        <rect x="4609" y="1279" width="425.136" height="8" style="fill-opacity:0.7;"/>
                    </g>
                    <g transform="matrix(3.28728e-18,0.0978691,-0.411835,4.59721e-17,1236.12,474.852)">
                        <rect x="4609" y="1279" width="425.136" height="8" style="fill-opacity:0.7;"/>
                    </g>
                    <g transform="matrix(3.28728e-18,0.0978691,-0.411835,4.59721e-17,1263.51,474.852)">
                        <rect x="4609" y="1279" width="425.136" height="8" style="fill-opacity:0.7;"/>
                    </g>
                    <g transform="matrix(3.28728e-18,0.0978691,-0.411835,4.59721e-17,1290.9,473.133)">
                        <rect x="4609" y="1279" width="425.136" height="8" style="fill-opacity:0.7;"/>
                    </g>
                    <g transform="matrix(3.28728e-18,0.0978691,-0.411835,4.59721e-17,1321.58,474.852)">
                        <rect x="4609" y="1279" width="425.136" height="8" style="fill-opacity:0.7;"/>
                    </g>
                    <g transform="matrix(3.28728e-18,0.0978691,-0.411835,4.59721e-17,1150.67,476.136)">
                        <rect x="4609" y="1279" width="425.136" height="8" style="fill-opacity:0.7;"/>
                    </g>
                </g>
                <g transform="matrix(1.41841,0,0,1.00635,7630.63,2729.83)">
                    <g transform="matrix(0.441029,0,0,0.750781,-56.3432,-6.00625)">
                        <rect x="1535" y="1247" width="395" height="43.419" style="fill:rgb(34,243,255);"/>
                        <clipPath id="_clip4">
                            <rect x="1535" y="1247" width="395" height="43.419"/>
                        </clipPath>
                        <g clip-path="url(#_clip4)">
                            <g transform="matrix(0.33666,0,0.585354,1,-727.814,14)">
                                <rect x="4621" y="1208" width="42" height="120" style="fill:rgb(250,255,255);"/>
                            </g>
                            <g transform="matrix(0.87966,0,0.585354,1,-3207.14,14)">
                                <rect x="4621" y="1208" width="42" height="120" style="fill:rgb(250,255,255);"/>
                            </g>
                            <g transform="matrix(0.33666,0,0.585354,1,-566.265,14)">
                                <rect x="4621" y="1208" width="42" height="120" style="fill:rgb(250,255,255);"/>
                            </g>
                            <g transform="matrix(0.87966,0,0.585354,1,-3045.59,14)">
                                <rect x="4621" y="1208" width="42" height="120" style="fill:rgb(250,255,255);"/>
                            </g>
                        </g>
                    </g>
                    <g transform="matrix(0.409766,0,0,0.750781,-1267.98,-36.0375)">
                        <rect x="4609" y="1279" width="425.136" height="8" style="fill-opacity:0.7;"/>
                    </g>
                    <g transform="matrix(0.409766,0,0,0.750781,-1267.98,2.56705)">
                        <rect x="4609" y="1279" width="425.136" height="8" style="fill-opacity:0.7;"/>
                    </g>
                    <g transform="matrix(3.28728e-18,0.0978691,-0.411835,4.59721e-17,1181.35,474.416)">
                        <rect x="4609" y="1279" width="425.136" height="8" style="fill-opacity:0.7;"/>
                    </g>
                    <g transform="matrix(3.28728e-18,0.0978691,-0.411835,4.59721e-17,1208.74,474.852)">
                        <rect x="4609" y="1279" width="425.136" height="8" style="fill-opacity:0.7;"/>
                    </g>
                    <g transform="matrix(3.28728e-18,0.0978691,-0.411835,4.59721e-17,1236.12,474.852)">
                        <rect x="4609" y="1279" width="425.136" height="8" style="fill-opacity:0.7;"/>
                    </g>
                    <g transform="matrix(3.28728e-18,0.0978691,-0.411835,4.59721e-17,1263.51,474.852)">
                        <rect x="4609" y="1279" width="425.136" height="8" style="fill-opacity:0.7;"/>
                    </g>
                    <g transform="matrix(3.28728e-18,0.0978691,-0.411835,4.59721e-17,1290.9,473.133)">
                        <rect x="4609" y="1279" width="425.136" height="8" style="fill-opacity:0.7;"/>
                    </g>
                    <g transform="matrix(3.28728e-18,0.0978691,-0.411835,4.59721e-17,1321.58,474.852)">
                        <rect x="4609" y="1279" width="425.136" height="8" style="fill-opacity:0.7;"/>
                    </g>
                    <g transform="matrix(3.28728e-18,0.0978691,-0.411835,4.59721e-17,1150.67,476.136)">
                        <rect x="4609" y="1279" width="425.136" height="8" style="fill-opacity:0.7;"/>
                    </g>
                </g>
                <g transform="matrix(1.41841,0,0,1.00635,7630.63,2827.84)">
                    <g transform="matrix(0.441029,0,0,0.750781,-56.3432,-6.00625)">
                        <rect x="1535" y="1247" width="395" height="43.419" style="fill:rgb(34,243,255);"/>
                        <clipPath id="_clip5">
                            <rect x="1535" y="1247" width="395" height="43.419"/>
                        </clipPath>
                        <g clip-path="url(#_clip5)">
                            <g transform="matrix(0.33666,0,0.585354,1,-727.814,14)">
                                <rect x="4621" y="1208" width="42" height="120" style="fill:rgb(250,255,255);"/>
                            </g>
                            <g transform="matrix(0.87966,0,0.585354,1,-3207.14,14)">
                                <rect x="4621" y="1208" width="42" height="120" style="fill:rgb(250,255,255);"/>
                            </g>
                            <g transform="matrix(0.33666,0,0.585354,1,-566.265,14)">
                                <rect x="4621" y="1208" width="42" height="120" style="fill:rgb(250,255,255);"/>
                            </g>
                            <g transform="matrix(0.87966,0,0.585354,1,-3045.59,14)">
                                <rect x="4621" y="1208" width="42" height="120" style="fill:rgb(250,255,255);"/>
                            </g>
                        </g>
                    </g>
                    <g transform="matrix(0.409766,0,0,0.750781,-1267.98,-36.0375)">
                        <rect x="4609" y="1279" width="425.136" height="8" style="fill-opacity:0.7;"/>
                    </g>
                    <g transform="matrix(0.409766,0,0,0.750781,-1267.98,2.56705)">
                        <rect x="4609" y="1279" width="425.136" height="8" style="fill-opacity:0.7;"/>
                    </g>
                    <g transform="matrix(3.28728e-18,0.0978691,-0.411835,4.59721e-17,1181.35,474.416)">
                        <rect x="4609" y="1279" width="425.136" height="8" style="fill-opacity:0.7;"/>
                    </g>
                    <g transform="matrix(3.28728e-18,0.0978691,-0.411835,4.59721e-17,1208.74,474.852)">
                        <rect x="4609" y="1279" width="425.136" height="8" style="fill-opacity:0.7;"/>
                    </g>
                    <g transform="matrix(3.28728e-18,0.0978691,-0.411835,4.59721e-17,1236.12,474.852)">
                        <rect x="4609" y="1279" width="425.136" height="8" style="fill-opacity:0.7;"/>
                    </g>
                    <g transform="matrix(3.28728e-18,0.0978691,-0.411835,4.59721e-17,1263.51,474.852)">
                        <rect x="4609" y="1279" width="425.136" height="8" style="fill-opacity:0.7;"/>
                    </g>
                    <g transform="matrix(3.28728e-18,0.0978691,-0.411835,4.59721e-17,1290.9,473.133)">
                        <rect x="4609" y="1279" width="425.136" height="8" style="fill-opacity:0.7;"/>
                    </g>
                    <g transform="matrix(3.28728e-18,0.0978691,-0.411835,4.59721e-17,1321.58,474.852)">
                        <rect x="4609" y="1279" width="425.136" height="8" style="fill-opacity:0.7;"/>
                    </g>
                    <g transform="matrix(3.28728e-18,0.0978691,-0.411835,4.59721e-17,1150.67,476.136)">
                        <rect x="4609" y="1279" width="425.136" height="8" style="fill-opacity:0.7;"/>
                    </g>
                </g>
                <g transform="matrix(1.41841,0,0,1.00635,7630.63,2925.85)">
                    <g transform="matrix(0.441029,0,0,0.750781,-56.3432,-6.00625)">
                        <rect x="1535" y="1247" width="395" height="43.419" style="fill:rgb(34,243,255);"/>
                        <clipPath id="_clip6">
                            <rect x="1535" y="1247" width="395" height="43.419"/>
                        </clipPath>
                        <g clip-path="url(#_clip6)">
                            <g transform="matrix(0.33666,0,0.585354,1,-727.814,14)">
                                <rect x="4621" y="1208" width="42" height="120" style="fill:rgb(250,255,255);"/>
                            </g>
                            <g transform="matrix(0.87966,0,0.585354,1,-3207.14,14)">
                                <rect x="4621" y="1208" width="42" height="120" style="fill:rgb(250,255,255);"/>
                            </g>
                            <g transform="matrix(0.33666,0,0.585354,1,-566.265,14)">
                                <rect x="4621" y="1208" width="42" height="120" style="fill:rgb(250,255,255);"/>
                            </g>
                            <g transform="matrix(0.87966,0,0.585354,1,-3045.59,14)">
                                <rect x="4621" y="1208" width="42" height="120" style="fill:rgb(250,255,255);"/>
                            </g>
                        </g>
                    </g>
                    <g transform="matrix(0.409766,0,0,0.750781,-1267.98,-36.0375)">
                        <rect x="4609" y="1279" width="425.136" height="8" style="fill-opacity:0.7;"/>
                    </g>
                    <g transform="matrix(0.409766,0,0,0.750781,-1267.98,2.56705)">
                        <rect x="4609" y="1279" width="425.136" height="8" style="fill-opacity:0.7;"/>
                    </g>
                    <g transform="matrix(3.28728e-18,0.0978691,-0.411835,4.59721e-17,1181.35,474.416)">
                        <rect x="4609" y="1279" width="425.136" height="8" style="fill-opacity:0.7;"/>
                    </g>
                    <g transform="matrix(3.28728e-18,0.0978691,-0.411835,4.59721e-17,1208.74,474.852)">
                        <rect x="4609" y="1279" width="425.136" height="8" style="fill-opacity:0.7;"/>
                    </g>
                    <g transform="matrix(3.28728e-18,0.0978691,-0.411835,4.59721e-17,1236.12,474.852)">
                        <rect x="4609" y="1279" width="425.136" height="8" style="fill-opacity:0.7;"/>
                    </g>
                    <g transform="matrix(3.28728e-18,0.0978691,-0.411835,4.59721e-17,1263.51,474.852)">
                        <rect x="4609" y="1279" width="425.136" height="8" style="fill-opacity:0.7;"/>
                    </g>
                    <g transform="matrix(3.28728e-18,0.0978691,-0.411835,4.59721e-17,1290.9,473.133)">
                        <rect x="4609" y="1279" width="425.136" height="8" style="fill-opacity:0.7;"/>
                    </g>
                    <g transform="matrix(3.28728e-18,0.0978691,-0.411835,4.59721e-17,1321.58,474.852)">
                        <rect x="4609" y="1279" width="425.136" height="8" style="fill-opacity:0.7;"/>
                    </g>
                    <g transform="matrix(3.28728e-18,0.0978691,-0.411835,4.59721e-17,1150.67,476.136)">
                        <rect x="4609" y="1279" width="425.136" height="8" style="fill-opacity:0.7;"/>
                    </g>
                </g>
                <g transform="matrix(1.41841,0,0,1.00635,7630.63,3023.87)">
                    <g transform="matrix(0.441029,0,0,0.750781,-56.3432,-6.00625)">
                        <rect x="1535" y="1247" width="395" height="43.419" style="fill:rgb(34,243,255);"/>
                        <clipPath id="_clip7">
                            <rect x="1535" y="1247" width="395" height="43.419"/>
                        </clipPath>
                        <g clip-path="url(#_clip7)">
                            <g transform="matrix(0.33666,0,0.585354,1,-727.814,14)">
                                <rect x="4621" y="1208" width="42" height="120" style="fill:rgb(250,255,255);"/>
                            </g>
                            <g transform="matrix(0.87966,0,0.585354,1,-3207.14,14)">
                                <rect x="4621" y="1208" width="42" height="120" style="fill:rgb(250,255,255);"/>
                            </g>
                            <g transform="matrix(0.33666,0,0.585354,1,-566.265,14)">
                                <rect x="4621" y="1208" width="42" height="120" style="fill:rgb(250,255,255);"/>
                            </g>
                            <g transform="matrix(0.87966,0,0.585354,1,-3045.59,14)">
                                <rect x="4621" y="1208" width="42" height="120" style="fill:rgb(250,255,255);"/>
                            </g>
                        </g>
                    </g>
                    <g transform="matrix(0.409766,0,0,0.750781,-1267.98,-36.0375)">
                        <rect x="4609" y="1279" width="425.136" height="8" style="fill-opacity:0.7;"/>
                    </g>
                    <g transform="matrix(0.409766,0,0,0.750781,-1267.98,2.56705)">
                        <rect x="4609" y="1279" width="425.136" height="8" style="fill-opacity:0.7;"/>
                    </g>
                    <g transform="matrix(3.28728e-18,0.0978691,-0.411835,4.59721e-17,1181.35,474.416)">
                        <rect x="4609" y="1279" width="425.136" height="8" style="fill-opacity:0.7;"/>
                    </g>
                    <g transform="matrix(3.28728e-18,0.0978691,-0.411835,4.59721e-17,1208.74,474.852)">
                        <rect x="4609" y="1279" width="425.136" height="8" style="fill-opacity:0.7;"/>
                    </g>
                    <g transform="matrix(3.28728e-18,0.0978691,-0.411835,4.59721e-17,1236.12,474.852)">
                        <rect x="4609" y="1279" width="425.136" height="8" style="fill-opacity:0.7;"/>
                    </g>
                    <g transform="matrix(3.28728e-18,0.0978691,-0.411835,4.59721e-17,1263.51,474.852)">
                        <rect x="4609" y="1279" width="425.136" height="8" style="fill-opacity:0.7;"/>
                    </g>
                    <g transform="matrix(3.28728e-18,0.0978691,-0.411835,4.59721e-17,1290.9,473.133)">
                        <rect x="4609" y="1279" width="425.136" height="8" style="fill-opacity:0.7;"/>
                    </g>
                    <g transform="matrix(3.28728e-18,0.0978691,-0.411835,4.59721e-17,1321.58,474.852)">
                        <rect x="4609" y="1279" width="425.136" height="8" style="fill-opacity:0.7;"/>
                    </g>
                    <g transform="matrix(3.28728e-18,0.0978691,-0.411835,4.59721e-17,1150.67,476.136)">
                        <rect x="4609" y="1279" width="425.136" height="8" style="fill-opacity:0.7;"/>
                    </g>
                </g>
            </g>
        </g>
    </g>
</svg>
