<?xml version="1.0" encoding="UTF-8" standalone="no"?>
<!DOCTYPE svg PUBLIC "-//W3C//DTD SVG 1.1//EN" "http://www.w3.org/Graphics/SVG/1.1/DTD/svg11.dtd">
<svg width="100%" height="100%" viewBox="0 0 423 879" version="1.1" xmlns="http://www.w3.org/2000/svg" xmlns:xlink="http://www.w3.org/1999/xlink" xml:space="preserve" xmlns:serif="http://www.serif.com/" style="fill-rule:evenodd;clip-rule:evenodd;stroke-linejoin:round;stroke-miterlimit:2;">
    <g transform="matrix(1,0,0,1,-20847.6,-3746.49)">
        <g id="Artboard9" transform="matrix(2.48726,0,0,2.48726,-24336,-15380.6)">
            <rect x="18166" y="7690" width="170" height="353" style="fill:none;"/>
            <clipPath id="_clip1">
                <rect x="18166" y="7690" width="170" height="353"/>
            </clipPath>
            <g clip-path="url(#_clip1)">
                <g transform="matrix(0.402048,0,0,0.458025,15782.8,7036.6)">
                    <rect x="5946" y="1521" width="386" height="492"/>
                    <clipPath id="_clip2">
                        <rect x="5946" y="1521" width="386" height="492"/>
                    </clipPath>
                    <g clip-path="url(#_clip2)">
                        <g transform="matrix(1,0,0,0.877788,-11410.5,-1862.05)">
                            <rect x="17209" y="3844.98" width="699" height="583.017" style="fill:rgb(49,0,79);fill-opacity:0.7;"/>
                        </g>
                    </g>
                </g>
                <g transform="matrix(0.365038,0,0,0.402048,16490.9,7230.25)">
                    <rect x="4609" y="1279" width="425.136" height="8" style="fill:rgb(186,144,255);"/>
                </g>
                <g transform="matrix(0.365038,0,0,0.402048,16490.9,7282.41)">
                    <rect x="4609" y="1279" width="425.136" height="8" style="fill:rgb(186,144,255);"/>
                </g>
                <g transform="matrix(0.365038,0,0,0.402048,16490.9,7334.33)">
                    <rect x="4609" y="1279" width="425.136" height="8" style="fill:rgb(186,144,255);"/>
                </g>
                <g transform="matrix(0.365038,0,0,0.402048,16490.9,7386.08)">
                    <rect x="4609" y="1279" width="425.136" height="8" style="fill:rgb(186,144,255);"/>
                </g>
                <g transform="matrix(0.365038,0,0,0.402048,16490.9,7437.74)">
                    <rect x="4609" y="1279" width="425.136" height="8" style="fill:rgb(186,144,255);"/>
                </g>
                <g transform="matrix(0.402048,0,0,0.402048,15782.1,7123.75)">
                    <path d="M6352.27,2196.49L6352.27,2076.49L5929.27,2076.49L5929.27,2196.49L6352.27,2196.49ZM6352.27,1947.49L5929.27,1947.49L5929.27,2052.49L6352.27,2052.49L6352.27,1947.49ZM6352.27,1818.49L5929.27,1818.49L5929.27,1923.49L6352.27,1923.49L6352.27,1818.49ZM6352.27,1689.49L5929.27,1689.49L5929.27,1794.49L6352.27,1794.49L6352.27,1689.49ZM6352.27,1560.49L5929.27,1560.49L5929.27,1665.49L6352.27,1665.49L6352.27,1560.49ZM5929.27,1432.48L5929.27,1536.49L6352.27,1536.49L6352.27,1432.48L5929.27,1432.48Z" style="fill:rgb(59,59,59);"/>
                </g>
                <g transform="matrix(0.402048,0,0,-0.0622461,16312.9,8122.23)">
                    <rect x="4609" y="1192" width="423" height="788" style="fill:rgb(28,23,37);"/>
                </g>
                <g transform="matrix(0.402048,0,0,0.0122451,16312.9,7675.44)">
                    <path d="M5032,1979.93C5032,1770.96 5029.47,1570.55 5024.97,1422.78C5020.47,1275.01 5014.37,1192 5008,1192C4933.61,1192 4707.39,1192 4633,1192C4626.63,1192 4620.53,1275.01 4616.03,1422.78C4611.53,1570.55 4609,1770.96 4609,1979.93C4609,1979.98 4609,1980 4609,1980L5032,1980C5032,1980 5032,1979.98 5032,1979.93Z"/>
                </g>
                <g transform="matrix(0.00649963,0,0,0.0622461,18167.8,7924.78)">
                    <rect x="4609" y="1192" width="423" height="788" style="fill-opacity:0.38;"/>
                </g>
                <g transform="matrix(0.00649963,0,0,0.0622461,18202.4,7924.78)">
                    <rect x="4609" y="1192" width="423" height="788" style="fill-opacity:0.38;"/>
                </g>
                <g transform="matrix(0.00649963,0,0,0.0622461,18237,7924.78)">
                    <rect x="4609" y="1192" width="423" height="788" style="fill-opacity:0.38;"/>
                </g>
                <g transform="matrix(0.00649963,0,0,0.0622461,18271.5,7924.78)">
                    <rect x="4609" y="1192" width="423" height="788" style="fill-opacity:0.38;"/>
                </g>
                <g transform="matrix(0.976236,0,0,0.535507,17560.1,7210.79)">
                    <g transform="matrix(0.441029,0,0,0.750781,-56.3432,-6.00625)">
                        <rect x="1535" y="1247" width="395" height="43.419" style="fill:rgb(34,243,255);"/>
                        <clipPath id="_clip3">
                            <rect x="1535" y="1247" width="395" height="43.419"/>
                        </clipPath>
                        <g clip-path="url(#_clip3)">
                            <g transform="matrix(0.33666,0,0.585354,1,-727.814,14)">
                                <rect x="4621" y="1208" width="42" height="120" style="fill:rgb(250,255,255);"/>
                            </g>
                            <g transform="matrix(0.87966,0,0.585354,1,-3207.14,14)">
                                <rect x="4621" y="1208" width="42" height="120" style="fill:rgb(250,255,255);"/>
                            </g>
                            <g transform="matrix(0.33666,0,0.585354,1,-566.265,14)">
                                <rect x="4621" y="1208" width="42" height="120" style="fill:rgb(250,255,255);"/>
                            </g>
                            <g transform="matrix(0.87966,0,0.585354,1,-3045.59,14)">
                                <rect x="4621" y="1208" width="42" height="120" style="fill:rgb(250,255,255);"/>
                            </g>
                        </g>
                    </g>
                    <g transform="matrix(0.409766,0,0,0.750781,-1267.98,-36.0375)">
                        <rect x="4609" y="1279" width="425.136" height="8" style="fill-opacity:0.7;"/>
                    </g>
                    <g transform="matrix(0.409766,0,0,0.750781,-1267.98,2.56705)">
                        <rect x="4609" y="1279" width="425.136" height="8" style="fill-opacity:0.7;"/>
                    </g>
                    <g transform="matrix(3.28728e-18,0.0978691,-0.411835,4.59721e-17,1181.35,474.416)">
                        <rect x="4609" y="1279" width="425.136" height="8" style="fill-opacity:0.7;"/>
                    </g>
                    <g transform="matrix(3.28728e-18,0.0978691,-0.411835,4.59721e-17,1208.74,474.852)">
                        <rect x="4609" y="1279" width="425.136" height="8" style="fill-opacity:0.7;"/>
                    </g>
                    <g transform="matrix(3.28728e-18,0.0978691,-0.411835,4.59721e-17,1236.12,474.852)">
                        <rect x="4609" y="1279" width="425.136" height="8" style="fill-opacity:0.7;"/>
                    </g>
                    <g transform="matrix(3.28728e-18,0.0978691,-0.411835,4.59721e-17,1263.51,474.852)">
                        <rect x="4609" y="1279" width="425.136" height="8" style="fill-opacity:0.7;"/>
                    </g>
                    <g transform="matrix(3.28728e-18,0.0978691,-0.411835,4.59721e-17,1290.9,473.133)">
                        <rect x="4609" y="1279" width="425.136" height="8" style="fill-opacity:0.7;"/>
                    </g>
                    <g transform="matrix(3.28728e-18,0.0978691,-0.411835,4.59721e-17,1321.58,474.852)">
                        <rect x="4609" y="1279" width="425.136" height="8" style="fill-opacity:0.7;"/>
                    </g>
                    <g transform="matrix(3.28728e-18,0.0978691,-0.411835,4.59721e-17,1150.67,476.136)">
                        <rect x="4609" y="1279" width="425.136" height="8" style="fill-opacity:0.7;"/>
                    </g>
                </g>
                <g transform="matrix(0.976236,0,0,0.535507,17560.1,7264.2)">
                    <g transform="matrix(0.441029,0,0,0.750781,-56.3432,-6.00625)">
                        <rect x="1535" y="1247" width="395" height="43.419" style="fill:rgb(34,243,255);"/>
                        <clipPath id="_clip4">
                            <rect x="1535" y="1247" width="395" height="43.419"/>
                        </clipPath>
                        <g clip-path="url(#_clip4)">
                            <g transform="matrix(0.33666,0,0.585354,1,-727.814,14)">
                                <rect x="4621" y="1208" width="42" height="120" style="fill:rgb(250,255,255);"/>
                            </g>
                            <g transform="matrix(0.87966,0,0.585354,1,-3207.14,14)">
                                <rect x="4621" y="1208" width="42" height="120" style="fill:rgb(250,255,255);"/>
                            </g>
                            <g transform="matrix(0.33666,0,0.585354,1,-566.265,14)">
                                <rect x="4621" y="1208" width="42" height="120" style="fill:rgb(250,255,255);"/>
                            </g>
                            <g transform="matrix(0.87966,0,0.585354,1,-3045.59,14)">
                                <rect x="4621" y="1208" width="42" height="120" style="fill:rgb(250,255,255);"/>
                            </g>
                        </g>
                    </g>
                    <g transform="matrix(0.409766,0,0,0.750781,-1267.98,-36.0375)">
                        <rect x="4609" y="1279" width="425.136" height="8" style="fill-opacity:0.7;"/>
                    </g>
                    <g transform="matrix(0.409766,0,0,0.750781,-1267.98,2.56705)">
                        <rect x="4609" y="1279" width="425.136" height="8" style="fill-opacity:0.7;"/>
                    </g>
                    <g transform="matrix(3.28728e-18,0.0978691,-0.411835,4.59721e-17,1181.35,474.416)">
                        <rect x="4609" y="1279" width="425.136" height="8" style="fill-opacity:0.7;"/>
                    </g>
                    <g transform="matrix(3.28728e-18,0.0978691,-0.411835,4.59721e-17,1208.74,474.852)">
                        <rect x="4609" y="1279" width="425.136" height="8" style="fill-opacity:0.7;"/>
                    </g>
                    <g transform="matrix(3.28728e-18,0.0978691,-0.411835,4.59721e-17,1236.12,474.852)">
                        <rect x="4609" y="1279" width="425.136" height="8" style="fill-opacity:0.7;"/>
                    </g>
                    <g transform="matrix(3.28728e-18,0.0978691,-0.411835,4.59721e-17,1263.51,474.852)">
                        <rect x="4609" y="1279" width="425.136" height="8" style="fill-opacity:0.7;"/>
                    </g>
                    <g transform="matrix(3.28728e-18,0.0978691,-0.411835,4.59721e-17,1290.9,473.133)">
                        <rect x="4609" y="1279" width="425.136" height="8" style="fill-opacity:0.7;"/>
                    </g>
                    <g transform="matrix(3.28728e-18,0.0978691,-0.411835,4.59721e-17,1321.58,474.852)">
                        <rect x="4609" y="1279" width="425.136" height="8" style="fill-opacity:0.7;"/>
                    </g>
                    <g transform="matrix(3.28728e-18,0.0978691,-0.411835,4.59721e-17,1150.67,476.136)">
                        <rect x="4609" y="1279" width="425.136" height="8" style="fill-opacity:0.7;"/>
                    </g>
                </g>
                <g transform="matrix(0.976236,0,0,0.535507,17560.1,7316.36)">
                    <g transform="matrix(0.441029,0,0,0.750781,-56.3432,-6.00625)">
                        <rect x="1535" y="1247" width="395" height="43.419" style="fill:rgb(34,243,255);"/>
                        <clipPath id="_clip5">
                            <rect x="1535" y="1247" width="395" height="43.419"/>
                        </clipPath>
                        <g clip-path="url(#_clip5)">
                            <g transform="matrix(0.33666,0,0.585354,1,-727.814,14)">
                                <rect x="4621" y="1208" width="42" height="120" style="fill:rgb(250,255,255);"/>
                            </g>
                            <g transform="matrix(0.87966,0,0.585354,1,-3207.14,14)">
                                <rect x="4621" y="1208" width="42" height="120" style="fill:rgb(250,255,255);"/>
                            </g>
                            <g transform="matrix(0.33666,0,0.585354,1,-566.265,14)">
                                <rect x="4621" y="1208" width="42" height="120" style="fill:rgb(250,255,255);"/>
                            </g>
                            <g transform="matrix(0.87966,0,0.585354,1,-3045.59,14)">
                                <rect x="4621" y="1208" width="42" height="120" style="fill:rgb(250,255,255);"/>
                            </g>
                        </g>
                    </g>
                    <g transform="matrix(0.409766,0,0,0.750781,-1267.98,-36.0375)">
                        <rect x="4609" y="1279" width="425.136" height="8" style="fill-opacity:0.7;"/>
                    </g>
                    <g transform="matrix(0.409766,0,0,0.750781,-1267.98,2.56705)">
                        <rect x="4609" y="1279" width="425.136" height="8" style="fill-opacity:0.7;"/>
                    </g>
                    <g transform="matrix(3.28728e-18,0.0978691,-0.411835,4.59721e-17,1181.35,474.416)">
                        <rect x="4609" y="1279" width="425.136" height="8" style="fill-opacity:0.7;"/>
                    </g>
                    <g transform="matrix(3.28728e-18,0.0978691,-0.411835,4.59721e-17,1208.74,474.852)">
                        <rect x="4609" y="1279" width="425.136" height="8" style="fill-opacity:0.7;"/>
                    </g>
                    <g transform="matrix(3.28728e-18,0.0978691,-0.411835,4.59721e-17,1236.12,474.852)">
                        <rect x="4609" y="1279" width="425.136" height="8" style="fill-opacity:0.7;"/>
                    </g>
                    <g transform="matrix(3.28728e-18,0.0978691,-0.411835,4.59721e-17,1263.51,474.852)">
                        <rect x="4609" y="1279" width="425.136" height="8" style="fill-opacity:0.7;"/>
                    </g>
                    <g transform="matrix(3.28728e-18,0.0978691,-0.411835,4.59721e-17,1290.9,473.133)">
                        <rect x="4609" y="1279" width="425.136" height="8" style="fill-opacity:0.7;"/>
                    </g>
                    <g transform="matrix(3.28728e-18,0.0978691,-0.411835,4.59721e-17,1321.58,474.852)">
                        <rect x="4609" y="1279" width="425.136" height="8" style="fill-opacity:0.7;"/>
                    </g>
                    <g transform="matrix(3.28728e-18,0.0978691,-0.411835,4.59721e-17,1150.67,476.136)">
                        <rect x="4609" y="1279" width="425.136" height="8" style="fill-opacity:0.7;"/>
                    </g>
                </g>
                <g transform="matrix(0.976236,0,0,0.535507,17560.1,7368.52)">
                    <g transform="matrix(0.441029,0,0,0.750781,-56.3432,-6.00625)">
                        <rect x="1535" y="1247" width="395" height="43.419" style="fill:rgb(34,243,255);"/>
                        <clipPath id="_clip6">
                            <rect x="1535" y="1247" width="395" height="43.419"/>
                        </clipPath>
                        <g clip-path="url(#_clip6)">
                            <g transform="matrix(0.33666,0,0.585354,1,-727.814,14)">
                                <rect x="4621" y="1208" width="42" height="120" style="fill:rgb(250,255,255);"/>
                            </g>
                            <g transform="matrix(0.87966,0,0.585354,1,-3207.14,14)">
                                <rect x="4621" y="1208" width="42" height="120" style="fill:rgb(250,255,255);"/>
                            </g>
                            <g transform="matrix(0.33666,0,0.585354,1,-566.265,14)">
                                <rect x="4621" y="1208" width="42" height="120" style="fill:rgb(250,255,255);"/>
                            </g>
                            <g transform="matrix(0.87966,0,0.585354,1,-3045.59,14)">
                                <rect x="4621" y="1208" width="42" height="120" style="fill:rgb(250,255,255);"/>
                            </g>
                        </g>
                    </g>
                    <g transform="matrix(0.409766,0,0,0.750781,-1267.98,-36.0375)">
                        <rect x="4609" y="1279" width="425.136" height="8" style="fill-opacity:0.7;"/>
                    </g>
                    <g transform="matrix(0.409766,0,0,0.750781,-1267.98,2.56705)">
                        <rect x="4609" y="1279" width="425.136" height="8" style="fill-opacity:0.7;"/>
                    </g>
                    <g transform="matrix(3.28728e-18,0.0978691,-0.411835,4.59721e-17,1181.35,474.416)">
                        <rect x="4609" y="1279" width="425.136" height="8" style="fill-opacity:0.7;"/>
                    </g>
                    <g transform="matrix(3.28728e-18,0.0978691,-0.411835,4.59721e-17,1208.74,474.852)">
                        <rect x="4609" y="1279" width="425.136" height="8" style="fill-opacity:0.7;"/>
                    </g>
                    <g transform="matrix(3.28728e-18,0.0978691,-0.411835,4.59721e-17,1236.12,474.852)">
                        <rect x="4609" y="1279" width="425.136" height="8" style="fill-opacity:0.7;"/>
                    </g>
                    <g transform="matrix(3.28728e-18,0.0978691,-0.411835,4.59721e-17,1263.51,474.852)">
                        <rect x="4609" y="1279" width="425.136" height="8" style="fill-opacity:0.7;"/>
                    </g>
                    <g transform="matrix(3.28728e-18,0.0978691,-0.411835,4.59721e-17,1290.9,473.133)">
                        <rect x="4609" y="1279" width="425.136" height="8" style="fill-opacity:0.7;"/>
                    </g>
                    <g transform="matrix(3.28728e-18,0.0978691,-0.411835,4.59721e-17,1321.58,474.852)">
                        <rect x="4609" y="1279" width="425.136" height="8" style="fill-opacity:0.7;"/>
                    </g>
                    <g transform="matrix(3.28728e-18,0.0978691,-0.411835,4.59721e-17,1150.67,476.136)">
                        <rect x="4609" y="1279" width="425.136" height="8" style="fill-opacity:0.7;"/>
                    </g>
                </g>
                <g transform="matrix(0.976236,0,0,0.535507,17560.1,7420.67)">
                    <g transform="matrix(0.441029,0,0,0.750781,-56.3432,-6.00625)">
                        <rect x="1535" y="1247" width="395" height="43.419" style="fill:rgb(34,243,255);"/>
                        <clipPath id="_clip7">
                            <rect x="1535" y="1247" width="395" height="43.419"/>
                        </clipPath>
                        <g clip-path="url(#_clip7)">
                            <g transform="matrix(0.33666,0,0.585354,1,-727.814,14)">
                                <rect x="4621" y="1208" width="42" height="120" style="fill:rgb(250,255,255);"/>
                            </g>
                            <g transform="matrix(0.87966,0,0.585354,1,-3207.14,14)">
                                <rect x="4621" y="1208" width="42" height="120" style="fill:rgb(250,255,255);"/>
                            </g>
                            <g transform="matrix(0.33666,0,0.585354,1,-566.265,14)">
                                <rect x="4621" y="1208" width="42" height="120" style="fill:rgb(250,255,255);"/>
                            </g>
                            <g transform="matrix(0.87966,0,0.585354,1,-3045.59,14)">
                                <rect x="4621" y="1208" width="42" height="120" style="fill:rgb(250,255,255);"/>
                            </g>
                        </g>
                    </g>
                    <g transform="matrix(0.409766,0,0,0.750781,-1267.98,-36.0375)">
                        <rect x="4609" y="1279" width="425.136" height="8" style="fill-opacity:0.7;"/>
                    </g>
                    <g transform="matrix(0.409766,0,0,0.750781,-1267.98,2.56705)">
                        <rect x="4609" y="1279" width="425.136" height="8" style="fill-opacity:0.7;"/>
                    </g>
                    <g transform="matrix(3.28728e-18,0.0978691,-0.411835,4.59721e-17,1181.35,474.416)">
                        <rect x="4609" y="1279" width="425.136" height="8" style="fill-opacity:0.7;"/>
                    </g>
                    <g transform="matrix(3.28728e-18,0.0978691,-0.411835,4.59721e-17,1208.74,474.852)">
                        <rect x="4609" y="1279" width="425.136" height="8" style="fill-opacity:0.7;"/>
                    </g>
                    <g transform="matrix(3.28728e-18,0.0978691,-0.411835,4.59721e-17,1236.12,474.852)">
                        <rect x="4609" y="1279" width="425.136" height="8" style="fill-opacity:0.7;"/>
                    </g>
                    <g transform="matrix(3.28728e-18,0.0978691,-0.411835,4.59721e-17,1263.51,474.852)">
                        <rect x="4609" y="1279" width="425.136" height="8" style="fill-opacity:0.7;"/>
                    </g>
                    <g transform="matrix(3.28728e-18,0.0978691,-0.411835,4.59721e-17,1290.9,473.133)">
                        <rect x="4609" y="1279" width="425.136" height="8" style="fill-opacity:0.7;"/>
                    </g>
                    <g transform="matrix(3.28728e-18,0.0978691,-0.411835,4.59721e-17,1321.58,474.852)">
                        <rect x="4609" y="1279" width="425.136" height="8" style="fill-opacity:0.7;"/>
                    </g>
                    <g transform="matrix(3.28728e-18,0.0978691,-0.411835,4.59721e-17,1150.67,476.136)">
                        <rect x="4609" y="1279" width="425.136" height="8" style="fill-opacity:0.7;"/>
                    </g>
                </g>
                <g transform="matrix(0.976236,0,0,0.535507,17560.1,7471.92)">
                    <g transform="matrix(0.441029,0,0,0.750781,-56.3432,-6.00625)">
                        <rect x="1535" y="1247" width="395" height="43.419" style="fill:rgb(34,243,255);"/>
                        <clipPath id="_clip8">
                            <rect x="1535" y="1247" width="395" height="43.419"/>
                        </clipPath>
                        <g clip-path="url(#_clip8)">
                            <g transform="matrix(0.33666,0,0.585354,1,-727.814,14)">
                                <rect x="4621" y="1208" width="42" height="120" style="fill:rgb(250,255,255);"/>
                            </g>
                            <g transform="matrix(0.87966,0,0.585354,1,-3207.14,14)">
                                <rect x="4621" y="1208" width="42" height="120" style="fill:rgb(250,255,255);"/>
                            </g>
                            <g transform="matrix(0.33666,0,0.585354,1,-566.265,14)">
                                <rect x="4621" y="1208" width="42" height="120" style="fill:rgb(250,255,255);"/>
                            </g>
                            <g transform="matrix(0.87966,0,0.585354,1,-3045.59,14)">
                                <rect x="4621" y="1208" width="42" height="120" style="fill:rgb(250,255,255);"/>
                            </g>
                        </g>
                    </g>
                    <g transform="matrix(0.409766,0,0,0.750781,-1267.98,-36.0375)">
                        <rect x="4609" y="1279" width="425.136" height="8" style="fill-opacity:0.7;"/>
                    </g>
                    <g transform="matrix(0.409766,0,0,0.750781,-1267.98,2.56705)">
                        <rect x="4609" y="1279" width="425.136" height="8" style="fill-opacity:0.7;"/>
                    </g>
                    <g transform="matrix(3.28728e-18,0.0978691,-0.411835,4.59721e-17,1181.35,474.416)">
                        <rect x="4609" y="1279" width="425.136" height="8" style="fill-opacity:0.7;"/>
                    </g>
                    <g transform="matrix(3.28728e-18,0.0978691,-0.411835,4.59721e-17,1208.74,474.852)">
                        <rect x="4609" y="1279" width="425.136" height="8" style="fill-opacity:0.7;"/>
                    </g>
                    <g transform="matrix(3.28728e-18,0.0978691,-0.411835,4.59721e-17,1236.12,474.852)">
                        <rect x="4609" y="1279" width="425.136" height="8" style="fill-opacity:0.7;"/>
                    </g>
                    <g transform="matrix(3.28728e-18,0.0978691,-0.411835,4.59721e-17,1263.51,474.852)">
                        <rect x="4609" y="1279" width="425.136" height="8" style="fill-opacity:0.7;"/>
                    </g>
                    <g transform="matrix(3.28728e-18,0.0978691,-0.411835,4.59721e-17,1290.9,473.133)">
                        <rect x="4609" y="1279" width="425.136" height="8" style="fill-opacity:0.7;"/>
                    </g>
                    <g transform="matrix(3.28728e-18,0.0978691,-0.411835,4.59721e-17,1321.58,474.852)">
                        <rect x="4609" y="1279" width="425.136" height="8" style="fill-opacity:0.7;"/>
                    </g>
                    <g transform="matrix(3.28728e-18,0.0978691,-0.411835,4.59721e-17,1150.67,476.136)">
                        <rect x="4609" y="1279" width="425.136" height="8" style="fill-opacity:0.7;"/>
                    </g>
                </g>
            </g>
        </g>
    </g>
</svg>
