<?xml version="1.0" encoding="UTF-8" standalone="no"?>
<!DOCTYPE svg PUBLIC "-//W3C//DTD SVG 1.1//EN" "http://www.w3.org/Graphics/SVG/1.1/DTD/svg11.dtd">
<svg width="100%" height="100%" viewBox="0 0 423 791" version="1.1" xmlns="http://www.w3.org/2000/svg" xmlns:xlink="http://www.w3.org/1999/xlink" xml:space="preserve" xmlns:serif="http://www.serif.com/" style="fill-rule:evenodd;clip-rule:evenodd;stroke-linejoin:round;stroke-miterlimit:2;">
    <g transform="matrix(1,0,0,1,-16301,-3746.49)">
        <g id="Artboard2" transform="matrix(1.71188,0,0,1.32355,1731.21,-925.635)">
            <rect x="8511" y="3530" width="247" height="597" style="fill:none;"/>
            <clipPath id="_clip1">
                <rect x="8511" y="3530" width="247" height="597"/>
            </clipPath>
            <g clip-path="url(#_clip1)">
                <g transform="matrix(-1.77815,0,0,1.54461,37797.6,-2781.66)">
                    <path d="M16456,4542.15L16456,4171.88C16456,4171.88 16453.7,4152.4 16444.1,4140.66C16428.6,4121.6 16410.4,4128.08 16390.8,4120.76C16368.1,4112.29 16365.4,4089.45 16365.4,4089.45C16351.5,4092.17 16345.6,4104.8 16345.6,4113.51L16345.6,4507.42L16456,4542.15Z" style="fill:rgb(226,225,195);"/>
                    <clipPath id="_clip2">
                        <path d="M16456,4542.15L16456,4171.88C16456,4171.88 16453.7,4152.4 16444.1,4140.66C16428.6,4121.6 16410.4,4128.08 16390.8,4120.76C16368.1,4112.29 16365.4,4089.45 16365.4,4089.45C16351.5,4092.17 16345.6,4104.8 16345.6,4113.51L16345.6,4507.42L16456,4542.15Z"/>
                    </clipPath>
                    <g clip-path="url(#_clip2)">
                        <g transform="matrix(-0.86474,-0.319609,-1.98157e-18,0.651522,16992.7,3872.74)">
                            <g transform="matrix(0.441029,-0.00950355,0,0.750781,-56.3432,8.58171)">
                                <rect x="1535" y="1247" width="395" height="43.419" style="fill:rgb(34,243,255);"/>
                                <clipPath id="_clip3">
                                    <rect x="1535" y="1247" width="395" height="43.419"/>
                                </clipPath>
                                <g clip-path="url(#_clip3)">
                                    <g transform="matrix(0.33666,0,0.585354,1,-727.814,14)">
                                        <rect x="4621" y="1208" width="42" height="120" style="fill:rgb(250,255,255);"/>
                                    </g>
                                    <g transform="matrix(0.87966,0,0.585354,1,-3207.14,14)">
                                        <rect x="4621" y="1208" width="42" height="120" style="fill:rgb(250,255,255);"/>
                                    </g>
                                    <g transform="matrix(0.33666,0,0.585354,1,-566.265,14)">
                                        <rect x="4621" y="1208" width="42" height="120" style="fill:rgb(250,255,255);"/>
                                    </g>
                                    <g transform="matrix(0.87966,0,0.585354,1,-3045.59,14)">
                                        <rect x="4621" y="1208" width="42" height="120" style="fill:rgb(250,255,255);"/>
                                    </g>
                                </g>
                            </g>
                            <g transform="matrix(-0.0994085,-0.0449844,7.95788e-17,-0.450144,2286.39,3429.18)">
                                <rect x="16448" y="3779" width="29" height="186" style="fill:rgb(69,87,93);"/>
                            </g>
                            <g transform="matrix(-0.0994085,-0.0449844,7.95788e-17,-0.450144,2310.69,3426.44)">
                                <rect x="16448" y="3779" width="29" height="186" style="fill:rgb(69,87,93);"/>
                            </g>
                            <g transform="matrix(-0.0994085,-0.0449844,7.95788e-17,-0.450144,2334.98,3430.45)">
                                <rect x="16448" y="3779" width="29" height="186" style="fill:rgb(69,87,93);"/>
                            </g>
                            <g transform="matrix(-0.0994085,-0.0449844,7.95788e-17,-0.450144,2359.28,3427.71)">
                                <rect x="16448" y="3779" width="29" height="186" style="fill:rgb(69,87,93);"/>
                            </g>
                        </g>
                        <g transform="matrix(-0.86474,-0.319609,-1.98157e-18,0.651522,16992.7,3936.82)">
                            <g transform="matrix(0.441029,-0.00950355,0,0.750781,-56.3432,8.58171)">
                                <rect x="1535" y="1247" width="395" height="43.419" style="fill:rgb(34,243,255);"/>
                                <clipPath id="_clip4">
                                    <rect x="1535" y="1247" width="395" height="43.419"/>
                                </clipPath>
                                <g clip-path="url(#_clip4)">
                                    <g transform="matrix(0.33666,0,0.585354,1,-727.814,14)">
                                        <rect x="4621" y="1208" width="42" height="120" style="fill:rgb(250,255,255);"/>
                                    </g>
                                    <g transform="matrix(0.87966,0,0.585354,1,-3207.14,14)">
                                        <rect x="4621" y="1208" width="42" height="120" style="fill:rgb(250,255,255);"/>
                                    </g>
                                    <g transform="matrix(0.33666,0,0.585354,1,-566.265,14)">
                                        <rect x="4621" y="1208" width="42" height="120" style="fill:rgb(250,255,255);"/>
                                    </g>
                                    <g transform="matrix(0.87966,0,0.585354,1,-3045.59,14)">
                                        <rect x="4621" y="1208" width="42" height="120" style="fill:rgb(250,255,255);"/>
                                    </g>
                                </g>
                            </g>
                            <g transform="matrix(-0.0994085,-0.0449844,7.95788e-17,-0.450144,2286.39,3429.18)">
                                <rect x="16448" y="3779" width="29" height="186" style="fill:rgb(69,87,93);"/>
                            </g>
                            <g transform="matrix(-0.0994085,-0.0449844,7.95788e-17,-0.450144,2310.69,3426.44)">
                                <rect x="16448" y="3779" width="29" height="186" style="fill:rgb(69,87,93);"/>
                            </g>
                            <g transform="matrix(-0.0994085,-0.0449844,7.95788e-17,-0.450144,2334.98,3430.45)">
                                <rect x="16448" y="3779" width="29" height="186" style="fill:rgb(69,87,93);"/>
                            </g>
                            <g transform="matrix(-0.0994085,-0.0449844,7.95788e-17,-0.450144,2359.28,3427.71)">
                                <rect x="16448" y="3779" width="29" height="186" style="fill:rgb(69,87,93);"/>
                            </g>
                        </g>
                        <g transform="matrix(-0.86474,-0.319609,-1.98157e-18,0.651522,16992.7,3997.47)">
                            <g transform="matrix(0.441029,-0.00950355,0,0.750781,-56.3432,8.58171)">
                                <rect x="1535" y="1247" width="395" height="43.419" style="fill:rgb(34,243,255);"/>
                                <clipPath id="_clip5">
                                    <rect x="1535" y="1247" width="395" height="43.419"/>
                                </clipPath>
                                <g clip-path="url(#_clip5)">
                                    <g transform="matrix(0.33666,0,0.585354,1,-727.814,14)">
                                        <rect x="4621" y="1208" width="42" height="120" style="fill:rgb(250,255,255);"/>
                                    </g>
                                    <g transform="matrix(0.87966,0,0.585354,1,-3207.14,14)">
                                        <rect x="4621" y="1208" width="42" height="120" style="fill:rgb(250,255,255);"/>
                                    </g>
                                    <g transform="matrix(0.33666,0,0.585354,1,-566.265,14)">
                                        <rect x="4621" y="1208" width="42" height="120" style="fill:rgb(250,255,255);"/>
                                    </g>
                                    <g transform="matrix(0.87966,0,0.585354,1,-3045.59,14)">
                                        <rect x="4621" y="1208" width="42" height="120" style="fill:rgb(250,255,255);"/>
                                    </g>
                                </g>
                            </g>
                            <g transform="matrix(-0.0994085,-0.0449844,7.95788e-17,-0.450144,2286.39,3429.18)">
                                <rect x="16448" y="3779" width="29" height="186" style="fill:rgb(69,87,93);"/>
                            </g>
                            <g transform="matrix(-0.0994085,-0.0449844,7.95788e-17,-0.450144,2310.69,3426.44)">
                                <rect x="16448" y="3779" width="29" height="186" style="fill:rgb(69,87,93);"/>
                            </g>
                            <g transform="matrix(-0.0994085,-0.0449844,7.95788e-17,-0.450144,2334.98,3430.45)">
                                <rect x="16448" y="3779" width="29" height="186" style="fill:rgb(69,87,93);"/>
                            </g>
                            <g transform="matrix(-0.0994085,-0.0449844,7.95788e-17,-0.450144,2359.28,3427.71)">
                                <rect x="16448" y="3779" width="29" height="186" style="fill:rgb(69,87,93);"/>
                            </g>
                        </g>
                        <g transform="matrix(-0.86474,-0.319609,-1.98157e-18,0.651522,16992.7,3801.42)">
                            <g transform="matrix(0.441029,-0.00950355,0,0.750781,-56.3432,8.58171)">
                                <rect x="1535" y="1247" width="395" height="43.419" style="fill:rgb(34,243,255);"/>
                                <clipPath id="_clip6">
                                    <rect x="1535" y="1247" width="395" height="43.419"/>
                                </clipPath>
                                <g clip-path="url(#_clip6)">
                                    <g transform="matrix(0.33666,0,0.585354,1,-727.814,14)">
                                        <rect x="4621" y="1208" width="42" height="120" style="fill:rgb(250,255,255);"/>
                                    </g>
                                    <g transform="matrix(0.87966,0,0.585354,1,-3207.14,14)">
                                        <rect x="4621" y="1208" width="42" height="120" style="fill:rgb(250,255,255);"/>
                                    </g>
                                    <g transform="matrix(0.33666,0,0.585354,1,-566.265,14)">
                                        <rect x="4621" y="1208" width="42" height="120" style="fill:rgb(250,255,255);"/>
                                    </g>
                                    <g transform="matrix(0.87966,0,0.585354,1,-3045.59,14)">
                                        <rect x="4621" y="1208" width="42" height="120" style="fill:rgb(250,255,255);"/>
                                    </g>
                                </g>
                            </g>
                            <g transform="matrix(-0.0994085,-0.0449844,7.95788e-17,-0.450144,2286.39,3429.18)">
                                <rect x="16448" y="3779" width="29" height="186" style="fill:rgb(69,87,93);"/>
                            </g>
                            <g transform="matrix(-0.0994085,-0.0449844,7.95788e-17,-0.450144,2310.69,3426.44)">
                                <rect x="16448" y="3779" width="29" height="186" style="fill:rgb(69,87,93);"/>
                            </g>
                            <g transform="matrix(-0.0994085,-0.0449844,7.95788e-17,-0.450144,2334.98,3430.45)">
                                <rect x="16448" y="3779" width="29" height="186" style="fill:rgb(69,87,93);"/>
                            </g>
                            <g transform="matrix(-0.0994085,-0.0449844,7.95788e-17,-0.450144,2359.28,3427.71)">
                                <rect x="16448" y="3779" width="29" height="186" style="fill:rgb(69,87,93);"/>
                            </g>
                        </g>
                    </g>
                </g>
                <g transform="matrix(0.680751,0,0,0.755546,-2606.37,720.082)">
                    <path d="M16693.9,4350.86C16693.9,4328.71 16678.5,4310.76 16659.5,4310.76L16656.7,4310.76L16656.7,4322.59C16656.7,4336.14 16648.6,4347.87 16637.3,4350.84C16581.9,4365.33 16423.1,4406.91 16358.7,4423.77C16342.5,4428 16331,4444.7 16331,4463.99C16331,4463.99 16331,4463.99 16331,4463.99C16331,4479.37 16338.7,4493.34 16350.7,4499.78C16359.6,4504.59 16368.2,4509.22 16368.2,4509.22C16368.2,4509.22 16368.2,4502.19 16368.2,4494.17C16368.2,4480.62 16376.3,4468.89 16387.6,4465.92C16442.5,4451.55 16599.3,4410.53 16664.7,4393.41C16681.7,4388.94 16693.9,4371.26 16693.9,4350.86L16693.9,4350.86Z" style="fill:rgb(160,184,195);"/>
                </g>
                <g transform="matrix(0.680751,0,0,0.755546,-2606.37,628.921)">
                    <path d="M16693.9,4350.86C16693.9,4328.71 16678.5,4310.76 16659.5,4310.76L16656.7,4310.76L16656.7,4322.59C16656.7,4336.14 16648.6,4347.87 16637.3,4350.84C16581.9,4365.33 16423.1,4406.91 16358.7,4423.77C16342.5,4428 16331,4444.7 16331,4463.99C16331,4463.99 16331,4463.99 16331,4463.99C16331,4479.37 16338.7,4493.34 16350.7,4499.78C16359.6,4504.59 16368.2,4509.22 16368.2,4509.22C16368.2,4509.22 16368.2,4502.19 16368.2,4494.17C16368.2,4480.62 16376.3,4468.89 16387.6,4465.92C16442.5,4451.55 16599.3,4410.53 16664.7,4393.41C16681.7,4388.94 16693.9,4371.26 16693.9,4350.86C16693.9,4350.86 16693.9,4350.86 16693.9,4350.86Z" style="fill:rgb(160,184,195);"/>
                </g>
                <g transform="matrix(0.680751,0,0,0.755546,-2606.37,532.967)">
                    <path d="M16693.9,4350.86C16693.9,4328.71 16678.5,4310.76 16659.5,4310.76L16656.7,4310.76L16656.7,4322.59C16656.7,4336.14 16648.6,4347.87 16637.3,4350.84C16581.9,4365.33 16423.1,4406.91 16358.7,4423.77C16342.5,4428 16331,4444.7 16331,4463.99C16331,4463.99 16331,4463.99 16331,4463.99C16331,4479.37 16338.7,4493.34 16350.7,4499.78C16359.6,4504.59 16368.2,4509.22 16368.2,4509.22C16368.2,4509.22 16368.2,4502.19 16368.2,4494.17C16368.2,4480.62 16376.3,4468.89 16387.6,4465.92C16442.5,4451.55 16599.3,4410.53 16664.7,4393.41C16681.7,4388.94 16693.9,4371.26 16693.9,4350.86L16693.9,4350.86Z" style="fill:rgb(160,184,195);"/>
                </g>
                <g transform="matrix(0.680751,0,0,0.755546,-2606.37,430.581)">
                    <path d="M16693.9,4350.86C16693.9,4328.71 16678.5,4310.76 16659.5,4310.76L16656.7,4310.76L16656.7,4322.59C16656.7,4336.14 16648.6,4347.87 16637.3,4350.84C16581.9,4365.33 16423.1,4406.91 16358.7,4423.77C16342.5,4428 16331,4444.7 16331,4463.99C16331,4463.99 16331,4463.99 16331,4463.99C16331,4479.37 16338.7,4493.34 16350.7,4499.78C16359.6,4504.59 16368.2,4509.22 16368.2,4509.22C16368.2,4509.22 16368.2,4502.19 16368.2,4494.17C16368.2,4480.62 16376.3,4468.89 16387.6,4465.92C16442.5,4451.55 16599.3,4410.53 16664.7,4393.41C16681.7,4388.94 16693.9,4371.26 16693.9,4350.86L16693.9,4350.86Z" style="fill:rgb(160,184,195);"/>
                </g>
                <g transform="matrix(0.680751,0,0,0.755546,-2606.37,315.13)">
                    <path d="M16693.9,4350.86C16693.9,4328.71 16678.5,4310.76 16659.5,4310.76L16656.7,4310.76C16656.7,4310.76 16656.7,4316.09 16656.7,4322.59C16656.7,4336.14 16648.6,4347.87 16637.3,4350.84C16581.9,4365.33 16423.1,4406.91 16358.7,4423.77C16342.5,4428 16331,4444.7 16331,4463.99C16331,4463.99 16331,4463.99 16331,4463.99C16331,4479.37 16338.7,4493.34 16350.7,4499.78C16359.6,4504.59 16368.2,4509.22 16368.2,4509.22L16368.2,4494.17C16368.2,4480.62 16376.3,4468.89 16387.6,4465.92C16442.5,4451.55 16599.3,4410.53 16664.7,4393.41C16681.7,4388.94 16693.9,4371.26 16693.9,4350.86L16693.9,4350.86Z" style="fill:rgb(160,184,195);"/>
                </g>
                <g transform="matrix(0.680751,0,0,0.755546,-2606.37,699.36)">
                    <path d="M16686,4595.7C16686,4529.04 16639.6,4475 16582.4,4475C16581.5,4475 16580.5,4475 16579.6,4475C16522.4,4475 16476,4529.04 16476,4595.7C16476,4624.46 16476,4647 16476,4647L16686,4647C16686,4647 16686,4624.46 16686,4595.7Z" style="fill:rgb(160,184,195);"/>
                </g>
            </g>
        </g>
    </g>
</svg>
