<?xml version="1.0" encoding="UTF-8" standalone="no"?>
<!DOCTYPE svg PUBLIC "-//W3C//DTD SVG 1.1//EN" "http://www.w3.org/Graphics/SVG/1.1/DTD/svg11.dtd">
<svg width="100%" height="100%" viewBox="0 0 423 791" version="1.1" xmlns="http://www.w3.org/2000/svg" xmlns:xlink="http://www.w3.org/1999/xlink" xml:space="preserve" xmlns:serif="http://www.serif.com/" style="fill-rule:evenodd;clip-rule:evenodd;stroke-linejoin:round;stroke-miterlimit:2;">
    <g transform="matrix(1,0,0,1,-12933.3,-3746.49)">
        <g id="Artboard2" transform="matrix(1.71188,0,0,1.32355,-1636.55,-925.635)">
            <rect x="8511" y="3530" width="247" height="597" style="fill:none;"/>
            <clipPath id="_clip1">
                <rect x="8511" y="3530" width="247" height="597"/>
            </clipPath>
            <g clip-path="url(#_clip1)">
                <g transform="matrix(0.584153,0,0,0.755546,3998.91,983.493)">
                    <g transform="matrix(1,0,0,1,3115,2178.5)">
                        <rect x="4609" y="1192" width="423" height="788" style="fill:rgb(221,209,195);"/>
                    </g>
                    <g transform="matrix(2.42816,0,0,1.33195,3115,2178.5)">
                        <g transform="matrix(0.0770408,0,0,0.100041,1578.47,793.701)">
                            <rect x="4609" y="1192" width="423" height="788" style="fill:rgb(230,254,255);"/>
                            <clipPath id="_clip2">
                                <rect x="4609" y="1192" width="423" height="788"/>
                            </clipPath>
                            <g clip-path="url(#_clip2)">
                                <g transform="matrix(1.92725,0,3.35093,7.50476,-8545.79,-7933.79)">
                                    <rect x="4621" y="1208" width="42" height="120" style="fill:rgb(105,208,220);fill-opacity:0.45;"/>
                                </g>
                                <g transform="matrix(5.03571,0,3.35093,7.50476,-22739,-7933.79)">
                                    <rect x="4621" y="1208" width="42" height="120" style="fill:rgb(105,208,220);fill-opacity:0.45;"/>
                                </g>
                            </g>
                        </g>
                        <g transform="matrix(0.0770408,0,0,0.100041,1613.88,793.701)">
                            <rect x="4609" y="1192" width="423" height="788" style="fill:rgb(230,254,255);"/>
                            <clipPath id="_clip3">
                                <rect x="4609" y="1192" width="423" height="788"/>
                            </clipPath>
                            <g clip-path="url(#_clip3)">
                                <g transform="matrix(1.92725,0,3.35093,7.50476,-8545.79,-7933.79)">
                                    <rect x="4621" y="1208" width="42" height="120" style="fill:rgb(105,208,220);fill-opacity:0.45;"/>
                                </g>
                                <g transform="matrix(5.03571,0,3.35093,7.50476,-22739,-7933.79)">
                                    <rect x="4621" y="1208" width="42" height="120" style="fill:rgb(105,208,220);fill-opacity:0.45;"/>
                                </g>
                            </g>
                        </g>
                        <g transform="matrix(0.0770408,0,0,0.100041,1684.69,793.701)">
                            <rect x="4609" y="1192" width="423" height="788" style="fill:rgb(230,254,255);"/>
                            <clipPath id="_clip4">
                                <rect x="4609" y="1192" width="423" height="788"/>
                            </clipPath>
                            <g clip-path="url(#_clip4)">
                                <g transform="matrix(1.92725,0,3.35093,7.50476,-8545.79,-7933.79)">
                                    <rect x="4621" y="1208" width="42" height="120" style="fill:rgb(105,208,220);fill-opacity:0.45;"/>
                                </g>
                                <g transform="matrix(5.03571,0,3.35093,7.50476,-22739,-7933.79)">
                                    <rect x="4621" y="1208" width="42" height="120" style="fill:rgb(105,208,220);fill-opacity:0.45;"/>
                                </g>
                            </g>
                        </g>
                        <g transform="matrix(0.416649,0,0,0.731023,-24.1445,25.3487)">
                            <rect x="4613.7" y="1283" width="418.113" height="38" style="fill:rgb(190,255,255);fill-opacity:0.63;"/>
                        </g>
                        <g transform="matrix(0.00665784,0,0,0.100041,1900.05,793.701)">
                            <rect x="4609" y="1192" width="423" height="788" style="fill:rgb(95,105,120);"/>
                        </g>
                        <g transform="matrix(0.00665784,0,0,0.100041,1935.45,793.701)">
                            <rect x="4609" y="1192" width="423" height="788" style="fill:rgb(95,105,120);"/>
                        </g>
                        <g transform="matrix(0.00665784,0,0,0.100041,1970.86,793.701)">
                            <rect x="4609" y="1192" width="423" height="788" style="fill:rgb(95,105,120);"/>
                        </g>
                        <g transform="matrix(0.00665784,0,0,0.100041,2006.26,793.701)">
                            <rect x="4609" y="1192" width="423" height="788" style="fill:rgb(95,105,120);"/>
                        </g>
                        <g transform="matrix(0.00665784,0,0,0.0323941,1882.35,927.641)">
                            <rect x="4609" y="1192" width="423" height="788" style="fill:rgb(95,105,120);"/>
                        </g>
                        <g transform="matrix(0.00665784,0,0,0.0323941,1917.75,927.641)">
                            <rect x="4609" y="1192" width="423" height="788" style="fill:rgb(95,105,120);"/>
                        </g>
                        <g transform="matrix(0.00665784,0,0,0.0323941,1953.16,927.641)">
                            <rect x="4609" y="1192" width="423" height="788" style="fill:rgb(95,105,120);"/>
                        </g>
                        <g transform="matrix(0.00665784,0,0,0.0323941,1988.56,927.641)">
                            <rect x="4609" y="1192" width="423" height="788" style="fill:rgb(95,105,120);"/>
                        </g>
                        <g transform="matrix(0.409766,0,0,0.750781,9.53624,0)">
                            <rect x="4609" y="1279" width="425.136" height="8" style="fill:rgb(95,105,120);"/>
                        </g>
                    </g>
                    <g transform="matrix(2.42816,0,0,1.33195,3115,2306.5)">
                        <g transform="matrix(0.0770408,0,0,0.100041,1684.69,793.701)">
                            <rect x="4609" y="1192" width="423" height="788" style="fill:rgb(230,254,255);"/>
                            <clipPath id="_clip5">
                                <rect x="4609" y="1192" width="423" height="788"/>
                            </clipPath>
                            <g clip-path="url(#_clip5)">
                                <g transform="matrix(1.92725,0,3.35093,7.50476,-8545.79,-7933.79)">
                                    <rect x="4621" y="1208" width="42" height="120" style="fill:rgb(105,208,220);fill-opacity:0.45;"/>
                                </g>
                                <g transform="matrix(5.03571,0,3.35093,7.50476,-22739,-7933.79)">
                                    <rect x="4621" y="1208" width="42" height="120" style="fill:rgb(105,208,220);fill-opacity:0.45;"/>
                                </g>
                            </g>
                        </g>
                        <g transform="matrix(0.0770408,0,0,0.100041,1649.28,793.701)">
                            <rect x="4609" y="1192" width="423" height="788" style="fill:rgb(230,254,255);"/>
                            <clipPath id="_clip6">
                                <rect x="4609" y="1192" width="423" height="788"/>
                            </clipPath>
                            <g clip-path="url(#_clip6)">
                                <g transform="matrix(1.92725,0,3.35093,7.50476,-8545.79,-7933.79)">
                                    <rect x="4621" y="1208" width="42" height="120" style="fill:rgb(105,208,220);fill-opacity:0.45;"/>
                                </g>
                                <g transform="matrix(5.03571,0,3.35093,7.50476,-22739,-7933.79)">
                                    <rect x="4621" y="1208" width="42" height="120" style="fill:rgb(105,208,220);fill-opacity:0.45;"/>
                                </g>
                            </g>
                        </g>
                        <g transform="matrix(0.0770408,0,0,0.100041,1578.47,793.701)">
                            <rect x="4609" y="1192" width="423" height="788" style="fill:rgb(230,254,255);"/>
                            <clipPath id="_clip7">
                                <rect x="4609" y="1192" width="423" height="788"/>
                            </clipPath>
                            <g clip-path="url(#_clip7)">
                                <g transform="matrix(1.92725,0,3.35093,7.50476,-8545.79,-7933.79)">
                                    <rect x="4621" y="1208" width="42" height="120" style="fill:rgb(105,208,220);fill-opacity:0.45;"/>
                                </g>
                                <g transform="matrix(5.03571,0,3.35093,7.50476,-22739,-7933.79)">
                                    <rect x="4621" y="1208" width="42" height="120" style="fill:rgb(105,208,220);fill-opacity:0.45;"/>
                                </g>
                            </g>
                        </g>
                        <g transform="matrix(0.416649,0,0,0.731023,-24.1445,25.3487)">
                            <rect x="4613.7" y="1283" width="418.113" height="38" style="fill:rgb(190,255,255);fill-opacity:0.63;"/>
                        </g>
                        <g transform="matrix(0.00665784,0,0,0.100041,1900.05,793.701)">
                            <rect x="4609" y="1192" width="423" height="788" style="fill:rgb(95,105,120);"/>
                        </g>
                        <g transform="matrix(-0.00665784,0,0,0.100041,2070.45,793.701)">
                            <rect x="4609" y="1192" width="423" height="788" style="fill:rgb(95,105,120);"/>
                        </g>
                        <g transform="matrix(-0.00665784,0,0,0.100041,2035.05,793.701)">
                            <rect x="4609" y="1192" width="423" height="788" style="fill:rgb(95,105,120);"/>
                        </g>
                        <g transform="matrix(-0.00665784,0,0,0.100041,1999.64,793.701)">
                            <rect x="4609" y="1192" width="423" height="788" style="fill:rgb(95,105,120);"/>
                        </g>
                        <g transform="matrix(0.00665784,0,0,0.0323941,1882.35,927.641)">
                            <rect x="4609" y="1192" width="423" height="788" style="fill:rgb(95,105,120);"/>
                        </g>
                        <g transform="matrix(0.00665784,0,0,0.0323941,1917.75,927.641)">
                            <rect x="4609" y="1192" width="423" height="788" style="fill:rgb(95,105,120);"/>
                        </g>
                        <g transform="matrix(0.00665784,0,0,0.0323941,1953.16,927.641)">
                            <rect x="4609" y="1192" width="423" height="788" style="fill:rgb(95,105,120);"/>
                        </g>
                        <g transform="matrix(0.00665784,0,0,0.0323941,1988.56,927.641)">
                            <rect x="4609" y="1192" width="423" height="788" style="fill:rgb(95,105,120);"/>
                        </g>
                        <g transform="matrix(0.409766,0,0,0.750781,9.53624,0)">
                            <rect x="4609" y="1279" width="425.136" height="8" style="fill:rgb(95,105,120);"/>
                        </g>
                    </g>
                    <g transform="matrix(1,0,0,0.0304569,3115,3462.2)">
                        <rect x="4609" y="1192" width="423" height="788" style="fill:rgb(37,37,37);"/>
                    </g>
                    <g transform="matrix(1,0,0,0.0304569,3115,3591.2)">
                        <rect x="4609" y="1192" width="423" height="788" style="fill:rgb(37,37,37);"/>
                    </g>
                    <g transform="matrix(2.42816,0,0,1.33195,3115,2435.5)">
                        <g transform="matrix(0.0770408,0,0,0.100041,1578.47,793.701)">
                            <rect x="4609" y="1192" width="423" height="788" style="fill:rgb(230,254,255);"/>
                            <clipPath id="_clip8">
                                <rect x="4609" y="1192" width="423" height="788"/>
                            </clipPath>
                            <g clip-path="url(#_clip8)">
                                <g transform="matrix(1.92725,0,3.35093,7.50476,-8545.79,-7933.79)">
                                    <rect x="4621" y="1208" width="42" height="120" style="fill:rgb(105,208,220);fill-opacity:0.45;"/>
                                </g>
                                <g transform="matrix(5.03571,0,3.35093,7.50476,-22739,-7933.79)">
                                    <rect x="4621" y="1208" width="42" height="120" style="fill:rgb(105,208,220);fill-opacity:0.45;"/>
                                </g>
                            </g>
                        </g>
                        <g transform="matrix(0.0770408,0,0,0.100041,1613.88,793.701)">
                            <rect x="4609" y="1192" width="423" height="788" style="fill:rgb(230,254,255);"/>
                            <clipPath id="_clip9">
                                <rect x="4609" y="1192" width="423" height="788"/>
                            </clipPath>
                            <g clip-path="url(#_clip9)">
                                <g transform="matrix(1.92725,0,3.35093,7.50476,-8545.79,-7933.79)">
                                    <rect x="4621" y="1208" width="42" height="120" style="fill:rgb(105,208,220);fill-opacity:0.45;"/>
                                </g>
                                <g transform="matrix(5.03571,0,3.35093,7.50476,-22739,-7933.79)">
                                    <rect x="4621" y="1208" width="42" height="120" style="fill:rgb(105,208,220);fill-opacity:0.45;"/>
                                </g>
                            </g>
                        </g>
                        <g transform="matrix(0.0770408,0,0,0.100041,1684.69,793.701)">
                            <rect x="4609" y="1192" width="423" height="788" style="fill:rgb(230,254,255);"/>
                            <clipPath id="_clip10">
                                <rect x="4609" y="1192" width="423" height="788"/>
                            </clipPath>
                            <g clip-path="url(#_clip10)">
                                <g transform="matrix(1.92725,0,3.35093,7.50476,-8545.79,-7933.79)">
                                    <rect x="4621" y="1208" width="42" height="120" style="fill:rgb(105,208,220);fill-opacity:0.45;"/>
                                </g>
                                <g transform="matrix(5.03571,0,3.35093,7.50476,-22739,-7933.79)">
                                    <rect x="4621" y="1208" width="42" height="120" style="fill:rgb(105,208,220);fill-opacity:0.45;"/>
                                </g>
                            </g>
                        </g>
                        <g transform="matrix(0.416649,0,0,0.731023,-24.1445,25.3487)">
                            <rect x="4613.7" y="1283" width="418.113" height="38" style="fill:rgb(190,255,255);fill-opacity:0.63;"/>
                        </g>
                        <g transform="matrix(0.00665784,0,0,0.100041,1900.05,793.701)">
                            <rect x="4609" y="1192" width="423" height="788" style="fill:rgb(95,105,120);"/>
                        </g>
                        <g transform="matrix(0.00665784,0,0,0.100041,1935.45,793.701)">
                            <rect x="4609" y="1192" width="423" height="788" style="fill:rgb(95,105,120);"/>
                        </g>
                        <g transform="matrix(0.00665784,0,0,0.100041,1970.86,793.701)">
                            <rect x="4609" y="1192" width="423" height="788" style="fill:rgb(95,105,120);"/>
                        </g>
                        <g transform="matrix(0.00665784,0,0,0.100041,2006.26,793.701)">
                            <rect x="4609" y="1192" width="423" height="788" style="fill:rgb(95,105,120);"/>
                        </g>
                        <g transform="matrix(0.00665784,0,0,0.0323941,1882.35,927.641)">
                            <rect x="4609" y="1192" width="423" height="788" style="fill:rgb(95,105,120);"/>
                        </g>
                        <g transform="matrix(0.00665784,0,0,0.0323941,1917.75,927.641)">
                            <rect x="4609" y="1192" width="423" height="788" style="fill:rgb(95,105,120);"/>
                        </g>
                        <g transform="matrix(0.00665784,0,0,0.0323941,1953.16,927.641)">
                            <rect x="4609" y="1192" width="423" height="788" style="fill:rgb(95,105,120);"/>
                        </g>
                        <g transform="matrix(0.00665784,0,0,0.0323941,1988.56,927.641)">
                            <rect x="4609" y="1192" width="423" height="788" style="fill:rgb(95,105,120);"/>
                        </g>
                        <g transform="matrix(0.409766,0,0,0.750781,9.53624,0)">
                            <rect x="4609" y="1279" width="425.136" height="8" style="fill:rgb(95,105,120);"/>
                        </g>
                    </g>
                    <g transform="matrix(1,0,0,0.0304569,3115,3720.2)">
                        <rect x="4609" y="1192" width="423" height="788" style="fill:rgb(37,37,37);"/>
                    </g>
                    <g transform="matrix(2.42816,0,0,1.33195,3115,2564.5)">
                        <g transform="matrix(0.0770408,0,0,0.100041,1684.69,793.701)">
                            <rect x="4609" y="1192" width="423" height="788" style="fill:rgb(230,254,255);"/>
                            <clipPath id="_clip11">
                                <rect x="4609" y="1192" width="423" height="788"/>
                            </clipPath>
                            <g clip-path="url(#_clip11)">
                                <g transform="matrix(1.92725,0,3.35093,7.50476,-8545.79,-7933.79)">
                                    <rect x="4621" y="1208" width="42" height="120" style="fill:rgb(105,208,220);fill-opacity:0.45;"/>
                                </g>
                                <g transform="matrix(5.03571,0,3.35093,7.50476,-22739,-7933.79)">
                                    <rect x="4621" y="1208" width="42" height="120" style="fill:rgb(105,208,220);fill-opacity:0.45;"/>
                                </g>
                            </g>
                        </g>
                        <g transform="matrix(0.0770408,0,0,0.100041,1649.28,793.701)">
                            <rect x="4609" y="1192" width="423" height="788" style="fill:rgb(230,254,255);"/>
                            <clipPath id="_clip12">
                                <rect x="4609" y="1192" width="423" height="788"/>
                            </clipPath>
                            <g clip-path="url(#_clip12)">
                                <g transform="matrix(1.92725,0,3.35093,7.50476,-8545.79,-7933.79)">
                                    <rect x="4621" y="1208" width="42" height="120" style="fill:rgb(105,208,220);fill-opacity:0.45;"/>
                                </g>
                                <g transform="matrix(5.03571,0,3.35093,7.50476,-22739,-7933.79)">
                                    <rect x="4621" y="1208" width="42" height="120" style="fill:rgb(105,208,220);fill-opacity:0.45;"/>
                                </g>
                            </g>
                        </g>
                        <g transform="matrix(0.0770408,0,0,0.100041,1578.47,793.701)">
                            <rect x="4609" y="1192" width="423" height="788" style="fill:rgb(230,254,255);"/>
                            <clipPath id="_clip13">
                                <rect x="4609" y="1192" width="423" height="788"/>
                            </clipPath>
                            <g clip-path="url(#_clip13)">
                                <g transform="matrix(1.92725,0,3.35093,7.50476,-8545.79,-7933.79)">
                                    <rect x="4621" y="1208" width="42" height="120" style="fill:rgb(105,208,220);fill-opacity:0.45;"/>
                                </g>
                                <g transform="matrix(5.03571,0,3.35093,7.50476,-22739,-7933.79)">
                                    <rect x="4621" y="1208" width="42" height="120" style="fill:rgb(105,208,220);fill-opacity:0.45;"/>
                                </g>
                            </g>
                        </g>
                        <g transform="matrix(0.416649,0,0,0.731023,-24.1445,25.3487)">
                            <rect x="4613.7" y="1283" width="418.113" height="38" style="fill:rgb(190,255,255);fill-opacity:0.63;"/>
                        </g>
                        <g transform="matrix(0.00665784,0,0,0.100041,1900.05,793.701)">
                            <rect x="4609" y="1192" width="423" height="788" style="fill:rgb(95,105,120);"/>
                        </g>
                        <g transform="matrix(-0.00665784,0,0,0.100041,2070.45,793.701)">
                            <rect x="4609" y="1192" width="423" height="788" style="fill:rgb(95,105,120);"/>
                        </g>
                        <g transform="matrix(-0.00665784,0,0,0.100041,2035.05,793.701)">
                            <rect x="4609" y="1192" width="423" height="788" style="fill:rgb(95,105,120);"/>
                        </g>
                        <g transform="matrix(-0.00665784,0,0,0.100041,1999.64,793.701)">
                            <rect x="4609" y="1192" width="423" height="788" style="fill:rgb(95,105,120);"/>
                        </g>
                        <g transform="matrix(0.00665784,0,0,0.0323941,1882.35,927.641)">
                            <rect x="4609" y="1192" width="423" height="788" style="fill:rgb(95,105,120);"/>
                        </g>
                        <g transform="matrix(0.00665784,0,0,0.0323941,1917.75,927.641)">
                            <rect x="4609" y="1192" width="423" height="788" style="fill:rgb(95,105,120);"/>
                        </g>
                        <g transform="matrix(0.00665784,0,0,0.0323941,1953.16,927.641)">
                            <rect x="4609" y="1192" width="423" height="788" style="fill:rgb(95,105,120);"/>
                        </g>
                        <g transform="matrix(0.00665784,0,0,0.0323941,1988.56,927.641)">
                            <rect x="4609" y="1192" width="423" height="788" style="fill:rgb(95,105,120);"/>
                        </g>
                        <g transform="matrix(0.409766,0,0,0.750781,9.53624,0)">
                            <rect x="4609" y="1279" width="425.136" height="8" style="fill:rgb(95,105,120);"/>
                        </g>
                    </g>
                    <g transform="matrix(1,0,0,0.0304569,3115,3849.2)">
                        <rect x="4609" y="1192" width="423" height="788" style="fill:rgb(37,37,37);"/>
                    </g>
                    <g transform="matrix(2.42816,0,0,1.33195,3115,2693.5)">
                        <g transform="matrix(0.0770408,0,0,0.100041,1578.47,793.701)">
                            <rect x="4609" y="1192" width="423" height="788" style="fill:rgb(230,254,255);"/>
                            <clipPath id="_clip14">
                                <rect x="4609" y="1192" width="423" height="788"/>
                            </clipPath>
                            <g clip-path="url(#_clip14)">
                                <g transform="matrix(1.92725,0,3.35093,7.50476,-8545.79,-7933.79)">
                                    <rect x="4621" y="1208" width="42" height="120" style="fill:rgb(105,208,220);fill-opacity:0.45;"/>
                                </g>
                                <g transform="matrix(5.03571,0,3.35093,7.50476,-22739,-7933.79)">
                                    <rect x="4621" y="1208" width="42" height="120" style="fill:rgb(105,208,220);fill-opacity:0.45;"/>
                                </g>
                            </g>
                        </g>
                        <g transform="matrix(0.0770408,0,0,0.100041,1613.88,793.701)">
                            <rect x="4609" y="1192" width="423" height="788" style="fill:rgb(230,254,255);"/>
                            <clipPath id="_clip15">
                                <rect x="4609" y="1192" width="423" height="788"/>
                            </clipPath>
                            <g clip-path="url(#_clip15)">
                                <g transform="matrix(1.92725,0,3.35093,7.50476,-8545.79,-7933.79)">
                                    <rect x="4621" y="1208" width="42" height="120" style="fill:rgb(105,208,220);fill-opacity:0.45;"/>
                                </g>
                                <g transform="matrix(5.03571,0,3.35093,7.50476,-22739,-7933.79)">
                                    <rect x="4621" y="1208" width="42" height="120" style="fill:rgb(105,208,220);fill-opacity:0.45;"/>
                                </g>
                            </g>
                        </g>
                        <g transform="matrix(0.0770408,0,0,0.100041,1684.69,793.701)">
                            <rect x="4609" y="1192" width="423" height="788" style="fill:rgb(230,254,255);"/>
                            <clipPath id="_clip16">
                                <rect x="4609" y="1192" width="423" height="788"/>
                            </clipPath>
                            <g clip-path="url(#_clip16)">
                                <g transform="matrix(1.92725,0,3.35093,7.50476,-8545.79,-7933.79)">
                                    <rect x="4621" y="1208" width="42" height="120" style="fill:rgb(105,208,220);fill-opacity:0.45;"/>
                                </g>
                                <g transform="matrix(5.03571,0,3.35093,7.50476,-22739,-7933.79)">
                                    <rect x="4621" y="1208" width="42" height="120" style="fill:rgb(105,208,220);fill-opacity:0.45;"/>
                                </g>
                            </g>
                        </g>
                        <g transform="matrix(0.416649,0,0,0.731023,-24.1445,25.3487)">
                            <rect x="4613.7" y="1283" width="418.113" height="38" style="fill:rgb(190,255,255);fill-opacity:0.63;"/>
                        </g>
                        <g transform="matrix(0.00665784,0,0,0.100041,1900.05,793.701)">
                            <rect x="4609" y="1192" width="423" height="788" style="fill:rgb(95,105,120);"/>
                        </g>
                        <g transform="matrix(0.00665784,0,0,0.100041,1935.45,793.701)">
                            <rect x="4609" y="1192" width="423" height="788" style="fill:rgb(95,105,120);"/>
                        </g>
                        <g transform="matrix(0.00665784,0,0,0.100041,1970.86,793.701)">
                            <rect x="4609" y="1192" width="423" height="788" style="fill:rgb(95,105,120);"/>
                        </g>
                        <g transform="matrix(0.00665784,0,0,0.100041,2006.26,793.701)">
                            <rect x="4609" y="1192" width="423" height="788" style="fill:rgb(95,105,120);"/>
                        </g>
                        <g transform="matrix(0.00665784,0,0,0.0323941,1882.35,927.641)">
                            <rect x="4609" y="1192" width="423" height="788" style="fill:rgb(95,105,120);"/>
                        </g>
                        <g transform="matrix(0.00665784,0,0,0.0323941,1917.75,927.641)">
                            <rect x="4609" y="1192" width="423" height="788" style="fill:rgb(95,105,120);"/>
                        </g>
                        <g transform="matrix(0.00665784,0,0,0.0323941,1953.16,927.641)">
                            <rect x="4609" y="1192" width="423" height="788" style="fill:rgb(95,105,120);"/>
                        </g>
                        <g transform="matrix(0.00665784,0,0,0.0323941,1988.56,927.641)">
                            <rect x="4609" y="1192" width="423" height="788" style="fill:rgb(95,105,120);"/>
                        </g>
                        <g transform="matrix(0.409766,0,0,0.750781,9.53624,-4.54747e-13)">
                            <rect x="4609" y="1279" width="425.136" height="8" style="fill:rgb(95,105,120);"/>
                        </g>
                    </g>
                    <g transform="matrix(1,0,0,0.0304569,3115,3978.2)">
                        <rect x="4609" y="1192" width="423" height="788" style="fill:rgb(37,37,37);"/>
                    </g>
                    <g transform="matrix(1,0,0,-0.154822,3115,4345.05)">
                        <rect x="4609" y="1192" width="423" height="788" style="fill:rgb(42,66,72);"/>
                    </g>
                    <g transform="matrix(1,0,0,0.0304569,3115,3334.2)">
                        <rect x="4609" y="1192" width="423" height="788" style="fill:rgb(37,37,37);"/>
                    </g>
                    <g transform="matrix(1.03171,0,0,1.125,2967.83,2000.75)">
                        <rect x="4610" y="1430" width="410" height="16" style="fill:rgb(66,196,130);"/>
                    </g>
                    <g transform="matrix(0.0161663,0,0,0.0431472,8028.02,3414.07)">
                        <rect x="4609" y="1192" width="423" height="788" style="fill:rgb(95,105,120);"/>
                    </g>
                    <g transform="matrix(1,0,0,1,3115,2220.5)">
                        <path d="M4829.07,1395L4829.07,1387.78C4829.07,1385.14 4826.93,1383 4824.28,1383C4820.83,1383 4816.17,1383 4812.72,1383C4810.07,1383 4807.93,1385.14 4807.93,1387.78C4807.93,1391.13 4807.93,1395 4807.93,1395L4795.78,1395C4793.14,1395 4791,1397.14 4791,1399.78C4791,1403.13 4791,1407 4791,1407L4834.14,1407L4834.14,1399.78C4834.14,1397.14 4831.99,1395 4829.35,1395C4829.17,1395 4829.07,1395 4829.07,1395Z" style="fill:rgb(66,139,130);"/>
                    </g>
                    <g transform="matrix(2.0664,0,0,1.20772,-2160.11,1933.73)">
                        <path d="M4829.07,1395L4829.07,1386.96C4829.07,1385.91 4828.82,1384.9 4828.39,1384.16C4827.96,1383.42 4827.37,1383 4826.75,1383C4822.69,1383 4814.31,1383 4810.25,1383C4809.63,1383 4809.04,1383.42 4808.61,1384.16C4808.18,1384.9 4807.93,1385.91 4807.93,1386.96C4807.93,1390.46 4807.93,1395 4807.93,1395L4793.03,1395C4792.49,1395 4791.98,1395.37 4791.6,1396.02C4791.21,1396.67 4791,1397.56 4791,1398.48C4791,1398.48 4791,1398.48 4791,1398.48C4791,1403.19 4793.23,1407 4795.98,1407C4804.28,1407 4820.86,1407 4829.16,1407C4831.91,1407 4834.14,1403.19 4834.14,1398.48L4834.14,1398.48C4834.14,1397.56 4833.92,1396.67 4833.54,1396.02C4833.16,1395.37 4832.64,1395 4832.1,1395C4830.69,1395 4829.07,1395 4829.07,1395Z" style="fill:rgb(66,196,130);"/>
                    </g>
                    <g transform="matrix(-3.32553,0,0,1.20772,24055.3,1933.73)">
                        <path d="M4829.07,1395L4829.07,1386.96C4829.07,1385.91 4828.92,1384.9 4828.65,1384.16C4828.38,1383.42 4828.01,1383 4827.63,1383C4823.77,1383 4813.23,1383 4809.37,1383C4808.99,1383 4808.62,1383.42 4808.35,1384.16C4808.08,1384.9 4807.93,1385.91 4807.93,1386.96C4807.93,1390.46 4807.93,1395 4807.93,1395L4792.26,1395C4791.93,1395 4791.61,1395.37 4791.37,1396.02C4791.13,1396.67 4791,1397.56 4791,1398.48C4791,1398.48 4791,1398.48 4791,1398.48C4791,1403.19 4792.39,1407 4794.09,1407L4831.04,1407C4832.75,1407 4834.14,1403.19 4834.14,1398.48L4834.14,1398.48C4834.14,1397.56 4834,1396.67 4833.77,1396.02C4833.53,1395.37 4833.21,1395 4832.87,1395C4831.37,1395 4829.07,1395 4829.07,1395Z" style="fill:rgb(66,196,130);"/>
                    </g>
                    <g transform="matrix(-1.03171,0,0,1.125,12903.2,1872.24)">
                        <rect x="4610" y="1430" width="410" height="16" style="fill:rgb(66,196,130);"/>
                    </g>
                    <g transform="matrix(-2.0664,0,0,1.20772,18029,1805.22)">
                        <path d="M4829.07,1395L4829.07,1386.96C4829.07,1385.91 4828.82,1384.9 4828.39,1384.16C4827.96,1383.42 4827.37,1383 4826.75,1383C4822.69,1383 4814.31,1383 4810.25,1383C4809.63,1383 4809.04,1383.42 4808.61,1384.16C4808.18,1384.9 4807.93,1385.91 4807.93,1386.96C4807.93,1390.46 4807.93,1395 4807.93,1395L4793.03,1395C4792.49,1395 4791.98,1395.37 4791.6,1396.02C4791.21,1396.67 4791,1397.56 4791,1398.48C4791,1398.48 4791,1398.48 4791,1398.48C4791,1403.19 4793.23,1407 4795.98,1407C4804.28,1407 4820.86,1407 4829.16,1407C4831.91,1407 4834.14,1403.19 4834.14,1398.48L4834.14,1398.48C4834.14,1397.56 4833.92,1396.67 4833.54,1396.02C4833.16,1395.37 4832.64,1395 4832.1,1395L4829.07,1395Z" style="fill:rgb(66,196,130);"/>
                    </g>
                    <g transform="matrix(3.32553,0,0,1.20772,-8080.33,1805.22)">
                        <path d="M4829.07,1395L4829.07,1386.96C4829.07,1385.91 4828.92,1384.9 4828.65,1384.16C4828.38,1383.42 4828.01,1383 4827.63,1383C4823.77,1383 4813.23,1383 4809.37,1383C4808.99,1383 4808.62,1383.42 4808.35,1384.16C4808.08,1384.9 4807.93,1385.91 4807.93,1386.96C4807.93,1390.46 4807.93,1395 4807.93,1395L4792.26,1395C4791.93,1395 4791.61,1395.37 4791.37,1396.02C4791.13,1396.67 4791,1397.56 4791,1398.48C4791,1398.48 4791,1398.48 4791,1398.48C4791,1403.19 4792.39,1407 4794.09,1407L4831.04,1407C4832.75,1407 4834.14,1403.19 4834.14,1398.48L4834.14,1398.48C4834.14,1397.56 4834,1396.67 4833.77,1396.02C4833.53,1395.37 4833.21,1395 4832.87,1395C4831.37,1395 4829.07,1395 4829.07,1395Z" style="fill:rgb(66,196,130);"/>
                    </g>
                    <g transform="matrix(-1.03171,0,0,1.125,12903.2,2258.75)">
                        <rect x="4610" y="1430" width="410" height="16" style="fill:rgb(66,196,130);"/>
                    </g>
                    <g transform="matrix(-2.0664,0,0,1.20772,18029,2191.22)">
                        <path d="M4829.07,1395L4829.07,1386.96C4829.07,1385.91 4828.82,1384.9 4828.39,1384.16C4827.96,1383.42 4827.37,1383 4826.75,1383C4822.69,1383 4814.31,1383 4810.25,1383C4809.63,1383 4809.04,1383.42 4808.61,1384.16C4808.18,1384.9 4807.93,1385.91 4807.93,1386.96C4807.93,1390.46 4807.93,1395 4807.93,1395L4793.03,1395C4792.49,1395 4791.98,1395.37 4791.6,1396.02C4791.21,1396.67 4791,1397.56 4791,1398.48C4791,1398.48 4791,1398.48 4791,1398.48C4791,1403.19 4793.23,1407 4795.98,1407C4804.28,1407 4820.86,1407 4829.16,1407C4831.91,1407 4834.14,1403.19 4834.14,1398.48L4834.14,1398.48C4834.14,1397.56 4833.92,1396.67 4833.54,1396.02C4833.16,1395.37 4832.64,1395 4832.1,1395L4829.07,1395Z" style="fill:rgb(66,196,130);"/>
                    </g>
                    <g transform="matrix(3.32553,0,0,1.20772,-8080.33,2191.73)">
                        <path d="M4829.07,1395L4829.07,1386.96C4829.07,1385.91 4828.92,1384.9 4828.65,1384.16C4828.38,1383.42 4828.01,1383 4827.63,1383C4823.77,1383 4813.23,1383 4809.37,1383C4808.99,1383 4808.62,1383.42 4808.35,1384.16C4808.08,1384.9 4807.93,1385.91 4807.93,1386.96C4807.93,1390.46 4807.93,1395 4807.93,1395L4792.26,1395C4791.93,1395 4791.61,1395.37 4791.37,1396.02C4791.13,1396.67 4791,1397.56 4791,1398.48C4791,1398.48 4791,1398.48 4791,1398.48C4791,1403.19 4792.39,1407 4794.09,1407L4831.04,1407C4832.75,1407 4834.14,1403.19 4834.14,1398.48L4834.14,1398.48C4834.14,1397.56 4834,1396.67 4833.77,1396.02C4833.53,1395.37 4833.21,1395 4832.87,1395C4831.37,1395 4829.07,1395 4829.07,1395Z" style="fill:rgb(66,196,130);"/>
                    </g>
                    <g transform="matrix(-1.03171,0,0,1.125,12903.2,2387.75)">
                        <rect x="4610" y="1430" width="410" height="16" style="fill:rgb(66,196,130);"/>
                    </g>
                    <g transform="matrix(2.0664,0,0,1.20772,-1920.9,2320.22)">
                        <path d="M4829.07,1395L4829.07,1386.96C4829.07,1385.91 4828.82,1384.9 4828.39,1384.16C4827.96,1383.42 4827.37,1383 4826.75,1383C4822.69,1383 4814.31,1383 4810.25,1383C4809.63,1383 4809.04,1383.42 4808.61,1384.16C4808.18,1384.9 4807.93,1385.91 4807.93,1386.96C4807.93,1390.46 4807.93,1395 4807.93,1395L4793.03,1395C4792.49,1395 4791.98,1395.37 4791.6,1396.02C4791.21,1396.67 4791,1397.56 4791,1398.48C4791,1398.48 4791,1398.48 4791,1398.48C4791,1403.19 4793.23,1407 4795.98,1407C4804.28,1407 4820.86,1407 4829.16,1407C4831.91,1407 4834.14,1403.19 4834.14,1398.48L4834.14,1398.48C4834.14,1397.56 4833.92,1396.67 4833.54,1396.02C4833.16,1395.37 4832.64,1395 4832.1,1395L4829.07,1395Z" style="fill:rgb(66,196,130);"/>
                    </g>
                    <g transform="matrix(1.91139,0,0,1.20772,-1371.74,2320.73)">
                        <path d="M4829.07,1395L4829.07,1386.96C4829.07,1384.77 4827.95,1383 4826.57,1383C4822.5,1383 4814.5,1383 4810.44,1383C4809.05,1383 4807.93,1384.77 4807.93,1386.96C4807.93,1390.46 4807.93,1395 4807.93,1395L4793.2,1395C4792.61,1395 4792.06,1395.37 4791.64,1396.02C4791.23,1396.67 4791,1397.56 4791,1398.48C4791,1398.48 4791,1398.48 4791,1398.48C4791,1403.19 4793.41,1407 4796.38,1407C4804.67,1407 4820.47,1407 4828.75,1407C4831.73,1407 4834.14,1403.19 4834.14,1398.48C4834.14,1398.48 4834.14,1398.48 4834.14,1398.48C4834.14,1397.56 4833.9,1396.67 4833.49,1396.02C4833.08,1395.37 4832.52,1395 4831.94,1395C4830.57,1395 4829.07,1395 4829.07,1395Z" style="fill:rgb(66,196,130);"/>
                    </g>
                    <g transform="matrix(1.03171,0,0,1.125,2967.83,2131.24)">
                        <rect x="4610" y="1430" width="410" height="16" style="fill:rgb(66,196,130);"/>
                    </g>
                    <g transform="matrix(-3.32553,0,0,1.22886,23891.3,2034.98)">
                        <path d="M4829.07,1395L4829.07,1386.89C4829.07,1384.74 4828.42,1383 4827.63,1383C4823.77,1383 4813.23,1383 4809.37,1383C4808.58,1383 4807.93,1384.74 4807.93,1386.89C4807.93,1390.4 4807.93,1395 4807.93,1395L4792.3,1395C4791.58,1395 4791,1396.58 4791,1398.53L4791,1398.53C4791,1403.21 4792.4,1407 4794.13,1407L4831.01,1407C4832.73,1407 4834.14,1403.21 4834.14,1398.53L4834.14,1398.53C4834.14,1397.59 4834,1396.69 4833.75,1396.03C4833.51,1395.37 4833.18,1395 4832.83,1395C4831.33,1395 4829.07,1395 4829.07,1395Z" style="fill:rgb(66,196,130);"/>
                    </g>
                    <g transform="matrix(-0.571429,2.93464e-17,7.58115e-17,-0.857143,8752,5363.21)">
                        <path d="M1470,2010.64C1470,2008.88 1468.95,2007.19 1467.08,2005.94C1465.22,2004.7 1462.68,2004 1460.05,2004C1459.68,2004 1459.32,2004 1458.95,2004C1456.32,2004 1453.78,2004.7 1451.92,2005.94C1450.05,2007.19 1449,2008.88 1449,2010.64C1449,2016.79 1449,2025 1449,2025L1470,2025L1470,2010.64Z" style="fill:rgb(66,139,130);"/>
                    </g>
                    <g transform="matrix(-0.571429,0,0,-1.47619,8770.57,6616.79)">
                        <path d="M1470,2007.85C1470,2005.73 1465.54,2004 1460.05,2004L1458.95,2004C1453.46,2004 1449,2005.73 1449,2007.85L1449,2025L1470,2025L1470,2007.85Z" style="fill:rgb(66,139,130);"/>
                    </g>
                    <g transform="matrix(1,0,0,1,3202.21,2351.49)">
                        <path d="M4829.07,1395L4829.07,1387.78C4829.07,1385.14 4826.93,1383 4824.28,1383C4818.17,1383 4807.64,1383 4801.52,1383C4798.88,1383 4796.74,1385.14 4796.74,1387.78C4796.74,1391.13 4796.74,1395 4796.74,1395L4774.22,1395C4771.58,1395 4769.44,1397.14 4769.44,1399.78C4769.44,1403.13 4769.44,1407 4769.44,1407L4834.14,1407L4834.14,1399.78C4834.14,1397.14 4831.99,1395 4829.35,1395C4829.17,1395 4829.07,1395 4829.07,1395Z" style="fill:rgb(66,139,130);"/>
                    </g>
                    <g transform="matrix(0.571429,2.93464e-17,-7.58115e-17,-0.857143,7189.78,5494.21)">
                        <path d="M1470,2010.64C1470,2008.88 1468.95,2007.19 1467.08,2005.94C1465.22,2004.7 1462.68,2004 1460.05,2004C1459.68,2004 1459.32,2004 1458.95,2004C1456.32,2004 1453.78,2004.7 1451.92,2005.94C1450.05,2007.19 1449,2008.88 1449,2010.64C1449,2016.79 1449,2025 1449,2025L1470,2025L1470,2010.64Z" style="fill:rgb(66,139,130);"/>
                    </g>
                    <g transform="matrix(0.571429,0,0,-1.47619,7158.95,6747.78)">
                        <path d="M1470,2007.85C1470,2005.73 1465.54,2004 1460.05,2004L1458.95,2004C1453.46,2004 1449,2005.73 1449,2007.85C1449,2013.92 1449,2025 1449,2025L1470,2025C1470,2025 1470,2013.92 1470,2007.85Z" style="fill:rgb(66,139,130);"/>
                    </g>
                    <g transform="matrix(1,0,0,1,2995,2479.01)">
                        <path d="M4829.07,1395L4829.07,1387.78C4829.07,1385.14 4826.93,1383 4824.28,1383C4818.17,1383 4807.64,1383 4801.52,1383C4798.88,1383 4796.74,1385.14 4796.74,1387.78C4796.74,1391.13 4796.74,1395 4796.74,1395L4774.22,1395C4771.58,1395 4769.44,1397.14 4769.44,1399.78C4769.44,1403.13 4769.44,1407 4769.44,1407L4834.14,1407L4834.14,1399.78C4834.14,1397.14 4831.99,1395 4829.35,1395C4829.17,1395 4829.07,1395 4829.07,1395Z" style="fill:rgb(66,139,130);"/>
                    </g>
                    <g transform="matrix(0.571429,2.93464e-17,-7.58115e-17,-0.857143,6982.57,5621.72)">
                        <path d="M1470,2010.64C1470,2008.88 1468.95,2007.19 1467.08,2005.94C1465.22,2004.7 1462.68,2004 1460.05,2004C1459.68,2004 1459.32,2004 1458.95,2004C1456.32,2004 1453.78,2004.7 1451.92,2005.94C1450.05,2007.19 1449,2008.88 1449,2010.64C1449,2016.79 1449,2025 1449,2025L1470,2025L1470,2010.64Z" style="fill:rgb(66,139,130);"/>
                    </g>
                    <g transform="matrix(0.571429,0,0,-1.47619,6951.74,6875.29)">
                        <path d="M1470,2007.85C1470,2005.73 1465.54,2004 1460.05,2004L1458.95,2004C1453.46,2004 1449,2005.73 1449,2007.85L1449,2025L1470,2025L1470,2007.85Z" style="fill:rgb(66,139,130);"/>
                    </g>
                    <g transform="matrix(0.0161663,0,0,0.176396,7728.62,3811.24)">
                        <rect x="4609" y="1192" width="423" height="788" style="fill:rgb(37,37,37);"/>
                    </g>
                    <g transform="matrix(0.0161663,0,0,0.176396,7814.59,3811.24)">
                        <rect x="4609" y="1192" width="423" height="788" style="fill:rgb(37,37,37);"/>
                    </g>
                    <g transform="matrix(0.0161663,0,0,0.176396,7900.55,3811.24)">
                        <rect x="4609" y="1192" width="423" height="788" style="fill:rgb(37,37,37);"/>
                    </g>
                    <g transform="matrix(0.0161663,0,0,0.176396,7986.52,3811.24)">
                        <rect x="4609" y="1192" width="423" height="788" style="fill:rgb(37,37,37);"/>
                    </g>
                </g>
            </g>
        </g>
    </g>
</svg>
