<?xml version="1.0" encoding="UTF-8" standalone="no"?>
<!DOCTYPE svg PUBLIC "-//W3C//DTD SVG 1.1//EN" "http://www.w3.org/Graphics/SVG/1.1/DTD/svg11.dtd">
<svg width="100%" height="100%" viewBox="0 0 60 342" version="1.1" xmlns="http://www.w3.org/2000/svg" xmlns:xlink="http://www.w3.org/1999/xlink" xml:space="preserve" xmlns:serif="http://www.serif.com/" style="fill-rule:evenodd;clip-rule:evenodd;stroke-linejoin:round;stroke-miterlimit:2;">
    <g transform="matrix(1,0,0,1,-12325.7,-3083.85)">
        <g id="Artboard5" transform="matrix(0.395811,0,0,1.40176,9010.96,-1869.25)">
            <rect x="8374.51" y="3533.49" width="149.2" height="243.507" style="fill:none;"/>
            <g transform="matrix(2.52646,0,0,0.812318,-12003.1,1048.23)">
                <rect x="8087.5" y="3090" width="15.5" height="269.098" style="fill:rgb(53,57,76);"/>
            </g>
            <g transform="matrix(2.52646,0,0,0.71339,-11983.6,1385.42)">
                <rect x="8088" y="3098.15" width="7.25" height="237.191" style="fill:rgb(82,89,116);"/>
            </g>
            <g transform="matrix(1.58974,0,0,0.571846,-4407.93,1834.13)">
                <path d="M8117,3030L8058,3030C8058,3030 8058,3075.53 8058,3096.22C8058,3101.76 8063.72,3106.25 8070.77,3106.25C8080.67,3106.25 8094.33,3106.25 8104.23,3106.25C8111.28,3106.25 8117,3101.76 8117,3096.22L8117,3030Z" style="fill:rgb(53,57,76);"/>
            </g>
            <g transform="matrix(0.966909,0,0,0.0665835,629.231,3351.55)">
                <path d="M8117,3030L8058,3030L8058,3067.37C8058,3077.35 8058.97,3086.92 8060.69,3093.98C8062.41,3101.04 8064.74,3105 8067.18,3105C8078.25,3105 8096.75,3105 8107.82,3105C8110.26,3105 8112.59,3101.04 8114.31,3093.98C8116.03,3086.92 8117,3077.35 8117,3067.37C8117,3048.67 8117,3030 8117,3030Z" style="fill:rgb(53,57,76);"/>
            </g>
            <g transform="matrix(1.58974,0,0,0.0760949,-4407.93,3330.55)">
                <path d="M8117,3082.71C8117,3053.6 8113,3030 8108.07,3030C8096.94,3030 8078.06,3030 8066.94,3030C8062,3030 8058,3053.6 8058,3082.71C8058,3095.21 8058,3105 8058,3105L8117,3105C8117,3105 8117,3095.21 8117,3082.71Z"/>
            </g>
            <g transform="matrix(1.62587,0,0,0.776241,-4700.94,1213.61)">
                <path d="M8110,3040.74C8110,3039.48 8109.16,3038.28 8107.65,3037.39C8106.15,3036.5 8104.12,3036 8101.99,3036C8094.05,3036 8081.95,3036 8074.01,3036C8071.88,3036 8069.85,3036.5 8068.35,3037.39C8066.84,3038.28 8066,3039.48 8066,3040.74C8066,3049.77 8066,3069.38 8066,3078.42C8066,3079.68 8066.84,3080.88 8068.35,3081.77C8069.85,3082.66 8071.88,3083.15 8074.01,3083.15C8081.95,3083.15 8094.05,3083.15 8101.99,3083.15C8104.12,3083.15 8106.15,3082.66 8107.65,3081.77C8109.16,3080.88 8110,3079.68 8110,3078.42C8110,3069.38 8110,3049.77 8110,3040.74Z" style="fill:rgb(255,245,196);"/>
            </g>
            <g transform="matrix(1.17713,0,0,0.629799,-1071.49,1661.66)">
                <path d="M8110,3039.18C8110,3038.34 8109.36,3037.53 8108.23,3036.93C8107.1,3036.34 8105.57,3036 8103.97,3036C8095.57,3036 8080.43,3036 8072.03,3036C8070.43,3036 8068.9,3036.34 8067.77,3036.93C8066.64,3037.53 8066,3038.34 8066,3039.18C8066,3047.78 8066,3071.38 8066,3079.97C8066,3080.82 8066.64,3081.62 8067.77,3082.22C8068.9,3082.82 8070.43,3083.15 8072.03,3083.15C8080.43,3083.15 8095.57,3083.15 8103.97,3083.15C8105.57,3083.15 8107.1,3082.82 8108.23,3082.22C8109.36,3081.62 8110,3080.82 8110,3079.97C8110,3071.38 8110,3047.78 8110,3039.18Z" style="fill:white;"/>
            </g>
            <g transform="matrix(1.13767,0,0,0.770595,-749.612,1384.3)">
                <path d="M8117,3038.72C8117,3033.91 8107.63,3030 8096.07,3030C8090.51,3030 8084.49,3030 8078.93,3030C8067.37,3030 8058,3033.91 8058,3038.72C8058,3058.49 8058,3105 8058,3105L8117,3105C8117,3105 8117,3058.49 8117,3038.72Z" style="fill:rgb(53,57,76);"/>
            </g>
            <g transform="matrix(1.13767,0,0,0.056682,-749.612,3555.2)">
                <rect x="8058" y="3030" width="59" height="75" style="fill:rgb(82,89,116);"/>
            </g>
            <g transform="matrix(1.13767,0,0,0.056682,-749.612,3601)">
                <rect x="8058" y="3030" width="59" height="75" style="fill:rgb(82,89,116);"/>
            </g>
            <g transform="matrix(0.809145,0,0,0.498265,1917.05,2221.45)">
                <rect x="8058" y="3030" width="59" height="75" style="fill:rgb(82,89,116);"/>
            </g>
            <g transform="matrix(0.966909,0,0,-0.0392843,629.231,3672.33)">
                <path d="M8117,3030L8058,3030C8058,3030 8058,3030 8058,3030C8058,3049.89 8059.14,3068.97 8061.16,3083.03C8063.19,3097.1 8065.93,3105 8068.79,3105C8079.42,3105 8095.58,3105 8106.21,3105C8109.07,3105 8111.82,3097.1 8113.84,3083.03C8115.86,3068.97 8117,3049.89 8117,3030C8117,3030 8117,3030 8117,3030Z" style="fill:rgb(82,89,116);"/>
            </g>
            <g transform="matrix(0.966909,0,0,0.0665835,629.231,3414.45)">
                <path d="M8117,3030L8058,3030L8058,3067.37C8058,3077.35 8058.97,3086.92 8060.69,3093.98C8062.41,3101.04 8064.74,3105 8067.18,3105C8078.25,3105 8096.75,3105 8107.82,3105C8110.26,3105 8112.59,3101.04 8114.31,3093.98C8116.03,3086.92 8117,3077.35 8117,3067.37C8117,3048.67 8117,3030 8117,3030Z" style="fill:rgb(53,57,76);"/>
            </g>
            <g transform="matrix(0.966909,0,0,-0.0392843,629.231,3735.23)">
                <path d="M8117,3030L8058,3030C8058,3030 8058,3030 8058,3030C8058,3049.89 8059.14,3068.97 8061.16,3083.03C8063.19,3097.1 8065.93,3105 8068.79,3105C8079.42,3105 8095.58,3105 8106.21,3105C8109.07,3105 8111.82,3097.1 8113.84,3083.03C8115.86,3068.97 8117,3049.89 8117,3030C8117,3030 8117,3030 8117,3030Z" style="fill:rgb(82,89,116);"/>
            </g>
        </g>
    </g>
</svg>
