<?xml version="1.0" encoding="UTF-8" standalone="no"?>
<!DOCTYPE svg PUBLIC "-//W3C//DTD SVG 1.1//EN" "http://www.w3.org/Graphics/SVG/1.1/DTD/svg11.dtd">
<svg width="100%" height="100%" viewBox="0 0 306 409" version="1.1" xmlns="http://www.w3.org/2000/svg" xmlns:xlink="http://www.w3.org/1999/xlink" xml:space="preserve" xmlns:serif="http://www.serif.com/" style="fill-rule:evenodd;clip-rule:evenodd;stroke-linejoin:round;stroke-miterlimit:2;">
    <g transform="matrix(1,0,0,1,-13331.5,-3425.19)">
        <g id="Artboard8" transform="matrix(1.0099,0,0,1,4731.21,1273.19)">
            <rect x="8516" y="2152" width="303" height="409" style="fill:none;"/>
            <clipPath id="_clip1">
                <rect x="8516" y="2152" width="303" height="409"/>
            </clipPath>
            <g clip-path="url(#_clip1)">
                <g transform="matrix(0.822332,0,0,0.830474,-2481.34,-663.722)">
                    <path d="M13464.4,3555.79C13464.4,3555.79 13464.4,3555.79 13464.4,3555.79C13435.5,3543.24 13402.3,3545.42 13375.3,3561.64C13374.1,3562.37 13373.4,3562.79 13373.4,3562.79L13373.4,3573C13373.4,3573 13373.4,3573 13373.4,3573C13402.4,3561.91 13434.4,3561.78 13463.5,3572.65C13464.1,3572.88 13464.4,3573 13464.4,3573L13464.4,3555.79Z"/>
                </g>
                <g transform="matrix(-0.822332,0,0,0.830474,19676.8,-663.722)">
                    <path d="M13464.4,3555.79C13464.4,3555.79 13464.4,3555.79 13464.4,3555.79C13435.5,3543.24 13402.3,3545.42 13375.3,3561.64C13374.1,3562.37 13373.4,3562.79 13373.4,3562.79L13373.4,3573C13373.4,3573 13373.4,3573 13373.4,3573C13402.4,3561.91 13434.4,3561.78 13463.5,3572.65C13464.1,3572.88 13464.4,3573 13464.4,3573L13464.4,3555.79Z"/>
                </g>
                <g transform="matrix(0.822332,0,0,0.66304,-2481.34,-70.7422)">
                    <rect x="13464.4" y="3559.05" width="16.568" height="34.953"/>
                </g>
                <g transform="matrix(0.822332,0,0,0.354164,-2481.34,1045.96)">
                    <path d="M13481,3559.05L13464.4,3559.05L13454.4,3594L13491,3594L13481,3559.05Z"/>
                </g>
                <g transform="matrix(0.822332,0,0,0.830474,-2360.77,-450.583)">
                    <path d="M13464.4,3555.79C13464.4,3555.79 13464.4,3555.79 13464.4,3555.79C13438.3,3534.3 13400.1,3536.13 13376.1,3560.03C13374.4,3561.77 13373.4,3562.79 13373.4,3562.79L13373.4,3573C13373.4,3573 13373.4,3573 13373.4,3573C13399.9,3552.32 13437,3552.11 13463.8,3572.48C13464.2,3572.82 13464.4,3573 13464.4,3573L13464.4,3555.79Z"/>
                </g>
                <g transform="matrix(-0.822332,0,0,0.830474,19797.3,-450.583)">
                    <path d="M13464.4,3555.79C13464.4,3555.79 13464.4,3555.79 13464.4,3555.79C13438.3,3534.3 13400.1,3536.13 13376.1,3560.03C13374.4,3561.77 13373.4,3562.79 13373.4,3562.79L13373.4,3573C13373.4,3573 13373.4,3573 13373.4,3573C13399.9,3552.32 13437,3552.11 13463.8,3572.48C13464.2,3572.82 13464.4,3573 13464.4,3573L13464.4,3555.79Z"/>
                </g>
                <g transform="matrix(0.822332,0,0,0.66304,-2360.77,142.398)">
                    <rect x="13464.4" y="3559.05" width="16.568" height="34.953"/>
                </g>
                <g transform="matrix(0.822332,0,0,0.354164,-2360.77,1259.1)">
                    <path d="M13481,3559.05L13464.4,3559.05L13454.4,3594L13491,3594L13481,3559.05Z"/>
                </g>
                <g transform="matrix(0.582469,0,0,-0.588236,913.681,4317.4)">
                    <path d="M13464.4,3555.79C13464.4,3555.79 13464.4,3555.79 13464.4,3555.79C13438.3,3534.3 13400.1,3536.13 13376.1,3560.03C13374.4,3561.77 13373.4,3562.79 13373.4,3562.79L13373.4,3573C13373.4,3573 13373.4,3573 13373.4,3573C13399.9,3552.32 13437,3552.11 13463.8,3572.48C13464.2,3572.82 13464.4,3573 13464.4,3573L13464.4,3555.79Z"/>
                </g>
                <g transform="matrix(-0.582469,0,0,-0.588236,16608.6,4317.4)">
                    <path d="M13464.4,3555.79C13464.4,3555.79 13464.4,3555.79 13464.4,3555.79C13438.3,3534.3 13400.1,3536.13 13376.1,3560.03C13374.4,3561.77 13373.4,3562.79 13373.4,3562.79L13373.4,3573C13373.4,3573 13373.4,3573 13373.4,3573C13399.9,3552.32 13437,3552.11 13463.8,3572.48C13464.2,3572.82 13464.4,3573 13464.4,3573L13464.4,3555.79Z"/>
                </g>
                <g transform="matrix(0.582469,0,0,0.46964,913.681,543.712)">
                    <rect x="13464.4" y="3559.05" width="16.568" height="34.953"/>
                </g>
                <g transform="matrix(0.582469,0,0,0.250859,913.681,1334.69)">
                    <path d="M13481,3559.05L13464.4,3559.05L13454.4,3594L13491,3594L13481,3559.05Z"/>
                </g>
            </g>
        </g>
    </g>
</svg>
