<?xml version="1.0" encoding="UTF-8" standalone="no"?>
<!DOCTYPE svg PUBLIC "-//W3C//DTD SVG 1.1//EN" "http://www.w3.org/Graphics/SVG/1.1/DTD/svg11.dtd">
<svg width="100%" height="100%" viewBox="0 0 306 409" version="1.1" xmlns="http://www.w3.org/2000/svg" xmlns:xlink="http://www.w3.org/1999/xlink" xml:space="preserve" xmlns:serif="http://www.serif.com/" style="fill-rule:evenodd;clip-rule:evenodd;stroke-linecap:round;stroke-miterlimit:1.5;">
    <g transform="matrix(1,0,0,1,-13333.7,-3002.44)">
        <g id="Artboard8" transform="matrix(1.0099,0,0,1,4733.37,850.441)">
            <rect x="8516" y="2152" width="303" height="409" style="fill:none;"/>
            <g transform="matrix(3.37286,0,0,3.40625,-36613.2,-8528.73)">
                <circle cx="13427" cy="3168" r="16" style="fill:rgb(255,0,0);fill-opacity:0.31;"/>
            </g>
            <g transform="matrix(0.835478,0,0,0.84375,-2543.82,-410.727)">
                <circle cx="13427" cy="3168" r="16" style="fill:rgb(255,173,42);"/>
            </g>
            <g transform="matrix(0.990196,0,0,1,-4619.97,-905.642)">
                <circle cx="13425.7" cy="3167.92" r="6.227" style="fill:rgb(233,255,58);"/>
            </g>
            <g transform="matrix(0.586095,0,0,0.591897,789.962,390.807)">
                <path d="M13421.2,3139C13421.2,3139 13386.2,3113.59 13346,3115C13305.8,3116.41 13298.8,3132 13298.8,3132" style="fill:none;stroke:rgb(255,0,0);stroke-width:10.56px;"/>
            </g>
            <g transform="matrix(-0.551962,-0.199041,-0.19709,0.557427,16720.3,3176.91)">
                <path d="M13421.2,3139C13421.2,3139 13386.2,3113.59 13346,3115C13305.8,3116.41 13298.8,3132 13298.8,3132" style="fill:none;stroke:rgb(255,0,0);stroke-width:10.56px;"/>
            </g>
            <g transform="matrix(-0.239165,-0.0862442,-0.19709,0.557427,12520.7,1639.79)">
                <path d="M13425.8,3156.94C13425.8,3156.94 13465.1,3077.82 13401.1,3067.92C13363.1,3062.04 13298.8,3132 13298.8,3132" style="fill:none;stroke:rgb(255,0,0);stroke-width:13.7px;"/>
            </g>
            <g transform="matrix(0.27606,-0.0744765,0.204538,0.773244,4317.04,798.305)">
                <path d="M13425.8,3156.94C13425.8,3156.94 13465.1,3077.82 13401.1,3067.92C13363.1,3062.04 13340.8,3099.42 13340.8,3099.42" style="fill:none;stroke:rgb(255,0,0);stroke-width:10.39px;"/>
            </g>
            <g transform="matrix(0.990196,0,0,1,-4683.34,-894.642)">
                <path d="M13469,3174.14C13469,3174.14 13438.8,3184.61 13429,3219.56" style="fill:none;stroke:rgb(255,0,0);stroke-width:6.25px;"/>
            </g>
            <g transform="matrix(0.990196,0,0,1,-4683.34,-894.642)">
                <path d="M13501,3174.14C13501,3174.14 13532.3,3174.14 13550.7,3219.56" style="fill:none;stroke:rgb(255,0,0);stroke-width:6.25px;"/>
            </g>
            <g transform="matrix(0.990196,0,0,1,-4683.34,-894.642)">
                <path d="M13391,3153C13391,3153 13387,3154.28 13387,3174.14" style="fill:none;stroke:rgb(255,113,9);stroke-width:6.25px;"/>
            </g>
            <g transform="matrix(0.990196,0,0,1,-4645.7,-817.642)">
                <path d="M13388,3154C13388,3154 13387,3154.28 13387,3174.14" style="fill:none;stroke:rgb(255,113,9);stroke-width:6.25px;"/>
            </g>
            <g transform="matrix(0.990196,0,0,1,-4683.34,-894.642)">
                <path d="M13487.8,3184C13487.8,3184 13483.5,3207.38 13487.8,3234.19" style="fill:none;stroke:rgb(255,0,0);stroke-width:6.25px;"/>
            </g>
            <g transform="matrix(0.990196,0,0,1,-4675.02,-887.469)">
                <path d="M13442,3100.79C13442,3100.79 13442.7,3130 13447,3140" style="fill:none;stroke:rgb(255,113,9);stroke-width:6.25px;"/>
            </g>
            <g transform="matrix(0.990196,0,0,1,-4683.34,-894.642)">
                <path d="M13557.4,3230C13557.4,3230 13564,3243 13566,3251" style="fill:none;stroke:rgb(255,113,9);stroke-width:6.25px;"/>
            </g>
            <g transform="matrix(-2.23135,0,0,2.25344,38693,-4702.54)">
                <circle cx="13427" cy="3168" r="16" style="fill:rgb(194,74,255);fill-opacity:0.31;"/>
            </g>
            <g transform="matrix(-0.552719,0,0,0.558192,16154,668.011)">
                <circle cx="13427" cy="3168" r="16" style="fill:rgb(255,157,244);"/>
            </g>
            <g transform="matrix(-0.655075,0,0,0.661561,17527.5,340.594)">
                <circle cx="13425.7" cy="3167.92" r="6.227" style="fill:white;"/>
            </g>
            <g transform="matrix(-0.387737,0,0,0.391576,13948.5,1198.27)">
                <path d="M13421.2,3139C13421.2,3139 13386.2,3113.59 13346,3115C13305.8,3116.41 13298.8,3132 13298.8,3132" style="fill:none;stroke:rgb(198,0,249);stroke-width:15.96px;"/>
            </g>
            <g transform="matrix(0.365157,-0.131678,0.130387,0.368772,3409.64,3041.45)">
                <path d="M13421.2,3139C13421.2,3139 13386.2,3113.59 13346,3115C13305.8,3116.41 13298.8,3132 13298.8,3132" style="fill:none;stroke:rgb(198,0,249);stroke-width:15.96px;"/>
            </g>
            <g transform="matrix(0.158222,-0.0570558,0.130387,0.368772,6187.93,2024.55)">
                <path d="M13425.8,3156.94C13425.8,3156.94 13465.1,3077.82 13401.1,3067.92C13363.1,3062.04 13298.8,3132 13298.8,3132" style="fill:none;stroke:rgb(198,0,249);stroke-width:20.71px;"/>
            </g>
            <g transform="matrix(-0.182631,-0.0492707,-0.135314,0.511548,11615.1,1467.86)">
                <path d="M13425.8,3156.94C13425.8,3156.94 13465.1,3077.82 13401.1,3067.92C13363.1,3062.04 13340.8,3099.42 13340.8,3099.42" style="fill:none;stroke:rgb(198,0,249);stroke-width:15.7px;"/>
            </g>
            <g transform="matrix(-0.655075,0,0,0.661561,17569.4,347.871)">
                <path d="M13469,3174.14C13469,3174.14 13438.8,3184.61 13429,3219.56" style="fill:none;stroke:rgb(198,0,249);stroke-width:9.45px;"/>
            </g>
            <g transform="matrix(-0.655075,0,0,0.661561,17569.4,347.871)">
                <path d="M13501,3174.14C13501,3174.14 13532.3,3174.14 13550.7,3219.56" style="fill:none;stroke:rgb(198,0,249);stroke-width:9.45px;"/>
            </g>
            <g transform="matrix(-0.655075,0,0,0.661561,17569.4,347.871)">
                <path d="M13391,3153C13391,3153 13387,3154.28 13387,3174.14" style="fill:none;stroke:rgb(205,150,255);stroke-width:9.45px;"/>
            </g>
            <g transform="matrix(-0.655075,0,0,0.661561,17544.5,398.811)">
                <path d="M13388,3154C13388,3154 13387,3154.28 13387,3174.14" style="fill:none;stroke:rgb(205,150,255);stroke-width:9.45px;"/>
            </g>
            <g transform="matrix(-0.655075,0,0,0.661561,17569.4,347.871)">
                <path d="M13487.8,3184C13487.8,3184 13483.5,3207.38 13487.8,3234.19" style="fill:none;stroke:rgb(198,0,249);stroke-width:9.45px;"/>
            </g>
            <g transform="matrix(-0.655075,0,0,0.661561,17563.9,352.616)">
                <path d="M13442,3100.79C13442,3100.79 13442.7,3130 13447,3140" style="fill:none;stroke:rgb(205,150,255);stroke-width:9.45px;"/>
            </g>
            <g transform="matrix(-0.655075,0,0,0.661561,17569.4,347.871)">
                <path d="M13557.4,3230C13557.4,3230 13564,3243 13566,3251" style="fill:none;stroke:rgb(205,150,255);stroke-width:9.45px;"/>
            </g>
            <g transform="matrix(2.09089,0.786886,-0.779171,2.11159,-17004.2,-14816.1)">
                <circle cx="13427" cy="3168" r="16" style="fill:rgb(218,255,35);fill-opacity:0.31;"/>
            </g>
            <g transform="matrix(0.517926,0.194917,-0.193006,0.523054,2259.02,-1835.27)">
                <circle cx="13427" cy="3168" r="16" style="fill:rgb(222,255,10);"/>
            </g>
            <g transform="matrix(0.613838,0.231012,-0.228748,0.619916,1085.19,-2626.45)">
                <circle cx="13425.7" cy="3167.92" r="6.227" style="fill:white;"/>
            </g>
            <g transform="matrix(0.363329,0.136736,-0.135395,0.366927,4138.46,-558.247)">
                <path d="M13421.2,3139C13421.2,3139 13386.2,3113.59 13346,3115C13305.8,3116.41 13298.8,3132 13298.8,3132" style="fill:none;stroke:rgb(147,196,0);stroke-width:15.96px;"/>
            </g>
            <g transform="matrix(-0.29664,-0.252161,-0.249689,0.299577,13380.5,4883.07)">
                <path d="M13421.2,3139C13421.2,3139 13386.2,3113.59 13346,3115C13305.8,3116.41 13298.8,3132 13298.8,3132" style="fill:none;stroke:rgb(147,196,0);stroke-width:15.96px;"/>
            </g>
            <g transform="matrix(-0.128534,-0.109261,-0.249689,0.299577,11128.7,2950.42)">
                <path d="M13425.8,3156.94C13425.8,3156.94 13465.1,3077.82 13401.1,3067.92C13363.1,3062.04 13255.5,3118.58 13255.5,3118.58" style="fill:none;stroke:rgb(147,196,0);stroke-width:20.71px;"/>
            </g>
            <g transform="matrix(0.188171,0.0182356,-0.0500814,0.527065,6235.61,514.861)">
                <path d="M13425.8,3156.94C13425.8,3156.94 13387.5,3086.2 13323.4,3076.3C13285.4,3070.42 13263.1,3107.8 13263.1,3107.8" style="fill:none;stroke:rgb(147,196,0);stroke-width:15.7px;"/>
            </g>
            <g transform="matrix(0.613838,0.231012,-0.228748,0.619916,1046.38,-2636.18)">
                <path d="M13469,3174.14C13469,3174.14 13438.8,3184.61 13429,3219.56" style="fill:none;stroke:rgb(147,196,0);stroke-width:9.45px;"/>
            </g>
            <g transform="matrix(0.613838,0.231012,-0.228748,0.619916,1049.2,-2636.41)">
                <path d="M13501,3174.14C13501,3174.14 13532.3,3174.14 13550.7,3219.56" style="fill:none;stroke:rgb(147,196,0);stroke-width:9.45px;"/>
            </g>
            <g transform="matrix(0.613838,0.231012,-0.228748,0.619916,1039.52,-2632.04)">
                <path d="M13391,3153C13391,3153 13387,3154.28 13387,3174.14" style="fill:none;stroke:rgb(190,255,142);stroke-width:9.45px;"/>
            </g>
            <g transform="matrix(0.613838,0.231012,-0.228748,0.619916,1052.1,-2579.66)">
                <path d="M13388,3154C13388,3154 13387,3154.28 13387,3174.14" style="fill:none;stroke:rgb(190,255,142);stroke-width:9.45px;"/>
            </g>
            <g transform="matrix(0.613838,0.231012,-0.228748,0.619916,1043.39,-2634.41)">
                <path d="M13487.8,3184C13487.8,3184 13483.5,3207.38 13487.8,3234.19" style="fill:none;stroke:rgb(147,196,0);stroke-width:9.45px;"/>
            </g>
            <g transform="matrix(0.613838,0.231012,-0.228748,0.619916,1031.47,-2624.53)">
                <path d="M13442,3100.79C13442,3100.79 13445.1,3118.65 13456.8,3140.39" style="fill:none;stroke:rgb(190,255,142);stroke-width:9.45px;"/>
            </g>
            <g transform="matrix(0.613838,0.231012,-0.228748,0.619916,1049.2,-2636.41)">
                <path d="M13557.4,3230C13557.4,3230 13564,3243 13566,3251" style="fill:none;stroke:rgb(190,255,142);stroke-width:9.45px;"/>
            </g>
        </g>
    </g>
</svg>
